<svg width="842" height="252" viewBox="0 0 842 252" fill="none" xmlns="http://www.w3.org/2000/svg">
<path d="M24.1818 95V96H24.9164L25.1361 95.299L24.1818 95ZM0 95L-0.94752 94.6803L-1.39279 96H0V95ZM31.4091 1.90909V0.909088H30.6911L30.4616 1.58939L31.4091 1.90909ZM61.3636 1.90909L62.3112 1.58939L62.0816 0.909088H61.3636V1.90909ZM92.7727 95V96H94.1655L93.7202 94.6803L92.7727 95ZM68.5909 95L67.6368 95.2996L67.8568 96H68.5909V95ZM46.7273 25.3636L47.6814 25.0641L47.4614 24.3636H46.7273V25.3636ZM46 25.3636V24.3636H45.2654L45.0457 25.0646L46 25.3636ZM20.9545 58.3636V57.3636H19.9545V58.3636H20.9545ZM71.5 58.3636H72.5V57.3636H71.5V58.3636ZM71.5 75.4545V76.4545H72.5V75.4545H71.5ZM20.9545 75.4545H19.9545V76.4545H20.9545V75.4545ZM24.1818 94H0V96H24.1818V94ZM0.94752 95.3197L32.3566 2.22878L30.4616 1.58939L-0.94752 94.6803L0.94752 95.3197ZM31.4091 2.90909H61.3636V0.909088H31.4091V2.90909ZM60.4161 2.22878L91.8252 95.3197L93.7202 94.6803L62.3112 1.58939L60.4161 2.22878ZM92.7727 94H68.5909V96H92.7727V94ZM69.545 94.7004L47.6814 25.0641L45.7732 25.6632L67.6368 95.2996L69.545 94.7004ZM46.7273 24.3636H46V26.3636H46.7273V24.3636ZM45.0457 25.0646L23.2276 94.701L25.1361 95.299L46.9543 25.6626L45.0457 25.0646ZM20.9545 59.3636H71.5V57.3636H20.9545V59.3636ZM70.5 58.3636V75.4545H72.5V58.3636H70.5ZM71.5 74.4545H20.9545V76.4545H71.5V74.4545ZM21.9545 75.4545V58.3636H19.9545V75.4545H21.9545ZM125.568 1.90909L126.434 1.40863L126.145 0.909088H125.568V1.90909ZM142.568 31.3182L141.702 31.8186L141.991 32.3182H142.568V31.3182ZM143.295 31.3182V32.3182H143.869L144.159 31.8226L143.295 31.3182ZM160.477 1.90909V0.909088H159.903L159.614 1.40464L160.477 1.90909ZM185.659 1.90909L186.515 2.4258L187.431 0.909088H185.659V1.90909ZM157.568 48.4545L156.712 47.9378L156.395 48.4629L156.719 48.9834L157.568 48.4545ZM186.568 95V96H188.369L187.417 94.4712L186.568 95ZM160.75 95L159.888 95.5063L160.178 96H160.75V95ZM143.295 65.2727L144.158 64.7664L143.868 64.2727H143.295V65.2727ZM142.568 65.2727V64.2727H141.996L141.706 64.7664L142.568 65.2727ZM125.114 95V96H125.686L125.976 95.5063L125.114 95ZM99.4773 95L98.6274 94.473L97.6805 96H99.4773V95ZM128.341 48.4545L129.191 48.9816L129.513 48.4612L129.197 47.9372L128.341 48.4545ZM100.205 1.90909V0.909088H98.4315L99.3488 2.42641L100.205 1.90909ZM124.702 2.40954L141.702 31.8186L143.434 30.8177L126.434 1.40863L124.702 2.40954ZM142.568 32.3182H143.295V30.3182H142.568V32.3182ZM144.159 31.8226L161.341 2.41354L159.614 1.40464L142.432 30.8137L144.159 31.8226ZM160.477 2.90909H185.659V0.909088H160.477V2.90909ZM184.803 1.39238L156.712 47.9378L158.424 48.9713L186.515 2.4258L184.803 1.39238ZM156.719 48.9834L185.719 95.5288L187.417 94.4712L158.417 47.9257L156.719 48.9834ZM186.568 94H160.75V96H186.568V94ZM161.612 94.4937L144.158 64.7664L142.433 65.7791L159.888 95.5063L161.612 94.4937ZM143.295 64.2727H142.568V66.2727H143.295V64.2727ZM141.706 64.7664L124.251 94.4937L125.976 95.5063L143.431 65.7791L141.706 64.7664ZM125.114 94H99.4773V96H125.114V94ZM100.327 95.527L129.191 48.9816L127.491 47.9275L98.6274 94.473L100.327 95.527ZM129.197 47.9372L101.06 1.39177L99.3488 2.42641L127.485 48.9719L129.197 47.9372ZM100.205 2.90909H125.568V0.909088H100.205V2.90909ZM219.795 1.90909H220.795V0.909088H219.795V1.90909ZM219.795 95V96H220.795V95H219.795ZM197.295 95H196.295V96H197.295V95ZM197.295 1.90909V0.909088H196.295V1.90909H197.295ZM218.795 1.90909V95H220.795V1.90909H218.795ZM219.795 94H197.295V96H219.795V94ZM198.295 95V1.90909H196.295V95H198.295ZM197.295 2.90909H219.795V0.909088H197.295V2.90909ZM315.875 74.5L315 74.0159L315 74.0159L315.875 74.5ZM299.875 90.7273L299.393 89.8509L299.392 89.8518L299.875 90.7273ZM254.739 90.6818L255.225 89.808L255.225 89.808L254.739 90.6818ZM238.784 74.4545L237.907 74.9358L237.91 74.9402L238.784 74.4545ZM238.784 22.4091L237.909 21.925L237.907 21.9279L238.784 22.4091ZM254.739 6.18182L255.222 7.05728L255.222 7.05728L254.739 6.18182ZM299.875 6.18182L299.392 7.05728L299.393 7.0582L299.875 6.18182ZM315.875 22.4091L315 22.8931L315 22.8931L315.875 22.4091ZM296.193 33.0909L295.267 33.4669L295.269 33.4727L296.193 33.0909ZM288.83 23.5909L288.269 24.4193L288.273 24.4217L288.83 23.5909ZM265.83 23.5909L266.386 24.4217L266.386 24.4217L265.83 23.5909ZM258.42 33.0909L257.496 32.7091L257.494 32.7149L258.42 33.0909ZM258.42 63.8182L257.494 64.1942L257.496 64.1999L258.42 63.8182ZM265.83 73.3182L266.386 72.4873L266.386 72.4873L265.83 73.3182ZM288.83 73.3182L288.273 72.4873L288.269 72.4898L288.83 73.3182ZM296.193 63.8182L295.269 63.4364L295.267 63.4422L296.193 63.8182ZM320.784 48.4545C320.784 58.5706 318.839 67.0765 315 74.0159L316.75 74.9841C320.79 67.6811 322.784 58.8233 322.784 48.4545H320.784ZM315 74.0159C311.146 80.9823 305.945 86.2505 299.393 89.8509L300.357 91.6037C307.26 87.8101 312.725 82.2602 316.75 74.9841L315 74.0159ZM299.392 89.8518C292.856 93.4599 285.509 95.2727 277.33 95.2727V97.2727C285.816 97.2727 293.5 95.3886 300.358 91.6027L299.392 89.8518ZM277.33 95.2727C269.12 95.2727 261.76 93.4451 255.225 89.808L254.252 91.5556C261.111 95.3731 268.812 97.2727 277.33 97.2727V95.2727ZM255.225 89.808C248.701 86.1768 243.513 80.9067 239.658 73.9689L237.91 74.9402C241.934 82.1842 247.383 87.7323 254.252 91.5556L255.225 89.808ZM239.661 73.9733C235.851 67.0328 233.92 58.5409 233.92 48.4545H231.92C231.92 58.7924 233.899 67.6338 237.907 74.9357L239.661 73.9733ZM233.92 48.4545C233.92 38.3373 235.851 29.8304 239.661 22.8903L237.907 21.9279C233.899 29.2302 231.92 38.0869 231.92 48.4545H233.92ZM239.659 22.8931C243.513 15.9257 248.7 10.6574 255.222 7.05728L254.255 5.30635C247.383 9.1002 241.934 14.6501 237.909 21.925L239.659 22.8931ZM255.222 7.05728C261.757 3.44947 269.119 1.63636 277.33 1.63636V-0.36364C268.813 -0.36364 261.114 1.52022 254.255 5.30635L255.222 7.05728ZM277.33 1.63636C285.509 1.63636 292.856 3.44918 299.392 7.05728L300.358 5.30635C293.5 1.52051 285.816 -0.36364 277.33 -0.36364V1.63636ZM299.393 7.0582C305.945 10.6586 311.146 15.9268 315 22.8931L316.75 21.925C312.725 14.6489 307.26 9.09896 300.357 5.30543L299.393 7.0582ZM315 22.8931C318.839 29.8326 320.784 38.3384 320.784 48.4545H322.784C322.784 38.0858 320.79 29.228 316.75 21.925L315 22.8931ZM299.784 48.4545C299.784 42.3049 298.909 37.0456 297.117 32.7091L295.269 33.4727C296.932 37.4999 297.784 42.483 297.784 48.4545H299.784ZM297.12 32.7149C295.361 28.3797 292.791 25.0405 289.386 22.7601L288.273 24.4217C291.293 26.4444 293.632 29.4385 295.267 33.4669L297.12 32.7149ZM289.39 22.7625C286.016 20.4814 281.98 19.3636 277.33 19.3636V21.3636C281.649 21.3636 285.279 22.3974 288.269 24.4193L289.39 22.7625ZM277.33 19.3636C272.708 19.3636 268.674 20.4822 265.273 22.7601L266.386 24.4217C269.41 22.3966 273.042 21.3636 277.33 21.3636V19.3636ZM265.273 22.7601C261.87 25.0393 259.286 28.3764 257.496 32.7091L259.345 33.4727C261.01 29.4418 263.365 26.4455 266.386 24.4217L265.273 22.7601ZM257.494 32.7149C255.735 37.0495 254.875 42.3067 254.875 48.4545H256.875C256.875 42.4812 257.712 37.496 259.347 33.4669L257.494 32.7149ZM254.875 48.4545C254.875 54.6024 255.735 59.8596 257.494 64.1942L259.347 63.4422C257.712 59.4131 256.875 54.4279 256.875 48.4545H254.875ZM257.496 64.1999C259.286 68.5327 261.87 71.8697 265.273 74.149L266.386 72.4873C263.365 70.4636 261.01 67.4673 259.345 63.4364L257.496 64.1999ZM265.273 74.149C268.674 76.4269 272.708 77.5455 277.33 77.5455V75.5455C273.042 75.5455 269.41 74.5125 266.386 72.4873L265.273 74.149ZM277.33 77.5455C281.98 77.5455 286.016 76.4277 289.39 74.1466L288.269 72.4898C285.279 74.5117 281.649 75.5455 277.33 75.5455V77.5455ZM289.386 74.149C292.791 71.8686 295.361 68.5294 297.12 64.1942L295.267 63.4422C293.632 67.4706 291.293 70.4647 288.273 72.4873L289.386 74.149ZM297.117 64.1999C298.909 59.8635 299.784 54.6042 299.784 48.4545H297.784C297.784 54.4261 296.932 59.4092 295.269 63.4364L297.117 64.1999ZM385.239 29.8182L384.243 29.9087L384.325 30.8182H385.239V29.8182ZM381.193 22.0455L380.571 22.8284L380.582 22.837L381.193 22.0455ZM363.784 20.3636L363.42 19.4322L363.42 19.4322L363.784 20.3636ZM359.42 23.5L360.223 24.097L360.229 24.0882L359.42 23.5ZM357.92 28L358.92 28.0434L358.92 28.0307L358.92 28.0179L357.92 28ZM358.739 31.6818L357.87 32.178L357.876 32.1872L357.881 32.1963L358.739 31.6818ZM361.466 34.5L360.897 35.3222L360.909 35.3305L360.921 35.3384L361.466 34.5ZM365.83 36.5909L366.166 35.6492L366.166 35.6492L365.83 36.5909ZM371.557 38.1818L371.778 37.2066L371.766 37.204L371.557 38.1818ZM379.557 40L379.335 40.9752L379.345 40.9772L379.557 40ZM391.739 44L391.31 44.9036L391.313 44.905L391.739 44ZM400.648 49.9545L399.954 50.6752L399.959 50.6795L400.648 49.9545ZM406.148 57.9091L405.224 58.2917L405.224 58.2917L406.148 57.9091ZM408.057 68L409.057 68.0052L409.057 67.9919L408.057 68ZM403.602 83.1364L402.782 82.5641L402.782 82.5641L403.602 83.1364ZM390.92 92.8182L390.544 91.8918L390.542 91.8926L390.92 92.8182ZM350.693 92.6818L351.067 91.7543L351.067 91.7543L350.693 92.6818ZM332.239 64V63H331.226L331.239 64.0125L332.239 64ZM353.784 64L354.782 63.9395L354.725 63H353.784V64ZM356.193 71.5L355.379 72.0801L355.379 72.0801L356.193 71.5ZM362.057 76.0455L361.674 76.9692L361.678 76.9708L362.057 76.0455ZM378.511 76.3636L378.156 75.4289L378.151 75.4306L378.511 76.3636ZM383.466 72.9545L382.682 72.3338L382.682 72.3338L383.466 72.9545ZM385.239 67.9545L386.239 67.9707L386.239 67.954L386.238 67.9373L385.239 67.9545ZM383.602 63.4545L382.834 64.0948L382.842 64.1038L383.602 63.4545ZM378.693 60.1818L378.298 61.1003L378.305 61.1036L378.313 61.1068L378.693 60.1818ZM370.33 57.5909L370.102 58.5647L370.103 58.565L370.33 57.5909ZM360.602 55.3182L360.83 54.3444L360.826 54.3435L360.602 55.3182ZM341.557 46.3636L340.89 47.1086L340.892 47.111L341.557 46.3636ZM334.648 29.5455L335.648 29.5497L335.648 29.5402L334.648 29.5455ZM339.284 14.4091L338.473 13.8246L338.473 13.8246L339.284 14.4091ZM352.239 4.27273L352.641 5.18819L352.641 5.18819L352.239 4.27273ZM389.875 4.31818L389.455 5.2257L389.461 5.22854L389.875 4.31818ZM402.284 14.5455L403.115 13.9894L403.115 13.9894L402.284 14.5455ZM406.784 29.8182V30.8182H407.795L407.784 29.8077L406.784 29.8182ZM386.235 29.7276C385.909 26.1501 384.443 23.2915 381.804 21.2539L380.582 22.837C382.731 24.4963 383.962 26.8196 384.243 29.9087L386.235 29.7276ZM381.815 21.2626C379.21 19.1917 375.577 18.2273 371.057 18.2273V20.2273C375.324 20.2273 378.449 21.1416 380.571 22.8283L381.815 21.2626ZM371.057 18.2273C368.069 18.2273 365.512 18.6152 363.42 19.4322L364.148 21.2951C365.935 20.5969 368.226 20.2273 371.057 20.2273V18.2273ZM363.42 19.4322C361.349 20.2411 359.72 21.3879 358.612 22.9118L360.229 24.0882C361.06 22.9454 362.34 22.0013 364.148 21.2951L363.42 19.4322ZM358.618 22.903C357.518 24.3815 356.954 26.0862 356.921 27.9821L358.92 28.0179C358.947 26.5198 359.384 25.2245 360.223 24.097L358.618 22.903ZM356.921 27.9566C356.854 29.5116 357.158 30.9311 357.87 32.178L359.607 31.1857C359.107 30.3113 358.866 29.2762 358.92 28.0434L356.921 27.9566ZM357.881 32.1963C358.602 33.397 359.617 34.4361 360.897 35.3222L362.035 33.6778C360.951 32.9275 360.148 32.0878 359.596 31.1673L357.881 32.1963ZM360.921 35.3384C362.212 36.1777 363.74 36.9065 365.493 37.5326L366.166 35.6492C364.525 35.0632 363.144 34.3981 362.011 33.6616L360.921 35.3384ZM365.493 37.5326C367.239 38.1561 369.191 38.6976 371.347 39.1596L371.766 37.204C369.68 36.7569 367.814 36.2378 366.166 35.6492L365.493 37.5326ZM371.335 39.1569L379.335 40.9751L379.778 39.0249L371.778 37.2067L371.335 39.1569ZM379.345 40.9772C383.891 41.9643 387.877 43.2757 391.31 44.9036L392.167 43.0964C388.57 41.391 384.435 40.0357 379.769 39.0228L379.345 40.9772ZM391.313 44.905C394.777 46.5334 397.652 48.46 399.954 50.6752L401.341 49.2339C398.856 46.843 395.791 44.8 392.164 43.095L391.313 44.905ZM399.959 50.6795C402.285 52.8891 404.037 55.4249 405.224 58.2917L407.072 57.5265C405.774 54.3932 403.859 51.626 401.336 49.2295L399.959 50.6795ZM405.224 58.2917C406.41 61.1567 407.027 64.3906 407.057 68.0081L409.057 67.9919C409.026 64.1549 408.37 60.6615 407.072 57.5265L405.224 58.2917ZM407.057 67.9948C407.027 73.701 405.589 78.5416 402.782 82.5641L404.422 83.7086C407.494 79.3069 409.026 74.0565 409.057 68.0052L407.057 67.9948ZM402.782 82.5641C399.97 86.5939 395.909 89.7103 390.544 91.8918L391.297 93.7445C396.962 91.4412 401.356 88.1031 404.422 83.7086L402.782 82.5641ZM390.542 91.8926C385.208 94.0732 378.723 95.1818 371.057 95.1818V97.1818C378.906 97.1818 385.663 96.048 391.299 93.7438L390.542 91.8926ZM371.057 95.1818C363.366 95.1818 356.711 94.0295 351.067 91.7543L350.319 93.6093C356.251 96.0008 363.171 97.1818 371.057 97.1818V95.1818ZM351.067 91.7543C345.447 89.4888 341.113 86.0638 338.022 81.4859L336.364 82.605C339.698 87.5423 344.363 91.2082 350.319 93.6093L351.067 91.7543ZM338.022 81.4859C334.945 76.9283 333.328 71.117 333.239 63.9875L331.239 64.0125C331.331 71.4285 333.017 77.6475 336.364 82.605L338.022 81.4859ZM332.239 65H353.784V63H332.239V65ZM352.786 64.0605C352.977 67.2055 353.824 69.8965 355.379 72.0801L357.008 70.9199C355.714 69.1035 354.955 66.7945 354.782 63.9395L352.786 64.0605ZM355.379 72.0801C356.922 74.2473 359.033 75.8742 361.674 76.9692L362.44 75.1217C360.111 74.1561 358.313 72.7527 357.008 70.9199L355.379 72.0801ZM361.678 76.9708C364.336 78.0598 367.378 78.5909 370.784 78.5909V76.5909C367.584 76.5909 364.808 76.0917 362.436 75.1201L361.678 76.9708ZM370.784 78.5909C373.899 78.5909 376.604 78.1711 378.871 77.2966L378.151 75.4306C376.176 76.1925 373.73 76.5909 370.784 76.5909V78.5909ZM378.867 77.2983C381.147 76.4314 382.962 75.2016 384.25 73.5752L382.682 72.3338C381.666 73.6166 380.179 74.6595 378.156 75.4289L378.867 77.2983ZM384.25 73.5752C385.54 71.946 386.205 70.0662 386.239 67.9707L384.239 67.9384C384.212 69.6005 383.695 71.054 382.682 72.3338L384.25 73.5752ZM386.238 67.9373C386.205 65.9666 385.586 64.2381 384.363 62.8053L382.842 64.1038C383.74 65.1558 384.212 66.4273 384.239 67.9718L386.238 67.9373ZM384.37 62.8144C383.17 61.3734 381.374 60.2023 379.073 59.2569L378.313 61.1068C380.437 61.9796 381.914 62.9903 382.834 64.0947L384.37 62.8144ZM379.089 59.2633C376.833 58.2923 373.983 57.4125 370.556 56.6168L370.103 58.565C373.464 59.345 376.189 60.1926 378.298 61.1003L379.089 59.2633ZM370.557 56.6171L360.83 54.3444L360.375 56.292L370.102 58.5647L370.557 56.6171ZM360.826 54.3435C352.876 52.5205 346.697 49.5948 342.221 45.6162L340.892 47.111C345.689 51.3749 352.207 54.4189 360.379 56.2929L360.826 54.3435ZM342.224 45.6186C337.83 41.6846 335.618 36.3672 335.648 29.5497L333.648 29.5412C333.616 36.8449 336.011 42.7397 340.89 47.1086L342.224 45.6186ZM335.648 29.5402C335.618 23.9767 337.108 19.1415 340.096 14.9935L338.473 13.8246C335.218 18.3433 333.616 23.5991 333.648 29.5507L335.648 29.5402ZM340.096 14.9935C343.1 10.8229 347.268 7.54999 352.641 5.18819L351.836 3.35726C346.179 5.84395 341.711 9.32858 338.473 13.8246L340.096 14.9935ZM352.641 5.18819C358.009 2.82845 364.157 1.63636 371.102 1.63636V-0.36364C363.927 -0.36364 357.498 0.868512 351.836 3.35726L352.641 5.18819ZM371.102 1.63636C378.202 1.63636 384.311 2.84461 389.455 5.22568L390.295 3.41067C384.833 0.882653 378.426 -0.36364 371.102 -0.36364V1.63636ZM389.461 5.22854C394.644 7.58439 398.628 10.8786 401.453 15.1015L403.115 13.9894C400.061 9.42445 395.773 5.90045 390.289 3.40781L389.461 5.22854ZM401.453 15.1015C404.274 19.3186 405.725 24.216 405.784 29.8286L407.784 29.8077C407.722 23.8446 406.173 18.5602 403.115 13.9894L401.453 15.1015ZM406.784 28.8182H385.239V30.8182H406.784V28.8182ZM531.42 35.6364V36.6364H532.523L532.416 35.539L531.42 35.6364ZM508.693 35.6364L507.702 35.7651L507.815 36.6364H508.693V35.6364ZM506.83 29.3182L505.935 29.7654L505.935 29.7654L506.83 29.3182ZM503.102 24.5L503.756 23.7428L503.756 23.7428L503.102 24.5ZM497.602 21.4545L497.274 22.399L497.282 22.4019L497.29 22.4046L497.602 21.4545ZM478.966 23.6818L478.406 22.8533L478.402 22.8558L478.966 23.6818ZM471.466 33.2727L470.544 32.8853L470.542 32.891L471.466 33.2727ZM471.511 64L470.589 64.3875L470.593 64.3955L471.511 64ZM479.011 73.4091L478.46 74.2436L478.469 74.2495L479.011 73.4091ZM497.284 75.5909L496.989 74.6354L496.985 74.6367L497.284 75.5909ZM502.693 72.8182L503.31 73.605L503.312 73.6035L502.693 72.8182ZM506.557 68.3182L505.69 67.8189L505.688 67.8237L506.557 68.3182ZM508.693 62.2727L508.699 61.2727L507.854 61.2677L507.708 62.0997L508.693 62.2727ZM531.42 62.4091L532.416 62.5042L532.52 61.4157L531.426 61.4091L531.42 62.4091ZM527.83 74.5909L526.935 74.1437L526.932 74.1491L527.83 74.5909ZM519.693 85.5455L520.381 86.2714L520.384 86.2682L519.693 85.5455ZM507.057 93.3636L506.693 92.4321L506.691 92.4328L507.057 93.3636ZM467.42 90.7273L466.931 91.5992L466.935 91.6018L467.42 90.7273ZM451.693 74.4545L452.573 73.9791L451.693 74.4545ZM451.784 22.4091L450.907 21.9279L450.907 21.9279L451.784 22.4091ZM505.693 3L505.381 3.94989L505.386 3.95165L505.693 3ZM518.33 9.81818L517.693 10.5896L517.697 10.5927L518.33 9.81818ZM531.42 34.6364H508.693V36.6364H531.42V34.6364ZM509.685 35.5076C509.369 33.0766 508.719 30.861 507.724 28.871L505.935 29.7654C506.819 31.533 507.411 33.5295 507.702 35.7651L509.685 35.5076ZM507.724 28.871C506.727 26.8775 505.404 25.1651 503.756 23.7428L502.449 25.2572C503.891 26.5016 505.053 28.0013 505.935 29.7654L507.724 28.871ZM503.756 23.7428C502.101 22.3156 500.149 21.2388 497.914 20.5045L497.29 22.4046C499.298 23.0643 501.012 24.0178 502.449 25.2572L503.756 23.7428ZM497.931 20.51C495.72 19.741 493.289 19.3636 490.648 19.3636V21.3636C493.098 21.3636 495.303 21.7136 497.274 22.399L497.931 20.51ZM490.648 19.3636C485.962 19.3636 481.867 20.514 478.406 22.8533L479.526 24.5103C482.61 22.4254 486.303 21.3636 490.648 21.3636V19.3636ZM478.402 22.8558C474.977 25.1926 472.364 28.5541 470.544 32.8853L472.388 33.6602C474.083 29.6277 476.47 26.5953 479.529 24.5079L478.402 22.8558ZM470.542 32.891C468.751 37.2253 467.875 42.4231 467.875 48.4545H469.875C469.875 42.6072 470.726 37.6838 472.39 33.6545L470.542 32.891ZM467.875 48.4545C467.875 54.7241 468.765 60.0472 470.589 64.3875L472.433 63.6125C470.742 59.5892 469.875 54.5486 469.875 48.4545H467.875ZM470.593 64.3955C472.444 68.6942 475.059 71.9973 478.46 74.2436L479.562 72.5746C476.54 70.5784 474.154 67.6088 472.43 63.6045L470.593 64.3955ZM478.469 74.2495C481.896 76.4592 485.924 77.5455 490.511 77.5455V75.5455C486.25 75.5455 482.611 74.5408 479.553 72.5687L478.469 74.2495ZM490.511 77.5455C493.081 77.5455 495.441 77.2164 497.583 76.5451L496.985 74.6367C495.066 75.2381 492.911 75.5455 490.511 75.5455V77.5455ZM497.579 76.5464C499.745 75.8775 501.66 74.8996 503.31 73.605L502.076 72.0313C500.636 73.161 498.944 74.0316 496.989 74.6354L497.579 76.5464ZM503.312 73.6035C504.99 72.2805 506.363 70.6815 507.426 68.8127L505.688 67.8237C504.751 69.47 503.548 70.871 502.074 72.0329L503.312 73.6035ZM507.423 68.8175C508.517 66.9187 509.266 64.7912 509.678 62.4458L507.708 62.0997C507.332 64.2391 506.657 66.1419 505.69 67.8189L507.423 68.8175ZM508.687 63.2727L531.414 63.4091L531.426 61.4091L508.699 61.2727L508.687 63.2727ZM530.425 62.3139C530.044 66.3031 528.884 70.2449 526.935 74.1437L528.724 75.0381C530.775 70.9369 532.009 66.7575 532.416 62.5042L530.425 62.3139ZM526.932 74.1491C525.018 78.0368 522.378 81.5947 519.002 84.8227L520.384 86.2682C523.917 82.8902 526.702 79.145 528.727 75.0327L526.932 74.1491ZM519.005 84.8195C515.655 87.9933 511.557 90.534 506.693 92.4321L507.42 94.2952C512.496 92.3145 516.822 89.6431 520.381 86.2714L519.005 84.8195ZM506.691 92.4328C501.89 94.3182 496.351 95.2727 490.057 95.2727V97.2727C496.551 97.2727 502.345 96.2879 507.422 94.2945L506.691 92.4328ZM490.057 95.2727C481.784 95.2727 474.409 93.459 467.905 89.8527L466.935 91.6018C473.766 95.3895 481.481 97.2727 490.057 97.2727V95.2727ZM467.91 89.8554C461.449 86.2267 456.337 80.945 452.573 73.9791L450.813 74.93C454.746 82.2065 460.119 87.7733 466.931 91.5992L467.91 89.8554ZM452.573 73.9791C448.821 67.0373 446.92 58.5432 446.92 48.4545H444.92C444.92 58.7901 446.868 67.6294 450.813 74.93L452.573 73.9791ZM446.92 48.4545C446.92 38.3373 448.851 29.8304 452.661 22.8903L450.907 21.9279C446.899 29.2302 444.92 38.0869 444.92 48.4545H446.92ZM452.661 22.8903C456.485 15.9232 461.642 10.6557 468.133 7.05635L467.163 5.30728C460.32 9.10186 454.901 14.6526 450.907 21.9279L452.661 22.8903ZM468.133 7.05635C474.638 3.44859 481.939 1.63636 490.057 1.63636V-0.36364C481.629 -0.36364 473.99 1.52111 467.163 5.30728L468.133 7.05635ZM490.057 1.63636C495.599 1.63636 500.705 2.41099 505.381 3.94988L506.006 2.05012C501.106 0.437488 495.787 -0.36364 490.057 -0.36364V1.63636ZM505.386 3.95165C510.062 5.46096 514.161 7.67516 517.693 10.5895L518.966 9.0468C515.226 5.96119 510.9 3.62994 506 2.04835L505.386 3.95165ZM517.697 10.5927C521.225 13.4736 524.095 17.0181 526.308 21.2372L528.079 20.3083C525.746 15.8607 522.707 12.1022 518.962 9.04364L517.697 10.5927ZM526.308 21.2372C528.512 25.441 529.89 30.2678 530.425 35.7337L532.416 35.539C531.86 29.8534 530.419 24.7711 528.079 20.3083L526.308 21.2372ZM626.25 74.5L625.375 74.0159L625.375 74.0159L626.25 74.5ZM610.25 90.7273L609.768 89.8509L609.767 89.8518L610.25 90.7273ZM565.114 90.6818L565.6 89.808L565.6 89.808L565.114 90.6818ZM549.159 74.4545L548.282 74.9358L548.285 74.9402L549.159 74.4545ZM549.159 22.4091L548.284 21.925L548.282 21.9279L549.159 22.4091ZM565.114 6.18182L565.597 7.05728L565.597 7.05728L565.114 6.18182ZM610.25 6.18182L609.767 7.05728L609.768 7.0582L610.25 6.18182ZM626.25 22.4091L625.375 22.8931L625.375 22.8931L626.25 22.4091ZM606.568 33.0909L605.642 33.4669L605.644 33.4727L606.568 33.0909ZM599.205 23.5909L598.644 24.4193L598.648 24.4217L599.205 23.5909ZM576.205 23.5909L576.761 24.4217L576.761 24.4217L576.205 23.5909ZM568.795 33.0909L567.871 32.7091L567.869 32.7149L568.795 33.0909ZM568.795 63.8182L567.869 64.1942L567.871 64.1999L568.795 63.8182ZM576.205 73.3182L576.761 72.4873L576.761 72.4873L576.205 73.3182ZM599.205 73.3182L598.648 72.4873L598.644 72.4898L599.205 73.3182ZM606.568 63.8182L605.644 63.4364L605.642 63.4422L606.568 63.8182ZM631.159 48.4545C631.159 58.5706 629.214 67.0765 625.375 74.0159L627.125 74.9841C631.165 67.6811 633.159 58.8233 633.159 48.4545H631.159ZM625.375 74.0159C621.521 80.9823 616.32 86.2505 609.768 89.8509L610.732 91.6037C617.635 87.8101 623.1 82.2602 627.125 74.9841L625.375 74.0159ZM609.767 89.8518C603.231 93.4599 595.884 95.2727 587.705 95.2727V97.2727C596.191 97.2727 603.875 95.3886 610.733 91.6027L609.767 89.8518ZM587.705 95.2727C579.495 95.2727 572.135 93.4451 565.6 89.808L564.627 91.5556C571.486 95.3731 579.187 97.2727 587.705 97.2727V95.2727ZM565.6 89.808C559.076 86.1768 553.888 80.9067 550.033 73.9689L548.285 74.9402C552.309 82.1842 557.758 87.7323 564.627 91.5556L565.6 89.808ZM550.036 73.9733C546.226 67.0328 544.295 58.5409 544.295 48.4545H542.295C542.295 58.7924 544.274 67.6338 548.282 74.9357L550.036 73.9733ZM544.295 48.4545C544.295 38.3373 546.226 29.8304 550.036 22.8903L548.282 21.9279C544.274 29.2302 542.295 38.0869 542.295 48.4545H544.295ZM550.034 22.8931C553.888 15.9257 559.075 10.6574 565.597 7.05728L564.63 5.30635C557.758 9.1002 552.309 14.6501 548.284 21.925L550.034 22.8931ZM565.597 7.05728C572.132 3.44947 579.494 1.63636 587.705 1.63636V-0.36364C579.188 -0.36364 571.489 1.52022 564.63 5.30635L565.597 7.05728ZM587.705 1.63636C595.884 1.63636 603.231 3.44918 609.767 7.05728L610.733 5.30635C603.875 1.52051 596.191 -0.36364 587.705 -0.36364V1.63636ZM609.768 7.0582C616.32 10.6586 621.521 15.9268 625.375 22.8931L627.125 21.925C623.1 14.6489 617.635 9.09896 610.732 5.30543L609.768 7.0582ZM625.375 22.8931C629.214 29.8326 631.159 38.3384 631.159 48.4545H633.159C633.159 38.0858 631.165 29.228 627.125 21.925L625.375 22.8931ZM610.159 48.4545C610.159 42.3049 609.284 37.0456 607.492 32.7091L605.644 33.4727C607.307 37.4999 608.159 42.483 608.159 48.4545H610.159ZM607.495 32.7149C605.736 28.3797 603.166 25.0405 599.761 22.7601L598.648 24.4217C601.668 26.4444 604.007 29.4385 605.642 33.4669L607.495 32.7149ZM599.765 22.7625C596.391 20.4814 592.355 19.3636 587.705 19.3636V21.3636C592.024 21.3636 595.654 22.3974 598.644 24.4193L599.765 22.7625ZM587.705 19.3636C583.083 19.3636 579.049 20.4822 575.648 22.7601L576.761 24.4217C579.785 22.3966 583.417 21.3636 587.705 21.3636V19.3636ZM575.648 22.7601C572.245 25.0393 569.661 28.3764 567.871 32.7091L569.72 33.4727C571.385 29.4418 573.74 26.4455 576.761 24.4217L575.648 22.7601ZM567.869 32.7149C566.11 37.0495 565.25 42.3067 565.25 48.4545H567.25C567.25 42.4812 568.087 37.496 569.722 33.4669L567.869 32.7149ZM565.25 48.4545C565.25 54.6024 566.11 59.8596 567.869 64.1942L569.722 63.4422C568.087 59.4131 567.25 54.4279 567.25 48.4545H565.25ZM567.871 64.1999C569.661 68.5327 572.245 71.8697 575.648 74.149L576.761 72.4873C573.74 70.4636 571.385 67.4673 569.72 63.4364L567.871 64.1999ZM575.648 74.149C579.049 76.4269 583.083 77.5455 587.705 77.5455V75.5455C583.417 75.5455 579.785 74.5125 576.761 72.4873L575.648 74.149ZM587.705 77.5455C592.355 77.5455 596.391 76.4277 599.765 74.1466L598.644 72.4898C595.654 74.5117 592.024 75.5455 587.705 75.5455V77.5455ZM599.761 74.149C603.166 71.8686 605.736 68.5294 607.495 64.1942L605.642 63.4422C604.007 67.4706 601.668 70.4647 598.648 72.4873L599.761 74.149ZM607.492 64.1999C609.284 59.8635 610.159 54.6042 610.159 48.4545H608.159C608.159 54.4261 607.307 59.4092 605.644 63.4364L607.492 64.1999ZM689.977 39.9091H690.977V38.9091H689.977V39.9091ZM689.977 57V58H690.977V57H689.977ZM646.886 57H645.886V58H646.886V57ZM646.886 39.9091V38.9091H645.886V39.9091H646.886ZM688.977 39.9091V57H690.977V39.9091H688.977ZM689.977 56H646.886V58H689.977V56ZM647.886 57V39.9091H645.886V57H647.886ZM646.886 40.9091H689.977V38.9091H646.886V40.9091ZM86 229.5L85.125 229.016L85.125 229.016L86 229.5ZM70 245.727L69.5184 244.851L69.5167 244.852L70 245.727ZM24.8636 245.682L25.35 244.808L25.35 244.808L24.8636 245.682ZM8.90909 229.455L8.03247 229.936L8.03493 229.94L8.90909 229.455ZM8.90909 177.409L8.03405 176.925L8.03248 176.928L8.90909 177.409ZM24.8636 161.182L25.3469 162.057L25.3469 162.057L24.8636 161.182ZM70 161.182L69.5167 162.057L69.5184 162.058L70 161.182ZM86 177.409L85.125 177.893L85.125 177.893L86 177.409ZM66.3182 188.091L65.3916 188.467L65.3939 188.473L66.3182 188.091ZM58.9545 178.591L58.3944 179.419L58.398 179.422L58.9545 178.591ZM35.9545 178.591L36.5111 179.422L36.5111 179.422L35.9545 178.591ZM28.5455 188.091L27.6212 187.709L27.6188 187.715L28.5455 188.091ZM28.5455 218.818L27.6188 219.194L27.6212 219.2L28.5455 218.818ZM35.9545 228.318L36.5111 227.487L36.5111 227.487L35.9545 228.318ZM58.9545 228.318L58.398 227.487L58.3944 227.49L58.9545 228.318ZM66.3182 218.818L65.3939 218.436L65.3916 218.442L66.3182 218.818ZM90.9091 203.455C90.9091 213.571 88.9638 222.076 85.125 229.016L86.875 229.984C90.915 222.681 92.9091 213.823 92.9091 203.455H90.9091ZM85.125 229.016C81.2713 235.982 76.07 241.25 69.5184 244.851L70.4816 246.604C77.3846 242.81 82.85 237.26 86.875 229.984L85.125 229.016ZM69.5167 244.852C62.9807 248.46 55.6344 250.273 47.4545 250.273V252.273C55.9414 252.273 63.6253 250.389 70.4833 246.603L69.5167 244.852ZM47.4545 250.273C39.2452 250.273 31.8849 248.445 25.35 244.808L24.3773 246.556C31.2363 250.373 38.9366 252.273 47.4545 252.273V250.273ZM25.35 244.808C18.8256 241.177 13.6376 235.907 9.78325 228.969L8.03493 229.94C12.0594 237.184 17.5077 242.732 24.3773 246.556L25.35 244.808ZM9.7857 228.973C5.9758 222.033 4.04545 213.541 4.04545 203.455H2.04545C2.04545 213.792 4.0242 222.634 8.03248 229.936L9.7857 228.973ZM4.04545 203.455C4.04545 193.337 5.97602 184.83 9.7857 177.89L8.03248 176.928C4.02398 184.23 2.04545 193.087 2.04545 203.455H4.04545ZM9.78412 177.893C13.6385 170.926 18.8254 165.657 25.3469 162.057L24.3804 160.306C17.5079 164.1 12.0585 169.65 8.03406 176.925L9.78412 177.893ZM25.3469 162.057C31.8824 158.449 39.2438 156.636 47.4545 156.636V154.636C38.9381 154.636 31.2388 156.52 24.3804 160.306L25.3469 162.057ZM47.4545 156.636C55.6344 156.636 62.9807 158.449 69.5167 162.057L70.4833 160.306C63.6253 156.521 55.9414 154.636 47.4545 154.636V156.636ZM69.5184 162.058C76.07 165.659 81.2713 170.927 85.125 177.893L86.875 176.925C82.85 169.649 77.3846 164.099 70.4816 160.305L69.5184 162.058ZM85.125 177.893C88.9638 184.833 90.9091 193.338 90.9091 203.455H92.9091C92.9091 193.086 90.915 184.228 86.875 176.925L85.125 177.893ZM69.9091 203.455C69.9091 197.305 69.0336 192.046 67.2424 187.709L65.3939 188.473C67.0573 192.5 67.9091 197.483 67.9091 203.455H69.9091ZM67.2448 187.715C65.4856 183.38 62.9156 180.04 59.5111 177.76L58.398 179.422C61.4177 181.444 63.7569 184.439 65.3916 188.467L67.2448 187.715ZM59.5147 177.763C56.1412 175.481 52.1047 174.364 47.4545 174.364V176.364C51.774 176.364 55.4043 177.397 58.3944 179.419L59.5147 177.763ZM47.4545 174.364C42.8328 174.364 38.7988 175.482 35.398 177.76L36.5111 179.422C39.5345 177.397 43.1672 176.364 47.4545 176.364V174.364ZM35.398 177.76C31.9952 180.039 29.4108 183.376 27.6212 187.709L29.4697 188.473C31.1347 184.442 33.4897 181.445 36.5111 179.422L35.398 177.76ZM27.6188 187.715C25.8599 192.049 25 197.307 25 203.455H27C27 197.481 27.8371 192.496 29.4721 188.467L27.6188 187.715ZM25 203.455C25 209.602 25.8599 214.86 27.6188 219.194L29.4721 218.442C27.8371 214.413 27 209.428 27 203.455H25ZM27.6212 219.2C29.4108 223.533 31.9952 226.87 35.398 229.149L36.5111 227.487C33.4897 225.464 31.1347 222.467 29.4697 218.436L27.6212 219.2ZM35.398 229.149C38.7988 231.427 42.8328 232.545 47.4545 232.545V230.545C43.1672 230.545 39.5345 229.512 36.5111 227.487L35.398 229.149ZM47.4545 232.545C52.1047 232.545 56.1412 231.428 59.5147 229.147L58.3944 227.49C55.4043 229.512 51.774 230.545 47.4545 230.545V232.545ZM59.5111 229.149C62.9156 226.869 65.4856 223.529 67.2448 219.194L65.3916 218.442C63.7569 222.471 61.4177 225.465 58.398 227.487L59.5111 229.149ZM67.2424 219.2C69.0336 214.864 69.9091 209.604 69.9091 203.455H67.9091C67.9091 209.426 67.0573 214.409 65.3939 218.436L67.2424 219.2ZM105.045 250H104.045V251H105.045V250ZM105.045 156.909V155.909H104.045V156.909H105.045ZM161.545 160.682L161.1 161.577L161.107 161.58L161.545 160.682ZM173.318 171.409L172.457 171.918L172.459 171.92L173.318 171.409ZM173.227 204.364L174.074 204.896L174.076 204.893L173.227 204.364ZM161.227 214.636L161.638 215.548L161.642 215.546L161.227 214.636ZM118.5 218.136H117.5V219.136H118.5V218.136ZM118.5 200.409V199.409H117.5V200.409H118.5ZM147.136 199.091L147.497 200.024L147.504 200.021L147.136 199.091ZM152.364 195L153.202 195.545L153.206 195.539L152.364 195ZM152.364 180.773L151.513 181.299L151.517 181.305L152.364 180.773ZM147.136 176.5L146.748 177.422L146.759 177.426L147.136 176.5ZM127.545 175.045V174.045H126.545V175.045H127.545ZM127.545 250V251H128.545V250H127.545ZM157.455 207.455L158.333 206.976L158.048 206.455H157.455V207.455ZM180.636 250V251H182.32L181.514 249.522L180.636 250ZM156.091 250L155.209 250.471L155.491 251H156.091V250ZM133.364 207.455V206.455H131.696L132.482 207.926L133.364 207.455ZM106.045 250V156.909H104.045V250H106.045ZM105.045 157.909H143.5V155.909H105.045V157.909ZM143.5 157.909C150.351 157.909 156.207 159.145 161.1 161.577L161.991 159.786C156.763 157.188 150.589 155.909 143.5 155.909V157.909ZM161.107 161.58C166.03 163.984 169.804 167.427 172.457 171.918L174.179 170.9C171.317 166.057 167.243 162.35 161.984 159.783L161.107 161.58ZM172.459 171.92C175.109 176.376 176.455 181.693 176.455 187.909H178.455C178.455 181.398 177.043 175.715 174.178 170.898L172.459 171.92ZM176.455 187.909C176.455 194.216 175.079 199.509 172.379 203.834L174.076 204.893C177.012 200.188 178.455 194.511 178.455 187.909H176.455ZM172.381 203.832C169.674 208.138 165.83 211.438 160.812 213.727L161.642 215.546C166.988 213.108 171.144 209.558 174.074 204.896L172.381 203.832ZM160.817 213.725C155.792 215.987 149.802 217.136 142.818 217.136V219.136C150.017 219.136 156.299 217.952 161.638 215.548L160.817 213.725ZM142.818 217.136H118.5V219.136H142.818V217.136ZM119.5 218.136V200.409H117.5V218.136H119.5ZM118.5 201.409H138.636V199.409H118.5V201.409ZM138.636 201.409C142.109 201.409 145.074 200.961 147.497 200.024L146.776 198.158C144.654 198.979 141.952 199.409 138.636 199.409V201.409ZM147.504 200.021C149.971 199.047 151.891 197.561 153.202 195.545L151.525 194.455C150.472 196.075 148.907 197.317 146.769 198.161L147.504 200.021ZM153.206 195.539C154.518 193.486 155.136 190.92 155.136 187.909H153.136C153.136 190.655 152.573 192.817 151.521 194.461L153.206 195.539ZM155.136 187.909C155.136 184.897 154.518 182.319 153.21 180.24L151.517 181.305C152.573 182.984 153.136 185.164 153.136 187.909H155.136ZM153.214 180.246C151.909 178.138 149.991 176.584 147.514 175.574L146.759 177.426C148.888 178.294 150.455 179.589 151.513 181.299L153.214 180.246ZM147.524 175.578C145.064 174.542 142.09 174.045 138.636 174.045V176.045C141.91 176.045 144.603 176.518 146.748 177.422L147.524 175.578ZM138.636 174.045H127.545V176.045H138.636V174.045ZM126.545 175.045V250H128.545V175.045H126.545ZM127.545 249H105.045V251H127.545V249ZM156.576 207.933L179.758 250.478L181.514 249.522L158.333 206.976L156.576 207.933ZM180.636 249H156.091V251H180.636V249ZM156.973 249.529L134.246 206.983L132.482 207.926L155.209 250.471L156.973 249.529ZM133.364 208.455H157.455V206.455H133.364V208.455ZM189.795 250H188.795V251H189.795V250ZM189.795 156.909V155.909H188.795V156.909H189.795ZM248.659 162.5L248.181 163.378L248.186 163.381L248.659 162.5ZM264.568 178.5L263.686 178.972L263.687 178.973L264.568 178.5ZM264.568 228.409L263.686 227.938L263.685 227.94L264.568 228.409ZM248.705 244.455L249.178 245.335L249.181 245.334L248.705 244.455ZM212.295 230.818H211.295V231.818H212.295V230.818ZM236.568 228.182L237.006 229.081L237.009 229.079L236.568 228.182ZM244.795 219.5L243.889 219.077L243.888 219.081L244.795 219.5ZM244.795 187.409L243.89 187.834L243.892 187.837L244.795 187.409ZM236.477 178.773L236.036 179.67L236.045 179.674L236.477 178.773ZM212.295 176.091V175.091H211.295V176.091H212.295ZM224.205 249H189.795V251H224.205V249ZM190.795 250V156.909H188.795V250H190.795ZM189.795 157.909H224.159V155.909H189.795V157.909ZM224.159 157.909C233.513 157.909 241.508 159.746 248.181 163.378L249.137 161.622C242.113 157.799 233.775 155.909 224.159 155.909V157.909ZM248.186 163.381C254.889 166.983 260.051 172.173 263.686 178.972L265.45 178.028C261.631 170.887 256.187 165.411 249.133 161.619L248.186 163.381ZM263.687 178.973C267.321 185.738 269.159 193.87 269.159 203.409H271.159C271.159 193.614 269.27 185.141 265.449 178.027L263.687 178.973ZM269.159 203.409C269.159 212.978 267.32 221.142 263.686 227.938L265.45 228.881C269.271 221.737 271.159 213.234 271.159 203.409H269.159ZM263.685 227.94C260.079 234.738 254.932 239.943 248.228 243.575L249.181 245.334C256.234 241.512 261.663 236.02 265.452 228.878L263.685 227.94ZM248.231 243.574C241.526 247.178 233.528 249 224.205 249V251C233.79 251 242.126 249.125 249.178 245.335L248.231 243.574ZM212.295 231.818H223.341V229.818H212.295V231.818ZM223.341 231.818C228.661 231.818 233.229 230.922 237.006 229.081L236.13 227.283C232.695 228.957 228.445 229.818 223.341 229.818V231.818ZM237.009 229.079C240.87 227.181 243.768 224.108 245.703 219.919L243.888 219.081C242.126 222.892 239.539 225.607 236.127 227.284L237.009 229.079ZM245.702 219.923C247.665 215.71 248.614 210.185 248.614 203.409H246.614C246.614 210.027 245.683 215.229 243.889 219.077L245.702 219.923ZM248.614 203.409C248.614 196.635 247.666 191.136 245.699 186.981L243.892 187.837C245.683 191.621 246.614 196.79 246.614 203.409H248.614ZM245.701 186.984C243.733 182.795 240.803 179.737 236.91 177.871L236.045 179.674C239.485 181.324 242.1 184.023 243.89 187.834L245.701 186.984ZM236.918 177.875C233.109 176.002 228.463 175.091 223.023 175.091V177.091C228.249 177.091 232.573 177.968 236.036 179.67L236.918 177.875ZM223.023 175.091H212.295V177.091H223.023V175.091ZM211.295 176.091V230.818H213.295V176.091H211.295ZM305.795 156.909H306.795V155.909H305.795V156.909ZM305.795 250V251H306.795V250H305.795ZM283.295 250H282.295V251H283.295V250ZM283.295 156.909V155.909H282.295V156.909H283.295ZM304.795 156.909V250H306.795V156.909H304.795ZM305.795 249H283.295V251H305.795V249ZM284.295 250V156.909H282.295V250H284.295ZM283.295 157.909H305.795V155.909H283.295V157.909ZM399.148 156.909H400.148V155.909H399.148V156.909ZM399.148 250V251H400.148V250H399.148ZM380.057 250L379.234 250.568L379.532 251H380.057V250ZM343.011 196.273L343.835 195.705L343.537 195.273H343.011V196.273ZM342.42 196.273V195.273H341.42V196.273H342.42ZM342.42 250V251H343.42V250H342.42ZM319.92 250H318.92V251H319.92V250ZM319.92 156.909V155.909H318.92V156.909H319.92ZM339.284 156.909L340.11 156.345L339.812 155.909H339.284V156.909ZM375.92 210.545L375.095 211.109L375.392 211.545H375.92V210.545ZM376.693 210.545V211.545H377.693V210.545H376.693ZM376.693 156.909V155.909H375.693V156.909H376.693ZM398.148 156.909V250H400.148V156.909H398.148ZM399.148 249H380.057V251H399.148V249ZM380.88 249.432L343.835 195.705L342.188 196.84L379.234 250.568L380.88 249.432ZM343.011 195.273H342.42V197.273H343.011V195.273ZM341.42 196.273V250H343.42V196.273H341.42ZM342.42 249H319.92V251H342.42V249ZM320.92 250V156.909H318.92V250H320.92ZM319.92 157.909H339.284V155.909H319.92V157.909ZM338.458 157.473L375.095 211.109L376.746 209.981L340.11 156.345L338.458 157.473ZM375.92 211.545H376.693V209.545H375.92V211.545ZM377.693 210.545V156.909H375.693V210.545H377.693ZM376.693 157.909H399.148V155.909H376.693V157.909ZM433.432 250V251H434.166L434.386 250.299L433.432 250ZM409.25 250L408.302 249.68L407.857 251H409.25V250ZM440.659 156.909V155.909H439.941L439.712 156.589L440.659 156.909ZM470.614 156.909L471.561 156.589L471.332 155.909H470.614V156.909ZM502.023 250V251H503.416L502.97 249.68L502.023 250ZM477.841 250L476.887 250.3L477.107 251H477.841V250ZM455.977 180.364L456.931 180.064L456.711 179.364H455.977V180.364ZM455.25 180.364V179.364H454.515L454.296 180.065L455.25 180.364ZM430.205 213.364V212.364H429.205V213.364H430.205ZM480.75 213.364H481.75V212.364H480.75V213.364ZM480.75 230.455V231.455H481.75V230.455H480.75ZM430.205 230.455H429.205V231.455H430.205V230.455ZM433.432 249H409.25V251H433.432V249ZM410.198 250.32L441.607 157.229L439.712 156.589L408.302 249.68L410.198 250.32ZM440.659 157.909H470.614V155.909H440.659V157.909ZM469.666 157.229L501.075 250.32L502.97 249.68L471.561 156.589L469.666 157.229ZM502.023 249H477.841V251H502.023V249ZM478.795 249.7L456.931 180.064L455.023 180.663L476.887 250.3L478.795 249.7ZM455.977 179.364H455.25V181.364H455.977V179.364ZM454.296 180.065L432.478 249.701L434.386 250.299L456.204 180.663L454.296 180.065ZM430.205 214.364H480.75V212.364H430.205V214.364ZM479.75 213.364V230.455H481.75V213.364H479.75ZM480.75 229.455H430.205V231.455H480.75V229.455ZM431.205 230.455V213.364H429.205V230.455H431.205ZM497.375 175.182H496.375V176.182H497.375V175.182ZM497.375 156.909V155.909H496.375V156.909H497.375ZM576.057 156.909H577.057V155.909H576.057V156.909ZM576.057 175.182V176.182H577.057V175.182H576.057ZM547.83 175.182V174.182H546.83V175.182H547.83ZM547.83 250V251H548.83V250H547.83ZM525.648 250H524.648V251H525.648V250ZM525.648 175.182H526.648V174.182H525.648V175.182ZM498.375 175.182V156.909H496.375V175.182H498.375ZM497.375 157.909H576.057V155.909H497.375V157.909ZM575.057 156.909V175.182H577.057V156.909H575.057ZM576.057 174.182H547.83V176.182H576.057V174.182ZM546.83 175.182V250H548.83V175.182H546.83ZM547.83 249H525.648V251H547.83V249ZM526.648 250V175.182H524.648V250H526.648ZM525.648 174.182H497.375V176.182H525.648V174.182ZM664.75 229.5L663.875 229.016L663.875 229.016L664.75 229.5ZM648.75 245.727L648.268 244.851L648.267 244.852L648.75 245.727ZM603.614 245.682L604.1 244.808L604.1 244.808L603.614 245.682ZM587.659 229.455L586.782 229.936L586.785 229.94L587.659 229.455ZM587.659 177.409L586.784 176.925L586.782 176.928L587.659 177.409ZM603.614 161.182L604.097 162.057L604.097 162.057L603.614 161.182ZM648.75 161.182L648.267 162.057L648.268 162.058L648.75 161.182ZM664.75 177.409L663.875 177.893L663.875 177.893L664.75 177.409ZM645.068 188.091L644.142 188.467L644.144 188.473L645.068 188.091ZM637.705 178.591L637.144 179.419L637.148 179.422L637.705 178.591ZM614.705 178.591L615.261 179.422L615.261 179.422L614.705 178.591ZM607.295 188.091L606.371 187.709L606.369 187.715L607.295 188.091ZM607.295 218.818L606.369 219.194L606.371 219.2L607.295 218.818ZM614.705 228.318L615.261 227.487L615.261 227.487L614.705 228.318ZM637.705 228.318L637.148 227.487L637.144 227.49L637.705 228.318ZM645.068 218.818L644.144 218.436L644.142 218.442L645.068 218.818ZM669.659 203.455C669.659 213.571 667.714 222.076 663.875 229.016L665.625 229.984C669.665 222.681 671.659 213.823 671.659 203.455H669.659ZM663.875 229.016C660.021 235.982 654.82 241.25 648.268 244.851L649.232 246.604C656.135 242.81 661.6 237.26 665.625 229.984L663.875 229.016ZM648.267 244.852C641.731 248.46 634.384 250.273 626.205 250.273V252.273C634.691 252.273 642.375 250.389 649.233 246.603L648.267 244.852ZM626.205 250.273C617.995 250.273 610.635 248.445 604.1 244.808L603.127 246.556C609.986 250.373 617.687 252.273 626.205 252.273V250.273ZM604.1 244.808C597.576 241.177 592.388 235.907 588.533 228.969L586.785 229.94C590.809 237.184 596.258 242.732 603.127 246.556L604.1 244.808ZM588.536 228.973C584.726 222.033 582.795 213.541 582.795 203.455H580.795C580.795 213.792 582.774 222.634 586.782 229.936L588.536 228.973ZM582.795 203.455C582.795 193.337 584.726 184.83 588.536 177.89L586.782 176.928C582.774 184.23 580.795 193.087 580.795 203.455H582.795ZM588.534 177.893C592.388 170.926 597.575 165.657 604.097 162.057L603.13 160.306C596.258 164.1 590.809 169.65 586.784 176.925L588.534 177.893ZM604.097 162.057C610.632 158.449 617.994 156.636 626.205 156.636V154.636C617.688 154.636 609.989 156.52 603.13 160.306L604.097 162.057ZM626.205 156.636C634.384 156.636 641.731 158.449 648.267 162.057L649.233 160.306C642.375 156.521 634.691 154.636 626.205 154.636V156.636ZM648.268 162.058C654.82 165.659 660.021 170.927 663.875 177.893L665.625 176.925C661.6 169.649 656.135 164.099 649.232 160.305L648.268 162.058ZM663.875 177.893C667.714 184.833 669.659 193.338 669.659 203.455H671.659C671.659 193.086 669.665 184.228 665.625 176.925L663.875 177.893ZM648.659 203.455C648.659 197.305 647.784 192.046 645.992 187.709L644.144 188.473C645.807 192.5 646.659 197.483 646.659 203.455H648.659ZM645.995 187.715C644.236 183.38 641.666 180.04 638.261 177.76L637.148 179.422C640.168 181.444 642.507 184.439 644.142 188.467L645.995 187.715ZM638.265 177.763C634.891 175.481 630.855 174.364 626.205 174.364V176.364C630.524 176.364 634.154 177.397 637.144 179.419L638.265 177.763ZM626.205 174.364C621.583 174.364 617.549 175.482 614.148 177.76L615.261 179.422C618.285 177.397 621.917 176.364 626.205 176.364V174.364ZM614.148 177.76C610.745 180.039 608.161 183.376 606.371 187.709L608.22 188.473C609.885 184.442 612.24 181.445 615.261 179.422L614.148 177.76ZM606.369 187.715C604.61 192.049 603.75 197.307 603.75 203.455H605.75C605.75 197.481 606.587 192.496 608.222 188.467L606.369 187.715ZM603.75 203.455C603.75 209.602 604.61 214.86 606.369 219.194L608.222 218.442C606.587 214.413 605.75 209.428 605.75 203.455H603.75ZM606.371 219.2C608.161 223.533 610.745 226.87 614.148 229.149L615.261 227.487C612.24 225.464 609.885 222.467 608.22 218.436L606.371 219.2ZM614.148 229.149C617.549 231.427 621.583 232.545 626.205 232.545V230.545C621.917 230.545 618.285 229.512 615.261 227.487L614.148 229.149ZM626.205 232.545C630.855 232.545 634.891 231.428 638.265 229.147L637.144 227.49C634.154 229.512 630.524 230.545 626.205 230.545V232.545ZM638.261 229.149C641.666 226.869 644.236 223.529 645.995 219.194L644.142 218.442C642.507 222.471 640.168 225.465 637.148 227.487L638.261 229.149ZM645.992 219.2C647.784 214.864 648.659 209.604 648.659 203.455H646.659C646.659 209.426 645.807 214.409 644.144 218.436L645.992 219.2ZM683.795 250H682.795V251H683.795V250ZM683.795 156.909V155.909H682.795V156.909H683.795ZM740.295 160.682L739.85 161.577L739.857 161.58L740.295 160.682ZM752.068 171.409L751.207 171.918L751.209 171.92L752.068 171.409ZM751.977 204.364L752.824 204.896L752.826 204.893L751.977 204.364ZM739.977 214.636L740.388 215.548L740.392 215.546L739.977 214.636ZM697.25 218.136H696.25V219.136H697.25V218.136ZM697.25 200.409V199.409H696.25V200.409H697.25ZM725.886 199.091L726.247 200.024L726.254 200.021L725.886 199.091ZM731.114 195L731.952 195.545L731.956 195.539L731.114 195ZM731.114 180.773L730.263 181.299L730.267 181.305L731.114 180.773ZM725.886 176.5L725.498 177.422L725.509 177.426L725.886 176.5ZM706.295 175.045V174.045H705.295V175.045H706.295ZM706.295 250V251H707.295V250H706.295ZM736.205 207.455L737.083 206.976L736.798 206.455H736.205V207.455ZM759.386 250V251H761.07L760.264 249.522L759.386 250ZM734.841 250L733.959 250.471L734.241 251H734.841V250ZM712.114 207.455V206.455H710.446L711.232 207.926L712.114 207.455ZM684.795 250V156.909H682.795V250H684.795ZM683.795 157.909H722.25V155.909H683.795V157.909ZM722.25 157.909C729.101 157.909 734.957 159.145 739.85 161.577L740.741 159.786C735.513 157.188 729.339 155.909 722.25 155.909V157.909ZM739.857 161.58C744.78 163.984 748.554 167.427 751.207 171.918L752.929 170.9C750.067 166.057 745.993 162.35 740.734 159.783L739.857 161.58ZM751.209 171.92C753.859 176.376 755.205 181.693 755.205 187.909H757.205C757.205 181.398 755.793 175.715 752.928 170.898L751.209 171.92ZM755.205 187.909C755.205 194.216 753.829 199.509 751.129 203.834L752.826 204.893C755.762 200.188 757.205 194.511 757.205 187.909H755.205ZM751.131 203.832C748.424 208.138 744.58 211.438 739.562 213.727L740.392 215.546C745.738 213.108 749.894 209.558 752.824 204.896L751.131 203.832ZM739.567 213.725C734.542 215.987 728.552 217.136 721.568 217.136V219.136C728.767 219.136 735.049 217.952 740.388 215.548L739.567 213.725ZM721.568 217.136H697.25V219.136H721.568V217.136ZM698.25 218.136V200.409H696.25V218.136H698.25ZM697.25 201.409H717.386V199.409H697.25V201.409ZM717.386 201.409C720.859 201.409 723.824 200.961 726.247 200.024L725.526 198.158C723.404 198.979 720.702 199.409 717.386 199.409V201.409ZM726.254 200.021C728.721 199.047 730.641 197.561 731.952 195.545L730.275 194.455C729.222 196.075 727.657 197.317 725.519 198.161L726.254 200.021ZM731.956 195.539C733.268 193.486 733.886 190.92 733.886 187.909H731.886C731.886 190.655 731.323 192.817 730.271 194.461L731.956 195.539ZM733.886 187.909C733.886 184.897 733.268 182.319 731.96 180.24L730.267 181.305C731.323 182.984 731.886 185.164 731.886 187.909H733.886ZM731.964 180.246C730.659 178.138 728.741 176.584 726.264 175.574L725.509 177.426C727.638 178.294 729.205 179.589 730.263 181.299L731.964 180.246ZM726.274 175.578C723.814 174.542 720.84 174.045 717.386 174.045V176.045C720.66 176.045 723.353 176.518 725.498 177.422L726.274 175.578ZM717.386 174.045H706.295V176.045H717.386V174.045ZM705.295 175.045V250H707.295V175.045H705.295ZM706.295 249H683.795V251H706.295V249ZM735.326 207.933L758.508 250.478L760.264 249.522L737.083 206.976L735.326 207.933ZM759.386 249H734.841V251H759.386V249ZM735.723 249.529L712.996 206.983L711.232 207.926L733.959 250.471L735.723 249.529ZM712.114 208.455H736.205V206.455H712.114V208.455ZM818.864 184.818L817.868 184.909L817.95 185.818H818.864V184.818ZM814.818 177.045L814.196 177.828L814.207 177.837L814.818 177.045ZM797.409 175.364L797.045 174.432L797.045 174.432L797.409 175.364ZM793.045 178.5L793.848 179.097L793.854 179.088L793.045 178.5ZM791.545 183L792.545 183.043L792.545 183.031L792.545 183.018L791.545 183ZM792.364 186.682L791.495 187.178L791.501 187.187L791.506 187.196L792.364 186.682ZM795.091 189.5L794.522 190.322L794.534 190.33L794.546 190.338L795.091 189.5ZM799.455 191.591L799.791 190.649L799.791 190.649L799.455 191.591ZM805.182 193.182L805.403 192.207L805.391 192.204L805.182 193.182ZM813.182 195L812.96 195.975L812.97 195.977L813.182 195ZM825.364 199L824.935 199.904L824.938 199.905L825.364 199ZM834.273 204.955L833.579 205.675L833.584 205.68L834.273 204.955ZM839.773 212.909L838.849 213.292L838.849 213.292L839.773 212.909ZM841.682 223L842.682 223.005L842.682 222.992L841.682 223ZM837.227 238.136L836.407 237.564L836.407 237.564L837.227 238.136ZM824.545 247.818L824.169 246.892L824.167 246.893L824.545 247.818ZM784.318 247.682L784.692 246.754L784.692 246.754L784.318 247.682ZM765.864 219V218H764.851L764.864 219.012L765.864 219ZM787.409 219L788.407 218.94L788.35 218H787.409V219ZM789.818 226.5L789.004 227.08L789.004 227.08L789.818 226.5ZM795.682 231.045L795.299 231.969L795.303 231.971L795.682 231.045ZM812.136 231.364L811.781 230.429L811.776 230.431L812.136 231.364ZM817.091 227.955L816.307 227.334L816.307 227.334L817.091 227.955ZM818.864 222.955L819.864 222.971L819.864 222.954L819.863 222.937L818.864 222.955ZM817.227 218.455L816.459 219.095L816.467 219.104L817.227 218.455ZM812.318 215.182L811.923 216.1L811.93 216.104L811.938 216.107L812.318 215.182ZM803.955 212.591L803.727 213.565L803.728 213.565L803.955 212.591ZM794.227 210.318L794.455 209.344L794.451 209.343L794.227 210.318ZM775.182 201.364L774.515 202.109L774.517 202.111L775.182 201.364ZM768.273 184.545L769.273 184.55L769.273 184.54L768.273 184.545ZM772.909 169.409L772.098 168.825L772.098 168.825L772.909 169.409ZM785.864 159.273L786.266 160.188L786.266 160.188L785.864 159.273ZM823.5 159.318L823.08 160.226L823.086 160.229L823.5 159.318ZM835.909 169.545L836.74 168.989L836.74 168.989L835.909 169.545ZM840.409 184.818V185.818H841.42L841.409 184.808L840.409 184.818ZM819.86 184.728C819.534 181.15 818.068 178.292 815.429 176.254L814.207 177.837C816.356 179.496 817.587 181.82 817.868 184.909L819.86 184.728ZM815.44 176.263C812.835 174.192 809.202 173.227 804.682 173.227V175.227C808.949 175.227 812.074 176.142 814.196 177.828L815.44 176.263ZM804.682 173.227C801.694 173.227 799.137 173.615 797.045 174.432L797.773 176.295C799.56 175.597 801.851 175.227 804.682 175.227V173.227ZM797.045 174.432C794.974 175.241 793.345 176.388 792.237 177.912L793.854 179.088C794.685 177.945 795.965 177.001 797.773 176.295L797.045 174.432ZM792.243 177.903C791.143 179.382 790.579 181.086 790.546 182.982L792.545 183.018C792.572 181.52 793.009 180.225 793.848 179.097L792.243 177.903ZM790.546 182.957C790.479 184.512 790.783 185.931 791.495 187.178L793.232 186.186C792.732 185.311 792.491 184.276 792.545 183.043L790.546 182.957ZM791.506 187.196C792.227 188.397 793.242 189.436 794.522 190.322L795.66 188.678C794.576 187.928 793.773 187.088 793.221 186.167L791.506 187.196ZM794.546 190.338C795.837 191.178 797.365 191.907 799.118 192.533L799.791 190.649C798.15 190.063 796.769 189.398 795.636 188.662L794.546 190.338ZM799.118 192.533C800.864 193.156 802.816 193.698 804.972 194.16L805.391 192.204C803.305 191.757 801.439 191.238 799.791 190.649L799.118 192.533ZM804.96 194.157L812.96 195.975L813.403 194.025L805.403 192.207L804.96 194.157ZM812.97 195.977C817.516 196.964 821.502 198.276 824.935 199.904L825.792 198.096C822.195 196.391 818.06 195.036 813.394 194.023L812.97 195.977ZM824.938 199.905C828.402 201.533 831.277 203.46 833.579 205.675L834.966 204.234C832.481 201.843 829.416 199.8 825.789 198.095L824.938 199.905ZM833.584 205.68C835.91 207.889 837.662 210.425 838.849 213.292L840.697 212.526C839.399 209.393 837.484 206.626 834.961 204.23L833.584 205.68ZM838.849 213.292C840.035 216.157 840.652 219.391 840.682 223.008L842.682 222.992C842.651 219.155 841.995 215.661 840.697 212.526L838.849 213.292ZM840.682 222.995C840.652 228.701 839.214 233.542 836.407 237.564L838.047 238.709C841.119 234.307 842.651 229.057 842.682 223.005L840.682 222.995ZM836.407 237.564C833.595 241.594 829.534 244.71 824.169 246.892L824.922 248.745C830.587 246.441 834.981 243.103 838.047 238.709L836.407 237.564ZM824.167 246.893C818.833 249.073 812.348 250.182 804.682 250.182V252.182C812.531 252.182 819.288 251.048 824.924 248.744L824.167 246.893ZM804.682 250.182C796.991 250.182 790.336 249.03 784.692 246.754L783.944 248.609C789.876 251.001 796.796 252.182 804.682 252.182V250.182ZM784.692 246.754C779.072 244.489 774.738 241.064 771.647 236.486L769.989 237.605C773.323 242.542 777.988 246.208 783.944 248.609L784.692 246.754ZM771.647 236.486C768.57 231.928 766.953 226.117 766.864 218.988L764.864 219.012C764.956 226.428 766.642 232.647 769.989 237.605L771.647 236.486ZM765.864 220H787.409V218H765.864V220ZM786.411 219.06C786.602 222.205 787.449 224.897 789.004 227.08L790.633 225.92C789.339 224.103 788.58 221.795 788.407 218.94L786.411 219.06ZM789.004 227.08C790.547 229.247 792.658 230.874 795.299 231.969L796.065 230.122C793.736 229.156 791.938 227.753 790.633 225.92L789.004 227.08ZM795.303 231.971C797.961 233.06 801.003 233.591 804.409 233.591V231.591C801.209 231.591 798.433 231.092 796.061 230.12L795.303 231.971ZM804.409 233.591C807.524 233.591 810.229 233.171 812.496 232.297L811.776 230.431C809.801 231.192 807.355 231.591 804.409 231.591V233.591ZM812.492 232.298C814.772 231.431 816.587 230.202 817.875 228.575L816.307 227.334C815.291 228.617 813.804 229.66 811.781 230.429L812.492 232.298ZM817.875 228.575C819.165 226.946 819.83 225.066 819.864 222.971L817.864 222.938C817.837 224.6 817.32 226.054 816.307 227.334L817.875 228.575ZM819.863 222.937C819.83 220.967 819.211 219.238 817.988 217.805L816.467 219.104C817.365 220.156 817.837 221.427 817.864 222.972L819.863 222.937ZM817.995 217.814C816.795 216.373 814.999 215.202 812.698 214.257L811.938 216.107C814.062 216.98 815.539 217.99 816.459 219.095L817.995 217.814ZM812.714 214.263C810.458 213.292 807.608 212.413 804.181 211.617L803.728 213.565C807.089 214.345 809.814 215.193 811.923 216.1L812.714 214.263ZM804.182 211.617L794.455 209.344L794 211.292L803.727 213.565L804.182 211.617ZM794.451 209.343C786.501 207.52 780.322 204.595 775.846 200.616L774.517 202.111C779.314 206.375 785.832 209.419 794.004 211.293L794.451 209.343ZM775.849 200.619C771.455 196.685 769.243 191.367 769.273 184.55L767.273 184.541C767.241 191.845 769.636 197.74 774.515 202.109L775.849 200.619ZM769.273 184.54C769.243 178.977 770.733 174.142 773.721 169.994L772.098 168.825C768.843 173.343 767.241 178.599 767.273 184.551L769.273 184.54ZM773.721 169.994C776.725 165.823 780.893 162.55 786.266 160.188L785.461 158.357C779.804 160.844 775.336 164.329 772.098 168.825L773.721 169.994ZM786.266 160.188C791.634 157.828 797.782 156.636 804.727 156.636V154.636C797.552 154.636 791.123 155.869 785.461 158.357L786.266 160.188ZM804.727 156.636C811.827 156.636 817.936 157.845 823.08 160.226L823.92 158.411C818.458 155.883 812.051 154.636 804.727 154.636V156.636ZM823.086 160.229C828.269 162.584 832.253 165.879 835.078 170.101L836.74 168.989C833.686 164.424 829.398 160.9 823.914 158.408L823.086 160.229ZM835.078 170.101C837.899 174.319 839.35 179.216 839.409 184.829L841.409 184.808C841.347 178.845 839.798 173.56 836.74 168.989L835.078 170.101ZM840.409 183.818H818.864V185.818H840.409V183.818Z" fill="black"/>
</svg>
