<svg width="932" height="252" viewBox="0 0 932 252" fill="none" xmlns="http://www.w3.org/2000/svg">
<path d="M1.04545 95H0.045455V96H1.04545V95ZM1.04545 1.90909V0.909088H0.045455V1.90909H1.04545ZM65.9545 1.90909H66.9545V0.909088H65.9545V1.90909ZM65.9545 20.1818V21.1818H66.9545V20.1818H65.9545ZM23.5455 20.1818V19.1818H22.5455V20.1818H23.5455ZM23.5455 39.2727H22.5455V40.2727H23.5455V39.2727ZM62.6364 39.2727H63.6364V38.2727H62.6364V39.2727ZM62.6364 57.5909V58.5909H63.6364V57.5909H62.6364ZM23.5455 57.5909V56.5909H22.5455V57.5909H23.5455ZM23.5455 76.7273H22.5455V77.7273H23.5455V76.7273ZM65.9545 76.7273H66.9545V75.7273H65.9545V76.7273ZM65.9545 95V96H66.9545V95H65.9545ZM2.04545 95V1.90909H0.045455V95H2.04545ZM1.04545 2.90909H65.9545V0.909088H1.04545V2.90909ZM64.9545 1.90909V20.1818H66.9545V1.90909H64.9545ZM65.9545 19.1818H23.5455V21.1818H65.9545V19.1818ZM22.5455 20.1818V39.2727H24.5455V20.1818H22.5455ZM23.5455 40.2727H62.6364V38.2727H23.5455V40.2727ZM61.6364 39.2727V57.5909H63.6364V39.2727H61.6364ZM62.6364 56.5909H23.5455V58.5909H62.6364V56.5909ZM22.5455 57.5909V76.7273H24.5455V57.5909H22.5455ZM23.5455 77.7273H65.9545V75.7273H23.5455V77.7273ZM64.9545 76.7273V95H66.9545V76.7273H64.9545ZM65.9545 94H1.04545V96H65.9545V94ZM130.364 29.8182L129.368 29.9087L129.45 30.8182H130.364V29.8182ZM126.318 22.0455L125.696 22.8284L125.707 22.837L126.318 22.0455ZM108.909 20.3636L108.545 19.4322L108.545 19.4322L108.909 20.3636ZM104.545 23.5L105.348 24.097L105.354 24.0882L104.545 23.5ZM103.045 28L104.045 28.0434L104.045 28.0307L104.045 28.0179L103.045 28ZM103.864 31.6818L102.995 32.178L103.001 32.1872L103.006 32.1963L103.864 31.6818ZM106.591 34.5L106.022 35.3222L106.034 35.3305L106.046 35.3384L106.591 34.5ZM110.955 36.5909L111.291 35.6492L111.291 35.6492L110.955 36.5909ZM116.682 38.1818L116.903 37.2066L116.891 37.204L116.682 38.1818ZM124.682 40L124.46 40.9752L124.47 40.9772L124.682 40ZM136.864 44L136.435 44.9036L136.438 44.905L136.864 44ZM145.773 49.9545L145.079 50.6752L145.084 50.6795L145.773 49.9545ZM151.273 57.9091L150.349 58.2917L150.349 58.2917L151.273 57.9091ZM153.182 68L154.182 68.0052L154.182 67.9919L153.182 68ZM148.727 83.1364L147.907 82.5641L147.907 82.5641L148.727 83.1364ZM136.045 92.8182L135.669 91.8918L135.667 91.8926L136.045 92.8182ZM95.8182 92.6818L96.1921 91.7543L96.1921 91.7543L95.8182 92.6818ZM77.3636 64V63H76.3511L76.3637 64.0125L77.3636 64ZM98.9091 64L99.9073 63.9395L99.8503 63H98.9091V64ZM101.318 71.5L100.504 72.0801L100.504 72.0801L101.318 71.5ZM107.182 76.0455L106.799 76.9692L106.803 76.9708L107.182 76.0455ZM123.636 76.3636L123.281 75.4289L123.276 75.4306L123.636 76.3636ZM128.591 72.9545L127.807 72.3338L127.807 72.3338L128.591 72.9545ZM130.364 67.9545L131.364 67.9707L131.364 67.954L131.363 67.9373L130.364 67.9545ZM128.727 63.4545L127.959 64.0948L127.967 64.1038L128.727 63.4545ZM123.818 60.1818L123.423 61.1003L123.43 61.1036L123.438 61.1068L123.818 60.1818ZM115.455 57.5909L115.227 58.5647L115.228 58.565L115.455 57.5909ZM105.727 55.3182L105.955 54.3444L105.951 54.3435L105.727 55.3182ZM86.6818 46.3636L86.0147 47.1086L86.0175 47.111L86.6818 46.3636ZM79.7727 29.5455L80.7728 29.5497L80.7727 29.5402L79.7727 29.5455ZM84.4091 14.4091L83.5977 13.8246L83.5977 13.8246L84.4091 14.4091ZM97.3636 4.27273L97.766 5.18819L97.766 5.18819L97.3636 4.27273ZM135 4.31818L134.58 5.2257L134.586 5.22854L135 4.31818ZM147.409 14.5455L148.24 13.9894L148.24 13.9894L147.409 14.5455ZM151.909 29.8182V30.8182H152.92L152.909 29.8077L151.909 29.8182ZM131.36 29.7276C131.034 26.1501 129.568 23.2915 126.929 21.2539L125.707 22.837C127.856 24.4963 129.087 26.8196 129.368 29.9087L131.36 29.7276ZM126.94 21.2626C124.335 19.1917 120.702 18.2273 116.182 18.2273V20.2273C120.449 20.2273 123.574 21.1416 125.696 22.8283L126.94 21.2626ZM116.182 18.2273C113.194 18.2273 110.637 18.6152 108.545 19.4322L109.273 21.2951C111.06 20.5969 113.351 20.2273 116.182 20.2273V18.2273ZM108.545 19.4322C106.474 20.2411 104.845 21.3879 103.737 22.9118L105.354 24.0882C106.185 22.9454 107.465 22.0013 109.273 21.2951L108.545 19.4322ZM103.743 22.903C102.643 24.3815 102.079 26.0862 102.046 27.9821L104.045 28.0179C104.072 26.5198 104.509 25.2245 105.348 24.097L103.743 22.903ZM102.046 27.9566C101.979 29.5116 102.283 30.9311 102.995 32.178L104.732 31.1857C104.232 30.3113 103.991 29.2762 104.045 28.0434L102.046 27.9566ZM103.006 32.1963C103.727 33.397 104.742 34.4361 106.022 35.3222L107.16 33.6778C106.076 32.9275 105.273 32.0878 104.721 31.1673L103.006 32.1963ZM106.046 35.3384C107.337 36.1777 108.865 36.9065 110.618 37.5326L111.291 35.6492C109.65 35.0632 108.269 34.3981 107.136 33.6616L106.046 35.3384ZM110.618 37.5326C112.364 38.1561 114.316 38.6976 116.472 39.1596L116.891 37.204C114.805 36.7569 112.939 36.2378 111.291 35.6492L110.618 37.5326ZM116.46 39.1569L124.46 40.9751L124.903 39.0249L116.903 37.2067L116.46 39.1569ZM124.47 40.9772C129.016 41.9643 133.002 43.2757 136.435 44.9036L137.292 43.0964C133.695 41.391 129.56 40.0357 124.894 39.0228L124.47 40.9772ZM136.438 44.905C139.902 46.5334 142.777 48.46 145.079 50.6752L146.466 49.2339C143.981 46.843 140.916 44.8 137.289 43.095L136.438 44.905ZM145.084 50.6795C147.41 52.8891 149.162 55.4249 150.349 58.2917L152.197 57.5265C150.899 54.3932 148.984 51.626 146.461 49.2295L145.084 50.6795ZM150.349 58.2917C151.535 61.1567 152.152 64.3906 152.182 68.0081L154.182 67.9919C154.151 64.1549 153.495 60.6615 152.197 57.5265L150.349 58.2917ZM152.182 67.9948C152.152 73.701 150.714 78.5416 147.907 82.5641L149.547 83.7086C152.619 79.3069 154.151 74.0565 154.182 68.0052L152.182 67.9948ZM147.907 82.5641C145.095 86.5939 141.034 89.7103 135.669 91.8918L136.422 93.7445C142.087 91.4412 146.481 88.1031 149.547 83.7086L147.907 82.5641ZM135.667 91.8926C130.333 94.0732 123.848 95.1818 116.182 95.1818V97.1818C124.031 97.1818 130.788 96.048 136.424 93.7438L135.667 91.8926ZM116.182 95.1818C108.491 95.1818 101.836 94.0295 96.1921 91.7543L95.4443 93.6093C101.376 96.0008 108.296 97.1818 116.182 97.1818V95.1818ZM96.1921 91.7543C90.5723 89.4888 86.2378 86.0638 83.147 81.4859L81.4894 82.605C84.8228 87.5423 89.4883 91.2082 95.4443 93.6093L96.1921 91.7543ZM83.147 81.4859C80.0699 76.9283 78.4527 71.117 78.3636 63.9875L76.3637 64.0125C76.4564 71.4285 78.1423 77.6475 81.4894 82.605L83.147 81.4859ZM77.3636 65H98.9091V63H77.3636V65ZM97.9109 64.0605C98.1015 67.2055 98.9487 69.8965 100.504 72.0801L102.133 70.9199C100.839 69.1035 100.08 66.7945 99.9073 63.9395L97.9109 64.0605ZM100.504 72.0801C102.047 74.2473 104.158 75.8742 106.799 76.9692L107.565 75.1217C105.236 74.1561 103.438 72.7527 102.133 70.9199L100.504 72.0801ZM106.803 76.9708C109.461 78.0598 112.503 78.5909 115.909 78.5909V76.5909C112.709 76.5909 109.933 76.0917 107.561 75.1201L106.803 76.9708ZM115.909 78.5909C119.024 78.5909 121.729 78.1711 123.996 77.2966L123.276 75.4306C121.301 76.1925 118.855 76.5909 115.909 76.5909V78.5909ZM123.992 77.2983C126.272 76.4314 128.087 75.2016 129.375 73.5752L127.807 72.3338C126.791 73.6166 125.304 74.6595 123.281 75.4289L123.992 77.2983ZM129.375 73.5752C130.665 71.946 131.33 70.0662 131.364 67.9707L129.364 67.9384C129.337 69.6005 128.82 71.054 127.807 72.3338L129.375 73.5752ZM131.363 67.9373C131.33 65.9666 130.711 64.2381 129.488 62.8053L127.967 64.1038C128.865 65.1558 129.337 66.4273 129.364 67.9718L131.363 67.9373ZM129.495 62.8144C128.295 61.3734 126.499 60.2023 124.198 59.2569L123.438 61.1068C125.562 61.9796 127.039 62.9903 127.959 64.0947L129.495 62.8144ZM124.214 59.2633C121.958 58.2923 119.108 57.4125 115.681 56.6168L115.228 58.565C118.589 59.345 121.314 60.1926 123.423 61.1003L124.214 59.2633ZM115.682 56.6171L105.955 54.3444L105.5 56.292L115.227 58.5647L115.682 56.6171ZM105.951 54.3435C98.0014 52.5205 91.8221 49.5948 87.3462 45.6162L86.0175 47.111C90.8142 51.3749 97.3319 54.4189 105.504 56.2929L105.951 54.3435ZM87.3489 45.6186C82.9554 41.6846 80.7435 36.3672 80.7727 29.5497L78.7727 29.5412C78.7414 36.8449 81.1355 42.7397 86.0147 47.1086L87.3489 45.6186ZM80.7727 29.5402C80.7434 23.9767 82.2328 19.1415 85.2205 14.9935L83.5977 13.8246C80.343 18.3433 78.7414 23.5991 78.7727 29.5507L80.7727 29.5402ZM85.2205 14.9935C88.2245 10.8229 92.3929 7.54999 97.766 5.18819L96.9612 3.35726C91.304 5.84395 86.8361 9.32858 83.5977 13.8246L85.2205 14.9935ZM97.766 5.18819C103.134 2.82845 109.282 1.63636 116.227 1.63636V-0.36364C109.052 -0.36364 102.623 0.868512 96.9612 3.35726L97.766 5.18819ZM116.227 1.63636C123.327 1.63636 129.436 2.84461 134.58 5.22568L135.42 3.41067C129.958 0.882653 123.551 -0.36364 116.227 -0.36364V1.63636ZM134.586 5.22854C139.769 7.58439 143.753 10.8786 146.578 15.1015L148.24 13.9894C145.186 9.42445 140.898 5.90045 135.414 3.40781L134.586 5.22854ZM146.578 15.1015C149.399 19.3186 150.85 24.216 150.909 29.8286L152.909 29.8077C152.847 23.8446 151.298 18.5602 148.24 13.9894L146.578 15.1015ZM151.909 28.8182H130.364V30.8182H151.909V28.8182ZM161.5 20.1818H160.5V21.1818H161.5V20.1818ZM161.5 1.90909V0.909088H160.5V1.90909H161.5ZM240.182 1.90909H241.182V0.909088H240.182V1.90909ZM240.182 20.1818V21.1818H241.182V20.1818H240.182ZM211.955 20.1818V19.1818H210.955V20.1818H211.955ZM211.955 95V96H212.955V95H211.955ZM189.773 95H188.773V96H189.773V95ZM189.773 20.1818H190.773V19.1818H189.773V20.1818ZM162.5 20.1818V1.90909H160.5V20.1818H162.5ZM161.5 2.90909H240.182V0.909088H161.5V2.90909ZM239.182 1.90909V20.1818H241.182V1.90909H239.182ZM240.182 19.1818H211.955V21.1818H240.182V19.1818ZM210.955 20.1818V95H212.955V20.1818H210.955ZM211.955 94H189.773V96H211.955V94ZM190.773 95V20.1818H188.773V95H190.773ZM189.773 19.1818H161.5V21.1818H189.773V19.1818ZM251.17 95H250.17V96H251.17V95ZM251.17 1.90909V0.909088H250.17V1.90909H251.17ZM307.67 5.68182L307.225 6.57734L307.232 6.58048L307.67 5.68182ZM319.443 16.4091L318.582 16.9178L318.584 16.9203L319.443 16.4091ZM319.352 49.3636L320.199 49.8957L320.201 49.8931L319.352 49.3636ZM307.352 59.6364L307.763 60.5482L307.767 60.5462L307.352 59.6364ZM264.625 63.1364H263.625V64.1364H264.625V63.1364ZM264.625 45.4091V44.4091H263.625V45.4091H264.625ZM293.261 44.0909L293.622 45.0236L293.629 45.0211L293.261 44.0909ZM298.489 40L299.327 40.545L299.331 40.5387L298.489 40ZM298.489 25.7727L297.638 26.2991L297.642 26.3052L298.489 25.7727ZM293.261 21.5L292.873 22.4217L292.884 22.4259L293.261 21.5ZM273.67 20.0455V19.0455H272.67V20.0455H273.67ZM273.67 95V96H274.67V95H273.67ZM303.58 52.4545L304.458 51.9761L304.173 51.4545H303.58V52.4545ZM326.761 95V96H328.445L327.639 94.5215L326.761 95ZM302.216 95L301.334 95.4712L301.616 96H302.216V95ZM279.489 52.4545V51.4545H277.821L278.607 52.9257L279.489 52.4545ZM252.17 95V1.90909H250.17V95H252.17ZM251.17 2.90909H289.625V0.909088H251.17V2.90909ZM289.625 2.90909C296.476 2.90909 302.332 4.14506 307.225 6.57731L308.116 4.78632C302.888 2.18827 296.714 0.909088 289.625 0.909088V2.90909ZM307.232 6.58048C312.155 8.98356 315.929 12.4275 318.582 16.9178L320.304 15.9004C317.442 11.0573 313.368 7.34977 308.109 4.78315L307.232 6.58048ZM318.584 16.9203C321.234 21.3762 322.58 26.6928 322.58 32.9091H324.58C324.58 26.3981 323.168 20.7147 320.303 15.8979L318.584 16.9203ZM322.58 32.9091C322.58 39.2164 321.204 44.5086 318.504 48.8341L320.201 49.8931C323.137 45.1883 324.58 39.5108 324.58 32.9091H322.58ZM318.506 48.8316C315.799 53.1385 311.955 56.4376 306.937 58.7265L307.767 60.5462C313.113 58.1079 317.269 54.5585 320.199 49.8957L318.506 48.8316ZM306.942 58.7245C301.917 60.9872 295.927 62.1364 288.943 62.1364V64.1364C296.142 64.1364 302.424 62.9522 307.763 60.5482L306.942 58.7245ZM288.943 62.1364H264.625V64.1364H288.943V62.1364ZM265.625 63.1364V45.4091H263.625V63.1364H265.625ZM264.625 46.4091H284.761V44.4091H264.625V46.4091ZM284.761 46.4091C288.234 46.4091 291.199 45.9606 293.622 45.0236L292.901 43.1582C290.779 43.9788 288.077 44.4091 284.761 44.4091V46.4091ZM293.629 45.0211C296.096 44.0469 298.016 42.5614 299.327 40.545L297.65 39.455C296.597 41.075 295.032 42.3167 292.894 43.1608L293.629 45.0211ZM299.331 40.5387C300.643 38.4863 301.261 35.9203 301.261 32.9091H299.261C299.261 35.6555 298.698 37.8167 297.646 39.4613L299.331 40.5387ZM301.261 32.9091C301.261 29.8969 300.643 27.3195 299.335 25.2403L297.642 26.3052C298.698 27.9836 299.261 30.1637 299.261 32.9091H301.261ZM299.339 25.2464C298.034 23.1381 296.116 21.5843 293.639 20.5741L292.884 22.4259C295.013 23.2945 296.58 24.5891 297.638 26.2991L299.339 25.2464ZM293.649 20.5784C291.189 19.5424 288.215 19.0455 284.761 19.0455V21.0455C288.035 21.0455 290.728 21.5182 292.873 22.4216L293.649 20.5784ZM284.761 19.0455H273.67V21.0455H284.761V19.0455ZM272.67 20.0455V95H274.67V20.0455H272.67ZM273.67 94H251.17V96H273.67V94ZM302.701 52.933L325.883 95.4785L327.639 94.5215L304.458 51.9761L302.701 52.933ZM326.761 94H302.216V96H326.761V94ZM303.098 94.5288L280.371 51.9834L278.607 52.9257L301.334 95.4712L303.098 94.5288ZM279.489 53.4545H303.58V51.4545H279.489V53.4545ZM335.92 95H334.92V96H335.92V95ZM335.92 1.90909V0.909088H334.92V1.90909H335.92ZM400.83 1.90909H401.83V0.909088H400.83V1.90909ZM400.83 20.1818V21.1818H401.83V20.1818H400.83ZM358.42 20.1818V19.1818H357.42V20.1818H358.42ZM358.42 39.2727H357.42V40.2727H358.42V39.2727ZM397.511 39.2727H398.511V38.2727H397.511V39.2727ZM397.511 57.5909V58.5909H398.511V57.5909H397.511ZM358.42 57.5909V56.5909H357.42V57.5909H358.42ZM358.42 76.7273H357.42V77.7273H358.42V76.7273ZM400.83 76.7273H401.83V75.7273H400.83V76.7273ZM400.83 95V96H401.83V95H400.83ZM336.92 95V1.90909H334.92V95H336.92ZM335.92 2.90909H400.83V0.909088H335.92V2.90909ZM399.83 1.90909V20.1818H401.83V1.90909H399.83ZM400.83 19.1818H358.42V21.1818H400.83V19.1818ZM357.42 20.1818V39.2727H359.42V20.1818H357.42ZM358.42 40.2727H397.511V38.2727H358.42V40.2727ZM396.511 39.2727V57.5909H398.511V39.2727H396.511ZM397.511 56.5909H358.42V58.5909H397.511V56.5909ZM357.42 57.5909V76.7273H359.42V57.5909H357.42ZM358.42 77.7273H400.83V75.7273H358.42V77.7273ZM399.83 76.7273V95H401.83V76.7273H399.83ZM400.83 94H335.92V96H400.83V94ZM414.92 95H413.92V96H414.92V95ZM414.92 1.90909V0.909088H413.92V1.90909H414.92ZM437.42 1.90909H438.42V0.909088H437.42V1.90909ZM437.42 76.7273H436.42V77.7273H437.42V76.7273ZM476.148 76.7273H477.148V75.7273H476.148V76.7273ZM476.148 95V96H477.148V95H476.148ZM415.92 95V1.90909H413.92V95H415.92ZM414.92 2.90909H437.42V0.909088H414.92V2.90909ZM436.42 1.90909V76.7273H438.42V1.90909H436.42ZM437.42 77.7273H476.148V75.7273H437.42V77.7273ZM475.148 76.7273V95H477.148V76.7273H475.148ZM476.148 94H414.92V96H476.148V94ZM487.795 95H486.795V96H487.795V95ZM487.795 1.90909V0.909088H486.795V1.90909H487.795ZM510.295 1.90909H511.295V0.909088H510.295V1.90909ZM510.295 76.7273H509.295V77.7273H510.295V76.7273ZM549.023 76.7273H550.023V75.7273H549.023V76.7273ZM549.023 95V96H550.023V95H549.023ZM488.795 95V1.90909H486.795V95H488.795ZM487.795 2.90909H510.295V0.909088H487.795V2.90909ZM509.295 1.90909V76.7273H511.295V1.90909H509.295ZM510.295 77.7273H549.023V75.7273H510.295V77.7273ZM548.023 76.7273V95H550.023V76.7273H548.023ZM549.023 94H487.795V96H549.023V94ZM582.057 95V96H582.791L583.011 95.299L582.057 95ZM557.875 95L556.927 94.6803L556.482 96H557.875V95ZM589.284 1.90909V0.909088H588.566L588.337 1.58939L589.284 1.90909ZM619.239 1.90909L620.186 1.58939L619.957 0.909088H619.239V1.90909ZM650.648 95V96H652.041L651.595 94.6803L650.648 95ZM626.466 95L625.512 95.2996L625.732 96H626.466V95ZM604.602 25.3636L605.556 25.0641L605.336 24.3636H604.602V25.3636ZM603.875 25.3636V24.3636H603.14L602.921 25.0646L603.875 25.3636ZM578.83 58.3636V57.3636H577.83V58.3636H578.83ZM629.375 58.3636H630.375V57.3636H629.375V58.3636ZM629.375 75.4545V76.4545H630.375V75.4545H629.375ZM578.83 75.4545H577.83V76.4545H578.83V75.4545ZM582.057 94H557.875V96H582.057V94ZM558.823 95.3197L590.232 2.22878L588.337 1.58939L556.927 94.6803L558.823 95.3197ZM589.284 2.90909H619.239V0.909088H589.284V2.90909ZM618.291 2.22878L649.7 95.3197L651.595 94.6803L620.186 1.58939L618.291 2.22878ZM650.648 94H626.466V96H650.648V94ZM627.42 94.7004L605.556 25.0641L603.648 25.6632L625.512 95.2996L627.42 94.7004ZM604.602 24.3636H603.875V26.3636H604.602V24.3636ZM602.921 25.0646L581.103 94.701L583.011 95.299L604.829 25.6626L602.921 25.0646ZM578.83 59.3636H629.375V57.3636H578.83V59.3636ZM628.375 58.3636V75.4545H630.375V58.3636H628.375ZM629.375 74.4545H578.83V76.4545H629.375V74.4545ZM579.83 75.4545V58.3636H577.83V75.4545H579.83ZM772.67 35.6364V36.6364H773.773L773.666 35.539L772.67 35.6364ZM749.943 35.6364L748.952 35.7651L749.065 36.6364H749.943V35.6364ZM748.08 29.3182L747.185 29.7654L747.185 29.7654L748.08 29.3182ZM744.352 24.5L745.006 23.7428L745.006 23.7428L744.352 24.5ZM738.852 21.4545L738.524 22.399L738.532 22.4019L738.54 22.4046L738.852 21.4545ZM720.216 23.6818L719.656 22.8533L719.652 22.8558L720.216 23.6818ZM712.716 33.2727L711.794 32.8853L711.792 32.891L712.716 33.2727ZM712.761 64L711.839 64.3875L711.843 64.3955L712.761 64ZM720.261 73.4091L719.71 74.2436L719.719 74.2495L720.261 73.4091ZM738.534 75.5909L738.239 74.6354L738.235 74.6367L738.534 75.5909ZM743.943 72.8182L744.56 73.605L744.562 73.6035L743.943 72.8182ZM747.807 68.3182L746.94 67.8189L746.938 67.8237L747.807 68.3182ZM749.943 62.2727L749.949 61.2727L749.104 61.2677L748.958 62.0997L749.943 62.2727ZM772.67 62.4091L773.666 62.5042L773.77 61.4157L772.676 61.4091L772.67 62.4091ZM769.08 74.5909L768.185 74.1437L768.182 74.1491L769.08 74.5909ZM760.943 85.5455L761.631 86.2714L761.634 86.2682L760.943 85.5455ZM748.307 93.3636L747.943 92.4321L747.941 92.4328L748.307 93.3636ZM708.67 90.7273L708.181 91.5992L708.185 91.6018L708.67 90.7273ZM692.943 74.4545L693.823 73.9791L692.943 74.4545ZM693.034 22.4091L692.157 21.9279L692.157 21.9279L693.034 22.4091ZM746.943 3L746.631 3.94989L746.636 3.95165L746.943 3ZM759.58 9.81818L758.943 10.5896L758.947 10.5927L759.58 9.81818ZM772.67 34.6364H749.943V36.6364H772.67V34.6364ZM750.935 35.5076C750.619 33.0766 749.969 30.861 748.974 28.871L747.185 29.7654C748.069 31.533 748.661 33.5295 748.952 35.7651L750.935 35.5076ZM748.974 28.871C747.977 26.8775 746.654 25.1651 745.006 23.7428L743.699 25.2572C745.141 26.5016 746.303 28.0013 747.185 29.7654L748.974 28.871ZM745.006 23.7428C743.351 22.3156 741.399 21.2388 739.164 20.5045L738.54 22.4046C740.548 23.0643 742.262 24.0178 743.699 25.2572L745.006 23.7428ZM739.181 20.51C736.97 19.741 734.539 19.3636 731.898 19.3636V21.3636C734.348 21.3636 736.553 21.7136 738.524 22.399L739.181 20.51ZM731.898 19.3636C727.212 19.3636 723.117 20.514 719.656 22.8533L720.776 24.5103C723.86 22.4254 727.553 21.3636 731.898 21.3636V19.3636ZM719.652 22.8558C716.227 25.1926 713.614 28.5541 711.794 32.8853L713.638 33.6602C715.333 29.6277 717.72 26.5953 720.779 24.5079L719.652 22.8558ZM711.792 32.891C710.001 37.2253 709.125 42.4231 709.125 48.4545H711.125C711.125 42.6072 711.976 37.6838 713.64 33.6545L711.792 32.891ZM709.125 48.4545C709.125 54.7241 710.015 60.0472 711.839 64.3875L713.683 63.6125C711.992 59.5892 711.125 54.5486 711.125 48.4545H709.125ZM711.843 64.3955C713.694 68.6942 716.309 71.9973 719.71 74.2436L720.812 72.5746C717.79 70.5784 715.404 67.6088 713.68 63.6045L711.843 64.3955ZM719.719 74.2495C723.146 76.4592 727.174 77.5455 731.761 77.5455V75.5455C727.5 75.5455 723.861 74.5408 720.803 72.5687L719.719 74.2495ZM731.761 77.5455C734.331 77.5455 736.691 77.2164 738.833 76.5451L738.235 74.6367C736.316 75.2381 734.161 75.5455 731.761 75.5455V77.5455ZM738.829 76.5464C740.995 75.8775 742.91 74.8996 744.56 73.605L743.326 72.0313C741.886 73.161 740.194 74.0316 738.239 74.6354L738.829 76.5464ZM744.562 73.6035C746.24 72.2805 747.613 70.6815 748.676 68.8127L746.938 67.8237C746.001 69.47 744.798 70.871 743.324 72.0329L744.562 73.6035ZM748.673 68.8175C749.767 66.9187 750.516 64.7912 750.928 62.4458L748.958 62.0997C748.582 64.2391 747.907 66.1419 746.94 67.8189L748.673 68.8175ZM749.937 63.2727L772.664 63.4091L772.676 61.4091L749.949 61.2727L749.937 63.2727ZM771.675 62.3139C771.294 66.3031 770.134 70.2449 768.185 74.1437L769.974 75.0381C772.025 70.9369 773.259 66.7575 773.666 62.5042L771.675 62.3139ZM768.182 74.1491C766.268 78.0368 763.628 81.5947 760.252 84.8227L761.634 86.2682C765.167 82.8902 767.952 79.145 769.977 75.0327L768.182 74.1491ZM760.255 84.8195C756.905 87.9933 752.807 90.534 747.943 92.4321L748.67 94.2952C753.746 92.3145 758.072 89.6431 761.631 86.2714L760.255 84.8195ZM747.941 92.4328C743.14 94.3182 737.601 95.2727 731.307 95.2727V97.2727C737.801 97.2727 743.595 96.2879 748.672 94.2945L747.941 92.4328ZM731.307 95.2727C723.034 95.2727 715.659 93.459 709.155 89.8527L708.185 91.6018C715.016 95.3895 722.731 97.2727 731.307 97.2727V95.2727ZM709.16 89.8554C702.699 86.2267 697.587 80.945 693.823 73.9791L692.063 74.93C695.996 82.2065 701.369 87.7733 708.181 91.5992L709.16 89.8554ZM693.823 73.9791C690.071 67.0373 688.17 58.5432 688.17 48.4545H686.17C686.17 58.7901 688.118 67.6294 692.063 74.93L693.823 73.9791ZM688.17 48.4545C688.17 38.3373 690.101 29.8304 693.911 22.8903L692.157 21.9279C688.149 29.2302 686.17 38.0869 686.17 48.4545H688.17ZM693.911 22.8903C697.735 15.9232 702.892 10.6557 709.383 7.05635L708.413 5.30728C701.57 9.10186 696.151 14.6526 692.157 21.9279L693.911 22.8903ZM709.383 7.05635C715.888 3.44859 723.189 1.63636 731.307 1.63636V-0.36364C722.879 -0.36364 715.24 1.52111 708.413 5.30728L709.383 7.05635ZM731.307 1.63636C736.849 1.63636 741.955 2.41099 746.631 3.94988L747.256 2.05012C742.356 0.437488 737.037 -0.36364 731.307 -0.36364V1.63636ZM746.636 3.95165C751.312 5.46096 755.411 7.67516 758.943 10.5895L760.216 9.0468C756.476 5.96119 752.15 3.62994 747.25 2.04835L746.636 3.95165ZM758.947 10.5927C762.475 13.4736 765.345 17.0181 767.558 21.2372L769.329 20.3083C766.996 15.8607 763.957 12.1022 760.212 9.04364L758.947 10.5927ZM767.558 21.2372C769.762 25.441 771.14 30.2678 771.675 35.7337L773.666 35.539C773.11 29.8534 771.669 24.7711 769.329 20.3083L767.558 21.2372ZM867.5 74.5L866.625 74.0159L866.625 74.0159L867.5 74.5ZM851.5 90.7273L851.018 89.8509L851.017 89.8518L851.5 90.7273ZM806.364 90.6818L806.85 89.808L806.85 89.808L806.364 90.6818ZM790.409 74.4545L789.532 74.9358L789.535 74.9402L790.409 74.4545ZM790.409 22.4091L789.534 21.925L789.532 21.9279L790.409 22.4091ZM806.364 6.18182L806.847 7.05728L806.847 7.05728L806.364 6.18182ZM851.5 6.18182L851.017 7.05728L851.018 7.0582L851.5 6.18182ZM867.5 22.4091L866.625 22.8931L866.625 22.8931L867.5 22.4091ZM847.818 33.0909L846.892 33.4669L846.894 33.4727L847.818 33.0909ZM840.455 23.5909L839.894 24.4193L839.898 24.4217L840.455 23.5909ZM817.455 23.5909L818.011 24.4217L818.011 24.4217L817.455 23.5909ZM810.045 33.0909L809.121 32.7091L809.119 32.7149L810.045 33.0909ZM810.045 63.8182L809.119 64.1942L809.121 64.1999L810.045 63.8182ZM817.455 73.3182L818.011 72.4873L818.011 72.4873L817.455 73.3182ZM840.455 73.3182L839.898 72.4873L839.894 72.4898L840.455 73.3182ZM847.818 63.8182L846.894 63.4364L846.892 63.4422L847.818 63.8182ZM872.409 48.4545C872.409 58.5706 870.464 67.0765 866.625 74.0159L868.375 74.9841C872.415 67.6811 874.409 58.8233 874.409 48.4545H872.409ZM866.625 74.0159C862.771 80.9823 857.57 86.2505 851.018 89.8509L851.982 91.6037C858.885 87.8101 864.35 82.2602 868.375 74.9841L866.625 74.0159ZM851.017 89.8518C844.481 93.4599 837.134 95.2727 828.955 95.2727V97.2727C837.441 97.2727 845.125 95.3886 851.983 91.6027L851.017 89.8518ZM828.955 95.2727C820.745 95.2727 813.385 93.4451 806.85 89.808L805.877 91.5556C812.736 95.3731 820.437 97.2727 828.955 97.2727V95.2727ZM806.85 89.808C800.326 86.1768 795.138 80.9067 791.283 73.9689L789.535 74.9402C793.559 82.1842 799.008 87.7323 805.877 91.5556L806.85 89.808ZM791.286 73.9733C787.476 67.0328 785.545 58.5409 785.545 48.4545H783.545C783.545 58.7924 785.524 67.6338 789.532 74.9357L791.286 73.9733ZM785.545 48.4545C785.545 38.3373 787.476 29.8304 791.286 22.8903L789.532 21.9279C785.524 29.2302 783.545 38.0869 783.545 48.4545H785.545ZM791.284 22.8931C795.138 15.9257 800.325 10.6574 806.847 7.05728L805.88 5.30635C799.008 9.1002 793.559 14.6501 789.534 21.925L791.284 22.8931ZM806.847 7.05728C813.382 3.44947 820.744 1.63636 828.955 1.63636V-0.36364C820.438 -0.36364 812.739 1.52022 805.88 5.30635L806.847 7.05728ZM828.955 1.63636C837.134 1.63636 844.481 3.44918 851.017 7.05728L851.983 5.30635C845.125 1.52051 837.441 -0.36364 828.955 -0.36364V1.63636ZM851.018 7.0582C857.57 10.6586 862.771 15.9268 866.625 22.8931L868.375 21.925C864.35 14.6489 858.885 9.09896 851.982 5.30543L851.018 7.0582ZM866.625 22.8931C870.464 29.8326 872.409 38.3384 872.409 48.4545H874.409C874.409 38.0858 872.415 29.228 868.375 21.925L866.625 22.8931ZM851.409 48.4545C851.409 42.3049 850.534 37.0456 848.742 32.7091L846.894 33.4727C848.557 37.4999 849.409 42.483 849.409 48.4545H851.409ZM848.745 32.7149C846.986 28.3797 844.416 25.0405 841.011 22.7601L839.898 24.4217C842.918 26.4444 845.257 29.4385 846.892 33.4669L848.745 32.7149ZM841.015 22.7625C837.641 20.4814 833.605 19.3636 828.955 19.3636V21.3636C833.274 21.3636 836.904 22.3974 839.894 24.4193L841.015 22.7625ZM828.955 19.3636C824.333 19.3636 820.299 20.4822 816.898 22.7601L818.011 24.4217C821.035 22.3966 824.667 21.3636 828.955 21.3636V19.3636ZM816.898 22.7601C813.495 25.0393 810.911 28.3764 809.121 32.7091L810.97 33.4727C812.635 29.4418 814.99 26.4455 818.011 24.4217L816.898 22.7601ZM809.119 32.7149C807.36 37.0495 806.5 42.3067 806.5 48.4545H808.5C808.5 42.4812 809.337 37.496 810.972 33.4669L809.119 32.7149ZM806.5 48.4545C806.5 54.6024 807.36 59.8596 809.119 64.1942L810.972 63.4422C809.337 59.4131 808.5 54.4279 808.5 48.4545H806.5ZM809.121 64.1999C810.911 68.5327 813.495 71.8697 816.898 74.149L818.011 72.4873C814.99 70.4636 812.635 67.4673 810.97 63.4364L809.121 64.1999ZM816.898 74.149C820.299 76.4269 824.333 77.5455 828.955 77.5455V75.5455C824.667 75.5455 821.035 74.5125 818.011 72.4873L816.898 74.149ZM828.955 77.5455C833.605 77.5455 837.641 76.4277 841.015 74.1466L839.894 72.4898C836.904 74.5117 833.274 75.5455 828.955 75.5455V77.5455ZM841.011 74.149C844.416 71.8686 846.986 68.5294 848.745 64.1942L846.892 63.4422C845.257 67.4706 842.918 70.4647 839.898 72.4873L841.011 74.149ZM848.742 64.1999C850.534 59.8635 851.409 54.6042 851.409 48.4545H849.409C849.409 54.4261 848.557 59.4092 846.894 63.4364L848.742 64.1999ZM931.227 39.9091H932.227V38.9091H931.227V39.9091ZM931.227 57V58H932.227V57H931.227ZM888.136 57H887.136V58H888.136V57ZM888.136 39.9091V38.9091H887.136V39.9091H888.136ZM930.227 39.9091V57H932.227V39.9091H930.227ZM931.227 56H888.136V58H931.227V56ZM889.136 57V39.9091H887.136V57H889.136ZM888.136 40.9091H931.227V38.9091H888.136V40.9091ZM83 229.5L82.125 229.016L82.125 229.016L83 229.5ZM67 245.727L66.5184 244.851L66.5167 244.852L67 245.727ZM21.8636 245.682L22.35 244.808L22.35 244.808L21.8636 245.682ZM5.90909 229.455L5.03247 229.936L5.03493 229.94L5.90909 229.455ZM5.90909 177.409L5.03405 176.925L5.03248 176.928L5.90909 177.409ZM21.8636 161.182L22.3469 162.057L22.3469 162.057L21.8636 161.182ZM67 161.182L66.5167 162.057L66.5184 162.058L67 161.182ZM83 177.409L82.125 177.893L82.125 177.893L83 177.409ZM63.3182 188.091L62.3916 188.467L62.3939 188.473L63.3182 188.091ZM55.9545 178.591L55.3944 179.419L55.398 179.422L55.9545 178.591ZM32.9545 178.591L33.5111 179.422L33.5111 179.422L32.9545 178.591ZM25.5455 188.091L24.6212 187.709L24.6188 187.715L25.5455 188.091ZM25.5455 218.818L24.6188 219.194L24.6212 219.2L25.5455 218.818ZM32.9545 228.318L33.5111 227.487L33.5111 227.487L32.9545 228.318ZM55.9545 228.318L55.398 227.487L55.3944 227.49L55.9545 228.318ZM63.3182 218.818L62.3939 218.436L62.3916 218.442L63.3182 218.818ZM87.9091 203.455C87.9091 213.571 85.9638 222.076 82.125 229.016L83.875 229.984C87.915 222.681 89.9091 213.823 89.9091 203.455H87.9091ZM82.125 229.016C78.2713 235.982 73.07 241.25 66.5184 244.851L67.4816 246.604C74.3846 242.81 79.85 237.26 83.875 229.984L82.125 229.016ZM66.5167 244.852C59.9807 248.46 52.6344 250.273 44.4545 250.273V252.273C52.9414 252.273 60.6253 250.389 67.4833 246.603L66.5167 244.852ZM44.4545 250.273C36.2452 250.273 28.8849 248.445 22.35 244.808L21.3773 246.556C28.2363 250.373 35.9366 252.273 44.4545 252.273V250.273ZM22.35 244.808C15.8256 241.177 10.6376 235.907 6.78325 228.969L5.03493 229.94C9.05936 237.184 14.5077 242.732 21.3773 246.556L22.35 244.808ZM6.7857 228.973C2.9758 222.033 1.04545 213.541 1.04545 203.455H-0.954545C-0.954545 213.792 1.0242 222.634 5.03248 229.936L6.7857 228.973ZM1.04545 203.455C1.04545 193.337 2.97602 184.83 6.7857 177.89L5.03248 176.928C1.02398 184.23 -0.954545 193.087 -0.954545 203.455H1.04545ZM6.78412 177.893C10.6385 170.926 15.8254 165.657 22.3469 162.057L21.3804 160.306C14.5079 164.1 9.0585 169.65 5.03406 176.925L6.78412 177.893ZM22.3469 162.057C28.8824 158.449 36.2438 156.636 44.4545 156.636V154.636C35.9381 154.636 28.2388 156.52 21.3804 160.306L22.3469 162.057ZM44.4545 156.636C52.6344 156.636 59.9807 158.449 66.5167 162.057L67.4833 160.306C60.6253 156.521 52.9414 154.636 44.4545 154.636V156.636ZM66.5184 162.058C73.07 165.659 78.2713 170.927 82.125 177.893L83.875 176.925C79.85 169.649 74.3846 164.099 67.4816 160.305L66.5184 162.058ZM82.125 177.893C85.9638 184.833 87.9091 193.338 87.9091 203.455H89.9091C89.9091 193.086 87.915 184.228 83.875 176.925L82.125 177.893ZM66.9091 203.455C66.9091 197.305 66.0336 192.046 64.2424 187.709L62.3939 188.473C64.0573 192.5 64.9091 197.483 64.9091 203.455H66.9091ZM64.2448 187.715C62.4856 183.38 59.9156 180.04 56.5111 177.76L55.398 179.422C58.4177 181.444 60.7569 184.439 62.3916 188.467L64.2448 187.715ZM56.5147 177.763C53.1412 175.481 49.1047 174.364 44.4545 174.364V176.364C48.774 176.364 52.4043 177.397 55.3944 179.419L56.5147 177.763ZM44.4545 174.364C39.8328 174.364 35.7988 175.482 32.398 177.76L33.5111 179.422C36.5345 177.397 40.1672 176.364 44.4545 176.364V174.364ZM32.398 177.76C28.9952 180.039 26.4108 183.376 24.6212 187.709L26.4697 188.473C28.1347 184.442 30.4897 181.445 33.5111 179.422L32.398 177.76ZM24.6188 187.715C22.8599 192.049 22 197.307 22 203.455H24C24 197.481 24.8371 192.496 26.4721 188.467L24.6188 187.715ZM22 203.455C22 209.602 22.8599 214.86 24.6188 219.194L26.4721 218.442C24.8371 214.413 24 209.428 24 203.455H22ZM24.6212 219.2C26.4108 223.533 28.9952 226.87 32.398 229.149L33.5111 227.487C30.4897 225.464 28.1347 222.467 26.4697 218.436L24.6212 219.2ZM32.398 229.149C35.7988 231.427 39.8328 232.545 44.4545 232.545V230.545C40.1672 230.545 36.5345 229.512 33.5111 227.487L32.398 229.149ZM44.4545 232.545C49.1047 232.545 53.1412 231.428 56.5147 229.147L55.3944 227.49C52.4043 229.512 48.774 230.545 44.4545 230.545V232.545ZM56.5111 229.149C59.9156 226.869 62.4856 223.529 64.2448 219.194L62.3916 218.442C60.7569 222.471 58.4177 225.465 55.398 227.487L56.5111 229.149ZM64.2424 219.2C66.0336 214.864 66.9091 209.604 66.9091 203.455H64.9091C64.9091 209.426 64.0573 214.409 62.3939 218.436L64.2424 219.2ZM102.045 250H101.045V251H102.045V250ZM102.045 156.909V155.909H101.045V156.909H102.045ZM158.545 160.682L158.1 161.577L158.107 161.58L158.545 160.682ZM170.318 171.409L169.457 171.918L169.459 171.92L170.318 171.409ZM170.227 204.364L171.074 204.896L171.076 204.893L170.227 204.364ZM158.227 214.636L158.638 215.548L158.642 215.546L158.227 214.636ZM115.5 218.136H114.5V219.136H115.5V218.136ZM115.5 200.409V199.409H114.5V200.409H115.5ZM144.136 199.091L144.497 200.024L144.504 200.021L144.136 199.091ZM149.364 195L150.202 195.545L150.206 195.539L149.364 195ZM149.364 180.773L148.513 181.299L148.517 181.305L149.364 180.773ZM144.136 176.5L143.748 177.422L143.759 177.426L144.136 176.5ZM124.545 175.045V174.045H123.545V175.045H124.545ZM124.545 250V251H125.545V250H124.545ZM154.455 207.455L155.333 206.976L155.048 206.455H154.455V207.455ZM177.636 250V251H179.32L178.514 249.522L177.636 250ZM153.091 250L152.209 250.471L152.491 251H153.091V250ZM130.364 207.455V206.455H128.696L129.482 207.926L130.364 207.455ZM103.045 250V156.909H101.045V250H103.045ZM102.045 157.909H140.5V155.909H102.045V157.909ZM140.5 157.909C147.351 157.909 153.207 159.145 158.1 161.577L158.991 159.786C153.763 157.188 147.589 155.909 140.5 155.909V157.909ZM158.107 161.58C163.03 163.984 166.804 167.427 169.457 171.918L171.179 170.9C168.317 166.057 164.243 162.35 158.984 159.783L158.107 161.58ZM169.459 171.92C172.109 176.376 173.455 181.693 173.455 187.909H175.455C175.455 181.398 174.043 175.715 171.178 170.898L169.459 171.92ZM173.455 187.909C173.455 194.216 172.079 199.509 169.379 203.834L171.076 204.893C174.012 200.188 175.455 194.511 175.455 187.909H173.455ZM169.381 203.832C166.674 208.138 162.83 211.438 157.812 213.727L158.642 215.546C163.988 213.108 168.144 209.558 171.074 204.896L169.381 203.832ZM157.817 213.725C152.792 215.987 146.802 217.136 139.818 217.136V219.136C147.017 219.136 153.299 217.952 158.638 215.548L157.817 213.725ZM139.818 217.136H115.5V219.136H139.818V217.136ZM116.5 218.136V200.409H114.5V218.136H116.5ZM115.5 201.409H135.636V199.409H115.5V201.409ZM135.636 201.409C139.109 201.409 142.074 200.961 144.497 200.024L143.776 198.158C141.654 198.979 138.952 199.409 135.636 199.409V201.409ZM144.504 200.021C146.971 199.047 148.891 197.561 150.202 195.545L148.525 194.455C147.472 196.075 145.907 197.317 143.769 198.161L144.504 200.021ZM150.206 195.539C151.518 193.486 152.136 190.92 152.136 187.909H150.136C150.136 190.655 149.573 192.817 148.521 194.461L150.206 195.539ZM152.136 187.909C152.136 184.897 151.518 182.319 150.21 180.24L148.517 181.305C149.573 182.984 150.136 185.164 150.136 187.909H152.136ZM150.214 180.246C148.909 178.138 146.991 176.584 144.514 175.574L143.759 177.426C145.888 178.294 147.455 179.589 148.513 181.299L150.214 180.246ZM144.524 175.578C142.064 174.542 139.09 174.045 135.636 174.045V176.045C138.91 176.045 141.603 176.518 143.748 177.422L144.524 175.578ZM135.636 174.045H124.545V176.045H135.636V174.045ZM123.545 175.045V250H125.545V175.045H123.545ZM124.545 249H102.045V251H124.545V249ZM153.576 207.933L176.758 250.478L178.514 249.522L155.333 206.976L153.576 207.933ZM177.636 249H153.091V251H177.636V249ZM153.973 249.529L131.246 206.983L129.482 207.926L152.209 250.471L153.973 249.529ZM130.364 208.455H154.455V206.455H130.364V208.455ZM186.795 250H185.795V251H186.795V250ZM186.795 156.909V155.909H185.795V156.909H186.795ZM245.659 162.5L245.181 163.378L245.186 163.381L245.659 162.5ZM261.568 178.5L260.686 178.972L260.687 178.973L261.568 178.5ZM261.568 228.409L260.686 227.938L260.685 227.94L261.568 228.409ZM245.705 244.455L246.178 245.335L246.181 245.334L245.705 244.455ZM209.295 230.818H208.295V231.818H209.295V230.818ZM233.568 228.182L234.006 229.081L234.009 229.079L233.568 228.182ZM241.795 219.5L240.889 219.077L240.888 219.081L241.795 219.5ZM241.795 187.409L240.89 187.834L240.892 187.837L241.795 187.409ZM233.477 178.773L233.036 179.67L233.045 179.674L233.477 178.773ZM209.295 176.091V175.091H208.295V176.091H209.295ZM221.205 249H186.795V251H221.205V249ZM187.795 250V156.909H185.795V250H187.795ZM186.795 157.909H221.159V155.909H186.795V157.909ZM221.159 157.909C230.513 157.909 238.508 159.746 245.181 163.378L246.137 161.622C239.113 157.799 230.775 155.909 221.159 155.909V157.909ZM245.186 163.381C251.889 166.983 257.051 172.173 260.686 178.972L262.45 178.028C258.631 170.887 253.187 165.411 246.133 161.619L245.186 163.381ZM260.687 178.973C264.321 185.738 266.159 193.87 266.159 203.409H268.159C268.159 193.614 266.27 185.141 262.449 178.027L260.687 178.973ZM266.159 203.409C266.159 212.978 264.32 221.142 260.686 227.938L262.45 228.881C266.271 221.737 268.159 213.234 268.159 203.409H266.159ZM260.685 227.94C257.079 234.738 251.932 239.943 245.228 243.575L246.181 245.334C253.234 241.512 258.663 236.02 262.452 228.878L260.685 227.94ZM245.231 243.574C238.526 247.178 230.528 249 221.205 249V251C230.79 251 239.126 249.125 246.178 245.335L245.231 243.574ZM209.295 231.818H220.341V229.818H209.295V231.818ZM220.341 231.818C225.661 231.818 230.229 230.922 234.006 229.081L233.13 227.283C229.695 228.957 225.445 229.818 220.341 229.818V231.818ZM234.009 229.079C237.87 227.181 240.768 224.108 242.703 219.919L240.888 219.081C239.126 222.892 236.539 225.607 233.127 227.284L234.009 229.079ZM242.702 219.923C244.665 215.71 245.614 210.185 245.614 203.409H243.614C243.614 210.027 242.683 215.229 240.889 219.077L242.702 219.923ZM245.614 203.409C245.614 196.635 244.666 191.136 242.699 186.981L240.892 187.837C242.683 191.621 243.614 196.79 243.614 203.409H245.614ZM242.701 186.984C240.733 182.795 237.803 179.737 233.91 177.871L233.045 179.674C236.485 181.324 239.1 184.023 240.89 187.834L242.701 186.984ZM233.918 177.875C230.109 176.002 225.463 175.091 220.023 175.091V177.091C225.249 177.091 229.573 177.968 233.036 179.67L233.918 177.875ZM220.023 175.091H209.295V177.091H220.023V175.091ZM208.295 176.091V230.818H210.295V176.091H208.295ZM302.795 156.909H303.795V155.909H302.795V156.909ZM302.795 250V251H303.795V250H302.795ZM280.295 250H279.295V251H280.295V250ZM280.295 156.909V155.909H279.295V156.909H280.295ZM301.795 156.909V250H303.795V156.909H301.795ZM302.795 249H280.295V251H302.795V249ZM281.295 250V156.909H279.295V250H281.295ZM280.295 157.909H302.795V155.909H280.295V157.909ZM396.148 156.909H397.148V155.909H396.148V156.909ZM396.148 250V251H397.148V250H396.148ZM377.057 250L376.234 250.568L376.532 251H377.057V250ZM340.011 196.273L340.835 195.705L340.537 195.273H340.011V196.273ZM339.42 196.273V195.273H338.42V196.273H339.42ZM339.42 250V251H340.42V250H339.42ZM316.92 250H315.92V251H316.92V250ZM316.92 156.909V155.909H315.92V156.909H316.92ZM336.284 156.909L337.11 156.345L336.812 155.909H336.284V156.909ZM372.92 210.545L372.095 211.109L372.392 211.545H372.92V210.545ZM373.693 210.545V211.545H374.693V210.545H373.693ZM373.693 156.909V155.909H372.693V156.909H373.693ZM395.148 156.909V250H397.148V156.909H395.148ZM396.148 249H377.057V251H396.148V249ZM377.88 249.432L340.835 195.705L339.188 196.84L376.234 250.568L377.88 249.432ZM340.011 195.273H339.42V197.273H340.011V195.273ZM338.42 196.273V250H340.42V196.273H338.42ZM339.42 249H316.92V251H339.42V249ZM317.92 250V156.909H315.92V250H317.92ZM316.92 157.909H336.284V155.909H316.92V157.909ZM335.458 157.473L372.095 211.109L373.746 209.981L337.11 156.345L335.458 157.473ZM372.92 211.545H373.693V209.545H372.92V211.545ZM374.693 210.545V156.909H372.693V210.545H374.693ZM373.693 157.909H396.148V155.909H373.693V157.909ZM430.432 250V251H431.166L431.386 250.299L430.432 250ZM406.25 250L405.302 249.68L404.857 251H406.25V250ZM437.659 156.909V155.909H436.941L436.712 156.589L437.659 156.909ZM467.614 156.909L468.561 156.589L468.332 155.909H467.614V156.909ZM499.023 250V251H500.416L499.97 249.68L499.023 250ZM474.841 250L473.887 250.3L474.107 251H474.841V250ZM452.977 180.364L453.931 180.064L453.711 179.364H452.977V180.364ZM452.25 180.364V179.364H451.515L451.296 180.065L452.25 180.364ZM427.205 213.364V212.364H426.205V213.364H427.205ZM477.75 213.364H478.75V212.364H477.75V213.364ZM477.75 230.455V231.455H478.75V230.455H477.75ZM427.205 230.455H426.205V231.455H427.205V230.455ZM430.432 249H406.25V251H430.432V249ZM407.198 250.32L438.607 157.229L436.712 156.589L405.302 249.68L407.198 250.32ZM437.659 157.909H467.614V155.909H437.659V157.909ZM466.666 157.229L498.075 250.32L499.97 249.68L468.561 156.589L466.666 157.229ZM499.023 249H474.841V251H499.023V249ZM475.795 249.7L453.931 180.064L452.023 180.663L473.887 250.3L475.795 249.7ZM452.977 179.364H452.25V181.364H452.977V179.364ZM451.296 180.065L429.478 249.701L431.386 250.299L453.204 180.663L451.296 180.065ZM427.205 214.364H477.75V212.364H427.205V214.364ZM476.75 213.364V230.455H478.75V213.364H476.75ZM477.75 229.455H427.205V231.455H477.75V229.455ZM428.205 230.455V213.364H426.205V230.455H428.205ZM494.375 175.182H493.375V176.182H494.375V175.182ZM494.375 156.909V155.909H493.375V156.909H494.375ZM573.057 156.909H574.057V155.909H573.057V156.909ZM573.057 175.182V176.182H574.057V175.182H573.057ZM544.83 175.182V174.182H543.83V175.182H544.83ZM544.83 250V251H545.83V250H544.83ZM522.648 250H521.648V251H522.648V250ZM522.648 175.182H523.648V174.182H522.648V175.182ZM495.375 175.182V156.909H493.375V175.182H495.375ZM494.375 157.909H573.057V155.909H494.375V157.909ZM572.057 156.909V175.182H574.057V156.909H572.057ZM573.057 174.182H544.83V176.182H573.057V174.182ZM543.83 175.182V250H545.83V175.182H543.83ZM544.83 249H522.648V251H544.83V249ZM523.648 250V175.182H521.648V250H523.648ZM522.648 174.182H494.375V176.182H522.648V174.182ZM661.75 229.5L660.875 229.016L660.875 229.016L661.75 229.5ZM645.75 245.727L645.268 244.851L645.267 244.852L645.75 245.727ZM600.614 245.682L601.1 244.808L601.1 244.808L600.614 245.682ZM584.659 229.455L583.782 229.936L583.785 229.94L584.659 229.455ZM584.659 177.409L583.784 176.925L583.782 176.928L584.659 177.409ZM600.614 161.182L601.097 162.057L601.097 162.057L600.614 161.182ZM645.75 161.182L645.267 162.057L645.268 162.058L645.75 161.182ZM661.75 177.409L660.875 177.893L660.875 177.893L661.75 177.409ZM642.068 188.091L641.142 188.467L641.144 188.473L642.068 188.091ZM634.705 178.591L634.144 179.419L634.148 179.422L634.705 178.591ZM611.705 178.591L612.261 179.422L612.261 179.422L611.705 178.591ZM604.295 188.091L603.371 187.709L603.369 187.715L604.295 188.091ZM604.295 218.818L603.369 219.194L603.371 219.2L604.295 218.818ZM611.705 228.318L612.261 227.487L612.261 227.487L611.705 228.318ZM634.705 228.318L634.148 227.487L634.144 227.49L634.705 228.318ZM642.068 218.818L641.144 218.436L641.142 218.442L642.068 218.818ZM666.659 203.455C666.659 213.571 664.714 222.076 660.875 229.016L662.625 229.984C666.665 222.681 668.659 213.823 668.659 203.455H666.659ZM660.875 229.016C657.021 235.982 651.82 241.25 645.268 244.851L646.232 246.604C653.135 242.81 658.6 237.26 662.625 229.984L660.875 229.016ZM645.267 244.852C638.731 248.46 631.384 250.273 623.205 250.273V252.273C631.691 252.273 639.375 250.389 646.233 246.603L645.267 244.852ZM623.205 250.273C614.995 250.273 607.635 248.445 601.1 244.808L600.127 246.556C606.986 250.373 614.687 252.273 623.205 252.273V250.273ZM601.1 244.808C594.576 241.177 589.388 235.907 585.533 228.969L583.785 229.94C587.809 237.184 593.258 242.732 600.127 246.556L601.1 244.808ZM585.536 228.973C581.726 222.033 579.795 213.541 579.795 203.455H577.795C577.795 213.792 579.774 222.634 583.782 229.936L585.536 228.973ZM579.795 203.455C579.795 193.337 581.726 184.83 585.536 177.89L583.782 176.928C579.774 184.23 577.795 193.087 577.795 203.455H579.795ZM585.534 177.893C589.388 170.926 594.575 165.657 601.097 162.057L600.13 160.306C593.258 164.1 587.809 169.65 583.784 176.925L585.534 177.893ZM601.097 162.057C607.632 158.449 614.994 156.636 623.205 156.636V154.636C614.688 154.636 606.989 156.52 600.13 160.306L601.097 162.057ZM623.205 156.636C631.384 156.636 638.731 158.449 645.267 162.057L646.233 160.306C639.375 156.521 631.691 154.636 623.205 154.636V156.636ZM645.268 162.058C651.82 165.659 657.021 170.927 660.875 177.893L662.625 176.925C658.6 169.649 653.135 164.099 646.232 160.305L645.268 162.058ZM660.875 177.893C664.714 184.833 666.659 193.338 666.659 203.455H668.659C668.659 193.086 666.665 184.228 662.625 176.925L660.875 177.893ZM645.659 203.455C645.659 197.305 644.784 192.046 642.992 187.709L641.144 188.473C642.807 192.5 643.659 197.483 643.659 203.455H645.659ZM642.995 187.715C641.236 183.38 638.666 180.04 635.261 177.76L634.148 179.422C637.168 181.444 639.507 184.439 641.142 188.467L642.995 187.715ZM635.265 177.763C631.891 175.481 627.855 174.364 623.205 174.364V176.364C627.524 176.364 631.154 177.397 634.144 179.419L635.265 177.763ZM623.205 174.364C618.583 174.364 614.549 175.482 611.148 177.76L612.261 179.422C615.285 177.397 618.917 176.364 623.205 176.364V174.364ZM611.148 177.76C607.745 180.039 605.161 183.376 603.371 187.709L605.22 188.473C606.885 184.442 609.24 181.445 612.261 179.422L611.148 177.76ZM603.369 187.715C601.61 192.049 600.75 197.307 600.75 203.455H602.75C602.75 197.481 603.587 192.496 605.222 188.467L603.369 187.715ZM600.75 203.455C600.75 209.602 601.61 214.86 603.369 219.194L605.222 218.442C603.587 214.413 602.75 209.428 602.75 203.455H600.75ZM603.371 219.2C605.161 223.533 607.745 226.87 611.148 229.149L612.261 227.487C609.24 225.464 606.885 222.467 605.22 218.436L603.371 219.2ZM611.148 229.149C614.549 231.427 618.583 232.545 623.205 232.545V230.545C618.917 230.545 615.285 229.512 612.261 227.487L611.148 229.149ZM623.205 232.545C627.855 232.545 631.891 231.428 635.265 229.147L634.144 227.49C631.154 229.512 627.524 230.545 623.205 230.545V232.545ZM635.261 229.149C638.666 226.869 641.236 223.529 642.995 219.194L641.142 218.442C639.507 222.471 637.168 225.465 634.148 227.487L635.261 229.149ZM642.992 219.2C644.784 214.864 645.659 209.604 645.659 203.455H643.659C643.659 209.426 642.807 214.409 641.144 218.436L642.992 219.2ZM680.795 250H679.795V251H680.795V250ZM680.795 156.909V155.909H679.795V156.909H680.795ZM737.295 160.682L736.85 161.577L736.857 161.58L737.295 160.682ZM749.068 171.409L748.207 171.918L748.209 171.92L749.068 171.409ZM748.977 204.364L749.824 204.896L749.826 204.893L748.977 204.364ZM736.977 214.636L737.388 215.548L737.392 215.546L736.977 214.636ZM694.25 218.136H693.25V219.136H694.25V218.136ZM694.25 200.409V199.409H693.25V200.409H694.25ZM722.886 199.091L723.247 200.024L723.254 200.021L722.886 199.091ZM728.114 195L728.952 195.545L728.956 195.539L728.114 195ZM728.114 180.773L727.263 181.299L727.267 181.305L728.114 180.773ZM722.886 176.5L722.498 177.422L722.509 177.426L722.886 176.5ZM703.295 175.045V174.045H702.295V175.045H703.295ZM703.295 250V251H704.295V250H703.295ZM733.205 207.455L734.083 206.976L733.798 206.455H733.205V207.455ZM756.386 250V251H758.07L757.264 249.522L756.386 250ZM731.841 250L730.959 250.471L731.241 251H731.841V250ZM709.114 207.455V206.455H707.446L708.232 207.926L709.114 207.455ZM681.795 250V156.909H679.795V250H681.795ZM680.795 157.909H719.25V155.909H680.795V157.909ZM719.25 157.909C726.101 157.909 731.957 159.145 736.85 161.577L737.741 159.786C732.513 157.188 726.339 155.909 719.25 155.909V157.909ZM736.857 161.58C741.78 163.984 745.554 167.427 748.207 171.918L749.929 170.9C747.067 166.057 742.993 162.35 737.734 159.783L736.857 161.58ZM748.209 171.92C750.859 176.376 752.205 181.693 752.205 187.909H754.205C754.205 181.398 752.793 175.715 749.928 170.898L748.209 171.92ZM752.205 187.909C752.205 194.216 750.829 199.509 748.129 203.834L749.826 204.893C752.762 200.188 754.205 194.511 754.205 187.909H752.205ZM748.131 203.832C745.424 208.138 741.58 211.438 736.562 213.727L737.392 215.546C742.738 213.108 746.894 209.558 749.824 204.896L748.131 203.832ZM736.567 213.725C731.542 215.987 725.552 217.136 718.568 217.136V219.136C725.767 219.136 732.049 217.952 737.388 215.548L736.567 213.725ZM718.568 217.136H694.25V219.136H718.568V217.136ZM695.25 218.136V200.409H693.25V218.136H695.25ZM694.25 201.409H714.386V199.409H694.25V201.409ZM714.386 201.409C717.859 201.409 720.824 200.961 723.247 200.024L722.526 198.158C720.404 198.979 717.702 199.409 714.386 199.409V201.409ZM723.254 200.021C725.721 199.047 727.641 197.561 728.952 195.545L727.275 194.455C726.222 196.075 724.657 197.317 722.519 198.161L723.254 200.021ZM728.956 195.539C730.268 193.486 730.886 190.92 730.886 187.909H728.886C728.886 190.655 728.323 192.817 727.271 194.461L728.956 195.539ZM730.886 187.909C730.886 184.897 730.268 182.319 728.96 180.24L727.267 181.305C728.323 182.984 728.886 185.164 728.886 187.909H730.886ZM728.964 180.246C727.659 178.138 725.741 176.584 723.264 175.574L722.509 177.426C724.638 178.294 726.205 179.589 727.263 181.299L728.964 180.246ZM723.274 175.578C720.814 174.542 717.84 174.045 714.386 174.045V176.045C717.66 176.045 720.353 176.518 722.498 177.422L723.274 175.578ZM714.386 174.045H703.295V176.045H714.386V174.045ZM702.295 175.045V250H704.295V175.045H702.295ZM703.295 249H680.795V251H703.295V249ZM732.326 207.933L755.508 250.478L757.264 249.522L734.083 206.976L732.326 207.933ZM756.386 249H731.841V251H756.386V249ZM732.723 249.529L709.996 206.983L708.232 207.926L730.959 250.471L732.723 249.529ZM709.114 208.455H733.205V206.455H709.114V208.455ZM815.864 184.818L814.868 184.909L814.95 185.818H815.864V184.818ZM811.818 177.045L811.196 177.828L811.207 177.837L811.818 177.045ZM794.409 175.364L794.045 174.432L794.045 174.432L794.409 175.364ZM790.045 178.5L790.848 179.097L790.854 179.088L790.045 178.5ZM788.545 183L789.545 183.043L789.545 183.031L789.545 183.018L788.545 183ZM789.364 186.682L788.495 187.178L788.501 187.187L788.506 187.196L789.364 186.682ZM792.091 189.5L791.522 190.322L791.534 190.33L791.546 190.338L792.091 189.5ZM796.455 191.591L796.791 190.649L796.791 190.649L796.455 191.591ZM802.182 193.182L802.403 192.207L802.391 192.204L802.182 193.182ZM810.182 195L809.96 195.975L809.97 195.977L810.182 195ZM822.364 199L821.935 199.904L821.938 199.905L822.364 199ZM831.273 204.955L830.579 205.675L830.584 205.68L831.273 204.955ZM836.773 212.909L835.849 213.292L835.849 213.292L836.773 212.909ZM838.682 223L839.682 223.005L839.682 222.992L838.682 223ZM834.227 238.136L833.407 237.564L833.407 237.564L834.227 238.136ZM821.545 247.818L821.169 246.892L821.167 246.893L821.545 247.818ZM781.318 247.682L781.692 246.754L781.692 246.754L781.318 247.682ZM762.864 219V218H761.851L761.864 219.012L762.864 219ZM784.409 219L785.407 218.94L785.35 218H784.409V219ZM786.818 226.5L786.004 227.08L786.004 227.08L786.818 226.5ZM792.682 231.045L792.299 231.969L792.303 231.971L792.682 231.045ZM809.136 231.364L808.781 230.429L808.776 230.431L809.136 231.364ZM814.091 227.955L813.307 227.334L813.307 227.334L814.091 227.955ZM815.864 222.955L816.864 222.971L816.864 222.954L816.863 222.937L815.864 222.955ZM814.227 218.455L813.459 219.095L813.467 219.104L814.227 218.455ZM809.318 215.182L808.923 216.1L808.93 216.104L808.938 216.107L809.318 215.182ZM800.955 212.591L800.727 213.565L800.728 213.565L800.955 212.591ZM791.227 210.318L791.455 209.344L791.451 209.343L791.227 210.318ZM772.182 201.364L771.515 202.109L771.517 202.111L772.182 201.364ZM765.273 184.545L766.273 184.55L766.273 184.54L765.273 184.545ZM769.909 169.409L769.098 168.825L769.098 168.825L769.909 169.409ZM782.864 159.273L783.266 160.188L783.266 160.188L782.864 159.273ZM820.5 159.318L820.08 160.226L820.086 160.229L820.5 159.318ZM832.909 169.545L833.74 168.989L833.74 168.989L832.909 169.545ZM837.409 184.818V185.818H838.42L838.409 184.808L837.409 184.818ZM816.86 184.728C816.534 181.15 815.068 178.292 812.429 176.254L811.207 177.837C813.356 179.496 814.587 181.82 814.868 184.909L816.86 184.728ZM812.44 176.263C809.835 174.192 806.202 173.227 801.682 173.227V175.227C805.949 175.227 809.074 176.142 811.196 177.828L812.44 176.263ZM801.682 173.227C798.694 173.227 796.137 173.615 794.045 174.432L794.773 176.295C796.56 175.597 798.851 175.227 801.682 175.227V173.227ZM794.045 174.432C791.974 175.241 790.345 176.388 789.237 177.912L790.854 179.088C791.685 177.945 792.965 177.001 794.773 176.295L794.045 174.432ZM789.243 177.903C788.143 179.382 787.579 181.086 787.546 182.982L789.545 183.018C789.572 181.52 790.009 180.225 790.848 179.097L789.243 177.903ZM787.546 182.957C787.479 184.512 787.783 185.931 788.495 187.178L790.232 186.186C789.732 185.311 789.491 184.276 789.545 183.043L787.546 182.957ZM788.506 187.196C789.227 188.397 790.242 189.436 791.522 190.322L792.66 188.678C791.576 187.928 790.773 187.088 790.221 186.167L788.506 187.196ZM791.546 190.338C792.837 191.178 794.365 191.907 796.118 192.533L796.791 190.649C795.15 190.063 793.769 189.398 792.636 188.662L791.546 190.338ZM796.118 192.533C797.864 193.156 799.816 193.698 801.972 194.16L802.391 192.204C800.305 191.757 798.439 191.238 796.791 190.649L796.118 192.533ZM801.96 194.157L809.96 195.975L810.403 194.025L802.403 192.207L801.96 194.157ZM809.97 195.977C814.516 196.964 818.502 198.276 821.935 199.904L822.792 198.096C819.195 196.391 815.06 195.036 810.394 194.023L809.97 195.977ZM821.938 199.905C825.402 201.533 828.277 203.46 830.579 205.675L831.966 204.234C829.481 201.843 826.416 199.8 822.789 198.095L821.938 199.905ZM830.584 205.68C832.91 207.889 834.662 210.425 835.849 213.292L837.697 212.526C836.399 209.393 834.484 206.626 831.961 204.23L830.584 205.68ZM835.849 213.292C837.035 216.157 837.652 219.391 837.682 223.008L839.682 222.992C839.651 219.155 838.995 215.661 837.697 212.526L835.849 213.292ZM837.682 222.995C837.652 228.701 836.214 233.542 833.407 237.564L835.047 238.709C838.119 234.307 839.651 229.057 839.682 223.005L837.682 222.995ZM833.407 237.564C830.595 241.594 826.534 244.71 821.169 246.892L821.922 248.745C827.587 246.441 831.981 243.103 835.047 238.709L833.407 237.564ZM821.167 246.893C815.833 249.073 809.348 250.182 801.682 250.182V252.182C809.531 252.182 816.288 251.048 821.924 248.744L821.167 246.893ZM801.682 250.182C793.991 250.182 787.336 249.03 781.692 246.754L780.944 248.609C786.876 251.001 793.796 252.182 801.682 252.182V250.182ZM781.692 246.754C776.072 244.489 771.738 241.064 768.647 236.486L766.989 237.605C770.323 242.542 774.988 246.208 780.944 248.609L781.692 246.754ZM768.647 236.486C765.57 231.928 763.953 226.117 763.864 218.988L761.864 219.012C761.956 226.428 763.642 232.647 766.989 237.605L768.647 236.486ZM762.864 220H784.409V218H762.864V220ZM783.411 219.06C783.602 222.205 784.449 224.897 786.004 227.08L787.633 225.92C786.339 224.103 785.58 221.795 785.407 218.94L783.411 219.06ZM786.004 227.08C787.547 229.247 789.658 230.874 792.299 231.969L793.065 230.122C790.736 229.156 788.938 227.753 787.633 225.92L786.004 227.08ZM792.303 231.971C794.961 233.06 798.003 233.591 801.409 233.591V231.591C798.209 231.591 795.433 231.092 793.061 230.12L792.303 231.971ZM801.409 233.591C804.524 233.591 807.229 233.171 809.496 232.297L808.776 230.431C806.801 231.192 804.355 231.591 801.409 231.591V233.591ZM809.492 232.298C811.772 231.431 813.587 230.202 814.875 228.575L813.307 227.334C812.291 228.617 810.804 229.66 808.781 230.429L809.492 232.298ZM814.875 228.575C816.165 226.946 816.83 225.066 816.864 222.971L814.864 222.938C814.837 224.6 814.32 226.054 813.307 227.334L814.875 228.575ZM816.863 222.937C816.83 220.967 816.211 219.238 814.988 217.805L813.467 219.104C814.365 220.156 814.837 221.427 814.864 222.972L816.863 222.937ZM814.995 217.814C813.795 216.373 811.999 215.202 809.698 214.257L808.938 216.107C811.062 216.98 812.539 217.99 813.459 219.095L814.995 217.814ZM809.714 214.263C807.458 213.292 804.608 212.413 801.181 211.617L800.728 213.565C804.089 214.345 806.814 215.193 808.923 216.1L809.714 214.263ZM801.182 211.617L791.455 209.344L791 211.292L800.727 213.565L801.182 211.617ZM791.451 209.343C783.501 207.52 777.322 204.595 772.846 200.616L771.517 202.111C776.314 206.375 782.832 209.419 791.004 211.293L791.451 209.343ZM772.849 200.619C768.455 196.685 766.243 191.367 766.273 184.55L764.273 184.541C764.241 191.845 766.636 197.74 771.515 202.109L772.849 200.619ZM766.273 184.54C766.243 178.977 767.733 174.142 770.721 169.994L769.098 168.825C765.843 173.343 764.241 178.599 764.273 184.551L766.273 184.54ZM770.721 169.994C773.725 165.823 777.893 162.55 783.266 160.188L782.461 158.357C776.804 160.844 772.336 164.329 769.098 168.825L770.721 169.994ZM783.266 160.188C788.634 157.828 794.782 156.636 801.727 156.636V154.636C794.552 154.636 788.123 155.869 782.461 158.357L783.266 160.188ZM801.727 156.636C808.827 156.636 814.936 157.845 820.08 160.226L820.92 158.411C815.458 155.883 809.051 154.636 801.727 154.636V156.636ZM820.086 160.229C825.269 162.584 829.253 165.879 832.078 170.101L833.74 168.989C830.686 164.424 826.398 160.9 820.914 158.408L820.086 160.229ZM832.078 170.101C834.899 174.319 836.35 179.216 836.409 184.829L838.409 184.808C838.347 178.845 836.798 173.56 833.74 168.989L832.078 170.101ZM837.409 183.818H815.864V185.818H837.409V183.818Z" fill="black"/>
</svg>
