<svg xmlns="http://www.w3.org/2000/svg" xmlns:xlink="http://www.w3.org/1999/xlink" width="450" height="100" zoomAndPan="magnify" viewBox="0 0 337.5 74.999997" preserveAspectRatio="xMidYMid meet" version="1.0"><defs><g/><clipPath id="id1"><path d="M 96 7.554688 L 117 7.554688 L 117 67.554688 L 96 67.554688 Z M 96 7.554688 " clip-rule="nonzero"/></clipPath><clipPath id="id2"><path d="M 78.234375 15 L 134 15 L 134 60 L 78.234375 60 Z M 78.234375 15 " clip-rule="nonzero"/></clipPath></defs><g clip-path="url(#id1)"><path fill="#5271ff" d="M 108.011719 53.53125 L 108.011719 21.582031 L 115.988281 13.53125 C 115.988281 13.53125 117.15625 12.355469 115.988281 11.171875 C 114.820312 9.996094 113.652344 11.171875 113.652344 11.171875 L 108.011719 16.867188 L 108.011719 9.222656 C 108.011719 9.222656 108.011719 7.554688 106.359375 7.554688 C 104.707031 7.554688 104.707031 9.222656 104.707031 9.222656 L 104.707031 16.867188 L 99.0625 11.171875 C 99.0625 11.171875 97.894531 9.996094 96.726562 11.171875 C 95.558594 12.355469 96.726562 13.53125 96.726562 13.53125 L 104.707031 21.582031 L 104.707031 53.53125 L 96.726562 61.578125 C 96.726562 61.578125 95.558594 62.757812 96.726562 63.933594 C 97.894531 65.113281 99.0625 63.933594 99.0625 63.933594 L 104.707031 58.246094 L 104.707031 65.890625 C 104.707031 65.890625 104.707031 67.554688 106.359375 67.554688 C 108.011719 67.554688 108.011719 65.890625 108.011719 65.890625 L 108.011719 58.246094 L 113.652344 63.933594 C 113.652344 63.933594 114.820312 65.113281 115.988281 63.933594 C 117.15625 62.757812 115.988281 61.578125 115.988281 61.578125 Z M 108.011719 53.53125 " fill-opacity="1" fill-rule="nonzero"/></g><g clip-path="url(#id2)"><path fill="#5271ff" d="M 133.824219 42.332031 C 133.394531 40.722656 131.800781 41.152344 131.800781 41.152344 L 120.902344 44.097656 L 93.46875 28.121094 L 90.546875 17.128906 C 90.546875 17.128906 90.121094 15.519531 88.523438 15.953125 C 86.925781 16.382812 87.355469 17.992188 87.355469 17.992188 L 89.421875 25.765625 L 82.855469 21.945312 C 82.855469 21.945312 81.425781 21.109375 80.601562 22.554688 C 79.773438 23.996094 81.203125 24.832031 81.203125 24.832031 L 87.765625 28.652344 L 80.058594 30.734375 C 80.058594 30.734375 78.460938 31.164062 78.890625 32.777344 C 79.320312 34.386719 80.914062 33.957031 80.914062 33.957031 L 91.816406 31.011719 L 119.25 46.988281 L 122.167969 57.980469 C 122.167969 57.980469 122.597656 59.589844 124.195312 59.160156 C 125.789062 58.726562 125.363281 57.117188 125.363281 57.117188 L 123.296875 49.34375 L 129.859375 53.164062 C 129.859375 53.164062 131.292969 54 132.117188 52.558594 C 132.945312 51.113281 131.511719 50.277344 131.511719 50.277344 L 124.949219 46.457031 L 132.65625 44.375 C 132.65625 44.375 134.253906 43.941406 133.824219 42.332031 Z M 133.824219 42.332031 " fill-opacity="1" fill-rule="nonzero"/><path fill="#5271ff" d="M 132.65625 30.734375 L 124.949219 28.652344 L 131.511719 24.828125 C 131.511719 24.828125 132.945312 23.992188 132.117188 22.550781 C 131.289062 21.105469 129.859375 21.941406 129.859375 21.941406 L 123.296875 25.761719 L 125.363281 17.988281 C 125.363281 17.988281 125.789062 16.378906 124.195312 15.945312 C 122.597656 15.515625 122.167969 17.125 122.167969 17.125 L 119.25 28.117188 L 91.8125 44.097656 L 80.917969 41.152344 C 80.917969 41.152344 79.320312 40.71875 78.894531 42.332031 C 78.464844 43.941406 80.0625 44.371094 80.0625 44.371094 L 87.765625 46.453125 L 81.203125 50.277344 C 81.203125 50.277344 79.777344 51.109375 80.601562 52.554688 C 81.429688 53.996094 82.855469 53.164062 82.855469 53.164062 L 89.421875 49.339844 L 87.355469 57.113281 C 87.355469 57.113281 86.925781 58.722656 88.523438 59.152344 C 90.121094 59.585938 90.550781 57.976562 90.550781 57.976562 L 93.46875 46.980469 L 120.90625 31.007812 L 131.804688 33.953125 C 131.804688 33.953125 133.402344 34.386719 133.828125 32.777344 C 134.25 31.164062 132.65625 30.734375 132.65625 30.734375 Z M 132.65625 30.734375 " fill-opacity="1" fill-rule="nonzero"/></g><g fill="#ffffff" fill-opacity="1"><g transform="translate(0.247119, 58.717199)"><g><path d="M 31.421875 -35.71875 L 31.421875 -43.703125 L 5.65625 -43.703125 L 5.65625 0 L 14.789062 0 L 14.789062 -17.902344 L 29.15625 -17.902344 L 29.15625 -25.796875 L 14.789062 -25.796875 L 14.789062 -35.71875 Z M 31.421875 -35.71875 "/></g></g></g><g fill="#ffffff" fill-opacity="1"><g transform="translate(33.754462, 58.717199)"><g><path d="M 28.730469 0 L 39.46875 0 L 27.824219 -16.964844 C 28.882812 -17.269531 29.789062 -17.632812 30.605469 -18.085938 C 35.023438 -20.414062 36.804688 -24.769531 36.804688 -30.242188 C 36.804688 -35.445312 35.050781 -39.589844 30.789062 -41.855469 C 28.519531 -43.003906 25.585938 -43.703125 20.019531 -43.703125 L 5.65625 -43.703125 L 5.65625 0 L 14.726562 0 L 14.726562 -16.121094 L 18.570312 -16.121094 Z M 14.726562 -36.109375 L 18.75 -36.109375 C 22.257812 -36.109375 24.226562 -35.898438 25.617188 -34.839844 C 26.917969 -33.8125 27.671875 -32.117188 27.671875 -29.667969 C 27.671875 -27.097656 26.917969 -25.375 25.433594 -24.34375 C 24.105469 -23.40625 22.199219 -23.257812 18.75 -23.257812 L 14.726562 -23.257812 Z M 14.726562 -36.109375 "/></g></g></g><g fill="#ffffff" fill-opacity="1"><g transform="translate(139.038193, 58.966299)"><g><path d="M 20.203125 0.605469 C 29.730469 0.605469 36.507812 -4.144531 36.507812 -12.460938 C 36.507812 -21.324219 28.734375 -23.832031 22.109375 -25.828125 C 17.148438 -27.3125 12.855469 -28.339844 12.855469 -32 C 12.855469 -35.355469 15.96875 -36.898438 19.628906 -36.898438 C 23.742188 -36.898438 26.675781 -34.992188 28.039062 -30.789062 L 36.265625 -32.816406 C 34.511719 -41.195312 26.765625 -44.308594 19.085938 -44.308594 C 10.3125 -44.308594 3.660156 -39.710938 3.660156 -31.667969 C 3.660156 -23.5 10.523438 -21.171875 16.9375 -19.175781 C 22.261719 -17.542969 27.101562 -16.273438 27.128906 -11.976562 C 27.160156 -8.4375 24.226562 -6.804688 20.355469 -6.804688 C 15.789062 -6.804688 12.402344 -9.132812 11.128906 -14.15625 L 2.148438 -12.097656 C 3.476562 -3.902344 10.796875 0.605469 20.203125 0.605469 Z M 20.203125 0.605469 "/></g></g></g><g fill="#ffffff" fill-opacity="1"><g transform="translate(178.260788, 58.966299)"><g><path d="M 31 -43.703125 L 1.210938 -43.703125 L 1.210938 -35.71875 L 11.644531 -35.71875 L 11.644531 0 L 20.628906 0 L 20.628906 -35.71875 L 31 -35.71875 Z M 31 -43.703125 "/></g></g></g><g fill="#ffffff" fill-opacity="1"><g transform="translate(210.467468, 58.966299)"><g><path d="M 29.125 -23.078125 C 32.542969 -24.742188 34.207031 -27.886719 34.207031 -31.726562 C 34.207031 -39.167969 29.246094 -43.703125 19.8125 -43.703125 L 5.65625 -43.703125 L 5.65625 0 L 23.652344 0 C 32.875 0 37.351562 -4.871094 37.351562 -12.25 C 37.351562 -18.480469 34.054688 -21.714844 29.125 -23.078125 Z M 19.902344 -36.171875 C 23.953125 -36.171875 25.859375 -34.054688 25.859375 -31.152344 C 25.859375 -28.1875 24.167969 -25.890625 20.292969 -25.890625 L 14.398438 -25.890625 L 14.398438 -36.171875 Z M 21.957031 -7.773438 L 14.398438 -7.773438 L 14.398438 -18.902344 L 21.777344 -18.902344 C 26.886719 -18.902344 28.550781 -16.152344 28.550781 -13.246094 C 28.550781 -10.40625 26.859375 -7.773438 21.957031 -7.773438 Z M 21.957031 -7.773438 "/></g></g></g><g fill="#ffffff" fill-opacity="1"><g transform="translate(250.234401, 58.966299)"><g><path d="M 5.65625 0 L 14.730469 0 L 14.730469 -43.703125 L 5.65625 -43.703125 Z M 5.65625 0 "/></g></g></g><g fill="#ffffff" fill-opacity="1"><g transform="translate(270.586606, 58.966299)"><g><path d="M 31 -43.703125 L 1.210938 -43.703125 L 1.210938 -35.71875 L 11.644531 -35.71875 L 11.644531 0 L 20.628906 0 L 20.628906 -35.71875 L 31 -35.71875 Z M 31 -43.703125 "/></g></g></g><g fill="#ffffff" fill-opacity="1"><g transform="translate(302.793286, 58.966299)"><g><path d="M 31 -35.71875 L 31 -43.703125 L 5.65625 -43.703125 L 5.65625 0 L 31 0 L 31 -8.015625 L 14.789062 -8.015625 L 14.789062 -17.90625 L 29.15625 -17.90625 L 29.15625 -25.800781 L 14.789062 -25.800781 L 14.789062 -35.71875 Z M 31 -35.71875 "/></g></g></g></svg>