<svg xmlns="http://www.w3.org/2000/svg" xmlns:xlink="http://www.w3.org/1999/xlink" width="450" zoomAndPan="magnify" viewBox="0 0 337.5 74.999997" height="100" preserveAspectRatio="xMidYMid meet" version="1.0"><defs><g/><clipPath id="id1"><path d="M 98 10.828125 L 117 10.828125 L 117 64.078125 L 98 64.078125 Z M 98 10.828125 " clip-rule="nonzero"/></clipPath><clipPath id="id2"><path d="M 82.21875 18 L 132 18 L 132 57 L 82.21875 57 Z M 82.21875 18 " clip-rule="nonzero"/></clipPath></defs><g clip-path="url(#id1)"><path fill="#5271ff" d="M 108.820312 51.632812 L 108.820312 23.277344 L 115.949219 16.132812 C 115.949219 16.132812 116.992188 15.089844 115.949219 14.039062 C 114.90625 12.996094 113.863281 14.039062 113.863281 14.039062 L 108.820312 19.09375 L 108.820312 12.308594 C 108.820312 12.308594 108.820312 10.828125 107.34375 10.828125 C 105.867188 10.828125 105.867188 12.308594 105.867188 12.308594 L 105.867188 19.09375 L 100.828125 14.039062 C 100.828125 14.039062 99.785156 12.996094 98.738281 14.039062 C 97.695312 15.089844 98.738281 16.132812 98.738281 16.132812 L 105.867188 23.277344 L 105.867188 51.632812 L 98.738281 58.773438 C 98.738281 58.773438 97.695312 59.820312 98.738281 60.867188 C 99.785156 61.914062 100.828125 60.867188 100.828125 60.867188 L 105.867188 55.816406 L 105.867188 62.601562 C 105.867188 62.601562 105.867188 64.078125 107.34375 64.078125 C 108.820312 64.078125 108.820312 62.601562 108.820312 62.601562 L 108.820312 55.816406 L 113.863281 60.867188 C 113.863281 60.867188 114.90625 61.914062 115.949219 60.867188 C 116.992188 59.820312 115.949219 58.773438 115.949219 58.773438 Z M 108.820312 51.632812 " fill-opacity="1" fill-rule="nonzero"/></g><g clip-path="url(#id2)"><path fill="#5271ff" d="M 131.886719 41.695312 C 131.503906 40.265625 130.078125 40.648438 130.078125 40.648438 L 120.339844 43.261719 L 95.828125 29.082031 L 93.21875 19.328125 C 93.21875 19.328125 92.835938 17.898438 91.410156 18.28125 C 89.980469 18.664062 90.367188 20.09375 90.367188 20.09375 L 92.210938 26.992188 L 86.347656 23.597656 C 86.347656 23.597656 85.070312 22.859375 84.332031 24.140625 C 83.59375 25.421875 84.871094 26.160156 84.871094 26.160156 L 90.734375 29.554688 L 83.847656 31.398438 C 83.847656 31.398438 82.417969 31.785156 82.804688 33.210938 C 83.1875 34.640625 84.613281 34.257812 84.613281 34.257812 L 94.351562 31.644531 L 118.863281 45.824219 L 121.472656 55.582031 C 121.472656 55.582031 121.855469 57.011719 123.28125 56.628906 C 124.707031 56.242188 124.324219 54.816406 124.324219 54.816406 L 122.480469 47.917969 L 128.34375 51.308594 C 128.34375 51.308594 129.625 52.046875 130.363281 50.769531 C 131.101562 49.484375 129.820312 48.746094 129.820312 48.746094 L 123.957031 45.355469 L 130.84375 43.507812 C 130.84375 43.503906 132.269531 43.121094 131.886719 41.695312 Z M 131.886719 41.695312 " fill-opacity="1" fill-rule="nonzero"/><path fill="#5271ff" d="M 130.84375 31.398438 L 123.957031 29.550781 L 129.820312 26.160156 C 129.820312 26.160156 131.101562 25.417969 130.363281 24.136719 C 129.621094 22.855469 128.34375 23.597656 128.34375 23.597656 L 122.480469 26.988281 L 124.324219 20.089844 C 124.324219 20.089844 124.707031 18.660156 123.28125 18.277344 C 121.855469 17.894531 121.472656 19.324219 121.472656 19.324219 L 118.863281 29.078125 L 94.347656 43.261719 L 84.613281 40.648438 C 84.613281 40.648438 83.1875 40.261719 82.804688 41.691406 C 82.421875 43.121094 83.847656 43.503906 83.847656 43.503906 L 90.734375 45.351562 L 84.871094 48.742188 C 84.871094 48.742188 83.59375 49.484375 84.332031 50.765625 C 85.070312 52.046875 86.347656 51.304688 86.347656 51.304688 L 92.210938 47.914062 L 90.367188 54.8125 C 90.367188 54.8125 89.984375 56.242188 91.410156 56.621094 C 92.835938 57.007812 93.21875 55.578125 93.21875 55.578125 L 95.832031 45.820312 L 120.34375 31.644531 L 130.082031 34.257812 C 130.082031 34.257812 131.507812 34.640625 131.890625 33.210938 C 132.265625 31.78125 130.84375 31.398438 130.84375 31.398438 Z M 130.84375 31.398438 " fill-opacity="1" fill-rule="nonzero"/></g><g fill="#111827" fill-opacity="1"><g transform="translate(0.257812, 58.943464)"><g><path d="M 31.425781 -35.71875 L 31.425781 -43.703125 L 5.65625 -43.703125 L 5.65625 0 L 14.789062 0 L 14.789062 -17.90625 L 29.15625 -17.90625 L 29.15625 -25.800781 L 14.789062 -25.800781 L 14.789062 -35.71875 Z M 31.425781 -35.71875 "/></g></g></g><g fill="#111827" fill-opacity="1"><g transform="translate(33.764851, 58.943464)"><g><path d="M 28.734375 0 L 39.46875 0 L 27.824219 -16.96875 C 28.882812 -17.269531 29.792969 -17.632812 30.609375 -18.085938 C 35.023438 -20.414062 36.808594 -24.769531 36.808594 -30.246094 C 36.808594 -35.449219 35.054688 -39.589844 30.789062 -41.859375 C 28.519531 -43.007812 25.585938 -43.703125 20.023438 -43.703125 L 5.65625 -43.703125 L 5.65625 0 L 14.730469 0 L 14.730469 -16.121094 L 18.570312 -16.121094 Z M 14.730469 -36.113281 L 18.753906 -36.113281 C 22.261719 -36.113281 24.226562 -35.902344 25.617188 -34.84375 C 26.917969 -33.8125 27.675781 -32.121094 27.675781 -29.671875 C 27.675781 -27.101562 26.917969 -25.375 25.4375 -24.347656 C 24.105469 -23.410156 22.199219 -23.257812 18.753906 -23.257812 L 14.730469 -23.257812 Z M 14.730469 -36.113281 "/></g></g></g><g fill="#111827" fill-opacity="1"><g transform="translate(139.038193, 58.943464)"><g><path d="M 20.203125 0.605469 C 29.730469 0.605469 36.507812 -4.144531 36.507812 -12.460938 C 36.507812 -21.324219 28.734375 -23.832031 22.109375 -25.828125 C 17.148438 -27.3125 12.855469 -28.339844 12.855469 -32 C 12.855469 -35.355469 15.96875 -36.898438 19.628906 -36.898438 C 23.742188 -36.898438 26.675781 -34.992188 28.039062 -30.789062 L 36.265625 -32.816406 C 34.511719 -41.195312 26.765625 -44.308594 19.085938 -44.308594 C 10.3125 -44.308594 3.660156 -39.710938 3.660156 -31.667969 C 3.660156 -23.5 10.523438 -21.171875 16.9375 -19.175781 C 22.261719 -17.542969 27.101562 -16.273438 27.128906 -11.976562 C 27.160156 -8.4375 24.226562 -6.804688 20.355469 -6.804688 C 15.789062 -6.804688 12.402344 -9.132812 11.128906 -14.15625 L 2.148438 -12.097656 C 3.476562 -3.902344 10.796875 0.605469 20.203125 0.605469 Z M 20.203125 0.605469 "/></g></g></g><g fill="#111827" fill-opacity="1"><g transform="translate(178.260788, 58.943464)"><g><path d="M 31 -43.703125 L 1.210938 -43.703125 L 1.210938 -35.71875 L 11.644531 -35.71875 L 11.644531 0 L 20.628906 0 L 20.628906 -35.71875 L 31 -35.71875 Z M 31 -43.703125 "/></g></g></g><g fill="#111827" fill-opacity="1"><g transform="translate(210.467468, 58.943464)"><g><path d="M 29.125 -23.078125 C 32.542969 -24.742188 34.207031 -27.886719 34.207031 -31.726562 C 34.207031 -39.167969 29.246094 -43.703125 19.8125 -43.703125 L 5.65625 -43.703125 L 5.65625 0 L 23.652344 0 C 32.875 0 37.351562 -4.871094 37.351562 -12.25 C 37.351562 -18.480469 34.054688 -21.714844 29.125 -23.078125 Z M 19.902344 -36.171875 C 23.953125 -36.171875 25.859375 -34.054688 25.859375 -31.152344 C 25.859375 -28.1875 24.167969 -25.890625 20.292969 -25.890625 L 14.398438 -25.890625 L 14.398438 -36.171875 Z M 21.957031 -7.773438 L 14.398438 -7.773438 L 14.398438 -18.902344 L 21.777344 -18.902344 C 26.886719 -18.902344 28.550781 -16.152344 28.550781 -13.246094 C 28.550781 -10.40625 26.859375 -7.773438 21.957031 -7.773438 Z M 21.957031 -7.773438 "/></g></g></g><g fill="#111827" fill-opacity="1"><g transform="translate(250.234401, 58.943464)"><g><path d="M 5.65625 0 L 14.730469 0 L 14.730469 -43.703125 L 5.65625 -43.703125 Z M 5.65625 0 "/></g></g></g><g fill="#111827" fill-opacity="1"><g transform="translate(270.586606, 58.943464)"><g><path d="M 31 -43.703125 L 1.210938 -43.703125 L 1.210938 -35.71875 L 11.644531 -35.71875 L 11.644531 0 L 20.628906 0 L 20.628906 -35.71875 L 31 -35.71875 Z M 31 -43.703125 "/></g></g></g><g fill="#111827" fill-opacity="1"><g transform="translate(302.793286, 58.943464)"><g><path d="M 31 -35.71875 L 31 -43.703125 L 5.65625 -43.703125 L 5.65625 0 L 31 0 L 31 -8.015625 L 14.789062 -8.015625 L 14.789062 -17.90625 L 29.15625 -17.90625 L 29.15625 -25.800781 L 14.789062 -25.800781 L 14.789062 -35.71875 Z M 31 -35.71875 "/></g></g></g></svg>