<svg xmlns="http://www.w3.org/2000/svg" xmlns:xlink="http://www.w3.org/1999/xlink" width="500" zoomAndPan="magnify" viewBox="0 0 375 374.999991" height="500" preserveAspectRatio="xMidYMid meet" version="1.0"><path fill="#545454" d="M 198.023438 287.355469 L 198.023438 87.65625 L 248.347656 37.355469 C 248.347656 37.355469 255.714844 29.988281 248.347656 22.613281 C 240.976562 15.25 233.609375 22.613281 233.609375 22.613281 L 198.023438 58.1875 L 198.023438 10.417969 C 198.023438 10.417969 198.023438 0 187.601562 0 C 177.179688 0 177.179688 10.417969 177.179688 10.417969 L 177.179688 58.1875 L 141.597656 22.613281 C 141.597656 22.613281 134.226562 15.25 126.859375 22.613281 C 119.488281 29.988281 126.859375 37.355469 126.859375 37.355469 L 177.179688 87.65625 L 177.179688 287.355469 L 126.859375 337.644531 C 126.859375 337.644531 119.488281 345.011719 126.859375 352.375 C 134.226562 359.738281 141.597656 352.375 141.597656 352.375 L 177.179688 316.8125 L 177.179688 364.582031 C 177.179688 364.582031 177.179688 375 187.601562 375 C 198.023438 375 198.023438 364.582031 198.023438 364.582031 L 198.023438 316.8125 L 233.609375 352.375 C 233.609375 352.375 240.976562 359.738281 248.347656 352.375 C 255.714844 345.011719 248.347656 337.644531 248.347656 337.644531 Z M 198.023438 287.355469 " fill-opacity="1" fill-rule="nonzero"/><path fill="#545454" d="M 360.851562 217.355469 C 358.152344 207.292969 348.082031 209.988281 348.082031 209.988281 L 279.34375 228.394531 L 106.292969 128.542969 L 87.875 59.84375 C 87.875 59.84375 85.175781 49.78125 75.109375 52.480469 C 65.03125 55.175781 67.738281 65.238281 67.738281 65.238281 L 80.769531 113.824219 L 39.367188 89.925781 C 39.367188 89.925781 30.34375 84.71875 25.128906 93.738281 C 19.917969 102.761719 28.945312 107.96875 28.945312 107.96875 L 70.335938 131.855469 L 21.722656 144.863281 C 21.722656 144.863281 11.644531 147.5625 14.351562 157.625 C 17.054688 167.699219 27.121094 165 27.121094 165 L 95.871094 146.59375 L 268.921875 246.449219 L 287.339844 315.15625 C 287.339844 315.15625 290.039062 325.21875 300.105469 322.519531 C 310.175781 319.8125 307.476562 309.761719 307.476562 309.761719 L 294.445312 261.175781 L 335.847656 285.0625 C 335.847656 285.0625 344.882812 290.269531 350.09375 281.261719 C 355.304688 272.230469 346.269531 267.019531 346.269531 267.019531 L 304.878906 243.136719 L 353.480469 230.125 C 353.480469 230.113281 363.550781 227.417969 360.851562 217.355469 Z M 360.851562 217.355469 " fill-opacity="1" fill-rule="nonzero"/><path fill="#545454" d="M 353.480469 144.863281 L 304.871094 131.84375 L 346.269531 107.957031 C 346.269531 107.957031 355.304688 102.738281 350.09375 93.71875 C 344.871094 84.6875 335.847656 89.90625 335.847656 89.90625 L 294.457031 113.78125 L 307.476562 65.207031 C 307.476562 65.207031 310.175781 55.144531 300.105469 52.449219 C 290.039062 49.75 287.339844 59.8125 287.339844 59.8125 L 268.921875 128.511719 L 95.859375 228.394531 L 27.132812 209.980469 C 27.132812 209.980469 17.0625 207.28125 14.363281 217.34375 C 11.652344 227.417969 21.734375 230.105469 21.734375 230.105469 L 70.335938 243.113281 L 28.945312 267 C 28.945312 267 19.929688 272.21875 25.140625 281.238281 C 30.351562 290.25 39.367188 285.042969 39.367188 285.042969 L 80.769531 261.15625 L 67.738281 309.730469 C 67.738281 309.730469 65.039062 319.800781 75.109375 322.488281 C 85.1875 325.199219 87.886719 315.136719 87.886719 315.136719 L 106.3125 246.417969 L 279.375 146.574219 L 348.113281 164.988281 C 348.113281 164.988281 358.183594 167.6875 360.882812 157.625 C 363.539062 147.550781 353.480469 144.863281 353.480469 144.863281 Z M 353.480469 144.863281 " fill-opacity="1" fill-rule="nonzero"/></svg>