<svg width="842" height="406" viewBox="0 0 842 406" fill="none" xmlns="http://www.w3.org/2000/svg">
<path d="M24.1818 94V95H24.9164L25.1361 94.299L24.1818 94ZM0 94L-0.94752 93.6803L-1.39279 95H0V94ZM31.4091 0.909088V-0.0909119H30.6911L30.4616 0.589393L31.4091 0.909088ZM61.3636 0.909088L62.3112 0.589393L62.0816 -0.0909119H61.3636V0.909088ZM92.7727 94V95H94.1655L93.7202 93.6803L92.7727 94ZM68.5909 94L67.6368 94.2996L67.8568 95H68.5909V94ZM46.7273 24.3636L47.6814 24.0641L47.4614 23.3636H46.7273V24.3636ZM46 24.3636V23.3636H45.2654L45.0457 24.0646L46 24.3636ZM20.9545 57.3636V56.3636H19.9545V57.3636H20.9545ZM71.5 57.3636H72.5V56.3636H71.5V57.3636ZM71.5 74.4545V75.4545H72.5V74.4545H71.5ZM20.9545 74.4545H19.9545V75.4545H20.9545V74.4545ZM24.1818 93H0V95H24.1818V93ZM0.94752 94.3197L32.3566 1.22878L30.4616 0.589393L-0.94752 93.6803L0.94752 94.3197ZM31.4091 1.90909H61.3636V-0.0909119H31.4091V1.90909ZM60.4161 1.22878L91.8252 94.3197L93.7202 93.6803L62.3112 0.589393L60.4161 1.22878ZM92.7727 93H68.5909V95H92.7727V93ZM69.545 93.7004L47.6814 24.0641L45.7732 24.6632L67.6368 94.2996L69.545 93.7004ZM46.7273 23.3636H46V25.3636H46.7273V23.3636ZM45.0457 24.0646L23.2276 93.701L25.1361 94.299L46.9543 24.6626L45.0457 24.0646ZM20.9545 58.3636H71.5V56.3636H20.9545V58.3636ZM70.5 57.3636V74.4545H72.5V57.3636H70.5ZM71.5 73.4545H20.9545V75.4545H71.5V73.4545ZM21.9545 74.4545V57.3636H19.9545V74.4545H21.9545ZM102.795 94H101.795V95H102.795V94ZM102.795 0.909088V-0.0909119H101.795V0.909088H102.795ZM166.341 0.909088H167.341V-0.0909119H166.341V0.909088ZM166.341 19.1818V20.1818H167.341V19.1818H166.341ZM125.295 19.1818V18.1818H124.295V19.1818H125.295ZM125.295 38.2727H124.295V39.2727H125.295V38.2727ZM162.295 38.2727H163.295V37.2727H162.295V38.2727ZM162.295 56.5909V57.5909H163.295V56.5909H162.295ZM125.295 56.5909V55.5909H124.295V56.5909H125.295ZM125.295 94V95H126.295V94H125.295ZM103.795 94V0.909088H101.795V94H103.795ZM102.795 1.90909H166.341V-0.0909119H102.795V1.90909ZM165.341 0.909088V19.1818H167.341V0.909088H165.341ZM166.341 18.1818H125.295V20.1818H166.341V18.1818ZM124.295 19.1818V38.2727H126.295V19.1818H124.295ZM125.295 39.2727H162.295V37.2727H125.295V39.2727ZM161.295 38.2727V56.5909H163.295V38.2727H161.295ZM162.295 55.5909H125.295V57.5909H162.295V55.5909ZM124.295 56.5909V94H126.295V56.5909H124.295ZM125.295 93H102.795V95H125.295V93ZM174.625 19.1818H173.625V20.1818H174.625V19.1818ZM174.625 0.909088V-0.0909119H173.625V0.909088H174.625ZM253.307 0.909088H254.307V-0.0909119H253.307V0.909088ZM253.307 19.1818V20.1818H254.307V19.1818H253.307ZM225.08 19.1818V18.1818H224.08V19.1818H225.08ZM225.08 94V95H226.08V94H225.08ZM202.898 94H201.898V95H202.898V94ZM202.898 19.1818H203.898V18.1818H202.898V19.1818ZM175.625 19.1818V0.909088H173.625V19.1818H175.625ZM174.625 1.90909H253.307V-0.0909119H174.625V1.90909ZM252.307 0.909088V19.1818H254.307V0.909088H252.307ZM253.307 18.1818H225.08V20.1818H253.307V18.1818ZM224.08 19.1818V94H226.08V19.1818H224.08ZM225.08 93H202.898V95H225.08V93ZM203.898 94V19.1818H201.898V94H203.898ZM202.898 18.1818H174.625V20.1818H202.898V18.1818ZM264.295 94H263.295V95H264.295V94ZM264.295 0.909088V-0.0909119H263.295V0.909088H264.295ZM329.205 0.909088H330.205V-0.0909119H329.205V0.909088ZM329.205 19.1818V20.1818H330.205V19.1818H329.205ZM286.795 19.1818V18.1818H285.795V19.1818H286.795ZM286.795 38.2727H285.795V39.2727H286.795V38.2727ZM325.886 38.2727H326.886V37.2727H325.886V38.2727ZM325.886 56.5909V57.5909H326.886V56.5909H325.886ZM286.795 56.5909V55.5909H285.795V56.5909H286.795ZM286.795 75.7273H285.795V76.7273H286.795V75.7273ZM329.205 75.7273H330.205V74.7273H329.205V75.7273ZM329.205 94V95H330.205V94H329.205ZM265.295 94V0.909088H263.295V94H265.295ZM264.295 1.90909H329.205V-0.0909119H264.295V1.90909ZM328.205 0.909088V19.1818H330.205V0.909088H328.205ZM329.205 18.1818H286.795V20.1818H329.205V18.1818ZM285.795 19.1818V38.2727H287.795V19.1818H285.795ZM286.795 39.2727H325.886V37.2727H286.795V39.2727ZM324.886 38.2727V56.5909H326.886V38.2727H324.886ZM325.886 55.5909H286.795V57.5909H325.886V55.5909ZM285.795 56.5909V75.7273H287.795V56.5909H285.795ZM286.795 76.7273H329.205V74.7273H286.795V76.7273ZM328.205 75.7273V94H330.205V75.7273H328.205ZM329.205 93H264.295V95H329.205V93ZM343.295 94H342.295V95H343.295V94ZM343.295 0.909088V-0.0909119H342.295V0.909088H343.295ZM399.795 4.68182L399.35 5.57734L399.357 5.58048L399.795 4.68182ZM411.568 15.4091L410.707 15.9178L410.709 15.9203L411.568 15.4091ZM411.477 48.3636L412.324 48.8957L412.326 48.8931L411.477 48.3636ZM399.477 58.6364L399.888 59.5482L399.892 59.5462L399.477 58.6364ZM356.75 62.1364H355.75V63.1364H356.75V62.1364ZM356.75 44.4091V43.4091H355.75V44.4091H356.75ZM385.386 43.0909L385.747 44.0236L385.754 44.0211L385.386 43.0909ZM390.614 39L391.452 39.545L391.456 39.5387L390.614 39ZM390.614 24.7727L389.763 25.2991L389.767 25.3052L390.614 24.7727ZM385.386 20.5L384.998 21.4217L385.009 21.4259L385.386 20.5ZM365.795 19.0455V18.0455H364.795V19.0455H365.795ZM365.795 94V95H366.795V94H365.795ZM395.705 51.4545L396.583 50.9761L396.298 50.4545H395.705V51.4545ZM418.886 94V95H420.57L419.764 93.5215L418.886 94ZM394.341 94L393.459 94.4712L393.741 95H394.341V94ZM371.614 51.4545V50.4545H369.946L370.732 51.9257L371.614 51.4545ZM344.295 94V0.909088H342.295V94H344.295ZM343.295 1.90909H381.75V-0.0909119H343.295V1.90909ZM381.75 1.90909C388.601 1.90909 394.457 3.14506 399.35 5.57731L400.241 3.78632C395.013 1.18827 388.839 -0.0909119 381.75 -0.0909119V1.90909ZM399.357 5.58048C404.28 7.98356 408.054 11.4275 410.707 15.9178L412.429 14.9004C409.567 10.0573 405.493 6.34977 400.234 3.78315L399.357 5.58048ZM410.709 15.9203C413.359 20.3762 414.705 25.6928 414.705 31.9091H416.705C416.705 25.3981 415.293 19.7147 412.428 14.8979L410.709 15.9203ZM414.705 31.9091C414.705 38.2164 413.329 43.5086 410.629 47.8341L412.326 48.8931C415.262 44.1883 416.705 38.5108 416.705 31.9091H414.705ZM410.631 47.8316C407.924 52.1385 404.08 55.4376 399.062 57.7265L399.892 59.5462C405.238 57.1079 409.394 53.5585 412.324 48.8957L410.631 47.8316ZM399.067 57.7245C394.042 59.9872 388.052 61.1364 381.068 61.1364V63.1364C388.267 63.1364 394.549 61.9522 399.888 59.5482L399.067 57.7245ZM381.068 61.1364H356.75V63.1364H381.068V61.1364ZM357.75 62.1364V44.4091H355.75V62.1364H357.75ZM356.75 45.4091H376.886V43.4091H356.75V45.4091ZM376.886 45.4091C380.359 45.4091 383.324 44.9606 385.747 44.0236L385.026 42.1582C382.904 42.9788 380.202 43.4091 376.886 43.4091V45.4091ZM385.754 44.0211C388.221 43.0469 390.141 41.5614 391.452 39.545L389.775 38.455C388.722 40.075 387.157 41.3167 385.019 42.1608L385.754 44.0211ZM391.456 39.5387C392.768 37.4863 393.386 34.9203 393.386 31.9091H391.386C391.386 34.6555 390.823 36.8167 389.771 38.4613L391.456 39.5387ZM393.386 31.9091C393.386 28.8969 392.768 26.3195 391.46 24.2403L389.767 25.3052C390.823 26.9836 391.386 29.1637 391.386 31.9091H393.386ZM391.464 24.2464C390.159 22.1381 388.241 20.5843 385.764 19.5741L385.009 21.4259C387.138 22.2945 388.705 23.5891 389.763 25.2991L391.464 24.2464ZM385.774 19.5784C383.314 18.5424 380.34 18.0455 376.886 18.0455V20.0455C380.16 20.0455 382.853 20.5182 384.998 21.4216L385.774 19.5784ZM376.886 18.0455H365.795V20.0455H376.886V18.0455ZM364.795 19.0455V94H366.795V19.0455H364.795ZM365.795 93H343.295V95H365.795V93ZM394.826 51.933L418.008 94.4785L419.764 93.5215L396.583 50.9761L394.826 51.933ZM418.886 93H394.341V95H418.886V93ZM395.223 93.5288L372.496 50.9834L370.732 51.9257L393.459 94.4712L395.223 93.5288ZM371.614 52.4545H395.705V50.4545H371.614V52.4545ZM428.045 94H427.045V95H428.045V94ZM428.045 0.909088V-0.0909119H427.045V0.909088H428.045ZM486.909 6.5L486.431 7.37835L486.436 7.38084L486.909 6.5ZM502.818 22.5L501.936 22.9716L501.937 22.9732L502.818 22.5ZM502.818 72.4091L501.936 71.9375L501.935 71.9405L502.818 72.4091ZM486.955 88.4545L487.428 89.3354L487.431 89.3338L486.955 88.4545ZM450.545 74.8182H449.545V75.8182H450.545V74.8182ZM474.818 72.1818L475.256 73.0807L475.259 73.0792L474.818 72.1818ZM483.045 63.5L482.139 63.0775L482.138 63.0805L483.045 63.5ZM483.045 31.4091L482.14 31.8342L482.142 31.8369L483.045 31.4091ZM474.727 22.7727L474.286 23.6702L474.295 23.6745L474.727 22.7727ZM450.545 20.0909V19.0909H449.545V20.0909H450.545ZM462.455 93H428.045V95H462.455V93ZM429.045 94V0.909088H427.045V94H429.045ZM428.045 1.90909H462.409V-0.0909119H428.045V1.90909ZM462.409 1.90909C471.763 1.90909 479.758 3.74644 486.431 7.37834L487.387 5.62166C480.363 1.79901 472.025 -0.0909119 462.409 -0.0909119V1.90909ZM486.436 7.38084C493.139 10.9834 498.301 16.1733 501.936 22.9716L503.7 22.0284C499.881 14.8873 494.437 9.41054 487.383 5.61916L486.436 7.38084ZM501.937 22.9732C505.571 29.7376 507.409 37.8705 507.409 47.4091H509.409C509.409 37.6144 507.52 29.1412 503.699 22.0268L501.937 22.9732ZM507.409 47.4091C507.409 56.9784 505.57 65.1423 501.936 71.9375L503.7 72.8807C507.521 65.7365 509.409 57.2337 509.409 47.4091H507.409ZM501.935 71.9405C498.329 78.7378 493.182 83.9427 486.478 87.5753L487.431 89.3338C494.484 85.5118 499.913 80.0198 503.702 72.8777L501.935 71.9405ZM486.481 87.5737C479.776 91.1776 471.778 93 462.455 93V95C472.04 95 480.376 93.1254 487.428 89.3354L486.481 87.5737ZM450.545 75.8182H461.591V73.8182H450.545V75.8182ZM461.591 75.8182C466.911 75.8182 471.479 74.9216 475.256 73.0807L474.38 71.2829C470.945 72.9571 466.695 73.8182 461.591 73.8182V75.8182ZM475.259 73.0792C479.12 71.1811 482.018 68.1081 483.953 63.9195L482.138 63.0805C480.376 66.8919 477.789 69.6067 474.377 71.2844L475.259 73.0792ZM483.952 63.9225C485.915 59.7101 486.864 54.1848 486.864 47.4091H484.864C484.864 54.0273 483.933 59.2293 482.139 63.0775L483.952 63.9225ZM486.864 47.4091C486.864 40.6346 485.916 35.1364 483.949 30.9813L482.142 31.8369C483.933 35.6212 484.864 40.7897 484.864 47.4091H486.864ZM483.951 30.984C481.983 26.7947 479.053 23.7371 475.16 21.871L474.295 23.6745C477.735 25.3235 480.35 28.0235 482.14 31.8342L483.951 30.984ZM475.168 21.8753C471.359 20.0021 466.713 19.0909 461.273 19.0909V21.0909C466.499 21.0909 470.823 21.9676 474.286 23.6701L475.168 21.8753ZM461.273 19.0909H450.545V21.0909H461.273V19.0909ZM449.545 20.0909V74.8182H451.545V20.0909H449.545ZM536.182 94V95H536.916L537.136 94.299L536.182 94ZM512 94L511.052 93.6803L510.607 95H512V94ZM543.409 0.909088V-0.0909119H542.691L542.462 0.589393L543.409 0.909088ZM573.364 0.909088L574.311 0.589393L574.082 -0.0909119H573.364V0.909088ZM604.773 94V95H606.166L605.72 93.6803L604.773 94ZM580.591 94L579.637 94.2996L579.857 95H580.591V94ZM558.727 24.3636L559.681 24.0641L559.461 23.3636H558.727V24.3636ZM558 24.3636V23.3636H557.265L557.046 24.0646L558 24.3636ZM532.955 57.3636V56.3636H531.955V57.3636H532.955ZM583.5 57.3636H584.5V56.3636H583.5V57.3636ZM583.5 74.4545V75.4545H584.5V74.4545H583.5ZM532.955 74.4545H531.955V75.4545H532.955V74.4545ZM536.182 93H512V95H536.182V93ZM512.948 94.3197L544.357 1.22878L542.462 0.589393L511.052 93.6803L512.948 94.3197ZM543.409 1.90909H573.364V-0.0909119H543.409V1.90909ZM572.416 1.22878L603.825 94.3197L605.72 93.6803L574.311 0.589393L572.416 1.22878ZM604.773 93H580.591V95H604.773V93ZM581.545 93.7004L559.681 24.0641L557.773 24.6632L579.637 94.2996L581.545 93.7004ZM558.727 23.3636H558V25.3636H558.727V23.3636ZM557.046 24.0646L535.228 93.701L537.136 94.299L558.954 24.6626L557.046 24.0646ZM532.955 58.3636H583.5V56.3636H532.955V58.3636ZM582.5 57.3636V74.4545H584.5V57.3636H582.5ZM583.5 73.4545H532.955V75.4545H583.5V73.4545ZM533.955 74.4545V57.3636H531.955V74.4545H533.955ZM614.795 94H613.795V95H614.795V94ZM614.795 0.909088V-0.0909119H613.795V0.909088H614.795ZM671.295 4.68182L670.85 5.57734L670.857 5.58048L671.295 4.68182ZM683.068 15.4091L682.207 15.9178L682.209 15.9203L683.068 15.4091ZM682.977 48.3636L683.824 48.8957L683.826 48.8931L682.977 48.3636ZM670.977 58.6364L671.388 59.5482L671.392 59.5462L670.977 58.6364ZM628.25 62.1364H627.25V63.1364H628.25V62.1364ZM628.25 44.4091V43.4091H627.25V44.4091H628.25ZM656.886 43.0909L657.247 44.0236L657.254 44.0211L656.886 43.0909ZM662.114 39L662.952 39.545L662.956 39.5387L662.114 39ZM662.114 24.7727L661.263 25.2991L661.267 25.3052L662.114 24.7727ZM656.886 20.5L656.498 21.4217L656.509 21.4259L656.886 20.5ZM637.295 19.0455V18.0455H636.295V19.0455H637.295ZM637.295 94V95H638.295V94H637.295ZM667.205 51.4545L668.083 50.9761L667.798 50.4545H667.205V51.4545ZM690.386 94V95H692.07L691.264 93.5215L690.386 94ZM665.841 94L664.959 94.4712L665.241 95H665.841V94ZM643.114 51.4545V50.4545H641.446L642.232 51.9257L643.114 51.4545ZM615.795 94V0.909088H613.795V94H615.795ZM614.795 1.90909H653.25V-0.0909119H614.795V1.90909ZM653.25 1.90909C660.101 1.90909 665.957 3.14506 670.85 5.57731L671.741 3.78632C666.513 1.18827 660.339 -0.0909119 653.25 -0.0909119V1.90909ZM670.857 5.58048C675.78 7.98356 679.554 11.4275 682.207 15.9178L683.929 14.9004C681.067 10.0573 676.993 6.34977 671.734 3.78315L670.857 5.58048ZM682.209 15.9203C684.859 20.3762 686.205 25.6928 686.205 31.9091H688.205C688.205 25.3981 686.793 19.7147 683.928 14.8979L682.209 15.9203ZM686.205 31.9091C686.205 38.2164 684.829 43.5086 682.129 47.8341L683.826 48.8931C686.762 44.1883 688.205 38.5108 688.205 31.9091H686.205ZM682.131 47.8316C679.424 52.1385 675.58 55.4376 670.562 57.7265L671.392 59.5462C676.738 57.1079 680.894 53.5585 683.824 48.8957L682.131 47.8316ZM670.567 57.7245C665.542 59.9872 659.552 61.1364 652.568 61.1364V63.1364C659.767 63.1364 666.049 61.9522 671.388 59.5482L670.567 57.7245ZM652.568 61.1364H628.25V63.1364H652.568V61.1364ZM629.25 62.1364V44.4091H627.25V62.1364H629.25ZM628.25 45.4091H648.386V43.4091H628.25V45.4091ZM648.386 45.4091C651.859 45.4091 654.824 44.9606 657.247 44.0236L656.526 42.1582C654.404 42.9788 651.702 43.4091 648.386 43.4091V45.4091ZM657.254 44.0211C659.721 43.0469 661.641 41.5614 662.952 39.545L661.275 38.455C660.222 40.075 658.657 41.3167 656.519 42.1608L657.254 44.0211ZM662.956 39.5387C664.268 37.4863 664.886 34.9203 664.886 31.9091H662.886C662.886 34.6555 662.323 36.8167 661.271 38.4613L662.956 39.5387ZM664.886 31.9091C664.886 28.8969 664.268 26.3195 662.96 24.2403L661.267 25.3052C662.323 26.9836 662.886 29.1637 662.886 31.9091H664.886ZM662.964 24.2464C661.659 22.1381 659.741 20.5843 657.264 19.5741L656.509 21.4259C658.638 22.2945 660.205 23.5891 661.263 25.2991L662.964 24.2464ZM657.274 19.5784C654.814 18.5424 651.84 18.0455 648.386 18.0455V20.0455C651.66 20.0455 654.353 20.5182 656.498 21.4216L657.274 19.5784ZM648.386 18.0455H637.295V20.0455H648.386V18.0455ZM636.295 19.0455V94H638.295V19.0455H636.295ZM637.295 93H614.795V95H637.295V93ZM666.326 51.933L689.508 94.4785L691.264 93.5215L668.083 50.9761L666.326 51.933ZM690.386 93H665.841V95H690.386V93ZM666.723 93.5288L643.996 50.9834L642.232 51.9257L664.959 94.4712L666.723 93.5288ZM643.114 52.4545H667.205V50.4545H643.114V52.4545ZM699.545 94H698.545V95H699.545V94ZM699.545 0.909088V-0.0909119H698.545V0.909088H699.545ZM722.045 0.909088H723.045V-0.0909119H722.045V0.909088ZM722.045 40.2727H721.045V41.2727H722.045V40.2727ZM723.273 40.2727V41.2727H723.76L724.061 40.8886L723.273 40.2727ZM754.045 0.909088V-0.0909119H753.558L753.258 0.293197L754.045 0.909088ZM780.545 0.909088L781.328 1.53106L782.617 -0.0909119H780.545V0.909088ZM747.545 42.4545L746.762 41.8326L746.314 42.3968L746.708 43.0005L747.545 42.4545ZM781.136 94V95H782.982L781.974 93.454L781.136 94ZM754.227 94L753.383 94.5352L753.677 95H754.227V94ZM731.045 57.4091L731.89 56.8739L731.136 55.6838L730.262 56.7882L731.045 57.4091ZM722.045 68.7727L721.262 68.1519L721.045 68.4247V68.7727H722.045ZM722.045 94V95H723.045V94H722.045ZM700.545 94V0.909088H698.545V94H700.545ZM699.545 1.90909H722.045V-0.0909119H699.545V1.90909ZM721.045 0.909088V40.2727H723.045V0.909088H721.045ZM722.045 41.2727H723.273V39.2727H722.045V41.2727ZM724.061 40.8886L754.833 1.52498L753.258 0.293197L722.485 39.6568L724.061 40.8886ZM754.045 1.90909H780.545V-0.0909119H754.045V1.90909ZM779.762 0.287113L746.762 41.8326L748.328 43.0765L781.328 1.53106L779.762 0.287113ZM746.708 43.0005L780.299 94.546L781.974 93.454L748.383 41.9086L746.708 43.0005ZM781.136 93H754.227V95H781.136V93ZM755.072 93.4648L731.89 56.8739L730.201 57.9443L753.383 94.5352L755.072 93.4648ZM730.262 56.7882L721.262 68.1519L722.829 69.3936L731.829 58.03L730.262 56.7882ZM721.045 68.7727V94H723.045V68.7727H721.045ZM722.045 93H699.545V95H722.045V93ZM88.5455 189.636V190.636H89.6481L89.5407 189.539L88.5455 189.636ZM65.8182 189.636L64.8265 189.765L64.9397 190.636H65.8182V189.636ZM63.9545 183.318L63.0601 183.765L63.0601 183.765L63.9545 183.318ZM60.2273 178.5L60.8805 177.743L60.8805 177.743L60.2273 178.5ZM54.7273 175.455L54.3988 176.399L54.4069 176.402L54.4151 176.405L54.7273 175.455ZM36.0909 177.682L35.5309 176.853L35.5273 176.856L36.0909 177.682ZM28.5909 187.273L27.669 186.885L27.6666 186.891L28.5909 187.273ZM28.6364 218L27.7144 218.387L27.7179 218.396L28.6364 218ZM36.1364 227.409L35.5853 228.244L35.5944 228.25L36.1364 227.409ZM54.4091 229.591L54.114 228.635L54.11 228.637L54.4091 229.591ZM59.8182 226.818L60.4353 227.605L60.4373 227.603L59.8182 226.818ZM63.6818 222.318L62.8154 221.819L62.8127 221.824L63.6818 222.318ZM65.8182 216.273L65.8242 215.273L64.9794 215.268L64.8333 216.1L65.8182 216.273ZM88.5455 216.409L89.5409 216.504L89.645 215.416L88.5515 215.409L88.5455 216.409ZM84.9546 228.591L84.0601 228.144L84.0574 228.149L84.9546 228.591ZM76.8182 239.545L77.5059 240.271L77.5093 240.268L76.8182 239.545ZM64.1818 247.364L63.8183 246.432L63.8163 246.433L64.1818 247.364ZM24.5455 244.727L24.0558 245.599L24.0605 245.602L24.5455 244.727ZM8.81818 228.455L9.69793 227.979L8.81818 228.455ZM8.90909 176.409L8.03248 175.928L8.03248 175.928L8.90909 176.409ZM62.8182 157L62.5056 157.95L62.511 157.952L62.8182 157ZM75.4545 163.818L74.8182 164.59L74.822 164.593L75.4545 163.818ZM88.5455 188.636H65.8182V190.636H88.5455V188.636ZM66.8099 189.508C66.4941 187.077 65.844 184.861 64.849 182.871L63.0601 183.765C63.9439 185.533 64.5362 187.529 64.8265 189.765L66.8099 189.508ZM64.849 182.871C63.8522 180.877 62.529 179.165 60.8805 177.743L59.574 179.257C61.0165 180.502 62.1781 182.001 63.0601 183.765L64.849 182.871ZM60.8805 177.743C59.2262 176.316 57.2741 175.239 55.0394 174.505L54.4151 176.405C56.4229 177.064 58.1375 178.018 59.574 179.257L60.8805 177.743ZM55.0558 174.51C52.8447 173.741 50.4135 173.364 47.7727 173.364V175.364C50.2228 175.364 52.428 175.714 54.3988 176.399L55.0558 174.51ZM47.7727 173.364C43.0874 173.364 38.9918 174.514 35.5309 176.853L36.6509 178.51C39.7355 176.425 43.4277 175.364 47.7727 175.364V173.364ZM35.5273 176.856C32.1021 179.193 29.4894 182.554 27.669 186.885L29.5128 187.66C31.2076 183.628 33.5949 180.595 36.6545 178.508L35.5273 176.856ZM27.6666 186.891C25.8764 191.225 25 196.423 25 202.455H27C27 196.607 27.8509 191.684 29.5152 187.654L27.6666 186.891ZM25 202.455C25 208.724 25.8903 214.047 27.7145 218.387L29.5583 217.613C27.8673 213.589 27 208.549 27 202.455H25ZM27.7179 218.396C29.5692 222.694 32.1839 225.997 35.5853 228.244L36.6874 226.575C33.6646 224.578 31.2793 221.609 29.5548 217.604L27.7179 218.396ZM35.5944 228.25C39.0211 230.459 43.0488 231.545 47.6364 231.545V229.545C43.3754 229.545 39.7365 228.541 36.6783 226.569L35.5944 228.25ZM47.6364 231.545C50.2061 231.545 52.5664 231.216 54.7082 230.545L54.11 228.637C52.1912 229.238 50.0364 229.545 47.6364 229.545V231.545ZM54.7042 230.546C56.8701 229.877 58.7847 228.9 60.4353 227.605L59.201 226.031C57.7607 227.161 56.0693 228.032 54.114 228.635L54.7042 230.546ZM60.4373 227.603C62.1152 226.281 63.4877 224.682 64.551 222.813L62.8127 221.824C61.876 223.47 60.6727 224.871 59.199 226.033L60.4373 227.603ZM64.5483 222.817C65.6425 220.919 66.3911 218.791 66.8031 216.446L64.8333 216.1C64.4574 218.239 63.7818 220.142 62.8154 221.819L64.5483 222.817ZM65.8122 217.273L88.5395 217.409L88.5515 215.409L65.8242 215.273L65.8122 217.273ZM87.55 216.314C87.1687 220.303 86.0095 224.245 84.0601 228.144L85.849 229.038C87.8996 224.937 89.1344 220.758 89.5409 216.504L87.55 216.314ZM84.0574 228.149C82.143 232.037 79.5032 235.595 76.1271 238.823L77.5093 240.268C81.0423 236.89 83.8267 233.145 85.8517 229.033L84.0574 228.149ZM76.1304 238.82C72.7804 241.993 68.6822 244.534 63.8183 246.432L64.5454 248.295C69.6209 246.315 73.9469 243.643 77.5059 240.271L76.1304 238.82ZM63.8163 246.433C59.0146 248.318 53.4757 249.273 47.1818 249.273V251.273C53.6759 251.273 59.4703 250.288 64.5473 248.294L63.8163 246.433ZM47.1818 249.273C38.909 249.273 31.5335 247.459 25.0304 243.853L24.0605 245.602C30.8907 249.389 38.6061 251.273 47.1818 251.273V249.273ZM25.0352 243.855C18.5743 240.227 13.4625 234.945 9.69793 227.979L7.93843 228.93C11.8709 236.207 17.2439 241.773 24.0558 245.599L25.0352 243.855ZM9.69793 227.979C5.94639 221.037 4.04545 212.543 4.04545 202.455H2.04545C2.04545 212.79 3.99301 221.629 7.93843 228.93L9.69793 227.979ZM4.04545 202.455C4.04545 192.337 5.97602 183.83 9.7857 176.89L8.03248 175.928C4.02398 183.23 2.04545 192.087 2.04545 202.455H4.04545ZM9.7857 176.89C13.6102 169.923 18.767 164.656 25.2577 161.056L24.2878 159.307C17.4451 163.102 12.0262 168.653 8.03248 175.928L9.7857 176.89ZM25.2577 161.056C31.7635 157.449 39.0639 155.636 47.1818 155.636V153.636C38.7543 153.636 31.1153 155.521 24.2878 159.307L25.2577 161.056ZM47.1818 155.636C52.7244 155.636 57.8297 156.411 62.5056 157.95L63.1308 156.05C58.2309 154.437 52.912 153.636 47.1818 153.636V155.636ZM62.511 157.952C67.1869 159.461 71.2856 161.675 74.8182 164.59L76.0909 163.047C72.3508 159.961 68.0252 157.63 63.1254 156.048L62.511 157.952ZM74.822 164.593C78.3496 167.474 81.2198 171.018 83.4326 175.237L85.2038 174.308C82.8711 169.861 79.8322 166.102 76.0871 163.044L74.822 164.593ZM83.4326 175.237C85.6374 179.441 87.0155 184.268 87.5502 189.734L89.5407 189.539C88.9845 183.853 87.5444 178.771 85.2038 174.308L83.4326 175.237ZM183.375 228.5L182.5 228.016L182.5 228.016L183.375 228.5ZM167.375 244.727L166.893 243.851L166.892 243.852L167.375 244.727ZM122.239 244.682L122.725 243.808L122.725 243.808L122.239 244.682ZM106.284 228.455L105.407 228.936L105.41 228.94L106.284 228.455ZM106.284 176.409L105.409 175.925L105.407 175.928L106.284 176.409ZM122.239 160.182L122.722 161.057L122.722 161.057L122.239 160.182ZM167.375 160.182L166.892 161.057L166.893 161.058L167.375 160.182ZM183.375 176.409L182.5 176.893L182.5 176.893L183.375 176.409ZM163.693 187.091L162.767 187.467L162.769 187.473L163.693 187.091ZM156.33 177.591L155.769 178.419L155.773 178.422L156.33 177.591ZM133.33 177.591L133.886 178.422L133.886 178.422L133.33 177.591ZM125.92 187.091L124.996 186.709L124.994 186.715L125.92 187.091ZM125.92 217.818L124.994 218.194L124.996 218.2L125.92 217.818ZM133.33 227.318L133.886 226.487L133.886 226.487L133.33 227.318ZM156.33 227.318L155.773 226.487L155.769 226.49L156.33 227.318ZM163.693 217.818L162.769 217.436L162.767 217.442L163.693 217.818ZM188.284 202.455C188.284 212.571 186.339 221.076 182.5 228.016L184.25 228.984C188.29 221.681 190.284 212.823 190.284 202.455H188.284ZM182.5 228.016C178.646 234.982 173.445 240.25 166.893 243.851L167.857 245.604C174.76 241.81 180.225 236.26 184.25 228.984L182.5 228.016ZM166.892 243.852C160.356 247.46 153.009 249.273 144.83 249.273V251.273C153.316 251.273 161 249.389 167.858 245.603L166.892 243.852ZM144.83 249.273C136.62 249.273 129.26 247.445 122.725 243.808L121.752 245.556C128.611 249.373 136.312 251.273 144.83 251.273V249.273ZM122.725 243.808C116.201 240.177 111.013 234.907 107.158 227.969L105.41 228.94C109.434 236.184 114.883 241.732 121.752 245.556L122.725 243.808ZM107.161 227.973C103.351 221.033 101.42 212.541 101.42 202.455H99.4205C99.4205 212.792 101.399 221.634 105.407 228.936L107.161 227.973ZM101.42 202.455C101.42 192.337 103.351 183.83 107.161 176.89L105.407 175.928C101.399 183.23 99.4205 192.087 99.4205 202.455H101.42ZM107.159 176.893C111.013 169.926 116.2 164.657 122.722 161.057L121.755 159.306C114.883 163.1 109.434 168.65 105.409 175.925L107.159 176.893ZM122.722 161.057C129.257 157.449 136.619 155.636 144.83 155.636V153.636C136.313 153.636 128.614 155.52 121.755 159.306L122.722 161.057ZM144.83 155.636C153.009 155.636 160.356 157.449 166.892 161.057L167.858 159.306C161 155.521 153.316 153.636 144.83 153.636V155.636ZM166.893 161.058C173.445 164.659 178.646 169.927 182.5 176.893L184.25 175.925C180.225 168.649 174.76 163.099 167.857 159.305L166.893 161.058ZM182.5 176.893C186.339 183.833 188.284 192.338 188.284 202.455H190.284C190.284 192.086 188.29 183.228 184.25 175.925L182.5 176.893ZM167.284 202.455C167.284 196.305 166.409 191.046 164.617 186.709L162.769 187.473C164.432 191.5 165.284 196.483 165.284 202.455H167.284ZM164.62 186.715C162.861 182.38 160.291 179.04 156.886 176.76L155.773 178.422C158.793 180.444 161.132 183.439 162.767 187.467L164.62 186.715ZM156.89 176.763C153.516 174.481 149.48 173.364 144.83 173.364V175.364C149.149 175.364 152.779 176.397 155.769 178.419L156.89 176.763ZM144.83 173.364C140.208 173.364 136.174 174.482 132.773 176.76L133.886 178.422C136.91 176.397 140.542 175.364 144.83 175.364V173.364ZM132.773 176.76C129.37 179.039 126.786 182.376 124.996 186.709L126.845 187.473C128.51 183.442 130.865 180.445 133.886 178.422L132.773 176.76ZM124.994 186.715C123.235 191.049 122.375 196.307 122.375 202.455H124.375C124.375 196.481 125.212 191.496 126.847 187.467L124.994 186.715ZM122.375 202.455C122.375 208.602 123.235 213.86 124.994 218.194L126.847 217.442C125.212 213.413 124.375 208.428 124.375 202.455H122.375ZM124.996 218.2C126.786 222.533 129.37 225.87 132.773 228.149L133.886 226.487C130.865 224.464 128.51 221.467 126.845 217.436L124.996 218.2ZM132.773 228.149C136.174 230.427 140.208 231.545 144.83 231.545V229.545C140.542 229.545 136.91 228.512 133.886 226.487L132.773 228.149ZM144.83 231.545C149.48 231.545 153.516 230.428 156.89 228.147L155.769 226.49C152.779 228.512 149.149 229.545 144.83 229.545V231.545ZM156.886 228.149C160.291 225.869 162.861 222.529 164.62 218.194L162.767 217.442C161.132 221.471 158.793 224.465 155.773 226.487L156.886 228.149ZM164.617 218.2C166.409 213.864 167.284 208.604 167.284 202.455H165.284C165.284 208.426 164.432 213.409 162.769 217.436L164.617 218.2ZM247.102 193.909H248.102V192.909H247.102V193.909ZM247.102 211V212H248.102V211H247.102ZM204.011 211H203.011V212H204.011V211ZM204.011 193.909V192.909H203.011V193.909H204.011ZM246.102 193.909V211H248.102V193.909H246.102ZM247.102 210H204.011V212H247.102V210ZM205.011 211V193.909H203.011V211H205.011ZM204.011 194.909H247.102V192.909H204.011V194.909ZM86 383.5L85.125 383.016L85.125 383.016L86 383.5ZM70 399.727L69.5184 398.851L69.5167 398.852L70 399.727ZM24.8636 399.682L25.35 398.808L25.35 398.808L24.8636 399.682ZM8.90909 383.455L8.03247 383.936L8.03493 383.94L8.90909 383.455ZM8.90909 331.409L8.03405 330.925L8.03248 330.928L8.90909 331.409ZM24.8636 315.182L25.3469 316.057L25.3469 316.057L24.8636 315.182ZM70 315.182L69.5167 316.057L69.5184 316.058L70 315.182ZM86 331.409L85.125 331.893L85.125 331.893L86 331.409ZM66.3182 342.091L65.3916 342.467L65.3939 342.473L66.3182 342.091ZM58.9545 332.591L58.3944 333.419L58.398 333.422L58.9545 332.591ZM35.9545 332.591L36.5111 333.422L36.5111 333.422L35.9545 332.591ZM28.5455 342.091L27.6212 341.709L27.6188 341.715L28.5455 342.091ZM28.5455 372.818L27.6188 373.194L27.6212 373.2L28.5455 372.818ZM35.9545 382.318L36.5111 381.487L36.5111 381.487L35.9545 382.318ZM58.9545 382.318L58.398 381.487L58.3944 381.49L58.9545 382.318ZM66.3182 372.818L65.3939 372.436L65.3916 372.442L66.3182 372.818ZM90.9091 357.455C90.9091 367.571 88.9638 376.076 85.125 383.016L86.875 383.984C90.915 376.681 92.9091 367.823 92.9091 357.455H90.9091ZM85.125 383.016C81.2713 389.982 76.07 395.25 69.5184 398.851L70.4816 400.604C77.3846 396.81 82.85 391.26 86.875 383.984L85.125 383.016ZM69.5167 398.852C62.9807 402.46 55.6344 404.273 47.4545 404.273V406.273C55.9414 406.273 63.6253 404.389 70.4833 400.603L69.5167 398.852ZM47.4545 404.273C39.2452 404.273 31.8849 402.445 25.35 398.808L24.3773 400.556C31.2363 404.373 38.9366 406.273 47.4545 406.273V404.273ZM25.35 398.808C18.8256 395.177 13.6376 389.907 9.78325 382.969L8.03493 383.94C12.0594 391.184 17.5077 396.732 24.3773 400.556L25.35 398.808ZM9.7857 382.973C5.9758 376.033 4.04545 367.541 4.04545 357.455H2.04545C2.04545 367.792 4.0242 376.634 8.03248 383.936L9.7857 382.973ZM4.04545 357.455C4.04545 347.337 5.97602 338.83 9.7857 331.89L8.03248 330.928C4.02398 338.23 2.04545 347.087 2.04545 357.455H4.04545ZM9.78412 331.893C13.6385 324.926 18.8254 319.657 25.3469 316.057L24.3804 314.306C17.5079 318.1 12.0585 323.65 8.03406 330.925L9.78412 331.893ZM25.3469 316.057C31.8824 312.449 39.2438 310.636 47.4545 310.636V308.636C38.9381 308.636 31.2388 310.52 24.3804 314.306L25.3469 316.057ZM47.4545 310.636C55.6344 310.636 62.9807 312.449 69.5167 316.057L70.4833 314.306C63.6253 310.521 55.9414 308.636 47.4545 308.636V310.636ZM69.5184 316.058C76.07 319.659 81.2713 324.927 85.125 331.893L86.875 330.925C82.85 323.649 77.3846 318.099 70.4816 314.305L69.5184 316.058ZM85.125 331.893C88.9638 338.833 90.9091 347.338 90.9091 357.455H92.9091C92.9091 347.086 90.915 338.228 86.875 330.925L85.125 331.893ZM69.9091 357.455C69.9091 351.305 69.0336 346.046 67.2424 341.709L65.3939 342.473C67.0573 346.5 67.9091 351.483 67.9091 357.455H69.9091ZM67.2448 341.715C65.4856 337.38 62.9156 334.04 59.5111 331.76L58.398 333.422C61.4177 335.444 63.7569 338.439 65.3916 342.467L67.2448 341.715ZM59.5147 331.763C56.1412 329.481 52.1047 328.364 47.4545 328.364V330.364C51.774 330.364 55.4043 331.397 58.3944 333.419L59.5147 331.763ZM47.4545 328.364C42.8328 328.364 38.7988 329.482 35.398 331.76L36.5111 333.422C39.5345 331.397 43.1672 330.364 47.4545 330.364V328.364ZM35.398 331.76C31.9952 334.039 29.4108 337.376 27.6212 341.709L29.4697 342.473C31.1347 338.442 33.4897 335.445 36.5111 333.422L35.398 331.76ZM27.6188 341.715C25.8599 346.049 25 351.307 25 357.455H27C27 351.481 27.8371 346.496 29.4721 342.467L27.6188 341.715ZM25 357.455C25 363.602 25.8599 368.86 27.6188 373.194L29.4721 372.442C27.8371 368.413 27 363.428 27 357.455H25ZM27.6212 373.2C29.4108 377.533 31.9952 380.87 35.398 383.149L36.5111 381.487C33.4897 379.464 31.1347 376.467 29.4697 372.436L27.6212 373.2ZM35.398 383.149C38.7988 385.427 42.8328 386.545 47.4545 386.545V384.545C43.1672 384.545 39.5345 383.512 36.5111 381.487L35.398 383.149ZM47.4545 386.545C52.1047 386.545 56.1412 385.428 59.5147 383.147L58.3944 381.49C55.4043 383.512 51.774 384.545 47.4545 384.545V386.545ZM59.5111 383.149C62.9156 380.869 65.4856 377.529 67.2448 373.194L65.3916 372.442C63.7569 376.471 61.4177 379.465 58.398 381.487L59.5111 383.149ZM67.2424 373.2C69.0336 368.864 69.9091 363.604 69.9091 357.455H67.9091C67.9091 363.426 67.0573 368.409 65.3939 372.436L67.2424 373.2ZM105.045 404H104.045V405H105.045V404ZM105.045 310.909V309.909H104.045V310.909H105.045ZM161.545 314.682L161.1 315.577L161.107 315.58L161.545 314.682ZM173.318 325.409L172.457 325.918L172.459 325.92L173.318 325.409ZM173.227 358.364L174.074 358.896L174.076 358.893L173.227 358.364ZM161.227 368.636L161.638 369.548L161.642 369.546L161.227 368.636ZM118.5 372.136H117.5V373.136H118.5V372.136ZM118.5 354.409V353.409H117.5V354.409H118.5ZM147.136 353.091L147.497 354.024L147.504 354.021L147.136 353.091ZM152.364 349L153.202 349.545L153.206 349.539L152.364 349ZM152.364 334.773L151.513 335.299L151.517 335.305L152.364 334.773ZM147.136 330.5L146.748 331.422L146.759 331.426L147.136 330.5ZM127.545 329.045V328.045H126.545V329.045H127.545ZM127.545 404V405H128.545V404H127.545ZM157.455 361.455L158.333 360.976L158.048 360.455H157.455V361.455ZM180.636 404V405H182.32L181.514 403.522L180.636 404ZM156.091 404L155.209 404.471L155.491 405H156.091V404ZM133.364 361.455V360.455H131.696L132.482 361.926L133.364 361.455ZM106.045 404V310.909H104.045V404H106.045ZM105.045 311.909H143.5V309.909H105.045V311.909ZM143.5 311.909C150.351 311.909 156.207 313.145 161.1 315.577L161.991 313.786C156.763 311.188 150.589 309.909 143.5 309.909V311.909ZM161.107 315.58C166.03 317.984 169.804 321.427 172.457 325.918L174.179 324.9C171.317 320.057 167.243 316.35 161.984 313.783L161.107 315.58ZM172.459 325.92C175.109 330.376 176.455 335.693 176.455 341.909H178.455C178.455 335.398 177.043 329.715 174.178 324.898L172.459 325.92ZM176.455 341.909C176.455 348.216 175.079 353.509 172.379 357.834L174.076 358.893C177.012 354.188 178.455 348.511 178.455 341.909H176.455ZM172.381 357.832C169.674 362.138 165.83 365.438 160.812 367.727L161.642 369.546C166.988 367.108 171.144 363.558 174.074 358.896L172.381 357.832ZM160.817 367.725C155.792 369.987 149.802 371.136 142.818 371.136V373.136C150.017 373.136 156.299 371.952 161.638 369.548L160.817 367.725ZM142.818 371.136H118.5V373.136H142.818V371.136ZM119.5 372.136V354.409H117.5V372.136H119.5ZM118.5 355.409H138.636V353.409H118.5V355.409ZM138.636 355.409C142.109 355.409 145.074 354.961 147.497 354.024L146.776 352.158C144.654 352.979 141.952 353.409 138.636 353.409V355.409ZM147.504 354.021C149.971 353.047 151.891 351.561 153.202 349.545L151.525 348.455C150.472 350.075 148.907 351.317 146.769 352.161L147.504 354.021ZM153.206 349.539C154.518 347.486 155.136 344.92 155.136 341.909H153.136C153.136 344.655 152.573 346.817 151.521 348.461L153.206 349.539ZM155.136 341.909C155.136 338.897 154.518 336.319 153.21 334.24L151.517 335.305C152.573 336.984 153.136 339.164 153.136 341.909H155.136ZM153.214 334.246C151.909 332.138 149.991 330.584 147.514 329.574L146.759 331.426C148.888 332.294 150.455 333.589 151.513 335.299L153.214 334.246ZM147.524 329.578C145.064 328.542 142.09 328.045 138.636 328.045V330.045C141.91 330.045 144.603 330.518 146.748 331.422L147.524 329.578ZM138.636 328.045H127.545V330.045H138.636V328.045ZM126.545 329.045V404H128.545V329.045H126.545ZM127.545 403H105.045V405H127.545V403ZM156.576 361.933L179.758 404.478L181.514 403.522L158.333 360.976L156.576 361.933ZM180.636 403H156.091V405H180.636V403ZM156.973 403.529L134.246 360.983L132.482 361.926L155.209 404.471L156.973 403.529ZM133.364 362.455H157.455V360.455H133.364V362.455ZM189.795 404H188.795V405H189.795V404ZM189.795 310.909V309.909H188.795V310.909H189.795ZM248.659 316.5L248.181 317.378L248.186 317.381L248.659 316.5ZM264.568 332.5L263.686 332.972L263.687 332.973L264.568 332.5ZM264.568 382.409L263.686 381.938L263.685 381.94L264.568 382.409ZM248.705 398.455L249.178 399.335L249.181 399.334L248.705 398.455ZM212.295 384.818H211.295V385.818H212.295V384.818ZM236.568 382.182L237.006 383.081L237.009 383.079L236.568 382.182ZM244.795 373.5L243.889 373.077L243.888 373.081L244.795 373.5ZM244.795 341.409L243.89 341.834L243.892 341.837L244.795 341.409ZM236.477 332.773L236.036 333.67L236.045 333.674L236.477 332.773ZM212.295 330.091V329.091H211.295V330.091H212.295ZM224.205 403H189.795V405H224.205V403ZM190.795 404V310.909H188.795V404H190.795ZM189.795 311.909H224.159V309.909H189.795V311.909ZM224.159 311.909C233.513 311.909 241.508 313.746 248.181 317.378L249.137 315.622C242.113 311.799 233.775 309.909 224.159 309.909V311.909ZM248.186 317.381C254.889 320.983 260.051 326.173 263.686 332.972L265.45 332.028C261.631 324.887 256.187 319.411 249.133 315.619L248.186 317.381ZM263.687 332.973C267.321 339.738 269.159 347.87 269.159 357.409H271.159C271.159 347.614 269.27 339.141 265.449 332.027L263.687 332.973ZM269.159 357.409C269.159 366.978 267.32 375.142 263.686 381.938L265.45 382.881C269.271 375.737 271.159 367.234 271.159 357.409H269.159ZM263.685 381.94C260.079 388.738 254.932 393.943 248.228 397.575L249.181 399.334C256.234 395.512 261.663 390.02 265.452 382.878L263.685 381.94ZM248.231 397.574C241.526 401.178 233.528 403 224.205 403V405C233.79 405 242.126 403.125 249.178 399.335L248.231 397.574ZM212.295 385.818H223.341V383.818H212.295V385.818ZM223.341 385.818C228.661 385.818 233.229 384.922 237.006 383.081L236.13 381.283C232.695 382.957 228.445 383.818 223.341 383.818V385.818ZM237.009 383.079C240.87 381.181 243.768 378.108 245.703 373.919L243.888 373.081C242.126 376.892 239.539 379.607 236.127 381.284L237.009 383.079ZM245.702 373.923C247.665 369.71 248.614 364.185 248.614 357.409H246.614C246.614 364.027 245.683 369.229 243.889 373.077L245.702 373.923ZM248.614 357.409C248.614 350.635 247.666 345.136 245.699 340.981L243.892 341.837C245.683 345.621 246.614 350.79 246.614 357.409H248.614ZM245.701 340.984C243.733 336.795 240.803 333.737 236.91 331.871L236.045 333.674C239.485 335.324 242.1 338.023 243.89 341.834L245.701 340.984ZM236.918 331.875C233.109 330.002 228.463 329.091 223.023 329.091V331.091C228.249 331.091 232.573 331.968 236.036 333.67L236.918 331.875ZM223.023 329.091H212.295V331.091H223.023V329.091ZM211.295 330.091V384.818H213.295V330.091H211.295ZM305.795 310.909H306.795V309.909H305.795V310.909ZM305.795 404V405H306.795V404H305.795ZM283.295 404H282.295V405H283.295V404ZM283.295 310.909V309.909H282.295V310.909H283.295ZM304.795 310.909V404H306.795V310.909H304.795ZM305.795 403H283.295V405H305.795V403ZM284.295 404V310.909H282.295V404H284.295ZM283.295 311.909H305.795V309.909H283.295V311.909ZM399.148 310.909H400.148V309.909H399.148V310.909ZM399.148 404V405H400.148V404H399.148ZM380.057 404L379.234 404.568L379.532 405H380.057V404ZM343.011 350.273L343.835 349.705L343.537 349.273H343.011V350.273ZM342.42 350.273V349.273H341.42V350.273H342.42ZM342.42 404V405H343.42V404H342.42ZM319.92 404H318.92V405H319.92V404ZM319.92 310.909V309.909H318.92V310.909H319.92ZM339.284 310.909L340.11 310.345L339.812 309.909H339.284V310.909ZM375.92 364.545L375.095 365.109L375.392 365.545H375.92V364.545ZM376.693 364.545V365.545H377.693V364.545H376.693ZM376.693 310.909V309.909H375.693V310.909H376.693ZM398.148 310.909V404H400.148V310.909H398.148ZM399.148 403H380.057V405H399.148V403ZM380.88 403.432L343.835 349.705L342.188 350.84L379.234 404.568L380.88 403.432ZM343.011 349.273H342.42V351.273H343.011V349.273ZM341.42 350.273V404H343.42V350.273H341.42ZM342.42 403H319.92V405H342.42V403ZM320.92 404V310.909H318.92V404H320.92ZM319.92 311.909H339.284V309.909H319.92V311.909ZM338.458 311.473L375.095 365.109L376.746 363.981L340.11 310.345L338.458 311.473ZM375.92 365.545H376.693V363.545H375.92V365.545ZM377.693 364.545V310.909H375.693V364.545H377.693ZM376.693 311.909H399.148V309.909H376.693V311.909ZM433.432 404V405H434.166L434.386 404.299L433.432 404ZM409.25 404L408.302 403.68L407.857 405H409.25V404ZM440.659 310.909V309.909H439.941L439.712 310.589L440.659 310.909ZM470.614 310.909L471.561 310.589L471.332 309.909H470.614V310.909ZM502.023 404V405H503.416L502.97 403.68L502.023 404ZM477.841 404L476.887 404.3L477.107 405H477.841V404ZM455.977 334.364L456.931 334.064L456.711 333.364H455.977V334.364ZM455.25 334.364V333.364H454.515L454.296 334.065L455.25 334.364ZM430.205 367.364V366.364H429.205V367.364H430.205ZM480.75 367.364H481.75V366.364H480.75V367.364ZM480.75 384.455V385.455H481.75V384.455H480.75ZM430.205 384.455H429.205V385.455H430.205V384.455ZM433.432 403H409.25V405H433.432V403ZM410.198 404.32L441.607 311.229L439.712 310.589L408.302 403.68L410.198 404.32ZM440.659 311.909H470.614V309.909H440.659V311.909ZM469.666 311.229L501.075 404.32L502.97 403.68L471.561 310.589L469.666 311.229ZM502.023 403H477.841V405H502.023V403ZM478.795 403.7L456.931 334.064L455.023 334.663L476.887 404.3L478.795 403.7ZM455.977 333.364H455.25V335.364H455.977V333.364ZM454.296 334.065L432.478 403.701L434.386 404.299L456.204 334.663L454.296 334.065ZM430.205 368.364H480.75V366.364H430.205V368.364ZM479.75 367.364V384.455H481.75V367.364H479.75ZM480.75 383.455H430.205V385.455H480.75V383.455ZM431.205 384.455V367.364H429.205V384.455H431.205ZM497.375 329.182H496.375V330.182H497.375V329.182ZM497.375 310.909V309.909H496.375V310.909H497.375ZM576.057 310.909H577.057V309.909H576.057V310.909ZM576.057 329.182V330.182H577.057V329.182H576.057ZM547.83 329.182V328.182H546.83V329.182H547.83ZM547.83 404V405H548.83V404H547.83ZM525.648 404H524.648V405H525.648V404ZM525.648 329.182H526.648V328.182H525.648V329.182ZM498.375 329.182V310.909H496.375V329.182H498.375ZM497.375 311.909H576.057V309.909H497.375V311.909ZM575.057 310.909V329.182H577.057V310.909H575.057ZM576.057 328.182H547.83V330.182H576.057V328.182ZM546.83 329.182V404H548.83V329.182H546.83ZM547.83 403H525.648V405H547.83V403ZM526.648 404V329.182H524.648V404H526.648ZM525.648 328.182H497.375V330.182H525.648V328.182ZM664.75 383.5L663.875 383.016L663.875 383.016L664.75 383.5ZM648.75 399.727L648.268 398.851L648.267 398.852L648.75 399.727ZM603.614 399.682L604.1 398.808L604.1 398.808L603.614 399.682ZM587.659 383.455L586.782 383.936L586.785 383.94L587.659 383.455ZM587.659 331.409L586.784 330.925L586.782 330.928L587.659 331.409ZM603.614 315.182L604.097 316.057L604.097 316.057L603.614 315.182ZM648.75 315.182L648.267 316.057L648.268 316.058L648.75 315.182ZM664.75 331.409L663.875 331.893L663.875 331.893L664.75 331.409ZM645.068 342.091L644.142 342.467L644.144 342.473L645.068 342.091ZM637.705 332.591L637.144 333.419L637.148 333.422L637.705 332.591ZM614.705 332.591L615.261 333.422L615.261 333.422L614.705 332.591ZM607.295 342.091L606.371 341.709L606.369 341.715L607.295 342.091ZM607.295 372.818L606.369 373.194L606.371 373.2L607.295 372.818ZM614.705 382.318L615.261 381.487L615.261 381.487L614.705 382.318ZM637.705 382.318L637.148 381.487L637.144 381.49L637.705 382.318ZM645.068 372.818L644.144 372.436L644.142 372.442L645.068 372.818ZM669.659 357.455C669.659 367.571 667.714 376.076 663.875 383.016L665.625 383.984C669.665 376.681 671.659 367.823 671.659 357.455H669.659ZM663.875 383.016C660.021 389.982 654.82 395.25 648.268 398.851L649.232 400.604C656.135 396.81 661.6 391.26 665.625 383.984L663.875 383.016ZM648.267 398.852C641.731 402.46 634.384 404.273 626.205 404.273V406.273C634.691 406.273 642.375 404.389 649.233 400.603L648.267 398.852ZM626.205 404.273C617.995 404.273 610.635 402.445 604.1 398.808L603.127 400.556C609.986 404.373 617.687 406.273 626.205 406.273V404.273ZM604.1 398.808C597.576 395.177 592.388 389.907 588.533 382.969L586.785 383.94C590.809 391.184 596.258 396.732 603.127 400.556L604.1 398.808ZM588.536 382.973C584.726 376.033 582.795 367.541 582.795 357.455H580.795C580.795 367.792 582.774 376.634 586.782 383.936L588.536 382.973ZM582.795 357.455C582.795 347.337 584.726 338.83 588.536 331.89L586.782 330.928C582.774 338.23 580.795 347.087 580.795 357.455H582.795ZM588.534 331.893C592.388 324.926 597.575 319.657 604.097 316.057L603.13 314.306C596.258 318.1 590.809 323.65 586.784 330.925L588.534 331.893ZM604.097 316.057C610.632 312.449 617.994 310.636 626.205 310.636V308.636C617.688 308.636 609.989 310.52 603.13 314.306L604.097 316.057ZM626.205 310.636C634.384 310.636 641.731 312.449 648.267 316.057L649.233 314.306C642.375 310.521 634.691 308.636 626.205 308.636V310.636ZM648.268 316.058C654.82 319.659 660.021 324.927 663.875 331.893L665.625 330.925C661.6 323.649 656.135 318.099 649.232 314.305L648.268 316.058ZM663.875 331.893C667.714 338.833 669.659 347.338 669.659 357.455H671.659C671.659 347.086 669.665 338.228 665.625 330.925L663.875 331.893ZM648.659 357.455C648.659 351.305 647.784 346.046 645.992 341.709L644.144 342.473C645.807 346.5 646.659 351.483 646.659 357.455H648.659ZM645.995 341.715C644.236 337.38 641.666 334.04 638.261 331.76L637.148 333.422C640.168 335.444 642.507 338.439 644.142 342.467L645.995 341.715ZM638.265 331.763C634.891 329.481 630.855 328.364 626.205 328.364V330.364C630.524 330.364 634.154 331.397 637.144 333.419L638.265 331.763ZM626.205 328.364C621.583 328.364 617.549 329.482 614.148 331.76L615.261 333.422C618.285 331.397 621.917 330.364 626.205 330.364V328.364ZM614.148 331.76C610.745 334.039 608.161 337.376 606.371 341.709L608.22 342.473C609.885 338.442 612.24 335.445 615.261 333.422L614.148 331.76ZM606.369 341.715C604.61 346.049 603.75 351.307 603.75 357.455H605.75C605.75 351.481 606.587 346.496 608.222 342.467L606.369 341.715ZM603.75 357.455C603.75 363.602 604.61 368.86 606.369 373.194L608.222 372.442C606.587 368.413 605.75 363.428 605.75 357.455H603.75ZM606.371 373.2C608.161 377.533 610.745 380.87 614.148 383.149L615.261 381.487C612.24 379.464 609.885 376.467 608.22 372.436L606.371 373.2ZM614.148 383.149C617.549 385.427 621.583 386.545 626.205 386.545V384.545C621.917 384.545 618.285 383.512 615.261 381.487L614.148 383.149ZM626.205 386.545C630.855 386.545 634.891 385.428 638.265 383.147L637.144 381.49C634.154 383.512 630.524 384.545 626.205 384.545V386.545ZM638.261 383.149C641.666 380.869 644.236 377.529 645.995 373.194L644.142 372.442C642.507 376.471 640.168 379.465 637.148 381.487L638.261 383.149ZM645.992 373.2C647.784 368.864 648.659 363.604 648.659 357.455H646.659C646.659 363.426 645.807 368.409 644.144 372.436L645.992 373.2ZM683.795 404H682.795V405H683.795V404ZM683.795 310.909V309.909H682.795V310.909H683.795ZM740.295 314.682L739.85 315.577L739.857 315.58L740.295 314.682ZM752.068 325.409L751.207 325.918L751.209 325.92L752.068 325.409ZM751.977 358.364L752.824 358.896L752.826 358.893L751.977 358.364ZM739.977 368.636L740.388 369.548L740.392 369.546L739.977 368.636ZM697.25 372.136H696.25V373.136H697.25V372.136ZM697.25 354.409V353.409H696.25V354.409H697.25ZM725.886 353.091L726.247 354.024L726.254 354.021L725.886 353.091ZM731.114 349L731.952 349.545L731.956 349.539L731.114 349ZM731.114 334.773L730.263 335.299L730.267 335.305L731.114 334.773ZM725.886 330.5L725.498 331.422L725.509 331.426L725.886 330.5ZM706.295 329.045V328.045H705.295V329.045H706.295ZM706.295 404V405H707.295V404H706.295ZM736.205 361.455L737.083 360.976L736.798 360.455H736.205V361.455ZM759.386 404V405H761.07L760.264 403.522L759.386 404ZM734.841 404L733.959 404.471L734.241 405H734.841V404ZM712.114 361.455V360.455H710.446L711.232 361.926L712.114 361.455ZM684.795 404V310.909H682.795V404H684.795ZM683.795 311.909H722.25V309.909H683.795V311.909ZM722.25 311.909C729.101 311.909 734.957 313.145 739.85 315.577L740.741 313.786C735.513 311.188 729.339 309.909 722.25 309.909V311.909ZM739.857 315.58C744.78 317.984 748.554 321.427 751.207 325.918L752.929 324.9C750.067 320.057 745.993 316.35 740.734 313.783L739.857 315.58ZM751.209 325.92C753.859 330.376 755.205 335.693 755.205 341.909H757.205C757.205 335.398 755.793 329.715 752.928 324.898L751.209 325.92ZM755.205 341.909C755.205 348.216 753.829 353.509 751.129 357.834L752.826 358.893C755.762 354.188 757.205 348.511 757.205 341.909H755.205ZM751.131 357.832C748.424 362.138 744.58 365.438 739.562 367.727L740.392 369.546C745.738 367.108 749.894 363.558 752.824 358.896L751.131 357.832ZM739.567 367.725C734.542 369.987 728.552 371.136 721.568 371.136V373.136C728.767 373.136 735.049 371.952 740.388 369.548L739.567 367.725ZM721.568 371.136H697.25V373.136H721.568V371.136ZM698.25 372.136V354.409H696.25V372.136H698.25ZM697.25 355.409H717.386V353.409H697.25V355.409ZM717.386 355.409C720.859 355.409 723.824 354.961 726.247 354.024L725.526 352.158C723.404 352.979 720.702 353.409 717.386 353.409V355.409ZM726.254 354.021C728.721 353.047 730.641 351.561 731.952 349.545L730.275 348.455C729.222 350.075 727.657 351.317 725.519 352.161L726.254 354.021ZM731.956 349.539C733.268 347.486 733.886 344.92 733.886 341.909H731.886C731.886 344.655 731.323 346.817 730.271 348.461L731.956 349.539ZM733.886 341.909C733.886 338.897 733.268 336.319 731.96 334.24L730.267 335.305C731.323 336.984 731.886 339.164 731.886 341.909H733.886ZM731.964 334.246C730.659 332.138 728.741 330.584 726.264 329.574L725.509 331.426C727.638 332.294 729.205 333.589 730.263 335.299L731.964 334.246ZM726.274 329.578C723.814 328.542 720.84 328.045 717.386 328.045V330.045C720.66 330.045 723.353 330.518 725.498 331.422L726.274 329.578ZM717.386 328.045H706.295V330.045H717.386V328.045ZM705.295 329.045V404H707.295V329.045H705.295ZM706.295 403H683.795V405H706.295V403ZM735.326 361.933L758.508 404.478L760.264 403.522L737.083 360.976L735.326 361.933ZM759.386 403H734.841V405H759.386V403ZM735.723 403.529L712.996 360.983L711.232 361.926L733.959 404.471L735.723 403.529ZM712.114 362.455H736.205V360.455H712.114V362.455ZM818.864 338.818L817.868 338.909L817.95 339.818H818.864V338.818ZM814.818 331.045L814.196 331.828L814.207 331.837L814.818 331.045ZM797.409 329.364L797.045 328.432L797.045 328.432L797.409 329.364ZM793.045 332.5L793.848 333.097L793.854 333.088L793.045 332.5ZM791.545 337L792.545 337.043L792.545 337.031L792.545 337.018L791.545 337ZM792.364 340.682L791.495 341.178L791.501 341.187L791.506 341.196L792.364 340.682ZM795.091 343.5L794.522 344.322L794.534 344.33L794.546 344.338L795.091 343.5ZM799.455 345.591L799.791 344.649L799.791 344.649L799.455 345.591ZM805.182 347.182L805.403 346.207L805.391 346.204L805.182 347.182ZM813.182 349L812.96 349.975L812.97 349.977L813.182 349ZM825.364 353L824.935 353.904L824.938 353.905L825.364 353ZM834.273 358.955L833.579 359.675L833.584 359.68L834.273 358.955ZM839.773 366.909L838.849 367.292L838.849 367.292L839.773 366.909ZM841.682 377L842.682 377.005L842.682 376.992L841.682 377ZM837.227 392.136L836.407 391.564L836.407 391.564L837.227 392.136ZM824.545 401.818L824.169 400.892L824.167 400.893L824.545 401.818ZM784.318 401.682L784.692 400.754L784.692 400.754L784.318 401.682ZM765.864 373V372H764.851L764.864 373.012L765.864 373ZM787.409 373L788.407 372.94L788.35 372H787.409V373ZM789.818 380.5L789.004 381.08L789.004 381.08L789.818 380.5ZM795.682 385.045L795.299 385.969L795.303 385.971L795.682 385.045ZM812.136 385.364L811.781 384.429L811.776 384.431L812.136 385.364ZM817.091 381.955L816.307 381.334L816.307 381.334L817.091 381.955ZM818.864 376.955L819.864 376.971L819.864 376.954L819.863 376.937L818.864 376.955ZM817.227 372.455L816.459 373.095L816.467 373.104L817.227 372.455ZM812.318 369.182L811.923 370.1L811.93 370.104L811.938 370.107L812.318 369.182ZM803.955 366.591L803.727 367.565L803.728 367.565L803.955 366.591ZM794.227 364.318L794.455 363.344L794.451 363.343L794.227 364.318ZM775.182 355.364L774.515 356.109L774.517 356.111L775.182 355.364ZM768.273 338.545L769.273 338.55L769.273 338.54L768.273 338.545ZM772.909 323.409L772.098 322.825L772.098 322.825L772.909 323.409ZM785.864 313.273L786.266 314.188L786.266 314.188L785.864 313.273ZM823.5 313.318L823.08 314.226L823.086 314.229L823.5 313.318ZM835.909 323.545L836.74 322.989L836.74 322.989L835.909 323.545ZM840.409 338.818V339.818H841.42L841.409 338.808L840.409 338.818ZM819.86 338.728C819.534 335.15 818.068 332.292 815.429 330.254L814.207 331.837C816.356 333.496 817.587 335.82 817.868 338.909L819.86 338.728ZM815.44 330.263C812.835 328.192 809.202 327.227 804.682 327.227V329.227C808.949 329.227 812.074 330.142 814.196 331.828L815.44 330.263ZM804.682 327.227C801.694 327.227 799.137 327.615 797.045 328.432L797.773 330.295C799.56 329.597 801.851 329.227 804.682 329.227V327.227ZM797.045 328.432C794.974 329.241 793.345 330.388 792.237 331.912L793.854 333.088C794.685 331.945 795.965 331.001 797.773 330.295L797.045 328.432ZM792.243 331.903C791.143 333.382 790.579 335.086 790.546 336.982L792.545 337.018C792.572 335.52 793.009 334.225 793.848 333.097L792.243 331.903ZM790.546 336.957C790.479 338.512 790.783 339.931 791.495 341.178L793.232 340.186C792.732 339.311 792.491 338.276 792.545 337.043L790.546 336.957ZM791.506 341.196C792.227 342.397 793.242 343.436 794.522 344.322L795.66 342.678C794.576 341.928 793.773 341.088 793.221 340.167L791.506 341.196ZM794.546 344.338C795.837 345.178 797.365 345.907 799.118 346.533L799.791 344.649C798.15 344.063 796.769 343.398 795.636 342.662L794.546 344.338ZM799.118 346.533C800.864 347.156 802.816 347.698 804.972 348.16L805.391 346.204C803.305 345.757 801.439 345.238 799.791 344.649L799.118 346.533ZM804.96 348.157L812.96 349.975L813.403 348.025L805.403 346.207L804.96 348.157ZM812.97 349.977C817.516 350.964 821.502 352.276 824.935 353.904L825.792 352.096C822.195 350.391 818.06 349.036 813.394 348.023L812.97 349.977ZM824.938 353.905C828.402 355.533 831.277 357.46 833.579 359.675L834.966 358.234C832.481 355.843 829.416 353.8 825.789 352.095L824.938 353.905ZM833.584 359.68C835.91 361.889 837.662 364.425 838.849 367.292L840.697 366.526C839.399 363.393 837.484 360.626 834.961 358.23L833.584 359.68ZM838.849 367.292C840.035 370.157 840.652 373.391 840.682 377.008L842.682 376.992C842.651 373.155 841.995 369.661 840.697 366.526L838.849 367.292ZM840.682 376.995C840.652 382.701 839.214 387.542 836.407 391.564L838.047 392.709C841.119 388.307 842.651 383.057 842.682 377.005L840.682 376.995ZM836.407 391.564C833.595 395.594 829.534 398.71 824.169 400.892L824.922 402.745C830.587 400.441 834.981 397.103 838.047 392.709L836.407 391.564ZM824.167 400.893C818.833 403.073 812.348 404.182 804.682 404.182V406.182C812.531 406.182 819.288 405.048 824.924 402.744L824.167 400.893ZM804.682 404.182C796.991 404.182 790.336 403.03 784.692 400.754L783.944 402.609C789.876 405.001 796.796 406.182 804.682 406.182V404.182ZM784.692 400.754C779.072 398.489 774.738 395.064 771.647 390.486L769.989 391.605C773.323 396.542 777.988 400.208 783.944 402.609L784.692 400.754ZM771.647 390.486C768.57 385.928 766.953 380.117 766.864 372.988L764.864 373.012C764.956 380.428 766.642 386.647 769.989 391.605L771.647 390.486ZM765.864 374H787.409V372H765.864V374ZM786.411 373.06C786.602 376.205 787.449 378.897 789.004 381.08L790.633 379.92C789.339 378.103 788.58 375.795 788.407 372.94L786.411 373.06ZM789.004 381.08C790.547 383.247 792.658 384.874 795.299 385.969L796.065 384.122C793.736 383.156 791.938 381.753 790.633 379.92L789.004 381.08ZM795.303 385.971C797.961 387.06 801.003 387.591 804.409 387.591V385.591C801.209 385.591 798.433 385.092 796.061 384.12L795.303 385.971ZM804.409 387.591C807.524 387.591 810.229 387.171 812.496 386.297L811.776 384.431C809.801 385.192 807.355 385.591 804.409 385.591V387.591ZM812.492 386.298C814.772 385.431 816.587 384.202 817.875 382.575L816.307 381.334C815.291 382.617 813.804 383.66 811.781 384.429L812.492 386.298ZM817.875 382.575C819.165 380.946 819.83 379.066 819.864 376.971L817.864 376.938C817.837 378.6 817.32 380.054 816.307 381.334L817.875 382.575ZM819.863 376.937C819.83 374.967 819.211 373.238 817.988 371.805L816.467 373.104C817.365 374.156 817.837 375.427 817.864 376.972L819.863 376.937ZM817.995 371.814C816.795 370.373 814.999 369.202 812.698 368.257L811.938 370.107C814.062 370.98 815.539 371.99 816.459 373.095L817.995 371.814ZM812.714 368.263C810.458 367.292 807.608 366.413 804.181 365.617L803.728 367.565C807.089 368.345 809.814 369.193 811.923 370.1L812.714 368.263ZM804.182 365.617L794.455 363.344L794 365.292L803.727 367.565L804.182 365.617ZM794.451 363.343C786.501 361.52 780.322 358.595 775.846 354.616L774.517 356.111C779.314 360.375 785.832 363.419 794.004 365.293L794.451 363.343ZM775.849 354.619C771.455 350.685 769.243 345.367 769.273 338.55L767.273 338.541C767.241 345.845 769.636 351.74 774.515 356.109L775.849 354.619ZM769.273 338.54C769.243 332.977 770.733 328.142 773.721 323.994L772.098 322.825C768.843 327.343 767.241 332.599 767.273 338.551L769.273 338.54ZM773.721 323.994C776.725 319.823 780.893 316.55 786.266 314.188L785.461 312.357C779.804 314.844 775.336 318.329 772.098 322.825L773.721 323.994ZM786.266 314.188C791.634 311.828 797.782 310.636 804.727 310.636V308.636C797.552 308.636 791.123 309.869 785.461 312.357L786.266 314.188ZM804.727 310.636C811.827 310.636 817.936 311.845 823.08 314.226L823.92 312.411C818.458 309.883 812.051 308.636 804.727 308.636V310.636ZM823.086 314.229C828.269 316.584 832.253 319.879 835.078 324.101L836.74 322.989C833.686 318.424 829.398 314.9 823.914 312.408L823.086 314.229ZM835.078 324.101C837.899 328.319 839.35 333.216 839.409 338.829L841.409 338.808C841.347 332.845 839.798 327.56 836.74 322.989L835.078 324.101ZM840.409 337.818H818.864V339.818H840.409V337.818Z" fill="black"/>
</svg>
