<svg width="963" height="252" viewBox="0 0 963 252" fill="none" xmlns="http://www.w3.org/2000/svg">
<path d="M85.5455 35.6364V36.6364H86.6481L86.5407 35.539L85.5455 35.6364ZM62.8182 35.6364L61.8265 35.7651L61.9397 36.6364H62.8182V35.6364ZM60.9545 29.3182L60.0601 29.7654L60.0601 29.7654L60.9545 29.3182ZM57.2273 24.5L57.8805 23.7428L57.8805 23.7428L57.2273 24.5ZM51.7273 21.4545L51.3988 22.399L51.4069 22.4019L51.4151 22.4046L51.7273 21.4545ZM33.0909 23.6818L32.5309 22.8533L32.5273 22.8558L33.0909 23.6818ZM25.5909 33.2727L24.669 32.8853L24.6666 32.891L25.5909 33.2727ZM25.6364 64L24.7144 64.3875L24.7179 64.3955L25.6364 64ZM33.1364 73.4091L32.5853 74.2436L32.5944 74.2495L33.1364 73.4091ZM51.4091 75.5909L51.114 74.6354L51.11 74.6367L51.4091 75.5909ZM56.8182 72.8182L57.4353 73.605L57.4373 73.6035L56.8182 72.8182ZM60.6818 68.3182L59.8154 67.8189L59.8127 67.8237L60.6818 68.3182ZM62.8182 62.2727L62.8242 61.2727L61.9794 61.2677L61.8333 62.0997L62.8182 62.2727ZM85.5455 62.4091L86.5409 62.5042L86.645 61.4157L85.5515 61.4091L85.5455 62.4091ZM81.9546 74.5909L81.0601 74.1437L81.0574 74.1491L81.9546 74.5909ZM73.8182 85.5455L74.5059 86.2714L74.5093 86.2682L73.8182 85.5455ZM61.1818 93.3636L60.8183 92.4321L60.8163 92.4328L61.1818 93.3636ZM21.5455 90.7273L21.0558 91.5992L21.0605 91.6018L21.5455 90.7273ZM5.81818 74.4545L6.69793 73.9791L5.81818 74.4545ZM5.90909 22.4091L5.03248 21.9279L5.03248 21.9279L5.90909 22.4091ZM59.8182 3L59.5056 3.94989L59.511 3.95165L59.8182 3ZM72.4545 9.81818L71.8182 10.5896L71.822 10.5927L72.4545 9.81818ZM85.5455 34.6364H62.8182V36.6364H85.5455V34.6364ZM63.8099 35.5076C63.4941 33.0766 62.844 30.861 61.849 28.871L60.0601 29.7654C60.9439 31.533 61.5362 33.5295 61.8265 35.7651L63.8099 35.5076ZM61.849 28.871C60.8522 26.8775 59.529 25.1651 57.8805 23.7428L56.574 25.2572C58.0165 26.5016 59.1781 28.0013 60.0601 29.7654L61.849 28.871ZM57.8805 23.7428C56.2262 22.3156 54.2741 21.2388 52.0394 20.5045L51.4151 22.4046C53.4229 23.0643 55.1375 24.0178 56.574 25.2572L57.8805 23.7428ZM52.0558 20.51C49.8447 19.741 47.4135 19.3636 44.7727 19.3636V21.3636C47.2228 21.3636 49.428 21.7136 51.3988 22.399L52.0558 20.51ZM44.7727 19.3636C40.0874 19.3636 35.9918 20.514 32.5309 22.8533L33.6509 24.5103C36.7355 22.4254 40.4277 21.3636 44.7727 21.3636V19.3636ZM32.5273 22.8558C29.1021 25.1926 26.4894 28.5541 24.669 32.8853L26.5128 33.6602C28.2076 29.6277 30.5949 26.5953 33.6545 24.5079L32.5273 22.8558ZM24.6666 32.891C22.8764 37.2253 22 42.4231 22 48.4545H24C24 42.6072 24.8509 37.6838 26.5152 33.6545L24.6666 32.891ZM22 48.4545C22 54.7241 22.8903 60.0472 24.7145 64.3875L26.5583 63.6125C24.8673 59.5892 24 54.5486 24 48.4545H22ZM24.7179 64.3955C26.5692 68.6942 29.1839 71.9973 32.5853 74.2436L33.6874 72.5746C30.6646 70.5784 28.2793 67.6088 26.5548 63.6045L24.7179 64.3955ZM32.5944 74.2495C36.0211 76.4592 40.0488 77.5455 44.6364 77.5455V75.5455C40.3754 75.5455 36.7365 74.5408 33.6783 72.5687L32.5944 74.2495ZM44.6364 77.5455C47.2061 77.5455 49.5664 77.2164 51.7082 76.5451L51.11 74.6367C49.1912 75.2381 47.0364 75.5455 44.6364 75.5455V77.5455ZM51.7042 76.5464C53.8701 75.8775 55.7847 74.8996 57.4353 73.605L56.201 72.0313C54.7607 73.161 53.0693 74.0316 51.114 74.6354L51.7042 76.5464ZM57.4373 73.6035C59.1152 72.2805 60.4877 70.6815 61.551 68.8127L59.8127 67.8237C58.876 69.47 57.6727 70.871 56.199 72.0329L57.4373 73.6035ZM61.5483 68.8175C62.6425 66.9187 63.3911 64.7912 63.8031 62.4458L61.8333 62.0997C61.4574 64.2391 60.7818 66.1419 59.8154 67.8189L61.5483 68.8175ZM62.8122 63.2727L85.5395 63.4091L85.5515 61.4091L62.8242 61.2727L62.8122 63.2727ZM84.55 62.3139C84.1687 66.3031 83.0095 70.2449 81.0601 74.1437L82.849 75.0381C84.8996 70.9369 86.1344 66.7575 86.5409 62.5042L84.55 62.3139ZM81.0574 74.1491C79.143 78.0368 76.5032 81.5947 73.1271 84.8227L74.5093 86.2682C78.0423 82.8902 80.8267 79.145 82.8517 75.0327L81.0574 74.1491ZM73.1304 84.8195C69.7804 87.9933 65.6822 90.534 60.8183 92.4321L61.5454 94.2952C66.6209 92.3145 70.9469 89.6431 74.5059 86.2714L73.1304 84.8195ZM60.8163 92.4328C56.0146 94.3182 50.4757 95.2727 44.1818 95.2727V97.2727C50.6759 97.2727 56.4703 96.2879 61.5473 94.2945L60.8163 92.4328ZM44.1818 95.2727C35.909 95.2727 28.5335 93.459 22.0304 89.8527L21.0605 91.6018C27.8907 95.3895 35.6061 97.2727 44.1818 97.2727V95.2727ZM22.0352 89.8554C15.5743 86.2267 10.4625 80.945 6.69793 73.9791L4.93843 74.93C8.87086 82.2065 14.2439 87.7733 21.0558 91.5992L22.0352 89.8554ZM6.69793 73.9791C2.94639 67.0373 1.04545 58.5432 1.04545 48.4545H-0.954545C-0.954545 58.7901 0.993007 67.6294 4.93843 74.93L6.69793 73.9791ZM1.04545 48.4545C1.04545 38.3373 2.97602 29.8304 6.7857 22.8903L5.03248 21.9279C1.02398 29.2302 -0.954545 38.0869 -0.954545 48.4545H1.04545ZM6.7857 22.8903C10.6102 15.9232 15.767 10.6557 22.2577 7.05635L21.2878 5.30728C14.4451 9.10186 9.02616 14.6526 5.03248 21.9279L6.7857 22.8903ZM22.2577 7.05635C28.7635 3.44859 36.0639 1.63636 44.1818 1.63636V-0.36364C35.7543 -0.36364 28.1153 1.52111 21.2878 5.30728L22.2577 7.05635ZM44.1818 1.63636C49.7244 1.63636 54.8297 2.41099 59.5056 3.94988L60.1308 2.05012C55.2309 0.437488 49.912 -0.36364 44.1818 -0.36364V1.63636ZM59.511 3.95165C64.1869 5.46096 68.2856 7.67516 71.8182 10.5895L73.0909 9.0468C69.3508 5.96119 65.0252 3.62994 60.1254 2.04835L59.511 3.95165ZM71.822 10.5927C75.3496 13.4736 78.2198 17.0181 80.4326 21.2372L82.2038 20.3083C79.8711 15.8607 76.8322 12.1022 73.0871 9.04364L71.822 10.5927ZM80.4326 21.2372C82.6374 25.441 84.0155 30.2678 84.5502 35.7337L86.5407 35.539C85.9845 29.8534 84.5444 24.7711 82.2038 20.3083L80.4326 21.2372ZM98.4205 95H97.4205V96H98.4205V95ZM98.4205 1.90909V0.909088H97.4205V1.90909H98.4205ZM154.92 5.68182L154.475 6.57734L154.482 6.58048L154.92 5.68182ZM166.693 16.4091L165.832 16.9178L165.834 16.9203L166.693 16.4091ZM166.602 49.3636L167.449 49.8957L167.451 49.8931L166.602 49.3636ZM154.602 59.6364L155.013 60.5482L155.017 60.5462L154.602 59.6364ZM111.875 63.1364H110.875V64.1364H111.875V63.1364ZM111.875 45.4091V44.4091H110.875V45.4091H111.875ZM140.511 44.0909L140.872 45.0236L140.879 45.0211L140.511 44.0909ZM145.739 40L146.577 40.545L146.581 40.5387L145.739 40ZM145.739 25.7727L144.888 26.2991L144.892 26.3052L145.739 25.7727ZM140.511 21.5L140.123 22.4217L140.134 22.4259L140.511 21.5ZM120.92 20.0455V19.0455H119.92V20.0455H120.92ZM120.92 95V96H121.92V95H120.92ZM150.83 52.4545L151.708 51.9761L151.423 51.4545H150.83V52.4545ZM174.011 95V96H175.695L174.889 94.5215L174.011 95ZM149.466 95L148.584 95.4712L148.866 96H149.466V95ZM126.739 52.4545V51.4545H125.071L125.857 52.9257L126.739 52.4545ZM99.4205 95V1.90909H97.4205V95H99.4205ZM98.4205 2.90909H136.875V0.909088H98.4205V2.90909ZM136.875 2.90909C143.726 2.90909 149.582 4.14506 154.475 6.57731L155.366 4.78632C150.138 2.18827 143.964 0.909088 136.875 0.909088V2.90909ZM154.482 6.58048C159.405 8.98356 163.179 12.4275 165.832 16.9178L167.554 15.9004C164.692 11.0573 160.618 7.34977 155.359 4.78315L154.482 6.58048ZM165.834 16.9203C168.484 21.3762 169.83 26.6928 169.83 32.9091H171.83C171.83 26.3981 170.418 20.7147 167.553 15.8979L165.834 16.9203ZM169.83 32.9091C169.83 39.2164 168.454 44.5086 165.754 48.8341L167.451 49.8931C170.387 45.1883 171.83 39.5108 171.83 32.9091H169.83ZM165.756 48.8316C163.049 53.1385 159.205 56.4376 154.187 58.7265L155.017 60.5462C160.363 58.1079 164.519 54.5585 167.449 49.8957L165.756 48.8316ZM154.192 58.7245C149.167 60.9872 143.177 62.1364 136.193 62.1364V64.1364C143.392 64.1364 149.674 62.9522 155.013 60.5482L154.192 58.7245ZM136.193 62.1364H111.875V64.1364H136.193V62.1364ZM112.875 63.1364V45.4091H110.875V63.1364H112.875ZM111.875 46.4091H132.011V44.4091H111.875V46.4091ZM132.011 46.4091C135.484 46.4091 138.449 45.9606 140.872 45.0236L140.151 43.1582C138.029 43.9788 135.327 44.4091 132.011 44.4091V46.4091ZM140.879 45.0211C143.346 44.0469 145.266 42.5614 146.577 40.545L144.9 39.455C143.847 41.075 142.282 42.3167 140.144 43.1608L140.879 45.0211ZM146.581 40.5387C147.893 38.4863 148.511 35.9203 148.511 32.9091H146.511C146.511 35.6555 145.948 37.8167 144.896 39.4613L146.581 40.5387ZM148.511 32.9091C148.511 29.8969 147.893 27.3195 146.585 25.2403L144.892 26.3052C145.948 27.9836 146.511 30.1637 146.511 32.9091H148.511ZM146.589 25.2464C145.284 23.1381 143.366 21.5843 140.889 20.5741L140.134 22.4259C142.263 23.2945 143.83 24.5891 144.888 26.2991L146.589 25.2464ZM140.899 20.5784C138.439 19.5424 135.465 19.0455 132.011 19.0455V21.0455C135.285 21.0455 137.978 21.5182 140.123 22.4216L140.899 20.5784ZM132.011 19.0455H120.92V21.0455H132.011V19.0455ZM119.92 20.0455V95H121.92V20.0455H119.92ZM120.92 94H98.4205V96H120.92V94ZM149.951 52.933L173.133 95.4785L174.889 94.5215L151.708 51.9761L149.951 52.933ZM174.011 94H149.466V96H174.011V94ZM150.348 94.5288L127.621 51.9834L125.857 52.9257L148.584 95.4712L150.348 94.5288ZM126.739 53.4545H150.83V51.4545H126.739V53.4545ZM265.125 74.5L264.25 74.0159L264.25 74.0159L265.125 74.5ZM249.125 90.7273L248.643 89.8509L248.642 89.8518L249.125 90.7273ZM203.989 90.6818L204.475 89.808L204.475 89.808L203.989 90.6818ZM188.034 74.4545L187.157 74.9358L187.16 74.9402L188.034 74.4545ZM188.034 22.4091L187.159 21.925L187.157 21.9279L188.034 22.4091ZM203.989 6.18182L204.472 7.05728L204.472 7.05728L203.989 6.18182ZM249.125 6.18182L248.642 7.05728L248.643 7.0582L249.125 6.18182ZM265.125 22.4091L264.25 22.8931L264.25 22.8931L265.125 22.4091ZM245.443 33.0909L244.517 33.4669L244.519 33.4727L245.443 33.0909ZM238.08 23.5909L237.519 24.4193L237.523 24.4217L238.08 23.5909ZM215.08 23.5909L215.636 24.4217L215.636 24.4217L215.08 23.5909ZM207.67 33.0909L206.746 32.7091L206.744 32.7149L207.67 33.0909ZM207.67 63.8182L206.744 64.1942L206.746 64.1999L207.67 63.8182ZM215.08 73.3182L215.636 72.4873L215.636 72.4873L215.08 73.3182ZM238.08 73.3182L237.523 72.4873L237.519 72.4898L238.08 73.3182ZM245.443 63.8182L244.519 63.4364L244.517 63.4422L245.443 63.8182ZM270.034 48.4545C270.034 58.5706 268.089 67.0765 264.25 74.0159L266 74.9841C270.04 67.6811 272.034 58.8233 272.034 48.4545H270.034ZM264.25 74.0159C260.396 80.9823 255.195 86.2505 248.643 89.8509L249.607 91.6037C256.51 87.8101 261.975 82.2602 266 74.9841L264.25 74.0159ZM248.642 89.8518C242.106 93.4599 234.759 95.2727 226.58 95.2727V97.2727C235.066 97.2727 242.75 95.3886 249.608 91.6027L248.642 89.8518ZM226.58 95.2727C218.37 95.2727 211.01 93.4451 204.475 89.808L203.502 91.5556C210.361 95.3731 218.062 97.2727 226.58 97.2727V95.2727ZM204.475 89.808C197.951 86.1768 192.763 80.9067 188.908 73.9689L187.16 74.9402C191.184 82.1842 196.633 87.7323 203.502 91.5556L204.475 89.808ZM188.911 73.9733C185.101 67.0328 183.17 58.5409 183.17 48.4545H181.17C181.17 58.7924 183.149 67.6338 187.157 74.9357L188.911 73.9733ZM183.17 48.4545C183.17 38.3373 185.101 29.8304 188.911 22.8903L187.157 21.9279C183.149 29.2302 181.17 38.0869 181.17 48.4545H183.17ZM188.909 22.8931C192.763 15.9257 197.95 10.6574 204.472 7.05728L203.505 5.30635C196.633 9.1002 191.184 14.6501 187.159 21.925L188.909 22.8931ZM204.472 7.05728C211.007 3.44947 218.369 1.63636 226.58 1.63636V-0.36364C218.063 -0.36364 210.364 1.52022 203.505 5.30635L204.472 7.05728ZM226.58 1.63636C234.759 1.63636 242.106 3.44918 248.642 7.05728L249.608 5.30635C242.75 1.52051 235.066 -0.36364 226.58 -0.36364V1.63636ZM248.643 7.0582C255.195 10.6586 260.396 15.9268 264.25 22.8931L266 21.925C261.975 14.6489 256.51 9.09896 249.607 5.30543L248.643 7.0582ZM264.25 22.8931C268.089 29.8326 270.034 38.3384 270.034 48.4545H272.034C272.034 38.0858 270.04 29.228 266 21.925L264.25 22.8931ZM249.034 48.4545C249.034 42.3049 248.159 37.0456 246.367 32.7091L244.519 33.4727C246.182 37.4999 247.034 42.483 247.034 48.4545H249.034ZM246.37 32.7149C244.611 28.3797 242.041 25.0405 238.636 22.7601L237.523 24.4217C240.543 26.4444 242.882 29.4385 244.517 33.4669L246.37 32.7149ZM238.64 22.7625C235.266 20.4814 231.23 19.3636 226.58 19.3636V21.3636C230.899 21.3636 234.529 22.3974 237.519 24.4193L238.64 22.7625ZM226.58 19.3636C221.958 19.3636 217.924 20.4822 214.523 22.7601L215.636 24.4217C218.66 22.3966 222.292 21.3636 226.58 21.3636V19.3636ZM214.523 22.7601C211.12 25.0393 208.536 28.3764 206.746 32.7091L208.595 33.4727C210.26 29.4418 212.615 26.4455 215.636 24.4217L214.523 22.7601ZM206.744 32.7149C204.985 37.0495 204.125 42.3067 204.125 48.4545H206.125C206.125 42.4812 206.962 37.496 208.597 33.4669L206.744 32.7149ZM204.125 48.4545C204.125 54.6024 204.985 59.8596 206.744 64.1942L208.597 63.4422C206.962 59.4131 206.125 54.4279 206.125 48.4545H204.125ZM206.746 64.1999C208.536 68.5327 211.12 71.8697 214.523 74.149L215.636 72.4873C212.615 70.4636 210.26 67.4673 208.595 63.4364L206.746 64.1999ZM214.523 74.149C217.924 76.4269 221.958 77.5455 226.58 77.5455V75.5455C222.292 75.5455 218.66 74.5125 215.636 72.4873L214.523 74.149ZM226.58 77.5455C231.23 77.5455 235.266 76.4277 238.64 74.1466L237.519 72.4898C234.529 74.5117 230.899 75.5455 226.58 75.5455V77.5455ZM238.636 74.149C242.041 71.8686 244.611 68.5294 246.37 64.1942L244.517 63.4422C242.882 67.4706 240.543 70.4647 237.523 72.4873L238.636 74.149ZM246.367 64.1999C248.159 59.8635 249.034 54.6042 249.034 48.4545H247.034C247.034 54.4261 246.182 59.4092 244.519 63.4364L246.367 64.1999ZM276.875 20.1818H275.875V21.1818H276.875V20.1818ZM276.875 1.90909V0.909088H275.875V1.90909H276.875ZM355.557 1.90909H356.557V0.909088H355.557V1.90909ZM355.557 20.1818V21.1818H356.557V20.1818H355.557ZM327.33 20.1818V19.1818H326.33V20.1818H327.33ZM327.33 95V96H328.33V95H327.33ZM305.148 95H304.148V96H305.148V95ZM305.148 20.1818H306.148V19.1818H305.148V20.1818ZM277.875 20.1818V1.90909H275.875V20.1818H277.875ZM276.875 2.90909H355.557V0.909088H276.875V2.90909ZM354.557 1.90909V20.1818H356.557V1.90909H354.557ZM355.557 19.1818H327.33V21.1818H355.557V19.1818ZM326.33 20.1818V95H328.33V20.1818H326.33ZM327.33 94H305.148V96H327.33V94ZM306.148 95V20.1818H304.148V95H306.148ZM305.148 19.1818H276.875V21.1818H305.148V19.1818ZM444.25 74.5L443.375 74.0159L443.375 74.0159L444.25 74.5ZM428.25 90.7273L427.768 89.8509L427.767 89.8518L428.25 90.7273ZM383.114 90.6818L383.6 89.808L383.6 89.808L383.114 90.6818ZM367.159 74.4545L366.282 74.9358L366.285 74.9402L367.159 74.4545ZM367.159 22.4091L366.284 21.925L366.282 21.9279L367.159 22.4091ZM383.114 6.18182L383.597 7.05728L383.597 7.05728L383.114 6.18182ZM428.25 6.18182L427.767 7.05728L427.768 7.0582L428.25 6.18182ZM444.25 22.4091L443.375 22.8931L443.375 22.8931L444.25 22.4091ZM424.568 33.0909L423.642 33.4669L423.644 33.4727L424.568 33.0909ZM417.205 23.5909L416.644 24.4193L416.648 24.4217L417.205 23.5909ZM394.205 23.5909L394.761 24.4217L394.761 24.4217L394.205 23.5909ZM386.795 33.0909L385.871 32.7091L385.869 32.7149L386.795 33.0909ZM386.795 63.8182L385.869 64.1942L385.871 64.1999L386.795 63.8182ZM394.205 73.3182L394.761 72.4873L394.761 72.4873L394.205 73.3182ZM417.205 73.3182L416.648 72.4873L416.644 72.4898L417.205 73.3182ZM424.568 63.8182L423.644 63.4364L423.642 63.4422L424.568 63.8182ZM449.159 48.4545C449.159 58.5706 447.214 67.0765 443.375 74.0159L445.125 74.9841C449.165 67.6811 451.159 58.8233 451.159 48.4545H449.159ZM443.375 74.0159C439.521 80.9823 434.32 86.2505 427.768 89.8509L428.732 91.6037C435.635 87.8101 441.1 82.2602 445.125 74.9841L443.375 74.0159ZM427.767 89.8518C421.231 93.4599 413.884 95.2727 405.705 95.2727V97.2727C414.191 97.2727 421.875 95.3886 428.733 91.6027L427.767 89.8518ZM405.705 95.2727C397.495 95.2727 390.135 93.4451 383.6 89.808L382.627 91.5556C389.486 95.3731 397.187 97.2727 405.705 97.2727V95.2727ZM383.6 89.808C377.076 86.1768 371.888 80.9067 368.033 73.9689L366.285 74.9402C370.309 82.1842 375.758 87.7323 382.627 91.5556L383.6 89.808ZM368.036 73.9733C364.226 67.0328 362.295 58.5409 362.295 48.4545H360.295C360.295 58.7924 362.274 67.6338 366.282 74.9357L368.036 73.9733ZM362.295 48.4545C362.295 38.3373 364.226 29.8304 368.036 22.8903L366.282 21.9279C362.274 29.2302 360.295 38.0869 360.295 48.4545H362.295ZM368.034 22.8931C371.888 15.9257 377.075 10.6574 383.597 7.05728L382.63 5.30635C375.758 9.1002 370.309 14.6501 366.284 21.925L368.034 22.8931ZM383.597 7.05728C390.132 3.44947 397.494 1.63636 405.705 1.63636V-0.36364C397.188 -0.36364 389.489 1.52022 382.63 5.30635L383.597 7.05728ZM405.705 1.63636C413.884 1.63636 421.231 3.44918 427.767 7.05728L428.733 5.30635C421.875 1.52051 414.191 -0.36364 405.705 -0.36364V1.63636ZM427.768 7.0582C434.32 10.6586 439.521 15.9268 443.375 22.8931L445.125 21.925C441.1 14.6489 435.635 9.09896 428.732 5.30543L427.768 7.0582ZM443.375 22.8931C447.214 29.8326 449.159 38.3384 449.159 48.4545H451.159C451.159 38.0858 449.165 29.228 445.125 21.925L443.375 22.8931ZM428.159 48.4545C428.159 42.3049 427.284 37.0456 425.492 32.7091L423.644 33.4727C425.307 37.4999 426.159 42.483 426.159 48.4545H428.159ZM425.495 32.7149C423.736 28.3797 421.166 25.0405 417.761 22.7601L416.648 24.4217C419.668 26.4444 422.007 29.4385 423.642 33.4669L425.495 32.7149ZM417.765 22.7625C414.391 20.4814 410.355 19.3636 405.705 19.3636V21.3636C410.024 21.3636 413.654 22.3974 416.644 24.4193L417.765 22.7625ZM405.705 19.3636C401.083 19.3636 397.049 20.4822 393.648 22.7601L394.761 24.4217C397.785 22.3966 401.417 21.3636 405.705 21.3636V19.3636ZM393.648 22.7601C390.245 25.0393 387.661 28.3764 385.871 32.7091L387.72 33.4727C389.385 29.4418 391.74 26.4455 394.761 24.4217L393.648 22.7601ZM385.869 32.7149C384.11 37.0495 383.25 42.3067 383.25 48.4545H385.25C385.25 42.4812 386.087 37.496 387.722 33.4669L385.869 32.7149ZM383.25 48.4545C383.25 54.6024 384.11 59.8596 385.869 64.1942L387.722 63.4422C386.087 59.4131 385.25 54.4279 385.25 48.4545H383.25ZM385.871 64.1999C387.661 68.5327 390.245 71.8697 393.648 74.149L394.761 72.4873C391.74 70.4636 389.385 67.4673 387.72 63.4364L385.871 64.1999ZM393.648 74.149C397.049 76.4269 401.083 77.5455 405.705 77.5455V75.5455C401.417 75.5455 397.785 74.5125 394.761 72.4873L393.648 74.149ZM405.705 77.5455C410.355 77.5455 414.391 76.4277 417.765 74.1466L416.644 72.4898C413.654 74.5117 410.024 75.5455 405.705 75.5455V77.5455ZM417.761 74.149C421.166 71.8686 423.736 68.5294 425.495 64.1942L423.642 63.4422C422.007 67.4706 419.668 70.4647 416.648 72.4873L417.761 74.149ZM425.492 64.1999C427.284 59.8635 428.159 54.6042 428.159 48.4545H426.159C426.159 54.4261 425.307 59.4092 423.644 63.4364L425.492 64.1999ZM542.523 1.90909H543.523V0.909088H542.523V1.90909ZM542.523 95V96H543.523V95H542.523ZM523.432 95L522.609 95.5677L522.907 96H523.432V95ZM486.386 41.2727L487.21 40.7051L486.912 40.2727H486.386V41.2727ZM485.795 41.2727V40.2727H484.795V41.2727H485.795ZM485.795 95V96H486.795V95H485.795ZM463.295 95H462.295V96H463.295V95ZM463.295 1.90909V0.909088H462.295V1.90909H463.295ZM482.659 1.90909L483.485 1.34506L483.187 0.909088H482.659V1.90909ZM519.295 55.5455L518.47 56.1095L518.767 56.5455H519.295V55.5455ZM520.068 55.5455V56.5455H521.068V55.5455H520.068ZM520.068 1.90909V0.909088H519.068V1.90909H520.068ZM541.523 1.90909V95H543.523V1.90909H541.523ZM542.523 94H523.432V96H542.523V94ZM524.255 94.4323L487.21 40.7051L485.563 41.8404L522.609 95.5677L524.255 94.4323ZM486.386 40.2727H485.795V42.2727H486.386V40.2727ZM484.795 41.2727V95H486.795V41.2727H484.795ZM485.795 94H463.295V96H485.795V94ZM464.295 95V1.90909H462.295V95H464.295ZM463.295 2.90909H482.659V0.909088H463.295V2.90909ZM481.833 2.47312L518.47 56.1095L520.121 54.9814L483.485 1.34506L481.833 2.47312ZM519.295 56.5455H520.068V54.5455H519.295V56.5455ZM521.068 55.5455V1.90909H519.068V55.5455H521.068ZM520.068 2.90909H542.523V0.909088H520.068V2.90909ZM579.17 1.90909H580.17V0.909088H579.17V1.90909ZM579.17 95V96H580.17V95H579.17ZM556.67 95H555.67V96H556.67V95ZM556.67 1.90909V0.909088H555.67V1.90909H556.67ZM578.17 1.90909V95H580.17V1.90909H578.17ZM579.17 94H556.67V96H579.17V94ZM557.67 95V1.90909H555.67V95H557.67ZM556.67 2.90909H579.17V0.909088H556.67V2.90909ZM613.432 95V96H614.166L614.386 95.299L613.432 95ZM589.25 95L588.302 94.6803L587.857 96H589.25V95ZM620.659 1.90909V0.909088H619.941L619.712 1.58939L620.659 1.90909ZM650.614 1.90909L651.561 1.58939L651.332 0.909088H650.614V1.90909ZM682.023 95V96H683.416L682.97 94.6803L682.023 95ZM657.841 95L656.887 95.2996L657.107 96H657.841V95ZM635.977 25.3636L636.931 25.0641L636.711 24.3636H635.977V25.3636ZM635.25 25.3636V24.3636H634.515L634.296 25.0646L635.25 25.3636ZM610.205 58.3636V57.3636H609.205V58.3636H610.205ZM660.75 58.3636H661.75V57.3636H660.75V58.3636ZM660.75 75.4545V76.4545H661.75V75.4545H660.75ZM610.205 75.4545H609.205V76.4545H610.205V75.4545ZM613.432 94H589.25V96H613.432V94ZM590.198 95.3197L621.607 2.22878L619.712 1.58939L588.302 94.6803L590.198 95.3197ZM620.659 2.90909H650.614V0.909088H620.659V2.90909ZM649.666 2.22878L681.075 95.3197L682.97 94.6803L651.561 1.58939L649.666 2.22878ZM682.023 94H657.841V96H682.023V94ZM658.795 94.7004L636.931 25.0641L635.023 25.6632L656.887 95.2996L658.795 94.7004ZM635.977 24.3636H635.25V26.3636H635.977V24.3636ZM634.296 25.0646L612.478 94.701L614.386 95.299L636.204 25.6626L634.296 25.0646ZM610.205 59.3636H660.75V57.3636H610.205V59.3636ZM659.75 58.3636V75.4545H661.75V58.3636H659.75ZM660.75 74.4545H610.205V76.4545H660.75V74.4545ZM611.205 75.4545V58.3636H609.205V75.4545H611.205ZM804.045 35.6364V36.6364H805.148L805.041 35.539L804.045 35.6364ZM781.318 35.6364L780.327 35.7651L780.44 36.6364H781.318V35.6364ZM779.455 29.3182L778.56 29.7654L778.56 29.7654L779.455 29.3182ZM775.727 24.5L776.381 23.7428L776.381 23.7428L775.727 24.5ZM770.227 21.4545L769.899 22.399L769.907 22.4019L769.915 22.4046L770.227 21.4545ZM751.591 23.6818L751.031 22.8533L751.027 22.8558L751.591 23.6818ZM744.091 33.2727L743.169 32.8853L743.167 32.891L744.091 33.2727ZM744.136 64L743.214 64.3875L743.218 64.3955L744.136 64ZM751.636 73.4091L751.085 74.2436L751.094 74.2495L751.636 73.4091ZM769.909 75.5909L769.614 74.6354L769.61 74.6367L769.909 75.5909ZM775.318 72.8182L775.935 73.605L775.937 73.6035L775.318 72.8182ZM779.182 68.3182L778.315 67.8189L778.313 67.8237L779.182 68.3182ZM781.318 62.2727L781.324 61.2727L780.479 61.2677L780.333 62.0997L781.318 62.2727ZM804.045 62.4091L805.041 62.5042L805.145 61.4157L804.051 61.4091L804.045 62.4091ZM800.455 74.5909L799.56 74.1437L799.557 74.1491L800.455 74.5909ZM792.318 85.5455L793.006 86.2714L793.009 86.2682L792.318 85.5455ZM779.682 93.3636L779.318 92.4321L779.316 92.4328L779.682 93.3636ZM740.045 90.7273L739.556 91.5992L739.56 91.6018L740.045 90.7273ZM724.318 74.4545L725.198 73.9791L724.318 74.4545ZM724.409 22.4091L723.532 21.9279L723.532 21.9279L724.409 22.4091ZM778.318 3L778.006 3.94989L778.011 3.95165L778.318 3ZM790.955 9.81818L790.318 10.5896L790.322 10.5927L790.955 9.81818ZM804.045 34.6364H781.318V36.6364H804.045V34.6364ZM782.31 35.5076C781.994 33.0766 781.344 30.861 780.349 28.871L778.56 29.7654C779.444 31.533 780.036 33.5295 780.327 35.7651L782.31 35.5076ZM780.349 28.871C779.352 26.8775 778.029 25.1651 776.381 23.7428L775.074 25.2572C776.516 26.5016 777.678 28.0013 778.56 29.7654L780.349 28.871ZM776.381 23.7428C774.726 22.3156 772.774 21.2388 770.539 20.5045L769.915 22.4046C771.923 23.0643 773.637 24.0178 775.074 25.2572L776.381 23.7428ZM770.556 20.51C768.345 19.741 765.914 19.3636 763.273 19.3636V21.3636C765.723 21.3636 767.928 21.7136 769.899 22.399L770.556 20.51ZM763.273 19.3636C758.587 19.3636 754.492 20.514 751.031 22.8533L752.151 24.5103C755.235 22.4254 758.928 21.3636 763.273 21.3636V19.3636ZM751.027 22.8558C747.602 25.1926 744.989 28.5541 743.169 32.8853L745.013 33.6602C746.708 29.6277 749.095 26.5953 752.154 24.5079L751.027 22.8558ZM743.167 32.891C741.376 37.2253 740.5 42.4231 740.5 48.4545H742.5C742.5 42.6072 743.351 37.6838 745.015 33.6545L743.167 32.891ZM740.5 48.4545C740.5 54.7241 741.39 60.0472 743.214 64.3875L745.058 63.6125C743.367 59.5892 742.5 54.5486 742.5 48.4545H740.5ZM743.218 64.3955C745.069 68.6942 747.684 71.9973 751.085 74.2436L752.187 72.5746C749.165 70.5784 746.779 67.6088 745.055 63.6045L743.218 64.3955ZM751.094 74.2495C754.521 76.4592 758.549 77.5455 763.136 77.5455V75.5455C758.875 75.5455 755.236 74.5408 752.178 72.5687L751.094 74.2495ZM763.136 77.5455C765.706 77.5455 768.066 77.2164 770.208 76.5451L769.61 74.6367C767.691 75.2381 765.536 75.5455 763.136 75.5455V77.5455ZM770.204 76.5464C772.37 75.8775 774.285 74.8996 775.935 73.605L774.701 72.0313C773.261 73.161 771.569 74.0316 769.614 74.6354L770.204 76.5464ZM775.937 73.6035C777.615 72.2805 778.988 70.6815 780.051 68.8127L778.313 67.8237C777.376 69.47 776.173 70.871 774.699 72.0329L775.937 73.6035ZM780.048 68.8175C781.142 66.9187 781.891 64.7912 782.303 62.4458L780.333 62.0997C779.957 64.2391 779.282 66.1419 778.315 67.8189L780.048 68.8175ZM781.312 63.2727L804.039 63.4091L804.051 61.4091L781.324 61.2727L781.312 63.2727ZM803.05 62.3139C802.669 66.3031 801.509 70.2449 799.56 74.1437L801.349 75.0381C803.4 70.9369 804.634 66.7575 805.041 62.5042L803.05 62.3139ZM799.557 74.1491C797.643 78.0368 795.003 81.5947 791.627 84.8227L793.009 86.2682C796.542 82.8902 799.327 79.145 801.352 75.0327L799.557 74.1491ZM791.63 84.8195C788.28 87.9933 784.182 90.534 779.318 92.4321L780.045 94.2952C785.121 92.3145 789.447 89.6431 793.006 86.2714L791.63 84.8195ZM779.316 92.4328C774.515 94.3182 768.976 95.2727 762.682 95.2727V97.2727C769.176 97.2727 774.97 96.2879 780.047 94.2945L779.316 92.4328ZM762.682 95.2727C754.409 95.2727 747.034 93.459 740.53 89.8527L739.56 91.6018C746.391 95.3895 754.106 97.2727 762.682 97.2727V95.2727ZM740.535 89.8554C734.074 86.2267 728.962 80.945 725.198 73.9791L723.438 74.93C727.371 82.2065 732.744 87.7733 739.556 91.5992L740.535 89.8554ZM725.198 73.9791C721.446 67.0373 719.545 58.5432 719.545 48.4545H717.545C717.545 58.7901 719.493 67.6294 723.438 74.93L725.198 73.9791ZM719.545 48.4545C719.545 38.3373 721.476 29.8304 725.286 22.8903L723.532 21.9279C719.524 29.2302 717.545 38.0869 717.545 48.4545H719.545ZM725.286 22.8903C729.11 15.9232 734.267 10.6557 740.758 7.05635L739.788 5.30728C732.945 9.10186 727.526 14.6526 723.532 21.9279L725.286 22.8903ZM740.758 7.05635C747.263 3.44859 754.564 1.63636 762.682 1.63636V-0.36364C754.254 -0.36364 746.615 1.52111 739.788 5.30728L740.758 7.05635ZM762.682 1.63636C768.224 1.63636 773.33 2.41099 778.006 3.94988L778.631 2.05012C773.731 0.437488 768.412 -0.36364 762.682 -0.36364V1.63636ZM778.011 3.95165C782.687 5.46096 786.786 7.67516 790.318 10.5895L791.591 9.0468C787.851 5.96119 783.525 3.62994 778.625 2.04835L778.011 3.95165ZM790.322 10.5927C793.85 13.4736 796.72 17.0181 798.933 21.2372L800.704 20.3083C798.371 15.8607 795.332 12.1022 791.587 9.04364L790.322 10.5927ZM798.933 21.2372C801.137 25.441 802.515 30.2678 803.05 35.7337L805.041 35.539C804.485 29.8534 803.044 24.7711 800.704 20.3083L798.933 21.2372ZM898.875 74.5L898 74.0159L898 74.0159L898.875 74.5ZM882.875 90.7273L882.393 89.8509L882.392 89.8518L882.875 90.7273ZM837.739 90.6818L838.225 89.808L838.225 89.808L837.739 90.6818ZM821.784 74.4545L820.907 74.9358L820.91 74.9402L821.784 74.4545ZM821.784 22.4091L820.909 21.925L820.907 21.9279L821.784 22.4091ZM837.739 6.18182L838.222 7.05728L838.222 7.05728L837.739 6.18182ZM882.875 6.18182L882.392 7.05728L882.393 7.0582L882.875 6.18182ZM898.875 22.4091L898 22.8931L898 22.8931L898.875 22.4091ZM879.193 33.0909L878.267 33.4669L878.269 33.4727L879.193 33.0909ZM871.83 23.5909L871.269 24.4193L871.273 24.4217L871.83 23.5909ZM848.83 23.5909L849.386 24.4217L849.386 24.4217L848.83 23.5909ZM841.42 33.0909L840.496 32.7091L840.494 32.7149L841.42 33.0909ZM841.42 63.8182L840.494 64.1942L840.496 64.1999L841.42 63.8182ZM848.83 73.3182L849.386 72.4873L849.386 72.4873L848.83 73.3182ZM871.83 73.3182L871.273 72.4873L871.269 72.4898L871.83 73.3182ZM879.193 63.8182L878.269 63.4364L878.267 63.4422L879.193 63.8182ZM903.784 48.4545C903.784 58.5706 901.839 67.0765 898 74.0159L899.75 74.9841C903.79 67.6811 905.784 58.8233 905.784 48.4545H903.784ZM898 74.0159C894.146 80.9823 888.945 86.2505 882.393 89.8509L883.357 91.6037C890.26 87.8101 895.725 82.2602 899.75 74.9841L898 74.0159ZM882.392 89.8518C875.856 93.4599 868.509 95.2727 860.33 95.2727V97.2727C868.816 97.2727 876.5 95.3886 883.358 91.6027L882.392 89.8518ZM860.33 95.2727C852.12 95.2727 844.76 93.4451 838.225 89.808L837.252 91.5556C844.111 95.3731 851.812 97.2727 860.33 97.2727V95.2727ZM838.225 89.808C831.701 86.1768 826.513 80.9067 822.658 73.9689L820.91 74.9402C824.934 82.1842 830.383 87.7323 837.252 91.5556L838.225 89.808ZM822.661 73.9733C818.851 67.0328 816.92 58.5409 816.92 48.4545H814.92C814.92 58.7924 816.899 67.6338 820.907 74.9357L822.661 73.9733ZM816.92 48.4545C816.92 38.3373 818.851 29.8304 822.661 22.8903L820.907 21.9279C816.899 29.2302 814.92 38.0869 814.92 48.4545H816.92ZM822.659 22.8931C826.513 15.9257 831.7 10.6574 838.222 7.05728L837.255 5.30635C830.383 9.1002 824.934 14.6501 820.909 21.925L822.659 22.8931ZM838.222 7.05728C844.757 3.44947 852.119 1.63636 860.33 1.63636V-0.36364C851.813 -0.36364 844.114 1.52022 837.255 5.30635L838.222 7.05728ZM860.33 1.63636C868.509 1.63636 875.856 3.44918 882.392 7.05728L883.358 5.30635C876.5 1.52051 868.816 -0.36364 860.33 -0.36364V1.63636ZM882.393 7.0582C888.945 10.6586 894.146 15.9268 898 22.8931L899.75 21.925C895.725 14.6489 890.26 9.09896 883.357 5.30543L882.393 7.0582ZM898 22.8931C901.839 29.8326 903.784 38.3384 903.784 48.4545H905.784C905.784 38.0858 903.79 29.228 899.75 21.925L898 22.8931ZM882.784 48.4545C882.784 42.3049 881.909 37.0456 880.117 32.7091L878.269 33.4727C879.932 37.4999 880.784 42.483 880.784 48.4545H882.784ZM880.12 32.7149C878.361 28.3797 875.791 25.0405 872.386 22.7601L871.273 24.4217C874.293 26.4444 876.632 29.4385 878.267 33.4669L880.12 32.7149ZM872.39 22.7625C869.016 20.4814 864.98 19.3636 860.33 19.3636V21.3636C864.649 21.3636 868.279 22.3974 871.269 24.4193L872.39 22.7625ZM860.33 19.3636C855.708 19.3636 851.674 20.4822 848.273 22.7601L849.386 24.4217C852.41 22.3966 856.042 21.3636 860.33 21.3636V19.3636ZM848.273 22.7601C844.87 25.0393 842.286 28.3764 840.496 32.7091L842.345 33.4727C844.01 29.4418 846.365 26.4455 849.386 24.4217L848.273 22.7601ZM840.494 32.7149C838.735 37.0495 837.875 42.3067 837.875 48.4545H839.875C839.875 42.4812 840.712 37.496 842.347 33.4669L840.494 32.7149ZM837.875 48.4545C837.875 54.6024 838.735 59.8596 840.494 64.1942L842.347 63.4422C840.712 59.4131 839.875 54.4279 839.875 48.4545H837.875ZM840.496 64.1999C842.286 68.5327 844.87 71.8697 848.273 74.149L849.386 72.4873C846.365 70.4636 844.01 67.4673 842.345 63.4364L840.496 64.1999ZM848.273 74.149C851.674 76.4269 855.708 77.5455 860.33 77.5455V75.5455C856.042 75.5455 852.41 74.5125 849.386 72.4873L848.273 74.149ZM860.33 77.5455C864.98 77.5455 869.016 76.4277 872.39 74.1466L871.269 72.4898C868.279 74.5117 864.649 75.5455 860.33 75.5455V77.5455ZM872.386 74.149C875.791 71.8686 878.361 68.5294 880.12 64.1942L878.267 63.4422C876.632 67.4706 874.293 70.4647 871.273 72.4873L872.386 74.149ZM880.117 64.1999C881.909 59.8635 882.784 54.6042 882.784 48.4545H880.784C880.784 54.4261 879.932 59.4092 878.269 63.4364L880.117 64.1999ZM962.602 39.9091H963.602V38.9091H962.602V39.9091ZM962.602 57V58H963.602V57H962.602ZM919.511 57H918.511V58H919.511V57ZM919.511 39.9091V38.9091H918.511V39.9091H919.511ZM961.602 39.9091V57H963.602V39.9091H961.602ZM962.602 56H919.511V58H962.602V56ZM920.511 57V39.9091H918.511V57H920.511ZM919.511 40.9091H962.602V38.9091H919.511V40.9091ZM83 229.5L82.125 229.016L82.125 229.016L83 229.5ZM67 245.727L66.5184 244.851L66.5167 244.852L67 245.727ZM21.8636 245.682L22.35 244.808L22.35 244.808L21.8636 245.682ZM5.90909 229.455L5.03247 229.936L5.03493 229.94L5.90909 229.455ZM5.90909 177.409L5.03405 176.925L5.03248 176.928L5.90909 177.409ZM21.8636 161.182L22.3469 162.057L22.3469 162.057L21.8636 161.182ZM67 161.182L66.5167 162.057L66.5184 162.058L67 161.182ZM83 177.409L82.125 177.893L82.125 177.893L83 177.409ZM63.3182 188.091L62.3916 188.467L62.3939 188.473L63.3182 188.091ZM55.9545 178.591L55.3944 179.419L55.398 179.422L55.9545 178.591ZM32.9545 178.591L33.5111 179.422L33.5111 179.422L32.9545 178.591ZM25.5455 188.091L24.6212 187.709L24.6188 187.715L25.5455 188.091ZM25.5455 218.818L24.6188 219.194L24.6212 219.2L25.5455 218.818ZM32.9545 228.318L33.5111 227.487L33.5111 227.487L32.9545 228.318ZM55.9545 228.318L55.398 227.487L55.3944 227.49L55.9545 228.318ZM63.3182 218.818L62.3939 218.436L62.3916 218.442L63.3182 218.818ZM87.9091 203.455C87.9091 213.571 85.9638 222.076 82.125 229.016L83.875 229.984C87.915 222.681 89.9091 213.823 89.9091 203.455H87.9091ZM82.125 229.016C78.2713 235.982 73.07 241.25 66.5184 244.851L67.4816 246.604C74.3846 242.81 79.85 237.26 83.875 229.984L82.125 229.016ZM66.5167 244.852C59.9807 248.46 52.6344 250.273 44.4545 250.273V252.273C52.9414 252.273 60.6253 250.389 67.4833 246.603L66.5167 244.852ZM44.4545 250.273C36.2452 250.273 28.8849 248.445 22.35 244.808L21.3773 246.556C28.2363 250.373 35.9366 252.273 44.4545 252.273V250.273ZM22.35 244.808C15.8256 241.177 10.6376 235.907 6.78325 228.969L5.03493 229.94C9.05936 237.184 14.5077 242.732 21.3773 246.556L22.35 244.808ZM6.7857 228.973C2.9758 222.033 1.04545 213.541 1.04545 203.455H-0.954545C-0.954545 213.792 1.0242 222.634 5.03248 229.936L6.7857 228.973ZM1.04545 203.455C1.04545 193.337 2.97602 184.83 6.7857 177.89L5.03248 176.928C1.02398 184.23 -0.954545 193.087 -0.954545 203.455H1.04545ZM6.78412 177.893C10.6385 170.926 15.8254 165.657 22.3469 162.057L21.3804 160.306C14.5079 164.1 9.0585 169.65 5.03406 176.925L6.78412 177.893ZM22.3469 162.057C28.8824 158.449 36.2438 156.636 44.4545 156.636V154.636C35.9381 154.636 28.2388 156.52 21.3804 160.306L22.3469 162.057ZM44.4545 156.636C52.6344 156.636 59.9807 158.449 66.5167 162.057L67.4833 160.306C60.6253 156.521 52.9414 154.636 44.4545 154.636V156.636ZM66.5184 162.058C73.07 165.659 78.2713 170.927 82.125 177.893L83.875 176.925C79.85 169.649 74.3846 164.099 67.4816 160.305L66.5184 162.058ZM82.125 177.893C85.9638 184.833 87.9091 193.338 87.9091 203.455H89.9091C89.9091 193.086 87.915 184.228 83.875 176.925L82.125 177.893ZM66.9091 203.455C66.9091 197.305 66.0336 192.046 64.2424 187.709L62.3939 188.473C64.0573 192.5 64.9091 197.483 64.9091 203.455H66.9091ZM64.2448 187.715C62.4856 183.38 59.9156 180.04 56.5111 177.76L55.398 179.422C58.4177 181.444 60.7569 184.439 62.3916 188.467L64.2448 187.715ZM56.5147 177.763C53.1412 175.481 49.1047 174.364 44.4545 174.364V176.364C48.774 176.364 52.4043 177.397 55.3944 179.419L56.5147 177.763ZM44.4545 174.364C39.8328 174.364 35.7988 175.482 32.398 177.76L33.5111 179.422C36.5345 177.397 40.1672 176.364 44.4545 176.364V174.364ZM32.398 177.76C28.9952 180.039 26.4108 183.376 24.6212 187.709L26.4697 188.473C28.1347 184.442 30.4897 181.445 33.5111 179.422L32.398 177.76ZM24.6188 187.715C22.8599 192.049 22 197.307 22 203.455H24C24 197.481 24.8371 192.496 26.4721 188.467L24.6188 187.715ZM22 203.455C22 209.602 22.8599 214.86 24.6188 219.194L26.4721 218.442C24.8371 214.413 24 209.428 24 203.455H22ZM24.6212 219.2C26.4108 223.533 28.9952 226.87 32.398 229.149L33.5111 227.487C30.4897 225.464 28.1347 222.467 26.4697 218.436L24.6212 219.2ZM32.398 229.149C35.7988 231.427 39.8328 232.545 44.4545 232.545V230.545C40.1672 230.545 36.5345 229.512 33.5111 227.487L32.398 229.149ZM44.4545 232.545C49.1047 232.545 53.1412 231.428 56.5147 229.147L55.3944 227.49C52.4043 229.512 48.774 230.545 44.4545 230.545V232.545ZM56.5111 229.149C59.9156 226.869 62.4856 223.529 64.2448 219.194L62.3916 218.442C60.7569 222.471 58.4177 225.465 55.398 227.487L56.5111 229.149ZM64.2424 219.2C66.0336 214.864 66.9091 209.604 66.9091 203.455H64.9091C64.9091 209.426 64.0573 214.409 62.3939 218.436L64.2424 219.2ZM102.045 250H101.045V251H102.045V250ZM102.045 156.909V155.909H101.045V156.909H102.045ZM158.545 160.682L158.1 161.577L158.107 161.58L158.545 160.682ZM170.318 171.409L169.457 171.918L169.459 171.92L170.318 171.409ZM170.227 204.364L171.074 204.896L171.076 204.893L170.227 204.364ZM158.227 214.636L158.638 215.548L158.642 215.546L158.227 214.636ZM115.5 218.136H114.5V219.136H115.5V218.136ZM115.5 200.409V199.409H114.5V200.409H115.5ZM144.136 199.091L144.497 200.024L144.504 200.021L144.136 199.091ZM149.364 195L150.202 195.545L150.206 195.539L149.364 195ZM149.364 180.773L148.513 181.299L148.517 181.305L149.364 180.773ZM144.136 176.5L143.748 177.422L143.759 177.426L144.136 176.5ZM124.545 175.045V174.045H123.545V175.045H124.545ZM124.545 250V251H125.545V250H124.545ZM154.455 207.455L155.333 206.976L155.048 206.455H154.455V207.455ZM177.636 250V251H179.32L178.514 249.522L177.636 250ZM153.091 250L152.209 250.471L152.491 251H153.091V250ZM130.364 207.455V206.455H128.696L129.482 207.926L130.364 207.455ZM103.045 250V156.909H101.045V250H103.045ZM102.045 157.909H140.5V155.909H102.045V157.909ZM140.5 157.909C147.351 157.909 153.207 159.145 158.1 161.577L158.991 159.786C153.763 157.188 147.589 155.909 140.5 155.909V157.909ZM158.107 161.58C163.03 163.984 166.804 167.427 169.457 171.918L171.179 170.9C168.317 166.057 164.243 162.35 158.984 159.783L158.107 161.58ZM169.459 171.92C172.109 176.376 173.455 181.693 173.455 187.909H175.455C175.455 181.398 174.043 175.715 171.178 170.898L169.459 171.92ZM173.455 187.909C173.455 194.216 172.079 199.509 169.379 203.834L171.076 204.893C174.012 200.188 175.455 194.511 175.455 187.909H173.455ZM169.381 203.832C166.674 208.138 162.83 211.438 157.812 213.727L158.642 215.546C163.988 213.108 168.144 209.558 171.074 204.896L169.381 203.832ZM157.817 213.725C152.792 215.987 146.802 217.136 139.818 217.136V219.136C147.017 219.136 153.299 217.952 158.638 215.548L157.817 213.725ZM139.818 217.136H115.5V219.136H139.818V217.136ZM116.5 218.136V200.409H114.5V218.136H116.5ZM115.5 201.409H135.636V199.409H115.5V201.409ZM135.636 201.409C139.109 201.409 142.074 200.961 144.497 200.024L143.776 198.158C141.654 198.979 138.952 199.409 135.636 199.409V201.409ZM144.504 200.021C146.971 199.047 148.891 197.561 150.202 195.545L148.525 194.455C147.472 196.075 145.907 197.317 143.769 198.161L144.504 200.021ZM150.206 195.539C151.518 193.486 152.136 190.92 152.136 187.909H150.136C150.136 190.655 149.573 192.817 148.521 194.461L150.206 195.539ZM152.136 187.909C152.136 184.897 151.518 182.319 150.21 180.24L148.517 181.305C149.573 182.984 150.136 185.164 150.136 187.909H152.136ZM150.214 180.246C148.909 178.138 146.991 176.584 144.514 175.574L143.759 177.426C145.888 178.294 147.455 179.589 148.513 181.299L150.214 180.246ZM144.524 175.578C142.064 174.542 139.09 174.045 135.636 174.045V176.045C138.91 176.045 141.603 176.518 143.748 177.422L144.524 175.578ZM135.636 174.045H124.545V176.045H135.636V174.045ZM123.545 175.045V250H125.545V175.045H123.545ZM124.545 249H102.045V251H124.545V249ZM153.576 207.933L176.758 250.478L178.514 249.522L155.333 206.976L153.576 207.933ZM177.636 249H153.091V251H177.636V249ZM153.973 249.529L131.246 206.983L129.482 207.926L152.209 250.471L153.973 249.529ZM130.364 208.455H154.455V206.455H130.364V208.455ZM186.795 250H185.795V251H186.795V250ZM186.795 156.909V155.909H185.795V156.909H186.795ZM245.659 162.5L245.181 163.378L245.186 163.381L245.659 162.5ZM261.568 178.5L260.686 178.972L260.687 178.973L261.568 178.5ZM261.568 228.409L260.686 227.938L260.685 227.94L261.568 228.409ZM245.705 244.455L246.178 245.335L246.181 245.334L245.705 244.455ZM209.295 230.818H208.295V231.818H209.295V230.818ZM233.568 228.182L234.006 229.081L234.009 229.079L233.568 228.182ZM241.795 219.5L240.889 219.077L240.888 219.081L241.795 219.5ZM241.795 187.409L240.89 187.834L240.892 187.837L241.795 187.409ZM233.477 178.773L233.036 179.67L233.045 179.674L233.477 178.773ZM209.295 176.091V175.091H208.295V176.091H209.295ZM221.205 249H186.795V251H221.205V249ZM187.795 250V156.909H185.795V250H187.795ZM186.795 157.909H221.159V155.909H186.795V157.909ZM221.159 157.909C230.513 157.909 238.508 159.746 245.181 163.378L246.137 161.622C239.113 157.799 230.775 155.909 221.159 155.909V157.909ZM245.186 163.381C251.889 166.983 257.051 172.173 260.686 178.972L262.45 178.028C258.631 170.887 253.187 165.411 246.133 161.619L245.186 163.381ZM260.687 178.973C264.321 185.738 266.159 193.87 266.159 203.409H268.159C268.159 193.614 266.27 185.141 262.449 178.027L260.687 178.973ZM266.159 203.409C266.159 212.978 264.32 221.142 260.686 227.938L262.45 228.881C266.271 221.737 268.159 213.234 268.159 203.409H266.159ZM260.685 227.94C257.079 234.738 251.932 239.943 245.228 243.575L246.181 245.334C253.234 241.512 258.663 236.02 262.452 228.878L260.685 227.94ZM245.231 243.574C238.526 247.178 230.528 249 221.205 249V251C230.79 251 239.126 249.125 246.178 245.335L245.231 243.574ZM209.295 231.818H220.341V229.818H209.295V231.818ZM220.341 231.818C225.661 231.818 230.229 230.922 234.006 229.081L233.13 227.283C229.695 228.957 225.445 229.818 220.341 229.818V231.818ZM234.009 229.079C237.87 227.181 240.768 224.108 242.703 219.919L240.888 219.081C239.126 222.892 236.539 225.607 233.127 227.284L234.009 229.079ZM242.702 219.923C244.665 215.71 245.614 210.185 245.614 203.409H243.614C243.614 210.027 242.683 215.229 240.889 219.077L242.702 219.923ZM245.614 203.409C245.614 196.635 244.666 191.136 242.699 186.981L240.892 187.837C242.683 191.621 243.614 196.79 243.614 203.409H245.614ZM242.701 186.984C240.733 182.795 237.803 179.737 233.91 177.871L233.045 179.674C236.485 181.324 239.1 184.023 240.89 187.834L242.701 186.984ZM233.918 177.875C230.109 176.002 225.463 175.091 220.023 175.091V177.091C225.249 177.091 229.573 177.968 233.036 179.67L233.918 177.875ZM220.023 175.091H209.295V177.091H220.023V175.091ZM208.295 176.091V230.818H210.295V176.091H208.295ZM302.795 156.909H303.795V155.909H302.795V156.909ZM302.795 250V251H303.795V250H302.795ZM280.295 250H279.295V251H280.295V250ZM280.295 156.909V155.909H279.295V156.909H280.295ZM301.795 156.909V250H303.795V156.909H301.795ZM302.795 249H280.295V251H302.795V249ZM281.295 250V156.909H279.295V250H281.295ZM280.295 157.909H302.795V155.909H280.295V157.909ZM396.148 156.909H397.148V155.909H396.148V156.909ZM396.148 250V251H397.148V250H396.148ZM377.057 250L376.234 250.568L376.532 251H377.057V250ZM340.011 196.273L340.835 195.705L340.537 195.273H340.011V196.273ZM339.42 196.273V195.273H338.42V196.273H339.42ZM339.42 250V251H340.42V250H339.42ZM316.92 250H315.92V251H316.92V250ZM316.92 156.909V155.909H315.92V156.909H316.92ZM336.284 156.909L337.11 156.345L336.812 155.909H336.284V156.909ZM372.92 210.545L372.095 211.109L372.392 211.545H372.92V210.545ZM373.693 210.545V211.545H374.693V210.545H373.693ZM373.693 156.909V155.909H372.693V156.909H373.693ZM395.148 156.909V250H397.148V156.909H395.148ZM396.148 249H377.057V251H396.148V249ZM377.88 249.432L340.835 195.705L339.188 196.84L376.234 250.568L377.88 249.432ZM340.011 195.273H339.42V197.273H340.011V195.273ZM338.42 196.273V250H340.42V196.273H338.42ZM339.42 249H316.92V251H339.42V249ZM317.92 250V156.909H315.92V250H317.92ZM316.92 157.909H336.284V155.909H316.92V157.909ZM335.458 157.473L372.095 211.109L373.746 209.981L337.11 156.345L335.458 157.473ZM372.92 211.545H373.693V209.545H372.92V211.545ZM374.693 210.545V156.909H372.693V210.545H374.693ZM373.693 157.909H396.148V155.909H373.693V157.909ZM430.432 250V251H431.166L431.386 250.299L430.432 250ZM406.25 250L405.302 249.68L404.857 251H406.25V250ZM437.659 156.909V155.909H436.941L436.712 156.589L437.659 156.909ZM467.614 156.909L468.561 156.589L468.332 155.909H467.614V156.909ZM499.023 250V251H500.416L499.97 249.68L499.023 250ZM474.841 250L473.887 250.3L474.107 251H474.841V250ZM452.977 180.364L453.931 180.064L453.711 179.364H452.977V180.364ZM452.25 180.364V179.364H451.515L451.296 180.065L452.25 180.364ZM427.205 213.364V212.364H426.205V213.364H427.205ZM477.75 213.364H478.75V212.364H477.75V213.364ZM477.75 230.455V231.455H478.75V230.455H477.75ZM427.205 230.455H426.205V231.455H427.205V230.455ZM430.432 249H406.25V251H430.432V249ZM407.198 250.32L438.607 157.229L436.712 156.589L405.302 249.68L407.198 250.32ZM437.659 157.909H467.614V155.909H437.659V157.909ZM466.666 157.229L498.075 250.32L499.97 249.68L468.561 156.589L466.666 157.229ZM499.023 249H474.841V251H499.023V249ZM475.795 249.7L453.931 180.064L452.023 180.663L473.887 250.3L475.795 249.7ZM452.977 179.364H452.25V181.364H452.977V179.364ZM451.296 180.065L429.478 249.701L431.386 250.299L453.204 180.663L451.296 180.065ZM427.205 214.364H477.75V212.364H427.205V214.364ZM476.75 213.364V230.455H478.75V213.364H476.75ZM477.75 229.455H427.205V231.455H477.75V229.455ZM428.205 230.455V213.364H426.205V230.455H428.205ZM494.375 175.182H493.375V176.182H494.375V175.182ZM494.375 156.909V155.909H493.375V156.909H494.375ZM573.057 156.909H574.057V155.909H573.057V156.909ZM573.057 175.182V176.182H574.057V175.182H573.057ZM544.83 175.182V174.182H543.83V175.182H544.83ZM544.83 250V251H545.83V250H544.83ZM522.648 250H521.648V251H522.648V250ZM522.648 175.182H523.648V174.182H522.648V175.182ZM495.375 175.182V156.909H493.375V175.182H495.375ZM494.375 157.909H573.057V155.909H494.375V157.909ZM572.057 156.909V175.182H574.057V156.909H572.057ZM573.057 174.182H544.83V176.182H573.057V174.182ZM543.83 175.182V250H545.83V175.182H543.83ZM544.83 249H522.648V251H544.83V249ZM523.648 250V175.182H521.648V250H523.648ZM522.648 174.182H494.375V176.182H522.648V174.182ZM661.75 229.5L660.875 229.016L660.875 229.016L661.75 229.5ZM645.75 245.727L645.268 244.851L645.267 244.852L645.75 245.727ZM600.614 245.682L601.1 244.808L601.1 244.808L600.614 245.682ZM584.659 229.455L583.782 229.936L583.785 229.94L584.659 229.455ZM584.659 177.409L583.784 176.925L583.782 176.928L584.659 177.409ZM600.614 161.182L601.097 162.057L601.097 162.057L600.614 161.182ZM645.75 161.182L645.267 162.057L645.268 162.058L645.75 161.182ZM661.75 177.409L660.875 177.893L660.875 177.893L661.75 177.409ZM642.068 188.091L641.142 188.467L641.144 188.473L642.068 188.091ZM634.705 178.591L634.144 179.419L634.148 179.422L634.705 178.591ZM611.705 178.591L612.261 179.422L612.261 179.422L611.705 178.591ZM604.295 188.091L603.371 187.709L603.369 187.715L604.295 188.091ZM604.295 218.818L603.369 219.194L603.371 219.2L604.295 218.818ZM611.705 228.318L612.261 227.487L612.261 227.487L611.705 228.318ZM634.705 228.318L634.148 227.487L634.144 227.49L634.705 228.318ZM642.068 218.818L641.144 218.436L641.142 218.442L642.068 218.818ZM666.659 203.455C666.659 213.571 664.714 222.076 660.875 229.016L662.625 229.984C666.665 222.681 668.659 213.823 668.659 203.455H666.659ZM660.875 229.016C657.021 235.982 651.82 241.25 645.268 244.851L646.232 246.604C653.135 242.81 658.6 237.26 662.625 229.984L660.875 229.016ZM645.267 244.852C638.731 248.46 631.384 250.273 623.205 250.273V252.273C631.691 252.273 639.375 250.389 646.233 246.603L645.267 244.852ZM623.205 250.273C614.995 250.273 607.635 248.445 601.1 244.808L600.127 246.556C606.986 250.373 614.687 252.273 623.205 252.273V250.273ZM601.1 244.808C594.576 241.177 589.388 235.907 585.533 228.969L583.785 229.94C587.809 237.184 593.258 242.732 600.127 246.556L601.1 244.808ZM585.536 228.973C581.726 222.033 579.795 213.541 579.795 203.455H577.795C577.795 213.792 579.774 222.634 583.782 229.936L585.536 228.973ZM579.795 203.455C579.795 193.337 581.726 184.83 585.536 177.89L583.782 176.928C579.774 184.23 577.795 193.087 577.795 203.455H579.795ZM585.534 177.893C589.388 170.926 594.575 165.657 601.097 162.057L600.13 160.306C593.258 164.1 587.809 169.65 583.784 176.925L585.534 177.893ZM601.097 162.057C607.632 158.449 614.994 156.636 623.205 156.636V154.636C614.688 154.636 606.989 156.52 600.13 160.306L601.097 162.057ZM623.205 156.636C631.384 156.636 638.731 158.449 645.267 162.057L646.233 160.306C639.375 156.521 631.691 154.636 623.205 154.636V156.636ZM645.268 162.058C651.82 165.659 657.021 170.927 660.875 177.893L662.625 176.925C658.6 169.649 653.135 164.099 646.232 160.305L645.268 162.058ZM660.875 177.893C664.714 184.833 666.659 193.338 666.659 203.455H668.659C668.659 193.086 666.665 184.228 662.625 176.925L660.875 177.893ZM645.659 203.455C645.659 197.305 644.784 192.046 642.992 187.709L641.144 188.473C642.807 192.5 643.659 197.483 643.659 203.455H645.659ZM642.995 187.715C641.236 183.38 638.666 180.04 635.261 177.76L634.148 179.422C637.168 181.444 639.507 184.439 641.142 188.467L642.995 187.715ZM635.265 177.763C631.891 175.481 627.855 174.364 623.205 174.364V176.364C627.524 176.364 631.154 177.397 634.144 179.419L635.265 177.763ZM623.205 174.364C618.583 174.364 614.549 175.482 611.148 177.76L612.261 179.422C615.285 177.397 618.917 176.364 623.205 176.364V174.364ZM611.148 177.76C607.745 180.039 605.161 183.376 603.371 187.709L605.22 188.473C606.885 184.442 609.24 181.445 612.261 179.422L611.148 177.76ZM603.369 187.715C601.61 192.049 600.75 197.307 600.75 203.455H602.75C602.75 197.481 603.587 192.496 605.222 188.467L603.369 187.715ZM600.75 203.455C600.75 209.602 601.61 214.86 603.369 219.194L605.222 218.442C603.587 214.413 602.75 209.428 602.75 203.455H600.75ZM603.371 219.2C605.161 223.533 607.745 226.87 611.148 229.149L612.261 227.487C609.24 225.464 606.885 222.467 605.22 218.436L603.371 219.2ZM611.148 229.149C614.549 231.427 618.583 232.545 623.205 232.545V230.545C618.917 230.545 615.285 229.512 612.261 227.487L611.148 229.149ZM623.205 232.545C627.855 232.545 631.891 231.428 635.265 229.147L634.144 227.49C631.154 229.512 627.524 230.545 623.205 230.545V232.545ZM635.261 229.149C638.666 226.869 641.236 223.529 642.995 219.194L641.142 218.442C639.507 222.471 637.168 225.465 634.148 227.487L635.261 229.149ZM642.992 219.2C644.784 214.864 645.659 209.604 645.659 203.455H643.659C643.659 209.426 642.807 214.409 641.144 218.436L642.992 219.2ZM680.795 250H679.795V251H680.795V250ZM680.795 156.909V155.909H679.795V156.909H680.795ZM737.295 160.682L736.85 161.577L736.857 161.58L737.295 160.682ZM749.068 171.409L748.207 171.918L748.209 171.92L749.068 171.409ZM748.977 204.364L749.824 204.896L749.826 204.893L748.977 204.364ZM736.977 214.636L737.388 215.548L737.392 215.546L736.977 214.636ZM694.25 218.136H693.25V219.136H694.25V218.136ZM694.25 200.409V199.409H693.25V200.409H694.25ZM722.886 199.091L723.247 200.024L723.254 200.021L722.886 199.091ZM728.114 195L728.952 195.545L728.956 195.539L728.114 195ZM728.114 180.773L727.263 181.299L727.267 181.305L728.114 180.773ZM722.886 176.5L722.498 177.422L722.509 177.426L722.886 176.5ZM703.295 175.045V174.045H702.295V175.045H703.295ZM703.295 250V251H704.295V250H703.295ZM733.205 207.455L734.083 206.976L733.798 206.455H733.205V207.455ZM756.386 250V251H758.07L757.264 249.522L756.386 250ZM731.841 250L730.959 250.471L731.241 251H731.841V250ZM709.114 207.455V206.455H707.446L708.232 207.926L709.114 207.455ZM681.795 250V156.909H679.795V250H681.795ZM680.795 157.909H719.25V155.909H680.795V157.909ZM719.25 157.909C726.101 157.909 731.957 159.145 736.85 161.577L737.741 159.786C732.513 157.188 726.339 155.909 719.25 155.909V157.909ZM736.857 161.58C741.78 163.984 745.554 167.427 748.207 171.918L749.929 170.9C747.067 166.057 742.993 162.35 737.734 159.783L736.857 161.58ZM748.209 171.92C750.859 176.376 752.205 181.693 752.205 187.909H754.205C754.205 181.398 752.793 175.715 749.928 170.898L748.209 171.92ZM752.205 187.909C752.205 194.216 750.829 199.509 748.129 203.834L749.826 204.893C752.762 200.188 754.205 194.511 754.205 187.909H752.205ZM748.131 203.832C745.424 208.138 741.58 211.438 736.562 213.727L737.392 215.546C742.738 213.108 746.894 209.558 749.824 204.896L748.131 203.832ZM736.567 213.725C731.542 215.987 725.552 217.136 718.568 217.136V219.136C725.767 219.136 732.049 217.952 737.388 215.548L736.567 213.725ZM718.568 217.136H694.25V219.136H718.568V217.136ZM695.25 218.136V200.409H693.25V218.136H695.25ZM694.25 201.409H714.386V199.409H694.25V201.409ZM714.386 201.409C717.859 201.409 720.824 200.961 723.247 200.024L722.526 198.158C720.404 198.979 717.702 199.409 714.386 199.409V201.409ZM723.254 200.021C725.721 199.047 727.641 197.561 728.952 195.545L727.275 194.455C726.222 196.075 724.657 197.317 722.519 198.161L723.254 200.021ZM728.956 195.539C730.268 193.486 730.886 190.92 730.886 187.909H728.886C728.886 190.655 728.323 192.817 727.271 194.461L728.956 195.539ZM730.886 187.909C730.886 184.897 730.268 182.319 728.96 180.24L727.267 181.305C728.323 182.984 728.886 185.164 728.886 187.909H730.886ZM728.964 180.246C727.659 178.138 725.741 176.584 723.264 175.574L722.509 177.426C724.638 178.294 726.205 179.589 727.263 181.299L728.964 180.246ZM723.274 175.578C720.814 174.542 717.84 174.045 714.386 174.045V176.045C717.66 176.045 720.353 176.518 722.498 177.422L723.274 175.578ZM714.386 174.045H703.295V176.045H714.386V174.045ZM702.295 175.045V250H704.295V175.045H702.295ZM703.295 249H680.795V251H703.295V249ZM732.326 207.933L755.508 250.478L757.264 249.522L734.083 206.976L732.326 207.933ZM756.386 249H731.841V251H756.386V249ZM732.723 249.529L709.996 206.983L708.232 207.926L730.959 250.471L732.723 249.529ZM709.114 208.455H733.205V206.455H709.114V208.455ZM815.864 184.818L814.868 184.909L814.95 185.818H815.864V184.818ZM811.818 177.045L811.196 177.828L811.207 177.837L811.818 177.045ZM794.409 175.364L794.045 174.432L794.045 174.432L794.409 175.364ZM790.045 178.5L790.848 179.097L790.854 179.088L790.045 178.5ZM788.545 183L789.545 183.043L789.545 183.031L789.545 183.018L788.545 183ZM789.364 186.682L788.495 187.178L788.501 187.187L788.506 187.196L789.364 186.682ZM792.091 189.5L791.522 190.322L791.534 190.33L791.546 190.338L792.091 189.5ZM796.455 191.591L796.791 190.649L796.791 190.649L796.455 191.591ZM802.182 193.182L802.403 192.207L802.391 192.204L802.182 193.182ZM810.182 195L809.96 195.975L809.97 195.977L810.182 195ZM822.364 199L821.935 199.904L821.938 199.905L822.364 199ZM831.273 204.955L830.579 205.675L830.584 205.68L831.273 204.955ZM836.773 212.909L835.849 213.292L835.849 213.292L836.773 212.909ZM838.682 223L839.682 223.005L839.682 222.992L838.682 223ZM834.227 238.136L833.407 237.564L833.407 237.564L834.227 238.136ZM821.545 247.818L821.169 246.892L821.167 246.893L821.545 247.818ZM781.318 247.682L781.692 246.754L781.692 246.754L781.318 247.682ZM762.864 219V218H761.851L761.864 219.012L762.864 219ZM784.409 219L785.407 218.94L785.35 218H784.409V219ZM786.818 226.5L786.004 227.08L786.004 227.08L786.818 226.5ZM792.682 231.045L792.299 231.969L792.303 231.971L792.682 231.045ZM809.136 231.364L808.781 230.429L808.776 230.431L809.136 231.364ZM814.091 227.955L813.307 227.334L813.307 227.334L814.091 227.955ZM815.864 222.955L816.864 222.971L816.864 222.954L816.863 222.937L815.864 222.955ZM814.227 218.455L813.459 219.095L813.467 219.104L814.227 218.455ZM809.318 215.182L808.923 216.1L808.93 216.104L808.938 216.107L809.318 215.182ZM800.955 212.591L800.727 213.565L800.728 213.565L800.955 212.591ZM791.227 210.318L791.455 209.344L791.451 209.343L791.227 210.318ZM772.182 201.364L771.515 202.109L771.517 202.111L772.182 201.364ZM765.273 184.545L766.273 184.55L766.273 184.54L765.273 184.545ZM769.909 169.409L769.098 168.825L769.098 168.825L769.909 169.409ZM782.864 159.273L783.266 160.188L783.266 160.188L782.864 159.273ZM820.5 159.318L820.08 160.226L820.086 160.229L820.5 159.318ZM832.909 169.545L833.74 168.989L833.74 168.989L832.909 169.545ZM837.409 184.818V185.818H838.42L838.409 184.808L837.409 184.818ZM816.86 184.728C816.534 181.15 815.068 178.292 812.429 176.254L811.207 177.837C813.356 179.496 814.587 181.82 814.868 184.909L816.86 184.728ZM812.44 176.263C809.835 174.192 806.202 173.227 801.682 173.227V175.227C805.949 175.227 809.074 176.142 811.196 177.828L812.44 176.263ZM801.682 173.227C798.694 173.227 796.137 173.615 794.045 174.432L794.773 176.295C796.56 175.597 798.851 175.227 801.682 175.227V173.227ZM794.045 174.432C791.974 175.241 790.345 176.388 789.237 177.912L790.854 179.088C791.685 177.945 792.965 177.001 794.773 176.295L794.045 174.432ZM789.243 177.903C788.143 179.382 787.579 181.086 787.546 182.982L789.545 183.018C789.572 181.52 790.009 180.225 790.848 179.097L789.243 177.903ZM787.546 182.957C787.479 184.512 787.783 185.931 788.495 187.178L790.232 186.186C789.732 185.311 789.491 184.276 789.545 183.043L787.546 182.957ZM788.506 187.196C789.227 188.397 790.242 189.436 791.522 190.322L792.66 188.678C791.576 187.928 790.773 187.088 790.221 186.167L788.506 187.196ZM791.546 190.338C792.837 191.178 794.365 191.907 796.118 192.533L796.791 190.649C795.15 190.063 793.769 189.398 792.636 188.662L791.546 190.338ZM796.118 192.533C797.864 193.156 799.816 193.698 801.972 194.16L802.391 192.204C800.305 191.757 798.439 191.238 796.791 190.649L796.118 192.533ZM801.96 194.157L809.96 195.975L810.403 194.025L802.403 192.207L801.96 194.157ZM809.97 195.977C814.516 196.964 818.502 198.276 821.935 199.904L822.792 198.096C819.195 196.391 815.06 195.036 810.394 194.023L809.97 195.977ZM821.938 199.905C825.402 201.533 828.277 203.46 830.579 205.675L831.966 204.234C829.481 201.843 826.416 199.8 822.789 198.095L821.938 199.905ZM830.584 205.68C832.91 207.889 834.662 210.425 835.849 213.292L837.697 212.526C836.399 209.393 834.484 206.626 831.961 204.23L830.584 205.68ZM835.849 213.292C837.035 216.157 837.652 219.391 837.682 223.008L839.682 222.992C839.651 219.155 838.995 215.661 837.697 212.526L835.849 213.292ZM837.682 222.995C837.652 228.701 836.214 233.542 833.407 237.564L835.047 238.709C838.119 234.307 839.651 229.057 839.682 223.005L837.682 222.995ZM833.407 237.564C830.595 241.594 826.534 244.71 821.169 246.892L821.922 248.745C827.587 246.441 831.981 243.103 835.047 238.709L833.407 237.564ZM821.167 246.893C815.833 249.073 809.348 250.182 801.682 250.182V252.182C809.531 252.182 816.288 251.048 821.924 248.744L821.167 246.893ZM801.682 250.182C793.991 250.182 787.336 249.03 781.692 246.754L780.944 248.609C786.876 251.001 793.796 252.182 801.682 252.182V250.182ZM781.692 246.754C776.072 244.489 771.738 241.064 768.647 236.486L766.989 237.605C770.323 242.542 774.988 246.208 780.944 248.609L781.692 246.754ZM768.647 236.486C765.57 231.928 763.953 226.117 763.864 218.988L761.864 219.012C761.956 226.428 763.642 232.647 766.989 237.605L768.647 236.486ZM762.864 220H784.409V218H762.864V220ZM783.411 219.06C783.602 222.205 784.449 224.897 786.004 227.08L787.633 225.92C786.339 224.103 785.58 221.795 785.407 218.94L783.411 219.06ZM786.004 227.08C787.547 229.247 789.658 230.874 792.299 231.969L793.065 230.122C790.736 229.156 788.938 227.753 787.633 225.92L786.004 227.08ZM792.303 231.971C794.961 233.06 798.003 233.591 801.409 233.591V231.591C798.209 231.591 795.433 231.092 793.061 230.12L792.303 231.971ZM801.409 233.591C804.524 233.591 807.229 233.171 809.496 232.297L808.776 230.431C806.801 231.192 804.355 231.591 801.409 231.591V233.591ZM809.492 232.298C811.772 231.431 813.587 230.202 814.875 228.575L813.307 227.334C812.291 228.617 810.804 229.66 808.781 230.429L809.492 232.298ZM814.875 228.575C816.165 226.946 816.83 225.066 816.864 222.971L814.864 222.938C814.837 224.6 814.32 226.054 813.307 227.334L814.875 228.575ZM816.863 222.937C816.83 220.967 816.211 219.238 814.988 217.805L813.467 219.104C814.365 220.156 814.837 221.427 814.864 222.972L816.863 222.937ZM814.995 217.814C813.795 216.373 811.999 215.202 809.698 214.257L808.938 216.107C811.062 216.98 812.539 217.99 813.459 219.095L814.995 217.814ZM809.714 214.263C807.458 213.292 804.608 212.413 801.181 211.617L800.728 213.565C804.089 214.345 806.814 215.193 808.923 216.1L809.714 214.263ZM801.182 211.617L791.455 209.344L791 211.292L800.727 213.565L801.182 211.617ZM791.451 209.343C783.501 207.52 777.322 204.595 772.846 200.616L771.517 202.111C776.314 206.375 782.832 209.419 791.004 211.293L791.451 209.343ZM772.849 200.619C768.455 196.685 766.243 191.367 766.273 184.55L764.273 184.541C764.241 191.845 766.636 197.74 771.515 202.109L772.849 200.619ZM766.273 184.54C766.243 178.977 767.733 174.142 770.721 169.994L769.098 168.825C765.843 173.343 764.241 178.599 764.273 184.551L766.273 184.54ZM770.721 169.994C773.725 165.823 777.893 162.55 783.266 160.188L782.461 158.357C776.804 160.844 772.336 164.329 769.098 168.825L770.721 169.994ZM783.266 160.188C788.634 157.828 794.782 156.636 801.727 156.636V154.636C794.552 154.636 788.123 155.869 782.461 158.357L783.266 160.188ZM801.727 156.636C808.827 156.636 814.936 157.845 820.08 160.226L820.92 158.411C815.458 155.883 809.051 154.636 801.727 154.636V156.636ZM820.086 160.229C825.269 162.584 829.253 165.879 832.078 170.101L833.74 168.989C830.686 164.424 826.398 160.9 820.914 158.408L820.086 160.229ZM832.078 170.101C834.899 174.319 836.35 179.216 836.409 184.829L838.409 184.808C838.347 178.845 836.798 173.56 833.74 168.989L832.078 170.101ZM837.409 183.818H815.864V185.818H837.409V183.818Z" fill="black"/>
</svg>
