<svg width="839" height="252" viewBox="0 0 839 252" fill="none" xmlns="http://www.w3.org/2000/svg">
<path d="M1.04545 95H0.045455V96H1.04545V95ZM1.04545 1.90909V0.909088H0.045455V1.90909H1.04545ZM65.9545 1.90909H66.9545V0.909088H65.9545V1.90909ZM65.9545 20.1818V21.1818H66.9545V20.1818H65.9545ZM23.5455 20.1818V19.1818H22.5455V20.1818H23.5455ZM23.5455 39.2727H22.5455V40.2727H23.5455V39.2727ZM62.6364 39.2727H63.6364V38.2727H62.6364V39.2727ZM62.6364 57.5909V58.5909H63.6364V57.5909H62.6364ZM23.5455 57.5909V56.5909H22.5455V57.5909H23.5455ZM23.5455 76.7273H22.5455V77.7273H23.5455V76.7273ZM65.9545 76.7273H66.9545V75.7273H65.9545V76.7273ZM65.9545 95V96H66.9545V95H65.9545ZM2.04545 95V1.90909H0.045455V95H2.04545ZM1.04545 2.90909H65.9545V0.909088H1.04545V2.90909ZM64.9545 1.90909V20.1818H66.9545V1.90909H64.9545ZM65.9545 19.1818H23.5455V21.1818H65.9545V19.1818ZM22.5455 20.1818V39.2727H24.5455V20.1818H22.5455ZM23.5455 40.2727H62.6364V38.2727H23.5455V40.2727ZM61.6364 39.2727V57.5909H63.6364V39.2727H61.6364ZM62.6364 56.5909H23.5455V58.5909H62.6364V56.5909ZM22.5455 57.5909V76.7273H24.5455V57.5909H22.5455ZM23.5455 77.7273H65.9545V75.7273H23.5455V77.7273ZM64.9545 76.7273V95H66.9545V76.7273H64.9545ZM65.9545 94H1.04545V96H65.9545V94ZM124.727 39.9091H125.727V38.9091H124.727V39.9091ZM124.727 57V58H125.727V57H124.727ZM81.6364 57H80.6364V58H81.6364V57ZM81.6364 39.9091V38.9091H80.6364V39.9091H81.6364ZM123.727 39.9091V57H125.727V39.9091H123.727ZM124.727 56H81.6364V58H124.727V56ZM82.6364 57V39.9091H80.6364V57H82.6364ZM81.6364 40.9091H124.727V38.9091H81.6364V40.9091ZM224.92 35.6364V36.6364H226.023L225.916 35.539L224.92 35.6364ZM202.193 35.6364L201.202 35.7651L201.315 36.6364H202.193V35.6364ZM200.33 29.3182L199.435 29.7654L199.435 29.7654L200.33 29.3182ZM196.602 24.5L197.256 23.7428L197.256 23.7428L196.602 24.5ZM191.102 21.4545L190.774 22.399L190.782 22.4019L190.79 22.4046L191.102 21.4545ZM172.466 23.6818L171.906 22.8533L171.902 22.8558L172.466 23.6818ZM164.966 33.2727L164.044 32.8853L164.042 32.891L164.966 33.2727ZM165.011 64L164.089 64.3875L164.093 64.3955L165.011 64ZM172.511 73.4091L171.96 74.2436L171.969 74.2495L172.511 73.4091ZM190.784 75.5909L190.489 74.6354L190.485 74.6367L190.784 75.5909ZM196.193 72.8182L196.81 73.605L196.812 73.6035L196.193 72.8182ZM200.057 68.3182L199.19 67.8189L199.188 67.8237L200.057 68.3182ZM202.193 62.2727L202.199 61.2727L201.354 61.2677L201.208 62.0997L202.193 62.2727ZM224.92 62.4091L225.916 62.5042L226.02 61.4157L224.926 61.4091L224.92 62.4091ZM221.33 74.5909L220.435 74.1437L220.432 74.1491L221.33 74.5909ZM213.193 85.5455L213.881 86.2714L213.884 86.2682L213.193 85.5455ZM200.557 93.3636L200.193 92.4321L200.191 92.4328L200.557 93.3636ZM160.92 90.7273L160.431 91.5992L160.435 91.6018L160.92 90.7273ZM145.193 74.4545L146.073 73.9791L145.193 74.4545ZM145.284 22.4091L144.407 21.9279L144.407 21.9279L145.284 22.4091ZM199.193 3L198.881 3.94989L198.886 3.95165L199.193 3ZM211.83 9.81818L211.193 10.5896L211.197 10.5927L211.83 9.81818ZM224.92 34.6364H202.193V36.6364H224.92V34.6364ZM203.185 35.5076C202.869 33.0766 202.219 30.861 201.224 28.871L199.435 29.7654C200.319 31.533 200.911 33.5295 201.202 35.7651L203.185 35.5076ZM201.224 28.871C200.227 26.8775 198.904 25.1651 197.256 23.7428L195.949 25.2572C197.391 26.5016 198.553 28.0013 199.435 29.7654L201.224 28.871ZM197.256 23.7428C195.601 22.3156 193.649 21.2388 191.414 20.5045L190.79 22.4046C192.798 23.0643 194.512 24.0178 195.949 25.2572L197.256 23.7428ZM191.431 20.51C189.22 19.741 186.789 19.3636 184.148 19.3636V21.3636C186.598 21.3636 188.803 21.7136 190.774 22.399L191.431 20.51ZM184.148 19.3636C179.462 19.3636 175.367 20.514 171.906 22.8533L173.026 24.5103C176.11 22.4254 179.803 21.3636 184.148 21.3636V19.3636ZM171.902 22.8558C168.477 25.1926 165.864 28.5541 164.044 32.8853L165.888 33.6602C167.583 29.6277 169.97 26.5953 173.029 24.5079L171.902 22.8558ZM164.042 32.891C162.251 37.2253 161.375 42.4231 161.375 48.4545H163.375C163.375 42.6072 164.226 37.6838 165.89 33.6545L164.042 32.891ZM161.375 48.4545C161.375 54.7241 162.265 60.0472 164.089 64.3875L165.933 63.6125C164.242 59.5892 163.375 54.5486 163.375 48.4545H161.375ZM164.093 64.3955C165.944 68.6942 168.559 71.9973 171.96 74.2436L173.062 72.5746C170.04 70.5784 167.654 67.6088 165.93 63.6045L164.093 64.3955ZM171.969 74.2495C175.396 76.4592 179.424 77.5455 184.011 77.5455V75.5455C179.75 75.5455 176.111 74.5408 173.053 72.5687L171.969 74.2495ZM184.011 77.5455C186.581 77.5455 188.941 77.2164 191.083 76.5451L190.485 74.6367C188.566 75.2381 186.411 75.5455 184.011 75.5455V77.5455ZM191.079 76.5464C193.245 75.8775 195.16 74.8996 196.81 73.605L195.576 72.0313C194.136 73.161 192.444 74.0316 190.489 74.6354L191.079 76.5464ZM196.812 73.6035C198.49 72.2805 199.863 70.6815 200.926 68.8127L199.188 67.8237C198.251 69.47 197.048 70.871 195.574 72.0329L196.812 73.6035ZM200.923 68.8175C202.017 66.9187 202.766 64.7912 203.178 62.4458L201.208 62.0997C200.832 64.2391 200.157 66.1419 199.19 67.8189L200.923 68.8175ZM202.187 63.2727L224.914 63.4091L224.926 61.4091L202.199 61.2727L202.187 63.2727ZM223.925 62.3139C223.544 66.3031 222.384 70.2449 220.435 74.1437L222.224 75.0381C224.275 70.9369 225.509 66.7575 225.916 62.5042L223.925 62.3139ZM220.432 74.1491C218.518 78.0368 215.878 81.5947 212.502 84.8227L213.884 86.2682C217.417 82.8902 220.202 79.145 222.227 75.0327L220.432 74.1491ZM212.505 84.8195C209.155 87.9933 205.057 90.534 200.193 92.4321L200.92 94.2952C205.996 92.3145 210.322 89.6431 213.881 86.2714L212.505 84.8195ZM200.191 92.4328C195.39 94.3182 189.851 95.2727 183.557 95.2727V97.2727C190.051 97.2727 195.845 96.2879 200.922 94.2945L200.191 92.4328ZM183.557 95.2727C175.284 95.2727 167.909 93.459 161.405 89.8527L160.435 91.6018C167.266 95.3895 174.981 97.2727 183.557 97.2727V95.2727ZM161.41 89.8554C154.949 86.2267 149.837 80.945 146.073 73.9791L144.313 74.93C148.246 82.2065 153.619 87.7733 160.431 91.5992L161.41 89.8554ZM146.073 73.9791C142.321 67.0373 140.42 58.5432 140.42 48.4545H138.42C138.42 58.7901 140.368 67.6294 144.313 74.93L146.073 73.9791ZM140.42 48.4545C140.42 38.3373 142.351 29.8304 146.161 22.8903L144.407 21.9279C140.399 29.2302 138.42 38.0869 138.42 48.4545H140.42ZM146.161 22.8903C149.985 15.9232 155.142 10.6557 161.633 7.05635L160.663 5.30728C153.82 9.10186 148.401 14.6526 144.407 21.9279L146.161 22.8903ZM161.633 7.05635C168.138 3.44859 175.439 1.63636 183.557 1.63636V-0.36364C175.129 -0.36364 167.49 1.52111 160.663 5.30728L161.633 7.05635ZM183.557 1.63636C189.099 1.63636 194.205 2.41099 198.881 3.94988L199.506 2.05012C194.606 0.437488 189.287 -0.36364 183.557 -0.36364V1.63636ZM198.886 3.95165C203.562 5.46096 207.661 7.67516 211.193 10.5895L212.466 9.0468C208.726 5.96119 204.4 3.62994 199.5 2.04835L198.886 3.95165ZM211.197 10.5927C214.725 13.4736 217.595 17.0181 219.808 21.2372L221.579 20.3083C219.246 15.8607 216.207 12.1022 212.462 9.04364L211.197 10.5927ZM219.808 21.2372C222.012 25.441 223.39 30.2678 223.925 35.7337L225.916 35.539C225.36 29.8534 223.919 24.7711 221.579 20.3083L219.808 21.2372ZM237.795 95H236.795V96H237.795V95ZM237.795 1.90909V0.909088H236.795V1.90909H237.795ZM302.705 1.90909H303.705V0.909088H302.705V1.90909ZM302.705 20.1818V21.1818H303.705V20.1818H302.705ZM260.295 20.1818V19.1818H259.295V20.1818H260.295ZM260.295 39.2727H259.295V40.2727H260.295V39.2727ZM299.386 39.2727H300.386V38.2727H299.386V39.2727ZM299.386 57.5909V58.5909H300.386V57.5909H299.386ZM260.295 57.5909V56.5909H259.295V57.5909H260.295ZM260.295 76.7273H259.295V77.7273H260.295V76.7273ZM302.705 76.7273H303.705V75.7273H302.705V76.7273ZM302.705 95V96H303.705V95H302.705ZM238.795 95V1.90909H236.795V95H238.795ZM237.795 2.90909H302.705V0.909088H237.795V2.90909ZM301.705 1.90909V20.1818H303.705V1.90909H301.705ZM302.705 19.1818H260.295V21.1818H302.705V19.1818ZM259.295 20.1818V39.2727H261.295V20.1818H259.295ZM260.295 40.2727H299.386V38.2727H260.295V40.2727ZM298.386 39.2727V57.5909H300.386V39.2727H298.386ZM299.386 56.5909H260.295V58.5909H299.386V56.5909ZM259.295 57.5909V76.7273H261.295V57.5909H259.295ZM260.295 77.7273H302.705V75.7273H260.295V77.7273ZM301.705 76.7273V95H303.705V76.7273H301.705ZM302.705 94H237.795V96H302.705V94ZM316.795 95H315.795V96H316.795V95ZM316.795 1.90909V0.909088H315.795V1.90909H316.795ZM339.295 1.90909H340.295V0.909088H339.295V1.90909ZM339.295 76.7273H338.295V77.7273H339.295V76.7273ZM378.023 76.7273H379.023V75.7273H378.023V76.7273ZM378.023 95V96H379.023V95H378.023ZM317.795 95V1.90909H315.795V95H317.795ZM316.795 2.90909H339.295V0.909088H316.795V2.90909ZM338.295 1.90909V76.7273H340.295V1.90909H338.295ZM339.295 77.7273H378.023V75.7273H339.295V77.7273ZM377.023 76.7273V95H379.023V76.7273H377.023ZM378.023 94H316.795V96H378.023V94ZM389.67 95H388.67V96H389.67V95ZM389.67 1.90909V0.909088H388.67V1.90909H389.67ZM412.17 1.90909H413.17V0.909088H412.17V1.90909ZM412.17 76.7273H411.17V77.7273H412.17V76.7273ZM450.898 76.7273H451.898V75.7273H450.898V76.7273ZM450.898 95V96H451.898V95H450.898ZM390.67 95V1.90909H388.67V95H390.67ZM389.67 2.90909H412.17V0.909088H389.67V2.90909ZM411.17 1.90909V76.7273H413.17V1.90909H411.17ZM412.17 77.7273H450.898V75.7273H412.17V77.7273ZM449.898 76.7273V95H451.898V76.7273H449.898ZM450.898 94H389.67V96H450.898V94ZM574.545 35.6364V36.6364H575.648L575.541 35.539L574.545 35.6364ZM551.818 35.6364L550.827 35.7651L550.94 36.6364H551.818V35.6364ZM549.955 29.3182L549.06 29.7654L549.06 29.7654L549.955 29.3182ZM546.227 24.5L546.881 23.7428L546.881 23.7428L546.227 24.5ZM540.727 21.4545L540.399 22.399L540.407 22.4019L540.415 22.4046L540.727 21.4545ZM522.091 23.6818L521.531 22.8533L521.527 22.8558L522.091 23.6818ZM514.591 33.2727L513.669 32.8853L513.667 32.891L514.591 33.2727ZM514.636 64L513.714 64.3875L513.718 64.3955L514.636 64ZM522.136 73.4091L521.585 74.2436L521.594 74.2495L522.136 73.4091ZM540.409 75.5909L540.114 74.6354L540.11 74.6367L540.409 75.5909ZM545.818 72.8182L546.435 73.605L546.437 73.6035L545.818 72.8182ZM549.682 68.3182L548.815 67.8189L548.813 67.8237L549.682 68.3182ZM551.818 62.2727L551.824 61.2727L550.979 61.2677L550.833 62.0997L551.818 62.2727ZM574.545 62.4091L575.541 62.5042L575.645 61.4157L574.551 61.4091L574.545 62.4091ZM570.955 74.5909L570.06 74.1437L570.057 74.1491L570.955 74.5909ZM562.818 85.5455L563.506 86.2714L563.509 86.2682L562.818 85.5455ZM550.182 93.3636L549.818 92.4321L549.816 92.4328L550.182 93.3636ZM510.545 90.7273L510.056 91.5992L510.06 91.6018L510.545 90.7273ZM494.818 74.4545L495.698 73.9791L494.818 74.4545ZM494.909 22.4091L494.032 21.9279L494.032 21.9279L494.909 22.4091ZM548.818 3L548.506 3.94989L548.511 3.95165L548.818 3ZM561.455 9.81818L560.818 10.5896L560.822 10.5927L561.455 9.81818ZM574.545 34.6364H551.818V36.6364H574.545V34.6364ZM552.81 35.5076C552.494 33.0766 551.844 30.861 550.849 28.871L549.06 29.7654C549.944 31.533 550.536 33.5295 550.827 35.7651L552.81 35.5076ZM550.849 28.871C549.852 26.8775 548.529 25.1651 546.881 23.7428L545.574 25.2572C547.016 26.5016 548.178 28.0013 549.06 29.7654L550.849 28.871ZM546.881 23.7428C545.226 22.3156 543.274 21.2388 541.039 20.5045L540.415 22.4046C542.423 23.0643 544.137 24.0178 545.574 25.2572L546.881 23.7428ZM541.056 20.51C538.845 19.741 536.414 19.3636 533.773 19.3636V21.3636C536.223 21.3636 538.428 21.7136 540.399 22.399L541.056 20.51ZM533.773 19.3636C529.087 19.3636 524.992 20.514 521.531 22.8533L522.651 24.5103C525.735 22.4254 529.428 21.3636 533.773 21.3636V19.3636ZM521.527 22.8558C518.102 25.1926 515.489 28.5541 513.669 32.8853L515.513 33.6602C517.208 29.6277 519.595 26.5953 522.654 24.5079L521.527 22.8558ZM513.667 32.891C511.876 37.2253 511 42.4231 511 48.4545H513C513 42.6072 513.851 37.6838 515.515 33.6545L513.667 32.891ZM511 48.4545C511 54.7241 511.89 60.0472 513.714 64.3875L515.558 63.6125C513.867 59.5892 513 54.5486 513 48.4545H511ZM513.718 64.3955C515.569 68.6942 518.184 71.9973 521.585 74.2436L522.687 72.5746C519.665 70.5784 517.279 67.6088 515.555 63.6045L513.718 64.3955ZM521.594 74.2495C525.021 76.4592 529.049 77.5455 533.636 77.5455V75.5455C529.375 75.5455 525.736 74.5408 522.678 72.5687L521.594 74.2495ZM533.636 77.5455C536.206 77.5455 538.566 77.2164 540.708 76.5451L540.11 74.6367C538.191 75.2381 536.036 75.5455 533.636 75.5455V77.5455ZM540.704 76.5464C542.87 75.8775 544.785 74.8996 546.435 73.605L545.201 72.0313C543.761 73.161 542.069 74.0316 540.114 74.6354L540.704 76.5464ZM546.437 73.6035C548.115 72.2805 549.488 70.6815 550.551 68.8127L548.813 67.8237C547.876 69.47 546.673 70.871 545.199 72.0329L546.437 73.6035ZM550.548 68.8175C551.642 66.9187 552.391 64.7912 552.803 62.4458L550.833 62.0997C550.457 64.2391 549.782 66.1419 548.815 67.8189L550.548 68.8175ZM551.812 63.2727L574.539 63.4091L574.551 61.4091L551.824 61.2727L551.812 63.2727ZM573.55 62.3139C573.169 66.3031 572.009 70.2449 570.06 74.1437L571.849 75.0381C573.9 70.9369 575.134 66.7575 575.541 62.5042L573.55 62.3139ZM570.057 74.1491C568.143 78.0368 565.503 81.5947 562.127 84.8227L563.509 86.2682C567.042 82.8902 569.827 79.145 571.852 75.0327L570.057 74.1491ZM562.13 84.8195C558.78 87.9933 554.682 90.534 549.818 92.4321L550.545 94.2952C555.621 92.3145 559.947 89.6431 563.506 86.2714L562.13 84.8195ZM549.816 92.4328C545.015 94.3182 539.476 95.2727 533.182 95.2727V97.2727C539.676 97.2727 545.47 96.2879 550.547 94.2945L549.816 92.4328ZM533.182 95.2727C524.909 95.2727 517.534 93.459 511.03 89.8527L510.06 91.6018C516.891 95.3895 524.606 97.2727 533.182 97.2727V95.2727ZM511.035 89.8554C504.574 86.2267 499.462 80.945 495.698 73.9791L493.938 74.93C497.871 82.2065 503.244 87.7733 510.056 91.5992L511.035 89.8554ZM495.698 73.9791C491.946 67.0373 490.045 58.5432 490.045 48.4545H488.045C488.045 58.7901 489.993 67.6294 493.938 74.93L495.698 73.9791ZM490.045 48.4545C490.045 38.3373 491.976 29.8304 495.786 22.8903L494.032 21.9279C490.024 29.2302 488.045 38.0869 488.045 48.4545H490.045ZM495.786 22.8903C499.61 15.9232 504.767 10.6557 511.258 7.05635L510.288 5.30728C503.445 9.10186 498.026 14.6526 494.032 21.9279L495.786 22.8903ZM511.258 7.05635C517.763 3.44859 525.064 1.63636 533.182 1.63636V-0.36364C524.754 -0.36364 517.115 1.52111 510.288 5.30728L511.258 7.05635ZM533.182 1.63636C538.724 1.63636 543.83 2.41099 548.506 3.94988L549.131 2.05012C544.231 0.437488 538.912 -0.36364 533.182 -0.36364V1.63636ZM548.511 3.95165C553.187 5.46096 557.286 7.67516 560.818 10.5895L562.091 9.0468C558.351 5.96119 554.025 3.62994 549.125 2.04835L548.511 3.95165ZM560.822 10.5927C564.35 13.4736 567.22 17.0181 569.433 21.2372L571.204 20.3083C568.871 15.8607 565.832 12.1022 562.087 9.04364L560.822 10.5927ZM569.433 21.2372C571.637 25.441 573.015 30.2678 573.55 35.7337L575.541 35.539C574.985 29.8534 573.544 24.7711 571.204 20.3083L569.433 21.2372ZM669.375 74.5L668.5 74.0159L668.5 74.0159L669.375 74.5ZM653.375 90.7273L652.893 89.8509L652.892 89.8518L653.375 90.7273ZM608.239 90.6818L608.725 89.808L608.725 89.808L608.239 90.6818ZM592.284 74.4545L591.407 74.9358L591.41 74.9402L592.284 74.4545ZM592.284 22.4091L591.409 21.925L591.407 21.9279L592.284 22.4091ZM608.239 6.18182L608.722 7.05728L608.722 7.05728L608.239 6.18182ZM653.375 6.18182L652.892 7.05728L652.893 7.0582L653.375 6.18182ZM669.375 22.4091L668.5 22.8931L668.5 22.8931L669.375 22.4091ZM649.693 33.0909L648.767 33.4669L648.769 33.4727L649.693 33.0909ZM642.33 23.5909L641.769 24.4193L641.773 24.4217L642.33 23.5909ZM619.33 23.5909L619.886 24.4217L619.886 24.4217L619.33 23.5909ZM611.92 33.0909L610.996 32.7091L610.994 32.7149L611.92 33.0909ZM611.92 63.8182L610.994 64.1942L610.996 64.1999L611.92 63.8182ZM619.33 73.3182L619.886 72.4873L619.886 72.4873L619.33 73.3182ZM642.33 73.3182L641.773 72.4873L641.769 72.4898L642.33 73.3182ZM649.693 63.8182L648.769 63.4364L648.767 63.4422L649.693 63.8182ZM674.284 48.4545C674.284 58.5706 672.339 67.0765 668.5 74.0159L670.25 74.9841C674.29 67.6811 676.284 58.8233 676.284 48.4545H674.284ZM668.5 74.0159C664.646 80.9823 659.445 86.2505 652.893 89.8509L653.857 91.6037C660.76 87.8101 666.225 82.2602 670.25 74.9841L668.5 74.0159ZM652.892 89.8518C646.356 93.4599 639.009 95.2727 630.83 95.2727V97.2727C639.316 97.2727 647 95.3886 653.858 91.6027L652.892 89.8518ZM630.83 95.2727C622.62 95.2727 615.26 93.4451 608.725 89.808L607.752 91.5556C614.611 95.3731 622.312 97.2727 630.83 97.2727V95.2727ZM608.725 89.808C602.201 86.1768 597.013 80.9067 593.158 73.9689L591.41 74.9402C595.434 82.1842 600.883 87.7323 607.752 91.5556L608.725 89.808ZM593.161 73.9733C589.351 67.0328 587.42 58.5409 587.42 48.4545H585.42C585.42 58.7924 587.399 67.6338 591.407 74.9357L593.161 73.9733ZM587.42 48.4545C587.42 38.3373 589.351 29.8304 593.161 22.8903L591.407 21.9279C587.399 29.2302 585.42 38.0869 585.42 48.4545H587.42ZM593.159 22.8931C597.013 15.9257 602.2 10.6574 608.722 7.05728L607.755 5.30635C600.883 9.1002 595.434 14.6501 591.409 21.925L593.159 22.8931ZM608.722 7.05728C615.257 3.44947 622.619 1.63636 630.83 1.63636V-0.36364C622.313 -0.36364 614.614 1.52022 607.755 5.30635L608.722 7.05728ZM630.83 1.63636C639.009 1.63636 646.356 3.44918 652.892 7.05728L653.858 5.30635C647 1.52051 639.316 -0.36364 630.83 -0.36364V1.63636ZM652.893 7.0582C659.445 10.6586 664.646 15.9268 668.5 22.8931L670.25 21.925C666.225 14.6489 660.76 9.09896 653.857 5.30543L652.893 7.0582ZM668.5 22.8931C672.339 29.8326 674.284 38.3384 674.284 48.4545H676.284C676.284 38.0858 674.29 29.228 670.25 21.925L668.5 22.8931ZM653.284 48.4545C653.284 42.3049 652.409 37.0456 650.617 32.7091L648.769 33.4727C650.432 37.4999 651.284 42.483 651.284 48.4545H653.284ZM650.62 32.7149C648.861 28.3797 646.291 25.0405 642.886 22.7601L641.773 24.4217C644.793 26.4444 647.132 29.4385 648.767 33.4669L650.62 32.7149ZM642.89 22.7625C639.516 20.4814 635.48 19.3636 630.83 19.3636V21.3636C635.149 21.3636 638.779 22.3974 641.769 24.4193L642.89 22.7625ZM630.83 19.3636C626.208 19.3636 622.174 20.4822 618.773 22.7601L619.886 24.4217C622.91 22.3966 626.542 21.3636 630.83 21.3636V19.3636ZM618.773 22.7601C615.37 25.0393 612.786 28.3764 610.996 32.7091L612.845 33.4727C614.51 29.4418 616.865 26.4455 619.886 24.4217L618.773 22.7601ZM610.994 32.7149C609.235 37.0495 608.375 42.3067 608.375 48.4545H610.375C610.375 42.4812 611.212 37.496 612.847 33.4669L610.994 32.7149ZM608.375 48.4545C608.375 54.6024 609.235 59.8596 610.994 64.1942L612.847 63.4422C611.212 59.4131 610.375 54.4279 610.375 48.4545H608.375ZM610.996 64.1999C612.786 68.5327 615.37 71.8697 618.773 74.149L619.886 72.4873C616.865 70.4636 614.51 67.4673 612.845 63.4364L610.996 64.1999ZM618.773 74.149C622.174 76.4269 626.208 77.5455 630.83 77.5455V75.5455C626.542 75.5455 622.91 74.5125 619.886 72.4873L618.773 74.149ZM630.83 77.5455C635.48 77.5455 639.516 76.4277 642.89 74.1466L641.769 72.4898C638.779 74.5117 635.149 75.5455 630.83 75.5455V77.5455ZM642.886 74.149C646.291 71.8686 648.861 68.5294 650.62 64.1942L648.767 63.4422C647.132 67.4706 644.793 70.4647 641.773 72.4873L642.886 74.149ZM650.617 64.1999C652.409 59.8635 653.284 54.6042 653.284 48.4545H651.284C651.284 54.4261 650.432 59.4092 648.769 63.4364L650.617 64.1999ZM733.102 39.9091H734.102V38.9091H733.102V39.9091ZM733.102 57V58H734.102V57H733.102ZM690.011 57H689.011V58H690.011V57ZM690.011 39.9091V38.9091H689.011V39.9091H690.011ZM732.102 39.9091V57H734.102V39.9091H732.102ZM733.102 56H690.011V58H733.102V56ZM691.011 57V39.9091H689.011V57H691.011ZM690.011 40.9091H733.102V38.9091H690.011V40.9091ZM83 229.5L82.125 229.016L82.125 229.016L83 229.5ZM67 245.727L66.5184 244.851L66.5167 244.852L67 245.727ZM21.8636 245.682L22.35 244.808L22.35 244.808L21.8636 245.682ZM5.90909 229.455L5.03247 229.936L5.03493 229.94L5.90909 229.455ZM5.90909 177.409L5.03405 176.925L5.03248 176.928L5.90909 177.409ZM21.8636 161.182L22.3469 162.057L22.3469 162.057L21.8636 161.182ZM67 161.182L66.5167 162.057L66.5184 162.058L67 161.182ZM83 177.409L82.125 177.893L82.125 177.893L83 177.409ZM63.3182 188.091L62.3916 188.467L62.3939 188.473L63.3182 188.091ZM55.9545 178.591L55.3944 179.419L55.398 179.422L55.9545 178.591ZM32.9545 178.591L33.5111 179.422L33.5111 179.422L32.9545 178.591ZM25.5455 188.091L24.6212 187.709L24.6188 187.715L25.5455 188.091ZM25.5455 218.818L24.6188 219.194L24.6212 219.2L25.5455 218.818ZM32.9545 228.318L33.5111 227.487L33.5111 227.487L32.9545 228.318ZM55.9545 228.318L55.398 227.487L55.3944 227.49L55.9545 228.318ZM63.3182 218.818L62.3939 218.436L62.3916 218.442L63.3182 218.818ZM87.9091 203.455C87.9091 213.571 85.9638 222.076 82.125 229.016L83.875 229.984C87.915 222.681 89.9091 213.823 89.9091 203.455H87.9091ZM82.125 229.016C78.2713 235.982 73.07 241.25 66.5184 244.851L67.4816 246.604C74.3846 242.81 79.85 237.26 83.875 229.984L82.125 229.016ZM66.5167 244.852C59.9807 248.46 52.6344 250.273 44.4545 250.273V252.273C52.9414 252.273 60.6253 250.389 67.4833 246.603L66.5167 244.852ZM44.4545 250.273C36.2452 250.273 28.8849 248.445 22.35 244.808L21.3773 246.556C28.2363 250.373 35.9366 252.273 44.4545 252.273V250.273ZM22.35 244.808C15.8256 241.177 10.6376 235.907 6.78325 228.969L5.03493 229.94C9.05936 237.184 14.5077 242.732 21.3773 246.556L22.35 244.808ZM6.7857 228.973C2.9758 222.033 1.04545 213.541 1.04545 203.455H-0.954545C-0.954545 213.792 1.0242 222.634 5.03248 229.936L6.7857 228.973ZM1.04545 203.455C1.04545 193.337 2.97602 184.83 6.7857 177.89L5.03248 176.928C1.02398 184.23 -0.954545 193.087 -0.954545 203.455H1.04545ZM6.78412 177.893C10.6385 170.926 15.8254 165.657 22.3469 162.057L21.3804 160.306C14.5079 164.1 9.0585 169.65 5.03406 176.925L6.78412 177.893ZM22.3469 162.057C28.8824 158.449 36.2438 156.636 44.4545 156.636V154.636C35.9381 154.636 28.2388 156.52 21.3804 160.306L22.3469 162.057ZM44.4545 156.636C52.6344 156.636 59.9807 158.449 66.5167 162.057L67.4833 160.306C60.6253 156.521 52.9414 154.636 44.4545 154.636V156.636ZM66.5184 162.058C73.07 165.659 78.2713 170.927 82.125 177.893L83.875 176.925C79.85 169.649 74.3846 164.099 67.4816 160.305L66.5184 162.058ZM82.125 177.893C85.9638 184.833 87.9091 193.338 87.9091 203.455H89.9091C89.9091 193.086 87.915 184.228 83.875 176.925L82.125 177.893ZM66.9091 203.455C66.9091 197.305 66.0336 192.046 64.2424 187.709L62.3939 188.473C64.0573 192.5 64.9091 197.483 64.9091 203.455H66.9091ZM64.2448 187.715C62.4856 183.38 59.9156 180.04 56.5111 177.76L55.398 179.422C58.4177 181.444 60.7569 184.439 62.3916 188.467L64.2448 187.715ZM56.5147 177.763C53.1412 175.481 49.1047 174.364 44.4545 174.364V176.364C48.774 176.364 52.4043 177.397 55.3944 179.419L56.5147 177.763ZM44.4545 174.364C39.8328 174.364 35.7988 175.482 32.398 177.76L33.5111 179.422C36.5345 177.397 40.1672 176.364 44.4545 176.364V174.364ZM32.398 177.76C28.9952 180.039 26.4108 183.376 24.6212 187.709L26.4697 188.473C28.1347 184.442 30.4897 181.445 33.5111 179.422L32.398 177.76ZM24.6188 187.715C22.8599 192.049 22 197.307 22 203.455H24C24 197.481 24.8371 192.496 26.4721 188.467L24.6188 187.715ZM22 203.455C22 209.602 22.8599 214.86 24.6188 219.194L26.4721 218.442C24.8371 214.413 24 209.428 24 203.455H22ZM24.6212 219.2C26.4108 223.533 28.9952 226.87 32.398 229.149L33.5111 227.487C30.4897 225.464 28.1347 222.467 26.4697 218.436L24.6212 219.2ZM32.398 229.149C35.7988 231.427 39.8328 232.545 44.4545 232.545V230.545C40.1672 230.545 36.5345 229.512 33.5111 227.487L32.398 229.149ZM44.4545 232.545C49.1047 232.545 53.1412 231.428 56.5147 229.147L55.3944 227.49C52.4043 229.512 48.774 230.545 44.4545 230.545V232.545ZM56.5111 229.149C59.9156 226.869 62.4856 223.529 64.2448 219.194L62.3916 218.442C60.7569 222.471 58.4177 225.465 55.398 227.487L56.5111 229.149ZM64.2424 219.2C66.0336 214.864 66.9091 209.604 66.9091 203.455H64.9091C64.9091 209.426 64.0573 214.409 62.3939 218.436L64.2424 219.2ZM102.045 250H101.045V251H102.045V250ZM102.045 156.909V155.909H101.045V156.909H102.045ZM158.545 160.682L158.1 161.577L158.107 161.58L158.545 160.682ZM170.318 171.409L169.457 171.918L169.459 171.92L170.318 171.409ZM170.227 204.364L171.074 204.896L171.076 204.893L170.227 204.364ZM158.227 214.636L158.638 215.548L158.642 215.546L158.227 214.636ZM115.5 218.136H114.5V219.136H115.5V218.136ZM115.5 200.409V199.409H114.5V200.409H115.5ZM144.136 199.091L144.497 200.024L144.504 200.021L144.136 199.091ZM149.364 195L150.202 195.545L150.206 195.539L149.364 195ZM149.364 180.773L148.513 181.299L148.517 181.305L149.364 180.773ZM144.136 176.5L143.748 177.422L143.759 177.426L144.136 176.5ZM124.545 175.045V174.045H123.545V175.045H124.545ZM124.545 250V251H125.545V250H124.545ZM154.455 207.455L155.333 206.976L155.048 206.455H154.455V207.455ZM177.636 250V251H179.32L178.514 249.522L177.636 250ZM153.091 250L152.209 250.471L152.491 251H153.091V250ZM130.364 207.455V206.455H128.696L129.482 207.926L130.364 207.455ZM103.045 250V156.909H101.045V250H103.045ZM102.045 157.909H140.5V155.909H102.045V157.909ZM140.5 157.909C147.351 157.909 153.207 159.145 158.1 161.577L158.991 159.786C153.763 157.188 147.589 155.909 140.5 155.909V157.909ZM158.107 161.58C163.03 163.984 166.804 167.427 169.457 171.918L171.179 170.9C168.317 166.057 164.243 162.35 158.984 159.783L158.107 161.58ZM169.459 171.92C172.109 176.376 173.455 181.693 173.455 187.909H175.455C175.455 181.398 174.043 175.715 171.178 170.898L169.459 171.92ZM173.455 187.909C173.455 194.216 172.079 199.509 169.379 203.834L171.076 204.893C174.012 200.188 175.455 194.511 175.455 187.909H173.455ZM169.381 203.832C166.674 208.138 162.83 211.438 157.812 213.727L158.642 215.546C163.988 213.108 168.144 209.558 171.074 204.896L169.381 203.832ZM157.817 213.725C152.792 215.987 146.802 217.136 139.818 217.136V219.136C147.017 219.136 153.299 217.952 158.638 215.548L157.817 213.725ZM139.818 217.136H115.5V219.136H139.818V217.136ZM116.5 218.136V200.409H114.5V218.136H116.5ZM115.5 201.409H135.636V199.409H115.5V201.409ZM135.636 201.409C139.109 201.409 142.074 200.961 144.497 200.024L143.776 198.158C141.654 198.979 138.952 199.409 135.636 199.409V201.409ZM144.504 200.021C146.971 199.047 148.891 197.561 150.202 195.545L148.525 194.455C147.472 196.075 145.907 197.317 143.769 198.161L144.504 200.021ZM150.206 195.539C151.518 193.486 152.136 190.92 152.136 187.909H150.136C150.136 190.655 149.573 192.817 148.521 194.461L150.206 195.539ZM152.136 187.909C152.136 184.897 151.518 182.319 150.21 180.24L148.517 181.305C149.573 182.984 150.136 185.164 150.136 187.909H152.136ZM150.214 180.246C148.909 178.138 146.991 176.584 144.514 175.574L143.759 177.426C145.888 178.294 147.455 179.589 148.513 181.299L150.214 180.246ZM144.524 175.578C142.064 174.542 139.09 174.045 135.636 174.045V176.045C138.91 176.045 141.603 176.518 143.748 177.422L144.524 175.578ZM135.636 174.045H124.545V176.045H135.636V174.045ZM123.545 175.045V250H125.545V175.045H123.545ZM124.545 249H102.045V251H124.545V249ZM153.576 207.933L176.758 250.478L178.514 249.522L155.333 206.976L153.576 207.933ZM177.636 249H153.091V251H177.636V249ZM153.973 249.529L131.246 206.983L129.482 207.926L152.209 250.471L153.973 249.529ZM130.364 208.455H154.455V206.455H130.364V208.455ZM186.795 250H185.795V251H186.795V250ZM186.795 156.909V155.909H185.795V156.909H186.795ZM245.659 162.5L245.181 163.378L245.186 163.381L245.659 162.5ZM261.568 178.5L260.686 178.972L260.687 178.973L261.568 178.5ZM261.568 228.409L260.686 227.938L260.685 227.94L261.568 228.409ZM245.705 244.455L246.178 245.335L246.181 245.334L245.705 244.455ZM209.295 230.818H208.295V231.818H209.295V230.818ZM233.568 228.182L234.006 229.081L234.009 229.079L233.568 228.182ZM241.795 219.5L240.889 219.077L240.888 219.081L241.795 219.5ZM241.795 187.409L240.89 187.834L240.892 187.837L241.795 187.409ZM233.477 178.773L233.036 179.67L233.045 179.674L233.477 178.773ZM209.295 176.091V175.091H208.295V176.091H209.295ZM221.205 249H186.795V251H221.205V249ZM187.795 250V156.909H185.795V250H187.795ZM186.795 157.909H221.159V155.909H186.795V157.909ZM221.159 157.909C230.513 157.909 238.508 159.746 245.181 163.378L246.137 161.622C239.113 157.799 230.775 155.909 221.159 155.909V157.909ZM245.186 163.381C251.889 166.983 257.051 172.173 260.686 178.972L262.45 178.028C258.631 170.887 253.187 165.411 246.133 161.619L245.186 163.381ZM260.687 178.973C264.321 185.738 266.159 193.87 266.159 203.409H268.159C268.159 193.614 266.27 185.141 262.449 178.027L260.687 178.973ZM266.159 203.409C266.159 212.978 264.32 221.142 260.686 227.938L262.45 228.881C266.271 221.737 268.159 213.234 268.159 203.409H266.159ZM260.685 227.94C257.079 234.738 251.932 239.943 245.228 243.575L246.181 245.334C253.234 241.512 258.663 236.02 262.452 228.878L260.685 227.94ZM245.231 243.574C238.526 247.178 230.528 249 221.205 249V251C230.79 251 239.126 249.125 246.178 245.335L245.231 243.574ZM209.295 231.818H220.341V229.818H209.295V231.818ZM220.341 231.818C225.661 231.818 230.229 230.922 234.006 229.081L233.13 227.283C229.695 228.957 225.445 229.818 220.341 229.818V231.818ZM234.009 229.079C237.87 227.181 240.768 224.108 242.703 219.919L240.888 219.081C239.126 222.892 236.539 225.607 233.127 227.284L234.009 229.079ZM242.702 219.923C244.665 215.71 245.614 210.185 245.614 203.409H243.614C243.614 210.027 242.683 215.229 240.889 219.077L242.702 219.923ZM245.614 203.409C245.614 196.635 244.666 191.136 242.699 186.981L240.892 187.837C242.683 191.621 243.614 196.79 243.614 203.409H245.614ZM242.701 186.984C240.733 182.795 237.803 179.737 233.91 177.871L233.045 179.674C236.485 181.324 239.1 184.023 240.89 187.834L242.701 186.984ZM233.918 177.875C230.109 176.002 225.463 175.091 220.023 175.091V177.091C225.249 177.091 229.573 177.968 233.036 179.67L233.918 177.875ZM220.023 175.091H209.295V177.091H220.023V175.091ZM208.295 176.091V230.818H210.295V176.091H208.295ZM302.795 156.909H303.795V155.909H302.795V156.909ZM302.795 250V251H303.795V250H302.795ZM280.295 250H279.295V251H280.295V250ZM280.295 156.909V155.909H279.295V156.909H280.295ZM301.795 156.909V250H303.795V156.909H301.795ZM302.795 249H280.295V251H302.795V249ZM281.295 250V156.909H279.295V250H281.295ZM280.295 157.909H302.795V155.909H280.295V157.909ZM396.148 156.909H397.148V155.909H396.148V156.909ZM396.148 250V251H397.148V250H396.148ZM377.057 250L376.234 250.568L376.532 251H377.057V250ZM340.011 196.273L340.835 195.705L340.537 195.273H340.011V196.273ZM339.42 196.273V195.273H338.42V196.273H339.42ZM339.42 250V251H340.42V250H339.42ZM316.92 250H315.92V251H316.92V250ZM316.92 156.909V155.909H315.92V156.909H316.92ZM336.284 156.909L337.11 156.345L336.812 155.909H336.284V156.909ZM372.92 210.545L372.095 211.109L372.392 211.545H372.92V210.545ZM373.693 210.545V211.545H374.693V210.545H373.693ZM373.693 156.909V155.909H372.693V156.909H373.693ZM395.148 156.909V250H397.148V156.909H395.148ZM396.148 249H377.057V251H396.148V249ZM377.88 249.432L340.835 195.705L339.188 196.84L376.234 250.568L377.88 249.432ZM340.011 195.273H339.42V197.273H340.011V195.273ZM338.42 196.273V250H340.42V196.273H338.42ZM339.42 249H316.92V251H339.42V249ZM317.92 250V156.909H315.92V250H317.92ZM316.92 157.909H336.284V155.909H316.92V157.909ZM335.458 157.473L372.095 211.109L373.746 209.981L337.11 156.345L335.458 157.473ZM372.92 211.545H373.693V209.545H372.92V211.545ZM374.693 210.545V156.909H372.693V210.545H374.693ZM373.693 157.909H396.148V155.909H373.693V157.909ZM430.432 250V251H431.166L431.386 250.299L430.432 250ZM406.25 250L405.302 249.68L404.857 251H406.25V250ZM437.659 156.909V155.909H436.941L436.712 156.589L437.659 156.909ZM467.614 156.909L468.561 156.589L468.332 155.909H467.614V156.909ZM499.023 250V251H500.416L499.97 249.68L499.023 250ZM474.841 250L473.887 250.3L474.107 251H474.841V250ZM452.977 180.364L453.931 180.064L453.711 179.364H452.977V180.364ZM452.25 180.364V179.364H451.515L451.296 180.065L452.25 180.364ZM427.205 213.364V212.364H426.205V213.364H427.205ZM477.75 213.364H478.75V212.364H477.75V213.364ZM477.75 230.455V231.455H478.75V230.455H477.75ZM427.205 230.455H426.205V231.455H427.205V230.455ZM430.432 249H406.25V251H430.432V249ZM407.198 250.32L438.607 157.229L436.712 156.589L405.302 249.68L407.198 250.32ZM437.659 157.909H467.614V155.909H437.659V157.909ZM466.666 157.229L498.075 250.32L499.97 249.68L468.561 156.589L466.666 157.229ZM499.023 249H474.841V251H499.023V249ZM475.795 249.7L453.931 180.064L452.023 180.663L473.887 250.3L475.795 249.7ZM452.977 179.364H452.25V181.364H452.977V179.364ZM451.296 180.065L429.478 249.701L431.386 250.299L453.204 180.663L451.296 180.065ZM427.205 214.364H477.75V212.364H427.205V214.364ZM476.75 213.364V230.455H478.75V213.364H476.75ZM477.75 229.455H427.205V231.455H477.75V229.455ZM428.205 230.455V213.364H426.205V230.455H428.205ZM494.375 175.182H493.375V176.182H494.375V175.182ZM494.375 156.909V155.909H493.375V156.909H494.375ZM573.057 156.909H574.057V155.909H573.057V156.909ZM573.057 175.182V176.182H574.057V175.182H573.057ZM544.83 175.182V174.182H543.83V175.182H544.83ZM544.83 250V251H545.83V250H544.83ZM522.648 250H521.648V251H522.648V250ZM522.648 175.182H523.648V174.182H522.648V175.182ZM495.375 175.182V156.909H493.375V175.182H495.375ZM494.375 157.909H573.057V155.909H494.375V157.909ZM572.057 156.909V175.182H574.057V156.909H572.057ZM573.057 174.182H544.83V176.182H573.057V174.182ZM543.83 175.182V250H545.83V175.182H543.83ZM544.83 249H522.648V251H544.83V249ZM523.648 250V175.182H521.648V250H523.648ZM522.648 174.182H494.375V176.182H522.648V174.182ZM661.75 229.5L660.875 229.016L660.875 229.016L661.75 229.5ZM645.75 245.727L645.268 244.851L645.267 244.852L645.75 245.727ZM600.614 245.682L601.1 244.808L601.1 244.808L600.614 245.682ZM584.659 229.455L583.782 229.936L583.785 229.94L584.659 229.455ZM584.659 177.409L583.784 176.925L583.782 176.928L584.659 177.409ZM600.614 161.182L601.097 162.057L601.097 162.057L600.614 161.182ZM645.75 161.182L645.267 162.057L645.268 162.058L645.75 161.182ZM661.75 177.409L660.875 177.893L660.875 177.893L661.75 177.409ZM642.068 188.091L641.142 188.467L641.144 188.473L642.068 188.091ZM634.705 178.591L634.144 179.419L634.148 179.422L634.705 178.591ZM611.705 178.591L612.261 179.422L612.261 179.422L611.705 178.591ZM604.295 188.091L603.371 187.709L603.369 187.715L604.295 188.091ZM604.295 218.818L603.369 219.194L603.371 219.2L604.295 218.818ZM611.705 228.318L612.261 227.487L612.261 227.487L611.705 228.318ZM634.705 228.318L634.148 227.487L634.144 227.49L634.705 228.318ZM642.068 218.818L641.144 218.436L641.142 218.442L642.068 218.818ZM666.659 203.455C666.659 213.571 664.714 222.076 660.875 229.016L662.625 229.984C666.665 222.681 668.659 213.823 668.659 203.455H666.659ZM660.875 229.016C657.021 235.982 651.82 241.25 645.268 244.851L646.232 246.604C653.135 242.81 658.6 237.26 662.625 229.984L660.875 229.016ZM645.267 244.852C638.731 248.46 631.384 250.273 623.205 250.273V252.273C631.691 252.273 639.375 250.389 646.233 246.603L645.267 244.852ZM623.205 250.273C614.995 250.273 607.635 248.445 601.1 244.808L600.127 246.556C606.986 250.373 614.687 252.273 623.205 252.273V250.273ZM601.1 244.808C594.576 241.177 589.388 235.907 585.533 228.969L583.785 229.94C587.809 237.184 593.258 242.732 600.127 246.556L601.1 244.808ZM585.536 228.973C581.726 222.033 579.795 213.541 579.795 203.455H577.795C577.795 213.792 579.774 222.634 583.782 229.936L585.536 228.973ZM579.795 203.455C579.795 193.337 581.726 184.83 585.536 177.89L583.782 176.928C579.774 184.23 577.795 193.087 577.795 203.455H579.795ZM585.534 177.893C589.388 170.926 594.575 165.657 601.097 162.057L600.13 160.306C593.258 164.1 587.809 169.65 583.784 176.925L585.534 177.893ZM601.097 162.057C607.632 158.449 614.994 156.636 623.205 156.636V154.636C614.688 154.636 606.989 156.52 600.13 160.306L601.097 162.057ZM623.205 156.636C631.384 156.636 638.731 158.449 645.267 162.057L646.233 160.306C639.375 156.521 631.691 154.636 623.205 154.636V156.636ZM645.268 162.058C651.82 165.659 657.021 170.927 660.875 177.893L662.625 176.925C658.6 169.649 653.135 164.099 646.232 160.305L645.268 162.058ZM660.875 177.893C664.714 184.833 666.659 193.338 666.659 203.455H668.659C668.659 193.086 666.665 184.228 662.625 176.925L660.875 177.893ZM645.659 203.455C645.659 197.305 644.784 192.046 642.992 187.709L641.144 188.473C642.807 192.5 643.659 197.483 643.659 203.455H645.659ZM642.995 187.715C641.236 183.38 638.666 180.04 635.261 177.76L634.148 179.422C637.168 181.444 639.507 184.439 641.142 188.467L642.995 187.715ZM635.265 177.763C631.891 175.481 627.855 174.364 623.205 174.364V176.364C627.524 176.364 631.154 177.397 634.144 179.419L635.265 177.763ZM623.205 174.364C618.583 174.364 614.549 175.482 611.148 177.76L612.261 179.422C615.285 177.397 618.917 176.364 623.205 176.364V174.364ZM611.148 177.76C607.745 180.039 605.161 183.376 603.371 187.709L605.22 188.473C606.885 184.442 609.24 181.445 612.261 179.422L611.148 177.76ZM603.369 187.715C601.61 192.049 600.75 197.307 600.75 203.455H602.75C602.75 197.481 603.587 192.496 605.222 188.467L603.369 187.715ZM600.75 203.455C600.75 209.602 601.61 214.86 603.369 219.194L605.222 218.442C603.587 214.413 602.75 209.428 602.75 203.455H600.75ZM603.371 219.2C605.161 223.533 607.745 226.87 611.148 229.149L612.261 227.487C609.24 225.464 606.885 222.467 605.22 218.436L603.371 219.2ZM611.148 229.149C614.549 231.427 618.583 232.545 623.205 232.545V230.545C618.917 230.545 615.285 229.512 612.261 227.487L611.148 229.149ZM623.205 232.545C627.855 232.545 631.891 231.428 635.265 229.147L634.144 227.49C631.154 229.512 627.524 230.545 623.205 230.545V232.545ZM635.261 229.149C638.666 226.869 641.236 223.529 642.995 219.194L641.142 218.442C639.507 222.471 637.168 225.465 634.148 227.487L635.261 229.149ZM642.992 219.2C644.784 214.864 645.659 209.604 645.659 203.455H643.659C643.659 209.426 642.807 214.409 641.144 218.436L642.992 219.2ZM680.795 250H679.795V251H680.795V250ZM680.795 156.909V155.909H679.795V156.909H680.795ZM737.295 160.682L736.85 161.577L736.857 161.58L737.295 160.682ZM749.068 171.409L748.207 171.918L748.209 171.92L749.068 171.409ZM748.977 204.364L749.824 204.896L749.826 204.893L748.977 204.364ZM736.977 214.636L737.388 215.548L737.392 215.546L736.977 214.636ZM694.25 218.136H693.25V219.136H694.25V218.136ZM694.25 200.409V199.409H693.25V200.409H694.25ZM722.886 199.091L723.247 200.024L723.254 200.021L722.886 199.091ZM728.114 195L728.952 195.545L728.956 195.539L728.114 195ZM728.114 180.773L727.263 181.299L727.267 181.305L728.114 180.773ZM722.886 176.5L722.498 177.422L722.509 177.426L722.886 176.5ZM703.295 175.045V174.045H702.295V175.045H703.295ZM703.295 250V251H704.295V250H703.295ZM733.205 207.455L734.083 206.976L733.798 206.455H733.205V207.455ZM756.386 250V251H758.07L757.264 249.522L756.386 250ZM731.841 250L730.959 250.471L731.241 251H731.841V250ZM709.114 207.455V206.455H707.446L708.232 207.926L709.114 207.455ZM681.795 250V156.909H679.795V250H681.795ZM680.795 157.909H719.25V155.909H680.795V157.909ZM719.25 157.909C726.101 157.909 731.957 159.145 736.85 161.577L737.741 159.786C732.513 157.188 726.339 155.909 719.25 155.909V157.909ZM736.857 161.58C741.78 163.984 745.554 167.427 748.207 171.918L749.929 170.9C747.067 166.057 742.993 162.35 737.734 159.783L736.857 161.58ZM748.209 171.92C750.859 176.376 752.205 181.693 752.205 187.909H754.205C754.205 181.398 752.793 175.715 749.928 170.898L748.209 171.92ZM752.205 187.909C752.205 194.216 750.829 199.509 748.129 203.834L749.826 204.893C752.762 200.188 754.205 194.511 754.205 187.909H752.205ZM748.131 203.832C745.424 208.138 741.58 211.438 736.562 213.727L737.392 215.546C742.738 213.108 746.894 209.558 749.824 204.896L748.131 203.832ZM736.567 213.725C731.542 215.987 725.552 217.136 718.568 217.136V219.136C725.767 219.136 732.049 217.952 737.388 215.548L736.567 213.725ZM718.568 217.136H694.25V219.136H718.568V217.136ZM695.25 218.136V200.409H693.25V218.136H695.25ZM694.25 201.409H714.386V199.409H694.25V201.409ZM714.386 201.409C717.859 201.409 720.824 200.961 723.247 200.024L722.526 198.158C720.404 198.979 717.702 199.409 714.386 199.409V201.409ZM723.254 200.021C725.721 199.047 727.641 197.561 728.952 195.545L727.275 194.455C726.222 196.075 724.657 197.317 722.519 198.161L723.254 200.021ZM728.956 195.539C730.268 193.486 730.886 190.92 730.886 187.909H728.886C728.886 190.655 728.323 192.817 727.271 194.461L728.956 195.539ZM730.886 187.909C730.886 184.897 730.268 182.319 728.96 180.24L727.267 181.305C728.323 182.984 728.886 185.164 728.886 187.909H730.886ZM728.964 180.246C727.659 178.138 725.741 176.584 723.264 175.574L722.509 177.426C724.638 178.294 726.205 179.589 727.263 181.299L728.964 180.246ZM723.274 175.578C720.814 174.542 717.84 174.045 714.386 174.045V176.045C717.66 176.045 720.353 176.518 722.498 177.422L723.274 175.578ZM714.386 174.045H703.295V176.045H714.386V174.045ZM702.295 175.045V250H704.295V175.045H702.295ZM703.295 249H680.795V251H703.295V249ZM732.326 207.933L755.508 250.478L757.264 249.522L734.083 206.976L732.326 207.933ZM756.386 249H731.841V251H756.386V249ZM732.723 249.529L709.996 206.983L708.232 207.926L730.959 250.471L732.723 249.529ZM709.114 208.455H733.205V206.455H709.114V208.455ZM815.864 184.818L814.868 184.909L814.95 185.818H815.864V184.818ZM811.818 177.045L811.196 177.828L811.207 177.837L811.818 177.045ZM794.409 175.364L794.045 174.432L794.045 174.432L794.409 175.364ZM790.045 178.5L790.848 179.097L790.854 179.088L790.045 178.5ZM788.545 183L789.545 183.043L789.545 183.031L789.545 183.018L788.545 183ZM789.364 186.682L788.495 187.178L788.501 187.187L788.506 187.196L789.364 186.682ZM792.091 189.5L791.522 190.322L791.534 190.33L791.546 190.338L792.091 189.5ZM796.455 191.591L796.791 190.649L796.791 190.649L796.455 191.591ZM802.182 193.182L802.403 192.207L802.391 192.204L802.182 193.182ZM810.182 195L809.96 195.975L809.97 195.977L810.182 195ZM822.364 199L821.935 199.904L821.938 199.905L822.364 199ZM831.273 204.955L830.579 205.675L830.584 205.68L831.273 204.955ZM836.773 212.909L835.849 213.292L835.849 213.292L836.773 212.909ZM838.682 223L839.682 223.005L839.682 222.992L838.682 223ZM834.227 238.136L833.407 237.564L833.407 237.564L834.227 238.136ZM821.545 247.818L821.169 246.892L821.167 246.893L821.545 247.818ZM781.318 247.682L781.692 246.754L781.692 246.754L781.318 247.682ZM762.864 219V218H761.851L761.864 219.012L762.864 219ZM784.409 219L785.407 218.94L785.35 218H784.409V219ZM786.818 226.5L786.004 227.08L786.004 227.08L786.818 226.5ZM792.682 231.045L792.299 231.969L792.303 231.971L792.682 231.045ZM809.136 231.364L808.781 230.429L808.776 230.431L809.136 231.364ZM814.091 227.955L813.307 227.334L813.307 227.334L814.091 227.955ZM815.864 222.955L816.864 222.971L816.864 222.954L816.863 222.937L815.864 222.955ZM814.227 218.455L813.459 219.095L813.467 219.104L814.227 218.455ZM809.318 215.182L808.923 216.1L808.93 216.104L808.938 216.107L809.318 215.182ZM800.955 212.591L800.727 213.565L800.728 213.565L800.955 212.591ZM791.227 210.318L791.455 209.344L791.451 209.343L791.227 210.318ZM772.182 201.364L771.515 202.109L771.517 202.111L772.182 201.364ZM765.273 184.545L766.273 184.55L766.273 184.54L765.273 184.545ZM769.909 169.409L769.098 168.825L769.098 168.825L769.909 169.409ZM782.864 159.273L783.266 160.188L783.266 160.188L782.864 159.273ZM820.5 159.318L820.08 160.226L820.086 160.229L820.5 159.318ZM832.909 169.545L833.74 168.989L833.74 168.989L832.909 169.545ZM837.409 184.818V185.818H838.42L838.409 184.808L837.409 184.818ZM816.86 184.728C816.534 181.15 815.068 178.292 812.429 176.254L811.207 177.837C813.356 179.496 814.587 181.82 814.868 184.909L816.86 184.728ZM812.44 176.263C809.835 174.192 806.202 173.227 801.682 173.227V175.227C805.949 175.227 809.074 176.142 811.196 177.828L812.44 176.263ZM801.682 173.227C798.694 173.227 796.137 173.615 794.045 174.432L794.773 176.295C796.56 175.597 798.851 175.227 801.682 175.227V173.227ZM794.045 174.432C791.974 175.241 790.345 176.388 789.237 177.912L790.854 179.088C791.685 177.945 792.965 177.001 794.773 176.295L794.045 174.432ZM789.243 177.903C788.143 179.382 787.579 181.086 787.546 182.982L789.545 183.018C789.572 181.52 790.009 180.225 790.848 179.097L789.243 177.903ZM787.546 182.957C787.479 184.512 787.783 185.931 788.495 187.178L790.232 186.186C789.732 185.311 789.491 184.276 789.545 183.043L787.546 182.957ZM788.506 187.196C789.227 188.397 790.242 189.436 791.522 190.322L792.66 188.678C791.576 187.928 790.773 187.088 790.221 186.167L788.506 187.196ZM791.546 190.338C792.837 191.178 794.365 191.907 796.118 192.533L796.791 190.649C795.15 190.063 793.769 189.398 792.636 188.662L791.546 190.338ZM796.118 192.533C797.864 193.156 799.816 193.698 801.972 194.16L802.391 192.204C800.305 191.757 798.439 191.238 796.791 190.649L796.118 192.533ZM801.96 194.157L809.96 195.975L810.403 194.025L802.403 192.207L801.96 194.157ZM809.97 195.977C814.516 196.964 818.502 198.276 821.935 199.904L822.792 198.096C819.195 196.391 815.06 195.036 810.394 194.023L809.97 195.977ZM821.938 199.905C825.402 201.533 828.277 203.46 830.579 205.675L831.966 204.234C829.481 201.843 826.416 199.8 822.789 198.095L821.938 199.905ZM830.584 205.68C832.91 207.889 834.662 210.425 835.849 213.292L837.697 212.526C836.399 209.393 834.484 206.626 831.961 204.23L830.584 205.68ZM835.849 213.292C837.035 216.157 837.652 219.391 837.682 223.008L839.682 222.992C839.651 219.155 838.995 215.661 837.697 212.526L835.849 213.292ZM837.682 222.995C837.652 228.701 836.214 233.542 833.407 237.564L835.047 238.709C838.119 234.307 839.651 229.057 839.682 223.005L837.682 222.995ZM833.407 237.564C830.595 241.594 826.534 244.71 821.169 246.892L821.922 248.745C827.587 246.441 831.981 243.103 835.047 238.709L833.407 237.564ZM821.167 246.893C815.833 249.073 809.348 250.182 801.682 250.182V252.182C809.531 252.182 816.288 251.048 821.924 248.744L821.167 246.893ZM801.682 250.182C793.991 250.182 787.336 249.03 781.692 246.754L780.944 248.609C786.876 251.001 793.796 252.182 801.682 252.182V250.182ZM781.692 246.754C776.072 244.489 771.738 241.064 768.647 236.486L766.989 237.605C770.323 242.542 774.988 246.208 780.944 248.609L781.692 246.754ZM768.647 236.486C765.57 231.928 763.953 226.117 763.864 218.988L761.864 219.012C761.956 226.428 763.642 232.647 766.989 237.605L768.647 236.486ZM762.864 220H784.409V218H762.864V220ZM783.411 219.06C783.602 222.205 784.449 224.897 786.004 227.08L787.633 225.92C786.339 224.103 785.58 221.795 785.407 218.94L783.411 219.06ZM786.004 227.08C787.547 229.247 789.658 230.874 792.299 231.969L793.065 230.122C790.736 229.156 788.938 227.753 787.633 225.92L786.004 227.08ZM792.303 231.971C794.961 233.06 798.003 233.591 801.409 233.591V231.591C798.209 231.591 795.433 231.092 793.061 230.12L792.303 231.971ZM801.409 233.591C804.524 233.591 807.229 233.171 809.496 232.297L808.776 230.431C806.801 231.192 804.355 231.591 801.409 231.591V233.591ZM809.492 232.298C811.772 231.431 813.587 230.202 814.875 228.575L813.307 227.334C812.291 228.617 810.804 229.66 808.781 230.429L809.492 232.298ZM814.875 228.575C816.165 226.946 816.83 225.066 816.864 222.971L814.864 222.938C814.837 224.6 814.32 226.054 813.307 227.334L814.875 228.575ZM816.863 222.937C816.83 220.967 816.211 219.238 814.988 217.805L813.467 219.104C814.365 220.156 814.837 221.427 814.864 222.972L816.863 222.937ZM814.995 217.814C813.795 216.373 811.999 215.202 809.698 214.257L808.938 216.107C811.062 216.98 812.539 217.99 813.459 219.095L814.995 217.814ZM809.714 214.263C807.458 213.292 804.608 212.413 801.181 211.617L800.728 213.565C804.089 214.345 806.814 215.193 808.923 216.1L809.714 214.263ZM801.182 211.617L791.455 209.344L791 211.292L800.727 213.565L801.182 211.617ZM791.451 209.343C783.501 207.52 777.322 204.595 772.846 200.616L771.517 202.111C776.314 206.375 782.832 209.419 791.004 211.293L791.451 209.343ZM772.849 200.619C768.455 196.685 766.243 191.367 766.273 184.55L764.273 184.541C764.241 191.845 766.636 197.74 771.515 202.109L772.849 200.619ZM766.273 184.54C766.243 178.977 767.733 174.142 770.721 169.994L769.098 168.825C765.843 173.343 764.241 178.599 764.273 184.551L766.273 184.54ZM770.721 169.994C773.725 165.823 777.893 162.55 783.266 160.188L782.461 158.357C776.804 160.844 772.336 164.329 769.098 168.825L770.721 169.994ZM783.266 160.188C788.634 157.828 794.782 156.636 801.727 156.636V154.636C794.552 154.636 788.123 155.869 782.461 158.357L783.266 160.188ZM801.727 156.636C808.827 156.636 814.936 157.845 820.08 160.226L820.92 158.411C815.458 155.883 809.051 154.636 801.727 154.636V156.636ZM820.086 160.229C825.269 162.584 829.253 165.879 832.078 170.101L833.74 168.989C830.686 164.424 826.398 160.9 820.914 158.408L820.086 160.229ZM832.078 170.101C834.899 174.319 836.35 179.216 836.409 184.829L838.409 184.808C838.347 178.845 836.798 173.56 833.74 168.989L832.078 170.101ZM837.409 183.818H815.864V185.818H837.409V183.818Z" fill="black"/>
</svg>
