<svg width="839" height="252" viewBox="0 0 839 252" stroke="red" fill="red" xmlns="http://www.w3.org/2000/svg">
<path d="M62.1364 32.3182L61.1709 32.5787L61.3704 33.3182H62.1364V32.3182ZM59.8636 27.2727L59.0342 27.8314L59.0396 27.8393L59.8636 27.2727ZM51.1818 21.1818L50.903 22.1422L50.9102 22.1442L50.9174 22.1462L51.1818 21.1818ZM33.2727 23.6364L32.7216 22.802L32.718 22.8043L33.2727 23.6364ZM25.6818 33.1818L26.6003 33.5774L26.6013 33.5749L25.6818 33.1818ZM25.5909 63.5909L26.5161 63.2115L26.5161 63.2115L25.5909 63.5909ZM33.0909 73.2273L33.6509 72.3988L33.6509 72.3988L33.0909 73.2273ZM55.4545 74.5455L55.8785 75.4512L55.8826 75.4492L55.4545 74.5455ZM62 68.7727L61.1416 68.2598L61.1416 68.2598L62 68.7727ZM64.2273 60L64.346 59.0071L63.2273 58.8733V60H64.2273ZM68.4091 60.5V61.5L68.5278 59.5071L68.4091 60.5ZM45.7727 60.5H44.7727V61.5H45.7727V60.5ZM45.7727 44.0909V43.0909H44.7727V44.0909H45.7727ZM85.9091 44.0909H86.9091V43.0909H85.9091V44.0909ZM80.5909 77.8182L79.7323 77.3056L79.7303 77.3089L80.5909 77.8182ZM66.0455 91.5L65.5878 90.6109L65.586 90.6118L66.0455 91.5ZM21.4091 90.5L21.9057 89.632L21.9057 89.632L21.4091 90.5ZM5.68182 74.0455L4.79657 74.5106L4.79739 74.5121L5.68182 74.0455ZM3.45455 28.2727L4.38789 28.6317L4.3885 28.6301L3.45455 28.2727ZM12.9545 13.1818L12.2448 12.4773L12.2422 12.48L12.9545 13.1818ZM27.1364 3.81818L26.7704 2.88755L26.7686 2.88826L27.1364 3.81818ZM59.5909 2.95454L59.2747 3.90323L59.2765 3.90384L59.5909 2.95454ZM71.9545 9.5L71.3355 10.2854L71.3388 10.2879L71.9545 9.5ZM80.7273 19.5455L79.8615 20.046L79.8615 20.046L80.7273 19.5455ZM84.9091 32.3182V33.3182H86.0336L85.9022 32.2013L84.9091 32.3182ZM63.1018 32.0577C62.5607 30.0523 61.759 28.2645 60.6877 26.7062L59.0396 27.8393C59.9683 29.19 60.6817 30.7659 61.1709 32.5787L63.1018 32.0577ZM60.6931 26.7141C59.6258 25.1294 58.3135 23.7845 56.7598 22.684L55.6038 24.316C56.9592 25.2761 58.1015 26.4463 59.0342 27.8313L60.6931 26.7141ZM56.7598 22.684C55.2018 21.5803 53.427 20.7605 51.4463 20.2174L50.9174 22.1462C52.6942 22.6334 54.2528 23.3591 55.6038 24.316L56.7598 22.684ZM51.4606 20.2215C49.4791 19.6462 47.3233 19.3636 45 19.3636V21.3636C47.1616 21.3636 49.1269 21.6265 50.903 22.1422L51.4606 20.2215ZM45 19.3636C40.3172 19.3636 36.2103 20.4975 32.7216 22.802L33.8239 24.4708C36.9412 22.4116 40.6525 21.3636 45 21.3636V19.3636ZM32.718 22.8043C29.2596 25.1099 26.6144 28.4568 24.7623 32.7887L26.6013 33.5749C28.325 29.5432 30.7404 26.5264 33.8274 24.4684L32.718 22.8043ZM24.7634 32.7863C22.9077 37.0953 22 42.2834 22 48.3182H24C24 42.4742 24.8802 37.5713 26.6003 33.5774L24.7634 32.7863ZM22 48.3182C22 54.3795 22.8763 59.6067 24.6657 63.9703L26.5161 63.2115C24.851 59.1509 24 54.1962 24 48.3182H22ZM24.6657 63.9703C26.456 68.3363 29.071 71.7171 32.5309 74.0558L33.6509 72.3988C30.5654 70.3132 28.1803 67.2698 26.5161 63.2115L24.6657 63.9703ZM32.5309 74.0558C35.9972 76.3987 40.1707 77.5455 45 77.5455V75.5455C40.496 75.5455 36.7301 74.4801 33.6509 72.3988L32.5309 74.0558ZM45 77.5455C49.2242 77.5455 52.8628 76.8627 55.8785 75.4511L55.0306 73.6398C52.3493 74.8948 49.0182 75.5455 45 75.5455V77.5455ZM55.8826 75.4492C58.9217 74.0096 61.2619 71.9575 62.8584 69.2857L61.1416 68.2598C59.7685 70.5577 57.745 72.354 55.0265 73.6417L55.8826 75.4492ZM62.8584 69.2857C64.45 66.6221 65.2273 63.5146 65.2273 60H63.2273C63.2273 63.2127 62.5197 65.9536 61.1416 68.2598L62.8584 69.2857ZM64.1086 60.9929L68.2904 61.4929L68.5278 59.5071L64.346 59.0071L64.1086 60.9929ZM68.4091 59.5H45.7727V61.5H68.4091V59.5ZM46.7727 60.5V44.0909H44.7727V60.5H46.7727ZM45.7727 45.0909H85.9091V43.0909H45.7727V45.0909ZM84.9091 44.0909V56.4091H86.9091V44.0909H84.9091ZM84.9091 56.4091C84.9091 64.599 83.1679 71.5502 79.7323 77.3056L81.4496 78.3307C85.1048 72.2074 86.9091 64.8858 86.9091 56.4091H84.9091ZM79.7303 77.3089C76.3118 83.085 71.6036 87.5145 65.5878 90.6109L66.5031 92.3891C72.851 89.1218 77.8397 84.4302 81.4515 78.3275L79.7303 77.3089ZM65.586 90.6118C59.5971 93.7095 52.6832 95.2727 44.8182 95.2727V97.2727C52.9532 97.2727 60.1908 95.6541 66.5049 92.3882L65.586 90.6118ZM44.8182 95.2727C36.0879 95.2727 28.4609 93.382 21.9057 89.632L20.9125 91.368C27.8119 95.3149 35.7909 97.2727 44.8182 97.2727V95.2727ZM21.9057 89.632C15.3498 85.8816 10.2389 80.539 6.56625 73.5788L4.79739 74.5121C8.63992 81.7943 14.0139 87.4215 20.9125 91.368L21.9057 89.632ZM6.56706 73.5803C2.89943 66.6 1.04545 58.2816 1.04545 48.5909H-0.954545C-0.954545 58.5366 0.949055 67.1879 4.79658 74.5106L6.56706 73.5803ZM1.04545 48.5909C1.04545 41.0527 2.16728 34.4053 4.38789 28.6317L2.5212 27.9137C0.196362 33.9583 -0.954545 40.8564 -0.954545 48.5909H1.04545ZM4.3885 28.6301C6.61684 22.8067 9.71235 17.8972 13.6669 13.8837L12.2422 12.48C8.07553 16.7088 4.83771 21.8599 2.52059 27.9153L4.3885 28.6301ZM13.6643 13.8863C17.6586 9.86234 22.2697 6.81821 27.5041 4.74809L26.7686 2.88826C21.2758 5.06057 16.4323 8.25887 12.2448 12.4773L13.6643 13.8863ZM27.5023 4.7488C32.7716 2.67664 38.4495 1.63636 44.5455 1.63636V-0.36364C38.2171 -0.36364 32.2891 0.717293 26.7704 2.88755L27.5023 4.7488ZM44.5455 1.63636C49.843 1.63636 54.7503 2.39509 59.2747 3.90323L59.9071 2.00586C55.1588 0.423084 50.0358 -0.36364 44.5455 -0.36364V1.63636ZM59.2765 3.90384C63.8417 5.41569 67.8581 7.54466 71.3355 10.2854L72.5735 8.71461C68.8995 5.81898 64.6734 3.58431 59.9053 2.00525L59.2765 3.90384ZM71.3388 10.2879C74.8461 13.0289 77.6846 16.2805 79.8615 20.046L81.593 19.045C79.2851 15.0528 76.2751 11.6074 72.5703 8.71208L71.3388 10.2879ZM79.8615 20.046C82.033 23.8019 83.3857 27.9281 83.9159 32.435L85.9022 32.2013C85.3416 27.4355 83.9064 23.0466 81.593 19.045L79.8615 20.046ZM84.9091 31.3182H62.1364V33.3182H84.9091V31.3182ZM181.125 74.5L180.25 74.0159L180.25 74.0159L181.125 74.5ZM165.125 90.7273L164.643 89.8509L164.642 89.8518L165.125 90.7273ZM119.989 90.6818L120.475 89.808L120.475 89.808L119.989 90.6818ZM104.034 74.4545L103.157 74.9358L103.16 74.9402L104.034 74.4545ZM104.034 22.4091L103.159 21.925L103.157 21.9279L104.034 22.4091ZM119.989 6.18182L120.472 7.05728L120.472 7.05728L119.989 6.18182ZM165.125 6.18182L164.642 7.05728L164.643 7.0582L165.125 6.18182ZM181.125 22.4091L180.25 22.8931L180.25 22.8931L181.125 22.4091ZM161.443 33.0909L160.517 33.4669L160.519 33.4727L161.443 33.0909ZM154.08 23.5909L153.519 24.4193L153.523 24.4217L154.08 23.5909ZM131.08 23.5909L131.636 24.4217L131.636 24.4217L131.08 23.5909ZM123.67 33.0909L122.746 32.7091L122.744 32.7149L123.67 33.0909ZM123.67 63.8182L122.744 64.1942L122.746 64.1999L123.67 63.8182ZM131.08 73.3182L131.636 72.4873L131.636 72.4873L131.08 73.3182ZM154.08 73.3182L153.523 72.4873L153.519 72.4898L154.08 73.3182ZM161.443 63.8182L160.519 63.4364L160.517 63.4422L161.443 63.8182ZM186.034 48.4545C186.034 58.5706 184.089 67.0765 180.25 74.0159L182 74.9841C186.04 67.6811 188.034 58.8233 188.034 48.4545H186.034ZM180.25 74.0159C176.396 80.9823 171.195 86.2505 164.643 89.8509L165.607 91.6037C172.51 87.8101 177.975 82.2602 182 74.9841L180.25 74.0159ZM164.642 89.8518C158.106 93.4599 150.759 95.2727 142.58 95.2727V97.2727C151.066 97.2727 158.75 95.3886 165.608 91.6027L164.642 89.8518ZM142.58 95.2727C134.37 95.2727 127.01 93.4451 120.475 89.808L119.502 91.5556C126.361 95.3731 134.062 97.2727 142.58 97.2727V95.2727ZM120.475 89.808C113.951 86.1768 108.763 80.9067 104.908 73.9689L103.16 74.9402C107.184 82.1842 112.633 87.7323 119.502 91.5556L120.475 89.808ZM104.911 73.9733C101.101 67.0328 99.1705 58.5409 99.1705 48.4545H97.1705C97.1705 58.7924 99.1492 67.6338 103.157 74.9357L104.911 73.9733ZM99.1705 48.4545C99.1705 38.3373 101.101 29.8304 104.911 22.8903L103.157 21.9279C99.149 29.2302 97.1705 38.0869 97.1705 48.4545H99.1705ZM104.909 22.8931C108.763 15.9257 113.95 10.6574 120.472 7.05728L119.505 5.30635C112.633 9.1002 107.184 14.6501 103.159 21.925L104.909 22.8931ZM120.472 7.05728C127.007 3.44947 134.369 1.63636 142.58 1.63636V-0.36364C134.063 -0.36364 126.364 1.52022 119.505 5.30635L120.472 7.05728ZM142.58 1.63636C150.759 1.63636 158.106 3.44918 164.642 7.05728L165.608 5.30635C158.75 1.52051 151.066 -0.36364 142.58 -0.36364V1.63636ZM164.643 7.0582C171.195 10.6586 176.396 15.9268 180.25 22.8931L182 21.925C177.975 14.6489 172.51 9.09896 165.607 5.30543L164.643 7.0582ZM180.25 22.8931C184.089 29.8326 186.034 38.3384 186.034 48.4545H188.034C188.034 38.0858 186.04 29.228 182 21.925L180.25 22.8931ZM165.034 48.4545C165.034 42.3049 164.159 37.0456 162.367 32.7091L160.519 33.4727C162.182 37.4999 163.034 42.483 163.034 48.4545H165.034ZM162.37 32.7149C160.611 28.3797 158.041 25.0405 154.636 22.7601L153.523 24.4217C156.543 26.4444 158.882 29.4385 160.517 33.4669L162.37 32.7149ZM154.64 22.7625C151.266 20.4814 147.23 19.3636 142.58 19.3636V21.3636C146.899 21.3636 150.529 22.3974 153.519 24.4193L154.64 22.7625ZM142.58 19.3636C137.958 19.3636 133.924 20.4822 130.523 22.7601L131.636 24.4217C134.66 22.3966 138.292 21.3636 142.58 21.3636V19.3636ZM130.523 22.7601C127.12 25.0393 124.536 28.3764 122.746 32.7091L124.595 33.4727C126.26 29.4418 128.615 26.4455 131.636 24.4217L130.523 22.7601ZM122.744 32.7149C120.985 37.0495 120.125 42.3067 120.125 48.4545H122.125C122.125 42.4812 122.962 37.496 124.597 33.4669L122.744 32.7149ZM120.125 48.4545C120.125 54.6024 120.985 59.8596 122.744 64.1942L124.597 63.4422C122.962 59.4131 122.125 54.4279 122.125 48.4545H120.125ZM122.746 64.1999C124.536 68.5327 127.12 71.8697 130.523 74.149L131.636 72.4873C128.615 70.4636 126.26 67.4673 124.595 63.4364L122.746 64.1999ZM130.523 74.149C133.924 76.4269 137.958 77.5455 142.58 77.5455V75.5455C138.292 75.5455 134.66 74.5125 131.636 72.4873L130.523 74.149ZM142.58 77.5455C147.23 77.5455 151.266 76.4277 154.64 74.1466L153.519 72.4898C150.529 74.5117 146.899 75.5455 142.58 75.5455V77.5455ZM154.636 74.149C158.041 71.8686 160.611 68.5294 162.37 64.1942L160.517 63.4422C158.882 67.4706 156.543 70.4647 153.523 72.4873L154.636 74.149ZM162.367 64.1999C164.159 59.8635 165.034 54.6042 165.034 48.4545H163.034C163.034 54.4261 162.182 59.4092 160.519 63.4364L162.367 64.1999ZM282.125 74.5L281.25 74.0159L281.25 74.0159L282.125 74.5ZM266.125 90.7273L265.643 89.8509L265.642 89.8518L266.125 90.7273ZM220.989 90.6818L221.475 89.808L221.475 89.808L220.989 90.6818ZM205.034 74.4545L204.157 74.9358L204.16 74.9402L205.034 74.4545ZM205.034 22.4091L204.159 21.925L204.157 21.9279L205.034 22.4091ZM220.989 6.18182L221.472 7.05728L221.472 7.05728L220.989 6.18182ZM266.125 6.18182L265.642 7.05728L265.643 7.0582L266.125 6.18182ZM282.125 22.4091L281.25 22.8931L281.25 22.8931L282.125 22.4091ZM262.443 33.0909L261.517 33.4669L261.519 33.4727L262.443 33.0909ZM255.08 23.5909L254.519 24.4193L254.523 24.4217L255.08 23.5909ZM232.08 23.5909L232.636 24.4217L232.636 24.4217L232.08 23.5909ZM224.67 33.0909L223.746 32.7091L223.744 32.7149L224.67 33.0909ZM224.67 63.8182L223.744 64.1942L223.746 64.1999L224.67 63.8182ZM232.08 73.3182L232.636 72.4873L232.636 72.4873L232.08 73.3182ZM255.08 73.3182L254.523 72.4873L254.519 72.4898L255.08 73.3182ZM262.443 63.8182L261.519 63.4364L261.517 63.4422L262.443 63.8182ZM287.034 48.4545C287.034 58.5706 285.089 67.0765 281.25 74.0159L283 74.9841C287.04 67.6811 289.034 58.8233 289.034 48.4545H287.034ZM281.25 74.0159C277.396 80.9823 272.195 86.2505 265.643 89.8509L266.607 91.6037C273.51 87.8101 278.975 82.2602 283 74.9841L281.25 74.0159ZM265.642 89.8518C259.106 93.4599 251.759 95.2727 243.58 95.2727V97.2727C252.066 97.2727 259.75 95.3886 266.608 91.6027L265.642 89.8518ZM243.58 95.2727C235.37 95.2727 228.01 93.4451 221.475 89.808L220.502 91.5556C227.361 95.3731 235.062 97.2727 243.58 97.2727V95.2727ZM221.475 89.808C214.951 86.1768 209.763 80.9067 205.908 73.9689L204.16 74.9402C208.184 82.1842 213.633 87.7323 220.502 91.5556L221.475 89.808ZM205.911 73.9733C202.101 67.0328 200.17 58.5409 200.17 48.4545H198.17C198.17 58.7924 200.149 67.6338 204.157 74.9357L205.911 73.9733ZM200.17 48.4545C200.17 38.3373 202.101 29.8304 205.911 22.8903L204.157 21.9279C200.149 29.2302 198.17 38.0869 198.17 48.4545H200.17ZM205.909 22.8931C209.763 15.9257 214.95 10.6574 221.472 7.05728L220.505 5.30635C213.633 9.1002 208.184 14.6501 204.159 21.925L205.909 22.8931ZM221.472 7.05728C228.007 3.44947 235.369 1.63636 243.58 1.63636V-0.36364C235.063 -0.36364 227.364 1.52022 220.505 5.30635L221.472 7.05728ZM243.58 1.63636C251.759 1.63636 259.106 3.44918 265.642 7.05728L266.608 5.30635C259.75 1.52051 252.066 -0.36364 243.58 -0.36364V1.63636ZM265.643 7.0582C272.195 10.6586 277.396 15.9268 281.25 22.8931L283 21.925C278.975 14.6489 273.51 9.09896 266.607 5.30543L265.643 7.0582ZM281.25 22.8931C285.089 29.8326 287.034 38.3384 287.034 48.4545H289.034C289.034 38.0858 287.04 29.228 283 21.925L281.25 22.8931ZM266.034 48.4545C266.034 42.3049 265.159 37.0456 263.367 32.7091L261.519 33.4727C263.182 37.4999 264.034 42.483 264.034 48.4545H266.034ZM263.37 32.7149C261.611 28.3797 259.041 25.0405 255.636 22.7601L254.523 24.4217C257.543 26.4444 259.882 29.4385 261.517 33.4669L263.37 32.7149ZM255.64 22.7625C252.266 20.4814 248.23 19.3636 243.58 19.3636V21.3636C247.899 21.3636 251.529 22.3974 254.519 24.4193L255.64 22.7625ZM243.58 19.3636C238.958 19.3636 234.924 20.4822 231.523 22.7601L232.636 24.4217C235.66 22.3966 239.292 21.3636 243.58 21.3636V19.3636ZM231.523 22.7601C228.12 25.0393 225.536 28.3764 223.746 32.7091L225.595 33.4727C227.26 29.4418 229.615 26.4455 232.636 24.4217L231.523 22.7601ZM223.744 32.7149C221.985 37.0495 221.125 42.3067 221.125 48.4545H223.125C223.125 42.4812 223.962 37.496 225.597 33.4669L223.744 32.7149ZM221.125 48.4545C221.125 54.6024 221.985 59.8596 223.744 64.1942L225.597 63.4422C223.962 59.4131 223.125 54.4279 223.125 48.4545H221.125ZM223.746 64.1999C225.536 68.5327 228.12 71.8697 231.523 74.149L232.636 72.4873C229.615 70.4636 227.26 67.4673 225.595 63.4364L223.746 64.1999ZM231.523 74.149C234.924 76.4269 238.958 77.5455 243.58 77.5455V75.5455C239.292 75.5455 235.66 74.5125 232.636 72.4873L231.523 74.149ZM243.58 77.5455C248.23 77.5455 252.266 76.4277 255.64 74.1466L254.519 72.4898C251.529 74.5117 247.899 75.5455 243.58 75.5455V77.5455ZM255.636 74.149C259.041 71.8686 261.611 68.5294 263.37 64.1942L261.517 63.4422C259.882 67.4706 257.543 70.4647 254.523 72.4873L255.636 74.149ZM263.367 64.1999C265.159 59.8635 266.034 54.6042 266.034 48.4545H264.034C264.034 54.4261 263.182 59.4092 261.519 63.4364L263.367 64.1999ZM380.398 1.90909H381.398V0.909088H380.398V1.90909ZM380.398 95V96H381.398V95H380.398ZM361.307 95L360.484 95.5677L360.782 96H361.307V95ZM324.261 41.2727L325.085 40.7051L324.787 40.2727H324.261V41.2727ZM323.67 41.2727V40.2727H322.67V41.2727H323.67ZM323.67 95V96H324.67V95H323.67ZM301.17 95H300.17V96H301.17V95ZM301.17 1.90909V0.909088H300.17V1.90909H301.17ZM320.534 1.90909L321.36 1.34506L321.062 0.909088H320.534V1.90909ZM357.17 55.5455L356.345 56.1095L356.642 56.5455H357.17V55.5455ZM357.943 55.5455V56.5455H358.943V55.5455H357.943ZM357.943 1.90909V0.909088H356.943V1.90909H357.943ZM379.398 1.90909V95H381.398V1.90909H379.398ZM380.398 94H361.307V96H380.398V94ZM362.13 94.4323L325.085 40.7051L323.438 41.8404L360.484 95.5677L362.13 94.4323ZM324.261 40.2727H323.67V42.2727H324.261V40.2727ZM322.67 41.2727V95H324.67V41.2727H322.67ZM323.67 94H301.17V96H323.67V94ZM302.17 95V1.90909H300.17V95H302.17ZM301.17 2.90909H320.534V0.909088H301.17V2.90909ZM319.708 2.47312L356.345 56.1095L357.996 54.9814L321.36 1.34506L319.708 2.47312ZM357.17 56.5455H357.943V54.5455H357.17V56.5455ZM358.943 55.5455V1.90909H356.943V55.5455H358.943ZM357.943 2.90909H380.398V0.909088H357.943V2.90909ZM432.364 1.90909V0.909088H431.364V1.90909H432.364ZM454.545 1.90909H455.545V0.909088H454.545V1.90909ZM454.545 66.2727L455.545 66.2778V66.2727H454.545ZM450.227 82.0909L451.071 82.627L451.073 82.6245L450.227 82.0909ZM438.409 92.5455L437.966 91.6489L437.964 91.6499L438.409 92.5455ZM405.182 93.2273L404.787 94.1461L404.789 94.147L405.182 93.2273ZM393.864 83.7727L393.026 84.3192L393.029 84.3233L393.864 83.7727ZM389.727 67.3636V66.3636H388.732L388.727 67.3591L389.727 67.3636ZM412.136 67.3636L413.136 67.3257L413.099 66.3636H412.136V67.3636ZM413.5 73.5L412.599 73.9343L412.604 73.944L412.609 73.9537L413.5 73.5ZM417 77.2727L417.496 76.4045L417.496 76.4045L417 77.2727ZM427.773 77.1818L428.295 78.0347L428.301 78.0308L428.307 78.0269L427.773 77.1818ZM431.136 73.0455L430.219 72.6478L430.213 72.6608L431.136 73.0455ZM432.364 66.2727L433.364 66.284V66.2727H432.364ZM432.364 2.90909H454.545V0.909088H432.364V2.90909ZM453.545 1.90909V66.2727H455.545V1.90909H453.545ZM453.545 66.2677C453.516 72.1358 452.118 77.2203 449.382 81.5573L451.073 82.6245C454.034 77.9312 455.514 72.4703 455.545 66.2778L453.545 66.2677ZM449.383 81.5548C446.638 85.8762 442.842 89.2404 437.966 91.6489L438.852 93.442C444.037 90.8808 448.119 87.2753 451.071 82.627L449.383 81.5548ZM437.964 91.6499C433.125 94.0549 427.494 95.2727 421.045 95.2727V97.2727C427.748 97.2727 433.693 96.0057 438.854 93.441L437.964 91.6499ZM421.045 95.2727C415.345 95.2727 410.193 94.2786 405.574 92.3075L404.789 94.147C409.686 96.2365 415.109 97.2727 421.045 97.2727V95.2727ZM405.576 92.3084C401.028 90.3548 397.408 87.3309 394.698 83.2221L393.029 84.3233C395.955 88.7601 399.881 92.0391 404.787 94.1461L405.576 92.3084ZM394.701 83.2263C392.048 79.1607 390.698 73.8984 390.727 67.3682L388.727 67.3591C388.696 74.1622 390.103 79.8393 393.026 84.3192L394.701 83.2263ZM389.727 68.3636H412.136V66.3636H389.727V68.3636ZM411.137 67.4016C411.232 69.897 411.707 72.0846 412.599 73.9343L414.401 73.0657C413.656 71.5214 413.223 69.6181 413.136 67.3257L411.137 67.4016ZM412.609 73.9537C413.537 75.7772 414.834 77.1867 416.504 78.141L417.496 76.4045C416.196 75.6617 415.16 74.5562 414.391 73.0463L412.609 73.9537ZM416.504 78.141C418.168 79.0919 420.119 79.5455 422.318 79.5455V77.5455C420.396 77.5455 418.802 77.1505 417.496 76.4045L416.504 78.141ZM422.318 79.5455C424.611 79.5455 426.62 79.0603 428.295 78.0347L427.251 76.329C425.956 77.1215 424.329 77.5455 422.318 77.5455V79.5455ZM428.307 78.0269C429.987 76.9645 431.233 75.4141 432.059 73.4301L430.213 72.6608C429.525 74.3132 428.529 75.5203 427.238 76.3367L428.307 78.0269ZM432.054 73.4431C432.91 71.4673 433.332 69.0688 433.364 66.284L431.364 66.2615C431.334 68.8706 430.938 70.9872 430.219 72.6478L432.054 73.4431ZM433.364 66.2727V1.90909H431.364V66.2727H433.364ZM580.67 35.6364V36.6364H581.773L581.666 35.539L580.67 35.6364ZM557.943 35.6364L556.952 35.7651L557.065 36.6364H557.943V35.6364ZM556.08 29.3182L555.185 29.7654L555.185 29.7654L556.08 29.3182ZM552.352 24.5L553.006 23.7428L553.006 23.7428L552.352 24.5ZM546.852 21.4545L546.524 22.399L546.532 22.4019L546.54 22.4046L546.852 21.4545ZM528.216 23.6818L527.656 22.8533L527.652 22.8558L528.216 23.6818ZM520.716 33.2727L519.794 32.8853L519.792 32.891L520.716 33.2727ZM520.761 64L519.839 64.3875L519.843 64.3955L520.761 64ZM528.261 73.4091L527.71 74.2436L527.719 74.2495L528.261 73.4091ZM546.534 75.5909L546.239 74.6354L546.235 74.6367L546.534 75.5909ZM551.943 72.8182L552.56 73.605L552.562 73.6035L551.943 72.8182ZM555.807 68.3182L554.94 67.8189L554.938 67.8237L555.807 68.3182ZM557.943 62.2727L557.949 61.2727L557.104 61.2677L556.958 62.0997L557.943 62.2727ZM580.67 62.4091L581.666 62.5042L581.77 61.4157L580.676 61.4091L580.67 62.4091ZM577.08 74.5909L576.185 74.1437L576.182 74.1491L577.08 74.5909ZM568.943 85.5455L569.631 86.2714L569.634 86.2682L568.943 85.5455ZM556.307 93.3636L555.943 92.4321L555.941 92.4328L556.307 93.3636ZM516.67 90.7273L516.181 91.5992L516.185 91.6018L516.67 90.7273ZM500.943 74.4545L501.823 73.9791L500.943 74.4545ZM501.034 22.4091L500.157 21.9279L500.157 21.9279L501.034 22.4091ZM554.943 3L554.631 3.94989L554.636 3.95165L554.943 3ZM567.58 9.81818L566.943 10.5896L566.947 10.5927L567.58 9.81818ZM580.67 34.6364H557.943V36.6364H580.67V34.6364ZM558.935 35.5076C558.619 33.0766 557.969 30.861 556.974 28.871L555.185 29.7654C556.069 31.533 556.661 33.5295 556.952 35.7651L558.935 35.5076ZM556.974 28.871C555.977 26.8775 554.654 25.1651 553.006 23.7428L551.699 25.2572C553.141 26.5016 554.303 28.0013 555.185 29.7654L556.974 28.871ZM553.006 23.7428C551.351 22.3156 549.399 21.2388 547.164 20.5045L546.54 22.4046C548.548 23.0643 550.262 24.0178 551.699 25.2572L553.006 23.7428ZM547.181 20.51C544.97 19.741 542.539 19.3636 539.898 19.3636V21.3636C542.348 21.3636 544.553 21.7136 546.524 22.399L547.181 20.51ZM539.898 19.3636C535.212 19.3636 531.117 20.514 527.656 22.8533L528.776 24.5103C531.86 22.4254 535.553 21.3636 539.898 21.3636V19.3636ZM527.652 22.8558C524.227 25.1926 521.614 28.5541 519.794 32.8853L521.638 33.6602C523.333 29.6277 525.72 26.5953 528.779 24.5079L527.652 22.8558ZM519.792 32.891C518.001 37.2253 517.125 42.4231 517.125 48.4545H519.125C519.125 42.6072 519.976 37.6838 521.64 33.6545L519.792 32.891ZM517.125 48.4545C517.125 54.7241 518.015 60.0472 519.839 64.3875L521.683 63.6125C519.992 59.5892 519.125 54.5486 519.125 48.4545H517.125ZM519.843 64.3955C521.694 68.6942 524.309 71.9973 527.71 74.2436L528.812 72.5746C525.79 70.5784 523.404 67.6088 521.68 63.6045L519.843 64.3955ZM527.719 74.2495C531.146 76.4592 535.174 77.5455 539.761 77.5455V75.5455C535.5 75.5455 531.861 74.5408 528.803 72.5687L527.719 74.2495ZM539.761 77.5455C542.331 77.5455 544.691 77.2164 546.833 76.5451L546.235 74.6367C544.316 75.2381 542.161 75.5455 539.761 75.5455V77.5455ZM546.829 76.5464C548.995 75.8775 550.91 74.8996 552.56 73.605L551.326 72.0313C549.886 73.161 548.194 74.0316 546.239 74.6354L546.829 76.5464ZM552.562 73.6035C554.24 72.2805 555.613 70.6815 556.676 68.8127L554.938 67.8237C554.001 69.47 552.798 70.871 551.324 72.0329L552.562 73.6035ZM556.673 68.8175C557.767 66.9187 558.516 64.7912 558.928 62.4458L556.958 62.0997C556.582 64.2391 555.907 66.1419 554.94 67.8189L556.673 68.8175ZM557.937 63.2727L580.664 63.4091L580.676 61.4091L557.949 61.2727L557.937 63.2727ZM579.675 62.3139C579.294 66.3031 578.134 70.2449 576.185 74.1437L577.974 75.0381C580.025 70.9369 581.259 66.7575 581.666 62.5042L579.675 62.3139ZM576.182 74.1491C574.268 78.0368 571.628 81.5947 568.252 84.8227L569.634 86.2682C573.167 82.8902 575.952 79.145 577.977 75.0327L576.182 74.1491ZM568.255 84.8195C564.905 87.9933 560.807 90.534 555.943 92.4321L556.67 94.2952C561.746 92.3145 566.072 89.6431 569.631 86.2714L568.255 84.8195ZM555.941 92.4328C551.14 94.3182 545.601 95.2727 539.307 95.2727V97.2727C545.801 97.2727 551.595 96.2879 556.672 94.2945L555.941 92.4328ZM539.307 95.2727C531.034 95.2727 523.659 93.459 517.155 89.8527L516.185 91.6018C523.016 95.3895 530.731 97.2727 539.307 97.2727V95.2727ZM517.16 89.8554C510.699 86.2267 505.587 80.945 501.823 73.9791L500.063 74.93C503.996 82.2065 509.369 87.7733 516.181 91.5992L517.16 89.8554ZM501.823 73.9791C498.071 67.0373 496.17 58.5432 496.17 48.4545H494.17C494.17 58.7901 496.118 67.6294 500.063 74.93L501.823 73.9791ZM496.17 48.4545C496.17 38.3373 498.101 29.8304 501.911 22.8903L500.157 21.9279C496.149 29.2302 494.17 38.0869 494.17 48.4545H496.17ZM501.911 22.8903C505.735 15.9232 510.892 10.6557 517.383 7.05635L516.413 5.30728C509.57 9.10186 504.151 14.6526 500.157 21.9279L501.911 22.8903ZM517.383 7.05635C523.888 3.44859 531.189 1.63636 539.307 1.63636V-0.36364C530.879 -0.36364 523.24 1.52111 516.413 5.30728L517.383 7.05635ZM539.307 1.63636C544.849 1.63636 549.955 2.41099 554.631 3.94988L555.256 2.05012C550.356 0.437488 545.037 -0.36364 539.307 -0.36364V1.63636ZM554.636 3.95165C559.312 5.46096 563.411 7.67516 566.943 10.5895L568.216 9.0468C564.476 5.96119 560.15 3.62994 555.25 2.04835L554.636 3.95165ZM566.947 10.5927C570.475 13.4736 573.345 17.0181 575.558 21.2372L577.329 20.3083C574.996 15.8607 571.957 12.1022 568.212 9.04364L566.947 10.5927ZM575.558 21.2372C577.762 25.441 579.14 30.2678 579.675 35.7337L581.666 35.539C581.11 29.8534 579.669 24.7711 577.329 20.3083L575.558 21.2372ZM675.5 74.5L674.625 74.0159L674.625 74.0159L675.5 74.5ZM659.5 90.7273L659.018 89.8509L659.017 89.8518L659.5 90.7273ZM614.364 90.6818L614.85 89.808L614.85 89.808L614.364 90.6818ZM598.409 74.4545L597.532 74.9358L597.535 74.9402L598.409 74.4545ZM598.409 22.4091L597.534 21.925L597.532 21.9279L598.409 22.4091ZM614.364 6.18182L614.847 7.05728L614.847 7.05728L614.364 6.18182ZM659.5 6.18182L659.017 7.05728L659.018 7.0582L659.5 6.18182ZM675.5 22.4091L674.625 22.8931L674.625 22.8931L675.5 22.4091ZM655.818 33.0909L654.892 33.4669L654.894 33.4727L655.818 33.0909ZM648.455 23.5909L647.894 24.4193L647.898 24.4217L648.455 23.5909ZM625.455 23.5909L626.011 24.4217L626.011 24.4217L625.455 23.5909ZM618.045 33.0909L617.121 32.7091L617.119 32.7149L618.045 33.0909ZM618.045 63.8182L617.119 64.1942L617.121 64.1999L618.045 63.8182ZM625.455 73.3182L626.011 72.4873L626.011 72.4873L625.455 73.3182ZM648.455 73.3182L647.898 72.4873L647.894 72.4898L648.455 73.3182ZM655.818 63.8182L654.894 63.4364L654.892 63.4422L655.818 63.8182ZM680.409 48.4545C680.409 58.5706 678.464 67.0765 674.625 74.0159L676.375 74.9841C680.415 67.6811 682.409 58.8233 682.409 48.4545H680.409ZM674.625 74.0159C670.771 80.9823 665.57 86.2505 659.018 89.8509L659.982 91.6037C666.885 87.8101 672.35 82.2602 676.375 74.9841L674.625 74.0159ZM659.017 89.8518C652.481 93.4599 645.134 95.2727 636.955 95.2727V97.2727C645.441 97.2727 653.125 95.3886 659.983 91.6027L659.017 89.8518ZM636.955 95.2727C628.745 95.2727 621.385 93.4451 614.85 89.808L613.877 91.5556C620.736 95.3731 628.437 97.2727 636.955 97.2727V95.2727ZM614.85 89.808C608.326 86.1768 603.138 80.9067 599.283 73.9689L597.535 74.9402C601.559 82.1842 607.008 87.7323 613.877 91.5556L614.85 89.808ZM599.286 73.9733C595.476 67.0328 593.545 58.5409 593.545 48.4545H591.545C591.545 58.7924 593.524 67.6338 597.532 74.9357L599.286 73.9733ZM593.545 48.4545C593.545 38.3373 595.476 29.8304 599.286 22.8903L597.532 21.9279C593.524 29.2302 591.545 38.0869 591.545 48.4545H593.545ZM599.284 22.8931C603.138 15.9257 608.325 10.6574 614.847 7.05728L613.88 5.30635C607.008 9.1002 601.559 14.6501 597.534 21.925L599.284 22.8931ZM614.847 7.05728C621.382 3.44947 628.744 1.63636 636.955 1.63636V-0.36364C628.438 -0.36364 620.739 1.52022 613.88 5.30635L614.847 7.05728ZM636.955 1.63636C645.134 1.63636 652.481 3.44918 659.017 7.05728L659.983 5.30635C653.125 1.52051 645.441 -0.36364 636.955 -0.36364V1.63636ZM659.018 7.0582C665.57 10.6586 670.771 15.9268 674.625 22.8931L676.375 21.925C672.35 14.6489 666.885 9.09896 659.982 5.30543L659.018 7.0582ZM674.625 22.8931C678.464 29.8326 680.409 38.3384 680.409 48.4545H682.409C682.409 38.0858 680.415 29.228 676.375 21.925L674.625 22.8931ZM659.409 48.4545C659.409 42.3049 658.534 37.0456 656.742 32.7091L654.894 33.4727C656.557 37.4999 657.409 42.483 657.409 48.4545H659.409ZM656.745 32.7149C654.986 28.3797 652.416 25.0405 649.011 22.7601L647.898 24.4217C650.918 26.4444 653.257 29.4385 654.892 33.4669L656.745 32.7149ZM649.015 22.7625C645.641 20.4814 641.605 19.3636 636.955 19.3636V21.3636C641.274 21.3636 644.904 22.3974 647.894 24.4193L649.015 22.7625ZM636.955 19.3636C632.333 19.3636 628.299 20.4822 624.898 22.7601L626.011 24.4217C629.035 22.3966 632.667 21.3636 636.955 21.3636V19.3636ZM624.898 22.7601C621.495 25.0393 618.911 28.3764 617.121 32.7091L618.97 33.4727C620.635 29.4418 622.99 26.4455 626.011 24.4217L624.898 22.7601ZM617.119 32.7149C615.36 37.0495 614.5 42.3067 614.5 48.4545H616.5C616.5 42.4812 617.337 37.496 618.972 33.4669L617.119 32.7149ZM614.5 48.4545C614.5 54.6024 615.36 59.8596 617.119 64.1942L618.972 63.4422C617.337 59.4131 616.5 54.4279 616.5 48.4545H614.5ZM617.121 64.1999C618.911 68.5327 621.495 71.8697 624.898 74.149L626.011 72.4873C622.99 70.4636 620.635 67.4673 618.97 63.4364L617.121 64.1999ZM624.898 74.149C628.299 76.4269 632.333 77.5455 636.955 77.5455V75.5455C632.667 75.5455 629.035 74.5125 626.011 72.4873L624.898 74.149ZM636.955 77.5455C641.605 77.5455 645.641 76.4277 649.015 74.1466L647.894 72.4898C644.904 74.5117 641.274 75.5455 636.955 75.5455V77.5455ZM649.011 74.149C652.416 71.8686 654.986 68.5294 656.745 64.1942L654.892 63.4422C653.257 67.4706 650.918 70.4647 647.898 72.4873L649.011 74.149ZM656.742 64.1999C658.534 59.8635 659.409 54.6042 659.409 48.4545H657.409C657.409 54.4261 656.557 59.4092 654.894 63.4364L656.742 64.1999ZM739.227 39.9091H740.227V38.9091H739.227V39.9091ZM739.227 57V58H740.227V57H739.227ZM696.136 57H695.136V58H696.136V57ZM696.136 39.9091V38.9091H695.136V39.9091H696.136ZM738.227 39.9091V57H740.227V39.9091H738.227ZM739.227 56H696.136V58H739.227V56ZM697.136 57V39.9091H695.136V57H697.136ZM696.136 40.9091H739.227V38.9091H696.136V40.9091ZM83 229.5L82.125 229.016L82.125 229.016L83 229.5ZM67 245.727L66.5184 244.851L66.5167 244.852L67 245.727ZM21.8636 245.682L22.35 244.808L22.35 244.808L21.8636 245.682ZM5.90909 229.455L5.03247 229.936L5.03493 229.94L5.90909 229.455ZM5.90909 177.409L5.03405 176.925L5.03248 176.928L5.90909 177.409ZM21.8636 161.182L22.3469 162.057L22.3469 162.057L21.8636 161.182ZM67 161.182L66.5167 162.057L66.5184 162.058L67 161.182ZM83 177.409L82.125 177.893L82.125 177.893L83 177.409ZM63.3182 188.091L62.3916 188.467L62.3939 188.473L63.3182 188.091ZM55.9545 178.591L55.3944 179.419L55.398 179.422L55.9545 178.591ZM32.9545 178.591L33.5111 179.422L33.5111 179.422L32.9545 178.591ZM25.5455 188.091L24.6212 187.709L24.6188 187.715L25.5455 188.091ZM25.5455 218.818L24.6188 219.194L24.6212 219.2L25.5455 218.818ZM32.9545 228.318L33.5111 227.487L33.5111 227.487L32.9545 228.318ZM55.9545 228.318L55.398 227.487L55.3944 227.49L55.9545 228.318ZM63.3182 218.818L62.3939 218.436L62.3916 218.442L63.3182 218.818ZM87.9091 203.455C87.9091 213.571 85.9638 222.076 82.125 229.016L83.875 229.984C87.915 222.681 89.9091 213.823 89.9091 203.455H87.9091ZM82.125 229.016C78.2713 235.982 73.07 241.25 66.5184 244.851L67.4816 246.604C74.3846 242.81 79.85 237.26 83.875 229.984L82.125 229.016ZM66.5167 244.852C59.9807 248.46 52.6344 250.273 44.4545 250.273V252.273C52.9414 252.273 60.6253 250.389 67.4833 246.603L66.5167 244.852ZM44.4545 250.273C36.2452 250.273 28.8849 248.445 22.35 244.808L21.3773 246.556C28.2363 250.373 35.9366 252.273 44.4545 252.273V250.273ZM22.35 244.808C15.8256 241.177 10.6376 235.907 6.78325 228.969L5.03493 229.94C9.05936 237.184 14.5077 242.732 21.3773 246.556L22.35 244.808ZM6.7857 228.973C2.9758 222.033 1.04545 213.541 1.04545 203.455H-0.954545C-0.954545 213.792 1.0242 222.634 5.03248 229.936L6.7857 228.973ZM1.04545 203.455C1.04545 193.337 2.97602 184.83 6.7857 177.89L5.03248 176.928C1.02398 184.23 -0.954545 193.087 -0.954545 203.455H1.04545ZM6.78412 177.893C10.6385 170.926 15.8254 165.657 22.3469 162.057L21.3804 160.306C14.5079 164.1 9.0585 169.65 5.03406 176.925L6.78412 177.893ZM22.3469 162.057C28.8824 158.449 36.2438 156.636 44.4545 156.636V154.636C35.9381 154.636 28.2388 156.52 21.3804 160.306L22.3469 162.057ZM44.4545 156.636C52.6344 156.636 59.9807 158.449 66.5167 162.057L67.4833 160.306C60.6253 156.521 52.9414 154.636 44.4545 154.636V156.636ZM66.5184 162.058C73.07 165.659 78.2713 170.927 82.125 177.893L83.875 176.925C79.85 169.649 74.3846 164.099 67.4816 160.305L66.5184 162.058ZM82.125 177.893C85.9638 184.833 87.9091 193.338 87.9091 203.455H89.9091C89.9091 193.086 87.915 184.228 83.875 176.925L82.125 177.893ZM66.9091 203.455C66.9091 197.305 66.0336 192.046 64.2424 187.709L62.3939 188.473C64.0573 192.5 64.9091 197.483 64.9091 203.455H66.9091ZM64.2448 187.715C62.4856 183.38 59.9156 180.04 56.5111 177.76L55.398 179.422C58.4177 181.444 60.7569 184.439 62.3916 188.467L64.2448 187.715ZM56.5147 177.763C53.1412 175.481 49.1047 174.364 44.4545 174.364V176.364C48.774 176.364 52.4043 177.397 55.3944 179.419L56.5147 177.763ZM44.4545 174.364C39.8328 174.364 35.7988 175.482 32.398 177.76L33.5111 179.422C36.5345 177.397 40.1672 176.364 44.4545 176.364V174.364ZM32.398 177.76C28.9952 180.039 26.4108 183.376 24.6212 187.709L26.4697 188.473C28.1347 184.442 30.4897 181.445 33.5111 179.422L32.398 177.76ZM24.6188 187.715C22.8599 192.049 22 197.307 22 203.455H24C24 197.481 24.8371 192.496 26.4721 188.467L24.6188 187.715ZM22 203.455C22 209.602 22.8599 214.86 24.6188 219.194L26.4721 218.442C24.8371 214.413 24 209.428 24 203.455H22ZM24.6212 219.2C26.4108 223.533 28.9952 226.87 32.398 229.149L33.5111 227.487C30.4897 225.464 28.1347 222.467 26.4697 218.436L24.6212 219.2ZM32.398 229.149C35.7988 231.427 39.8328 232.545 44.4545 232.545V230.545C40.1672 230.545 36.5345 229.512 33.5111 227.487L32.398 229.149ZM44.4545 232.545C49.1047 232.545 53.1412 231.428 56.5147 229.147L55.3944 227.49C52.4043 229.512 48.774 230.545 44.4545 230.545V232.545ZM56.5111 229.149C59.9156 226.869 62.4856 223.529 64.2448 219.194L62.3916 218.442C60.7569 222.471 58.4177 225.465 55.398 227.487L56.5111 229.149ZM64.2424 219.2C66.0336 214.864 66.9091 209.604 66.9091 203.455H64.9091C64.9091 209.426 64.0573 214.409 62.3939 218.436L64.2424 219.2ZM102.045 250H101.045V251H102.045V250ZM102.045 156.909V155.909H101.045V156.909H102.045ZM158.545 160.682L158.1 161.577L158.107 161.58L158.545 160.682ZM170.318 171.409L169.457 171.918L169.459 171.92L170.318 171.409ZM170.227 204.364L171.074 204.896L171.076 204.893L170.227 204.364ZM158.227 214.636L158.638 215.548L158.642 215.546L158.227 214.636ZM115.5 218.136H114.5V219.136H115.5V218.136ZM115.5 200.409V199.409H114.5V200.409H115.5ZM144.136 199.091L144.497 200.024L144.504 200.021L144.136 199.091ZM149.364 195L150.202 195.545L150.206 195.539L149.364 195ZM149.364 180.773L148.513 181.299L148.517 181.305L149.364 180.773ZM144.136 176.5L143.748 177.422L143.759 177.426L144.136 176.5ZM124.545 175.045V174.045H123.545V175.045H124.545ZM124.545 250V251H125.545V250H124.545ZM154.455 207.455L155.333 206.976L155.048 206.455H154.455V207.455ZM177.636 250V251H179.32L178.514 249.522L177.636 250ZM153.091 250L152.209 250.471L152.491 251H153.091V250ZM130.364 207.455V206.455H128.696L129.482 207.926L130.364 207.455ZM103.045 250V156.909H101.045V250H103.045ZM102.045 157.909H140.5V155.909H102.045V157.909ZM140.5 157.909C147.351 157.909 153.207 159.145 158.1 161.577L158.991 159.786C153.763 157.188 147.589 155.909 140.5 155.909V157.909ZM158.107 161.58C163.03 163.984 166.804 167.427 169.457 171.918L171.179 170.9C168.317 166.057 164.243 162.35 158.984 159.783L158.107 161.58ZM169.459 171.92C172.109 176.376 173.455 181.693 173.455 187.909H175.455C175.455 181.398 174.043 175.715 171.178 170.898L169.459 171.92ZM173.455 187.909C173.455 194.216 172.079 199.509 169.379 203.834L171.076 204.893C174.012 200.188 175.455 194.511 175.455 187.909H173.455ZM169.381 203.832C166.674 208.138 162.83 211.438 157.812 213.727L158.642 215.546C163.988 213.108 168.144 209.558 171.074 204.896L169.381 203.832ZM157.817 213.725C152.792 215.987 146.802 217.136 139.818 217.136V219.136C147.017 219.136 153.299 217.952 158.638 215.548L157.817 213.725ZM139.818 217.136H115.5V219.136H139.818V217.136ZM116.5 218.136V200.409H114.5V218.136H116.5ZM115.5 201.409H135.636V199.409H115.5V201.409ZM135.636 201.409C139.109 201.409 142.074 200.961 144.497 200.024L143.776 198.158C141.654 198.979 138.952 199.409 135.636 199.409V201.409ZM144.504 200.021C146.971 199.047 148.891 197.561 150.202 195.545L148.525 194.455C147.472 196.075 145.907 197.317 143.769 198.161L144.504 200.021ZM150.206 195.539C151.518 193.486 152.136 190.92 152.136 187.909H150.136C150.136 190.655 149.573 192.817 148.521 194.461L150.206 195.539ZM152.136 187.909C152.136 184.897 151.518 182.319 150.21 180.24L148.517 181.305C149.573 182.984 150.136 185.164 150.136 187.909H152.136ZM150.214 180.246C148.909 178.138 146.991 176.584 144.514 175.574L143.759 177.426C145.888 178.294 147.455 179.589 148.513 181.299L150.214 180.246ZM144.524 175.578C142.064 174.542 139.09 174.045 135.636 174.045V176.045C138.91 176.045 141.603 176.518 143.748 177.422L144.524 175.578ZM135.636 174.045H124.545V176.045H135.636V174.045ZM123.545 175.045V250H125.545V175.045H123.545ZM124.545 249H102.045V251H124.545V249ZM153.576 207.933L176.758 250.478L178.514 249.522L155.333 206.976L153.576 207.933ZM177.636 249H153.091V251H177.636V249ZM153.973 249.529L131.246 206.983L129.482 207.926L152.209 250.471L153.973 249.529ZM130.364 208.455H154.455V206.455H130.364V208.455ZM186.795 250H185.795V251H186.795V250ZM186.795 156.909V155.909H185.795V156.909H186.795ZM245.659 162.5L245.181 163.378L245.186 163.381L245.659 162.5ZM261.568 178.5L260.686 178.972L260.687 178.973L261.568 178.5ZM261.568 228.409L260.686 227.938L260.685 227.94L261.568 228.409ZM245.705 244.455L246.178 245.335L246.181 245.334L245.705 244.455ZM209.295 230.818H208.295V231.818H209.295V230.818ZM233.568 228.182L234.006 229.081L234.009 229.079L233.568 228.182ZM241.795 219.5L240.889 219.077L240.888 219.081L241.795 219.5ZM241.795 187.409L240.89 187.834L240.892 187.837L241.795 187.409ZM233.477 178.773L233.036 179.67L233.045 179.674L233.477 178.773ZM209.295 176.091V175.091H208.295V176.091H209.295ZM221.205 249H186.795V251H221.205V249ZM187.795 250V156.909H185.795V250H187.795ZM186.795 157.909H221.159V155.909H186.795V157.909ZM221.159 157.909C230.513 157.909 238.508 159.746 245.181 163.378L246.137 161.622C239.113 157.799 230.775 155.909 221.159 155.909V157.909ZM245.186 163.381C251.889 166.983 257.051 172.173 260.686 178.972L262.45 178.028C258.631 170.887 253.187 165.411 246.133 161.619L245.186 163.381ZM260.687 178.973C264.321 185.738 266.159 193.87 266.159 203.409H268.159C268.159 193.614 266.27 185.141 262.449 178.027L260.687 178.973ZM266.159 203.409C266.159 212.978 264.32 221.142 260.686 227.938L262.45 228.881C266.271 221.737 268.159 213.234 268.159 203.409H266.159ZM260.685 227.94C257.079 234.738 251.932 239.943 245.228 243.575L246.181 245.334C253.234 241.512 258.663 236.02 262.452 228.878L260.685 227.94ZM245.231 243.574C238.526 247.178 230.528 249 221.205 249V251C230.79 251 239.126 249.125 246.178 245.335L245.231 243.574ZM209.295 231.818H220.341V229.818H209.295V231.818ZM220.341 231.818C225.661 231.818 230.229 230.922 234.006 229.081L233.13 227.283C229.695 228.957 225.445 229.818 220.341 229.818V231.818ZM234.009 229.079C237.87 227.181 240.768 224.108 242.703 219.919L240.888 219.081C239.126 222.892 236.539 225.607 233.127 227.284L234.009 229.079ZM242.702 219.923C244.665 215.71 245.614 210.185 245.614 203.409H243.614C243.614 210.027 242.683 215.229 240.889 219.077L242.702 219.923ZM245.614 203.409C245.614 196.635 244.666 191.136 242.699 186.981L240.892 187.837C242.683 191.621 243.614 196.79 243.614 203.409H245.614ZM242.701 186.984C240.733 182.795 237.803 179.737 233.91 177.871L233.045 179.674C236.485 181.324 239.1 184.023 240.89 187.834L242.701 186.984ZM233.918 177.875C230.109 176.002 225.463 175.091 220.023 175.091V177.091C225.249 177.091 229.573 177.968 233.036 179.67L233.918 177.875ZM220.023 175.091H209.295V177.091H220.023V175.091ZM208.295 176.091V230.818H210.295V176.091H208.295ZM302.795 156.909H303.795V155.909H302.795V156.909ZM302.795 250V251H303.795V250H302.795ZM280.295 250H279.295V251H280.295V250ZM280.295 156.909V155.909H279.295V156.909H280.295ZM301.795 156.909V250H303.795V156.909H301.795ZM302.795 249H280.295V251H302.795V249ZM281.295 250V156.909H279.295V250H281.295ZM280.295 157.909H302.795V155.909H280.295V157.909ZM396.148 156.909H397.148V155.909H396.148V156.909ZM396.148 250V251H397.148V250H396.148ZM377.057 250L376.234 250.568L376.532 251H377.057V250ZM340.011 196.273L340.835 195.705L340.537 195.273H340.011V196.273ZM339.42 196.273V195.273H338.42V196.273H339.42ZM339.42 250V251H340.42V250H339.42ZM316.92 250H315.92V251H316.92V250ZM316.92 156.909V155.909H315.92V156.909H316.92ZM336.284 156.909L337.11 156.345L336.812 155.909H336.284V156.909ZM372.92 210.545L372.095 211.109L372.392 211.545H372.92V210.545ZM373.693 210.545V211.545H374.693V210.545H373.693ZM373.693 156.909V155.909H372.693V156.909H373.693ZM395.148 156.909V250H397.148V156.909H395.148ZM396.148 249H377.057V251H396.148V249ZM377.88 249.432L340.835 195.705L339.188 196.84L376.234 250.568L377.88 249.432ZM340.011 195.273H339.42V197.273H340.011V195.273ZM338.42 196.273V250H340.42V196.273H338.42ZM339.42 249H316.92V251H339.42V249ZM317.92 250V156.909H315.92V250H317.92ZM316.92 157.909H336.284V155.909H316.92V157.909ZM335.458 157.473L372.095 211.109L373.746 209.981L337.11 156.345L335.458 157.473ZM372.92 211.545H373.693V209.545H372.92V211.545ZM374.693 210.545V156.909H372.693V210.545H374.693ZM373.693 157.909H396.148V155.909H373.693V157.909ZM430.432 250V251H431.166L431.386 250.299L430.432 250ZM406.25 250L405.302 249.68L404.857 251H406.25V250ZM437.659 156.909V155.909H436.941L436.712 156.589L437.659 156.909ZM467.614 156.909L468.561 156.589L468.332 155.909H467.614V156.909ZM499.023 250V251H500.416L499.97 249.68L499.023 250ZM474.841 250L473.887 250.3L474.107 251H474.841V250ZM452.977 180.364L453.931 180.064L453.711 179.364H452.977V180.364ZM452.25 180.364V179.364H451.515L451.296 180.065L452.25 180.364ZM427.205 213.364V212.364H426.205V213.364H427.205ZM477.75 213.364H478.75V212.364H477.75V213.364ZM477.75 230.455V231.455H478.75V230.455H477.75ZM427.205 230.455H426.205V231.455H427.205V230.455ZM430.432 249H406.25V251H430.432V249ZM407.198 250.32L438.607 157.229L436.712 156.589L405.302 249.68L407.198 250.32ZM437.659 157.909H467.614V155.909H437.659V157.909ZM466.666 157.229L498.075 250.32L499.97 249.68L468.561 156.589L466.666 157.229ZM499.023 249H474.841V251H499.023V249ZM475.795 249.7L453.931 180.064L452.023 180.663L473.887 250.3L475.795 249.7ZM452.977 179.364H452.25V181.364H452.977V179.364ZM451.296 180.065L429.478 249.701L431.386 250.299L453.204 180.663L451.296 180.065ZM427.205 214.364H477.75V212.364H427.205V214.364ZM476.75 213.364V230.455H478.75V213.364H476.75ZM477.75 229.455H427.205V231.455H477.75V229.455ZM428.205 230.455V213.364H426.205V230.455H428.205ZM494.375 175.182H493.375V176.182H494.375V175.182ZM494.375 156.909V155.909H493.375V156.909H494.375ZM573.057 156.909H574.057V155.909H573.057V156.909ZM573.057 175.182V176.182H574.057V175.182H573.057ZM544.83 175.182V174.182H543.83V175.182H544.83ZM544.83 250V251H545.83V250H544.83ZM522.648 250H521.648V251H522.648V250ZM522.648 175.182H523.648V174.182H522.648V175.182ZM495.375 175.182V156.909H493.375V175.182H495.375ZM494.375 157.909H573.057V155.909H494.375V157.909ZM572.057 156.909V175.182H574.057V156.909H572.057ZM573.057 174.182H544.83V176.182H573.057V174.182ZM543.83 175.182V250H545.83V175.182H543.83ZM544.83 249H522.648V251H544.83V249ZM523.648 250V175.182H521.648V250H523.648ZM522.648 174.182H494.375V176.182H522.648V174.182ZM661.75 229.5L660.875 229.016L660.875 229.016L661.75 229.5ZM645.75 245.727L645.268 244.851L645.267 244.852L645.75 245.727ZM600.614 245.682L601.1 244.808L601.1 244.808L600.614 245.682ZM584.659 229.455L583.782 229.936L583.785 229.94L584.659 229.455ZM584.659 177.409L583.784 176.925L583.782 176.928L584.659 177.409ZM600.614 161.182L601.097 162.057L601.097 162.057L600.614 161.182ZM645.75 161.182L645.267 162.057L645.268 162.058L645.75 161.182ZM661.75 177.409L660.875 177.893L660.875 177.893L661.75 177.409ZM642.068 188.091L641.142 188.467L641.144 188.473L642.068 188.091ZM634.705 178.591L634.144 179.419L634.148 179.422L634.705 178.591ZM611.705 178.591L612.261 179.422L612.261 179.422L611.705 178.591ZM604.295 188.091L603.371 187.709L603.369 187.715L604.295 188.091ZM604.295 218.818L603.369 219.194L603.371 219.2L604.295 218.818ZM611.705 228.318L612.261 227.487L612.261 227.487L611.705 228.318ZM634.705 228.318L634.148 227.487L634.144 227.49L634.705 228.318ZM642.068 218.818L641.144 218.436L641.142 218.442L642.068 218.818ZM666.659 203.455C666.659 213.571 664.714 222.076 660.875 229.016L662.625 229.984C666.665 222.681 668.659 213.823 668.659 203.455H666.659ZM660.875 229.016C657.021 235.982 651.82 241.25 645.268 244.851L646.232 246.604C653.135 242.81 658.6 237.26 662.625 229.984L660.875 229.016ZM645.267 244.852C638.731 248.46 631.384 250.273 623.205 250.273V252.273C631.691 252.273 639.375 250.389 646.233 246.603L645.267 244.852ZM623.205 250.273C614.995 250.273 607.635 248.445 601.1 244.808L600.127 246.556C606.986 250.373 614.687 252.273 623.205 252.273V250.273ZM601.1 244.808C594.576 241.177 589.388 235.907 585.533 228.969L583.785 229.94C587.809 237.184 593.258 242.732 600.127 246.556L601.1 244.808ZM585.536 228.973C581.726 222.033 579.795 213.541 579.795 203.455H577.795C577.795 213.792 579.774 222.634 583.782 229.936L585.536 228.973ZM579.795 203.455C579.795 193.337 581.726 184.83 585.536 177.89L583.782 176.928C579.774 184.23 577.795 193.087 577.795 203.455H579.795ZM585.534 177.893C589.388 170.926 594.575 165.657 601.097 162.057L600.13 160.306C593.258 164.1 587.809 169.65 583.784 176.925L585.534 177.893ZM601.097 162.057C607.632 158.449 614.994 156.636 623.205 156.636V154.636C614.688 154.636 606.989 156.52 600.13 160.306L601.097 162.057ZM623.205 156.636C631.384 156.636 638.731 158.449 645.267 162.057L646.233 160.306C639.375 156.521 631.691 154.636 623.205 154.636V156.636ZM645.268 162.058C651.82 165.659 657.021 170.927 660.875 177.893L662.625 176.925C658.6 169.649 653.135 164.099 646.232 160.305L645.268 162.058ZM660.875 177.893C664.714 184.833 666.659 193.338 666.659 203.455H668.659C668.659 193.086 666.665 184.228 662.625 176.925L660.875 177.893ZM645.659 203.455C645.659 197.305 644.784 192.046 642.992 187.709L641.144 188.473C642.807 192.5 643.659 197.483 643.659 203.455H645.659ZM642.995 187.715C641.236 183.38 638.666 180.04 635.261 177.76L634.148 179.422C637.168 181.444 639.507 184.439 641.142 188.467L642.995 187.715ZM635.265 177.763C631.891 175.481 627.855 174.364 623.205 174.364V176.364C627.524 176.364 631.154 177.397 634.144 179.419L635.265 177.763ZM623.205 174.364C618.583 174.364 614.549 175.482 611.148 177.76L612.261 179.422C615.285 177.397 618.917 176.364 623.205 176.364V174.364ZM611.148 177.76C607.745 180.039 605.161 183.376 603.371 187.709L605.22 188.473C606.885 184.442 609.24 181.445 612.261 179.422L611.148 177.76ZM603.369 187.715C601.61 192.049 600.75 197.307 600.75 203.455H602.75C602.75 197.481 603.587 192.496 605.222 188.467L603.369 187.715ZM600.75 203.455C600.75 209.602 601.61 214.86 603.369 219.194L605.222 218.442C603.587 214.413 602.75 209.428 602.75 203.455H600.75ZM603.371 219.2C605.161 223.533 607.745 226.87 611.148 229.149L612.261 227.487C609.24 225.464 606.885 222.467 605.22 218.436L603.371 219.2ZM611.148 229.149C614.549 231.427 618.583 232.545 623.205 232.545V230.545C618.917 230.545 615.285 229.512 612.261 227.487L611.148 229.149ZM623.205 232.545C627.855 232.545 631.891 231.428 635.265 229.147L634.144 227.49C631.154 229.512 627.524 230.545 623.205 230.545V232.545ZM635.261 229.149C638.666 226.869 641.236 223.529 642.995 219.194L641.142 218.442C639.507 222.471 637.168 225.465 634.148 227.487L635.261 229.149ZM642.992 219.2C644.784 214.864 645.659 209.604 645.659 203.455H643.659C643.659 209.426 642.807 214.409 641.144 218.436L642.992 219.2ZM680.795 250H679.795V251H680.795V250ZM680.795 156.909V155.909H679.795V156.909H680.795ZM737.295 160.682L736.85 161.577L736.857 161.58L737.295 160.682ZM749.068 171.409L748.207 171.918L748.209 171.92L749.068 171.409ZM748.977 204.364L749.824 204.896L749.826 204.893L748.977 204.364ZM736.977 214.636L737.388 215.548L737.392 215.546L736.977 214.636ZM694.25 218.136H693.25V219.136H694.25V218.136ZM694.25 200.409V199.409H693.25V200.409H694.25ZM722.886 199.091L723.247 200.024L723.254 200.021L722.886 199.091ZM728.114 195L728.952 195.545L728.956 195.539L728.114 195ZM728.114 180.773L727.263 181.299L727.267 181.305L728.114 180.773ZM722.886 176.5L722.498 177.422L722.509 177.426L722.886 176.5ZM703.295 175.045V174.045H702.295V175.045H703.295ZM703.295 250V251H704.295V250H703.295ZM733.205 207.455L734.083 206.976L733.798 206.455H733.205V207.455ZM756.386 250V251H758.07L757.264 249.522L756.386 250ZM731.841 250L730.959 250.471L731.241 251H731.841V250ZM709.114 207.455V206.455H707.446L708.232 207.926L709.114 207.455ZM681.795 250V156.909H679.795V250H681.795ZM680.795 157.909H719.25V155.909H680.795V157.909ZM719.25 157.909C726.101 157.909 731.957 159.145 736.85 161.577L737.741 159.786C732.513 157.188 726.339 155.909 719.25 155.909V157.909ZM736.857 161.58C741.78 163.984 745.554 167.427 748.207 171.918L749.929 170.9C747.067 166.057 742.993 162.35 737.734 159.783L736.857 161.58ZM748.209 171.92C750.859 176.376 752.205 181.693 752.205 187.909H754.205C754.205 181.398 752.793 175.715 749.928 170.898L748.209 171.92ZM752.205 187.909C752.205 194.216 750.829 199.509 748.129 203.834L749.826 204.893C752.762 200.188 754.205 194.511 754.205 187.909H752.205ZM748.131 203.832C745.424 208.138 741.58 211.438 736.562 213.727L737.392 215.546C742.738 213.108 746.894 209.558 749.824 204.896L748.131 203.832ZM736.567 213.725C731.542 215.987 725.552 217.136 718.568 217.136V219.136C725.767 219.136 732.049 217.952 737.388 215.548L736.567 213.725ZM718.568 217.136H694.25V219.136H718.568V217.136ZM695.25 218.136V200.409H693.25V218.136H695.25ZM694.25 201.409H714.386V199.409H694.25V201.409ZM714.386 201.409C717.859 201.409 720.824 200.961 723.247 200.024L722.526 198.158C720.404 198.979 717.702 199.409 714.386 199.409V201.409ZM723.254 200.021C725.721 199.047 727.641 197.561 728.952 195.545L727.275 194.455C726.222 196.075 724.657 197.317 722.519 198.161L723.254 200.021ZM728.956 195.539C730.268 193.486 730.886 190.92 730.886 187.909H728.886C728.886 190.655 728.323 192.817 727.271 194.461L728.956 195.539ZM730.886 187.909C730.886 184.897 730.268 182.319 728.96 180.24L727.267 181.305C728.323 182.984 728.886 185.164 728.886 187.909H730.886ZM728.964 180.246C727.659 178.138 725.741 176.584 723.264 175.574L722.509 177.426C724.638 178.294 726.205 179.589 727.263 181.299L728.964 180.246ZM723.274 175.578C720.814 174.542 717.84 174.045 714.386 174.045V176.045C717.66 176.045 720.353 176.518 722.498 177.422L723.274 175.578ZM714.386 174.045H703.295V176.045H714.386V174.045ZM702.295 175.045V250H704.295V175.045H702.295ZM703.295 249H680.795V251H703.295V249ZM732.326 207.933L755.508 250.478L757.264 249.522L734.083 206.976L732.326 207.933ZM756.386 249H731.841V251H756.386V249ZM732.723 249.529L709.996 206.983L708.232 207.926L730.959 250.471L732.723 249.529ZM709.114 208.455H733.205V206.455H709.114V208.455ZM815.864 184.818L814.868 184.909L814.95 185.818H815.864V184.818ZM811.818 177.045L811.196 177.828L811.207 177.837L811.818 177.045ZM794.409 175.364L794.045 174.432L794.045 174.432L794.409 175.364ZM790.045 178.5L790.848 179.097L790.854 179.088L790.045 178.5ZM788.545 183L789.545 183.043L789.545 183.031L789.545 183.018L788.545 183ZM789.364 186.682L788.495 187.178L788.501 187.187L788.506 187.196L789.364 186.682ZM792.091 189.5L791.522 190.322L791.534 190.33L791.546 190.338L792.091 189.5ZM796.455 191.591L796.791 190.649L796.791 190.649L796.455 191.591ZM802.182 193.182L802.403 192.207L802.391 192.204L802.182 193.182ZM810.182 195L809.96 195.975L809.97 195.977L810.182 195ZM822.364 199L821.935 199.904L821.938 199.905L822.364 199ZM831.273 204.955L830.579 205.675L830.584 205.68L831.273 204.955ZM836.773 212.909L835.849 213.292L835.849 213.292L836.773 212.909ZM838.682 223L839.682 223.005L839.682 222.992L838.682 223ZM834.227 238.136L833.407 237.564L833.407 237.564L834.227 238.136ZM821.545 247.818L821.169 246.892L821.167 246.893L821.545 247.818ZM781.318 247.682L781.692 246.754L781.692 246.754L781.318 247.682ZM762.864 219V218H761.851L761.864 219.012L762.864 219ZM784.409 219L785.407 218.94L785.35 218H784.409V219ZM786.818 226.5L786.004 227.08L786.004 227.08L786.818 226.5ZM792.682 231.045L792.299 231.969L792.303 231.971L792.682 231.045ZM809.136 231.364L808.781 230.429L808.776 230.431L809.136 231.364ZM814.091 227.955L813.307 227.334L813.307 227.334L814.091 227.955ZM815.864 222.955L816.864 222.971L816.864 222.954L816.863 222.937L815.864 222.955ZM814.227 218.455L813.459 219.095L813.467 219.104L814.227 218.455ZM809.318 215.182L808.923 216.1L808.93 216.104L808.938 216.107L809.318 215.182ZM800.955 212.591L800.727 213.565L800.728 213.565L800.955 212.591ZM791.227 210.318L791.455 209.344L791.451 209.343L791.227 210.318ZM772.182 201.364L771.515 202.109L771.517 202.111L772.182 201.364ZM765.273 184.545L766.273 184.55L766.273 184.54L765.273 184.545ZM769.909 169.409L769.098 168.825L769.098 168.825L769.909 169.409ZM782.864 159.273L783.266 160.188L783.266 160.188L782.864 159.273ZM820.5 159.318L820.08 160.226L820.086 160.229L820.5 159.318ZM832.909 169.545L833.74 168.989L833.74 168.989L832.909 169.545ZM837.409 184.818V185.818H838.42L838.409 184.808L837.409 184.818ZM816.86 184.728C816.534 181.15 815.068 178.292 812.429 176.254L811.207 177.837C813.356 179.496 814.587 181.82 814.868 184.909L816.86 184.728ZM812.44 176.263C809.835 174.192 806.202 173.227 801.682 173.227V175.227C805.949 175.227 809.074 176.142 811.196 177.828L812.44 176.263ZM801.682 173.227C798.694 173.227 796.137 173.615 794.045 174.432L794.773 176.295C796.56 175.597 798.851 175.227 801.682 175.227V173.227ZM794.045 174.432C791.974 175.241 790.345 176.388 789.237 177.912L790.854 179.088C791.685 177.945 792.965 177.001 794.773 176.295L794.045 174.432ZM789.243 177.903C788.143 179.382 787.579 181.086 787.546 182.982L789.545 183.018C789.572 181.52 790.009 180.225 790.848 179.097L789.243 177.903ZM787.546 182.957C787.479 184.512 787.783 185.931 788.495 187.178L790.232 186.186C789.732 185.311 789.491 184.276 789.545 183.043L787.546 182.957ZM788.506 187.196C789.227 188.397 790.242 189.436 791.522 190.322L792.66 188.678C791.576 187.928 790.773 187.088 790.221 186.167L788.506 187.196ZM791.546 190.338C792.837 191.178 794.365 191.907 796.118 192.533L796.791 190.649C795.15 190.063 793.769 189.398 792.636 188.662L791.546 190.338ZM796.118 192.533C797.864 193.156 799.816 193.698 801.972 194.16L802.391 192.204C800.305 191.757 798.439 191.238 796.791 190.649L796.118 192.533ZM801.96 194.157L809.96 195.975L810.403 194.025L802.403 192.207L801.96 194.157ZM809.97 195.977C814.516 196.964 818.502 198.276 821.935 199.904L822.792 198.096C819.195 196.391 815.06 195.036 810.394 194.023L809.97 195.977ZM821.938 199.905C825.402 201.533 828.277 203.46 830.579 205.675L831.966 204.234C829.481 201.843 826.416 199.8 822.789 198.095L821.938 199.905ZM830.584 205.68C832.91 207.889 834.662 210.425 835.849 213.292L837.697 212.526C836.399 209.393 834.484 206.626 831.961 204.23L830.584 205.68ZM835.849 213.292C837.035 216.157 837.652 219.391 837.682 223.008L839.682 222.992C839.651 219.155 838.995 215.661 837.697 212.526L835.849 213.292ZM837.682 222.995C837.652 228.701 836.214 233.542 833.407 237.564L835.047 238.709C838.119 234.307 839.651 229.057 839.682 223.005L837.682 222.995ZM833.407 237.564C830.595 241.594 826.534 244.71 821.169 246.892L821.922 248.745C827.587 246.441 831.981 243.103 835.047 238.709L833.407 237.564ZM821.167 246.893C815.833 249.073 809.348 250.182 801.682 250.182V252.182C809.531 252.182 816.288 251.048 821.924 248.744L821.167 246.893ZM801.682 250.182C793.991 250.182 787.336 249.03 781.692 246.754L780.944 248.609C786.876 251.001 793.796 252.182 801.682 252.182V250.182ZM781.692 246.754C776.072 244.489 771.738 241.064 768.647 236.486L766.989 237.605C770.323 242.542 774.988 246.208 780.944 248.609L781.692 246.754ZM768.647 236.486C765.57 231.928 763.953 226.117 763.864 218.988L761.864 219.012C761.956 226.428 763.642 232.647 766.989 237.605L768.647 236.486ZM762.864 220H784.409V218H762.864V220ZM783.411 219.06C783.602 222.205 784.449 224.897 786.004 227.08L787.633 225.92C786.339 224.103 785.58 221.795 785.407 218.94L783.411 219.06ZM786.004 227.08C787.547 229.247 789.658 230.874 792.299 231.969L793.065 230.122C790.736 229.156 788.938 227.753 787.633 225.92L786.004 227.08ZM792.303 231.971C794.961 233.06 798.003 233.591 801.409 233.591V231.591C798.209 231.591 795.433 231.092 793.061 230.12L792.303 231.971ZM801.409 233.591C804.524 233.591 807.229 233.171 809.496 232.297L808.776 230.431C806.801 231.192 804.355 231.591 801.409 231.591V233.591ZM809.492 232.298C811.772 231.431 813.587 230.202 814.875 228.575L813.307 227.334C812.291 228.617 810.804 229.66 808.781 230.429L809.492 232.298ZM814.875 228.575C816.165 226.946 816.83 225.066 816.864 222.971L814.864 222.938C814.837 224.6 814.32 226.054 813.307 227.334L814.875 228.575ZM816.863 222.937C816.83 220.967 816.211 219.238 814.988 217.805L813.467 219.104C814.365 220.156 814.837 221.427 814.864 222.972L816.863 222.937ZM814.995 217.814C813.795 216.373 811.999 215.202 809.698 214.257L808.938 216.107C811.062 216.98 812.539 217.99 813.459 219.095L814.995 217.814ZM809.714 214.263C807.458 213.292 804.608 212.413 801.181 211.617L800.728 213.565C804.089 214.345 806.814 215.193 808.923 216.1L809.714 214.263ZM801.182 211.617L791.455 209.344L791 211.292L800.727 213.565L801.182 211.617ZM791.451 209.343C783.501 207.52 777.322 204.595 772.846 200.616L771.517 202.111C776.314 206.375 782.832 209.419 791.004 211.293L791.451 209.343ZM772.849 200.619C768.455 196.685 766.243 191.367 766.273 184.55L764.273 184.541C764.241 191.845 766.636 197.74 771.515 202.109L772.849 200.619ZM766.273 184.54C766.243 178.977 767.733 174.142 770.721 169.994L769.098 168.825C765.843 173.343 764.241 178.599 764.273 184.551L766.273 184.54ZM770.721 169.994C773.725 165.823 777.893 162.55 783.266 160.188L782.461 158.357C776.804 160.844 772.336 164.329 769.098 168.825L770.721 169.994ZM783.266 160.188C788.634 157.828 794.782 156.636 801.727 156.636V154.636C794.552 154.636 788.123 155.869 782.461 158.357L783.266 160.188ZM801.727 156.636C808.827 156.636 814.936 157.845 820.08 160.226L820.92 158.411C815.458 155.883 809.051 154.636 801.727 154.636V156.636ZM820.086 160.229C825.269 162.584 829.253 165.879 832.078 170.101L833.74 168.989C830.686 164.424 826.398 160.9 820.914 158.408L820.086 160.229ZM832.078 170.101C834.899 174.319 836.35 179.216 836.409 184.829L838.409 184.808C838.347 178.845 836.798 173.56 833.74 168.989L832.078 170.101ZM837.409 183.818H815.864V185.818H837.409V183.818Z" fill="black"/>
</svg>
