<svg width="930" height="252" viewBox="0 0 930 252" fill="none" xmlns="http://www.w3.org/2000/svg">
<path d="M57.3636 1.90909V0.909088H56.3636V1.90909H57.3636ZM79.8182 1.90909H80.8182V0.909088H79.8182V1.90909ZM74.8636 80.0909L75.704 80.6329L75.7055 80.6307L74.8636 80.0909ZM61.0455 92L61.4721 92.9044L61.4759 92.9026L61.0455 92ZM19.7273 92L19.2968 92.9026L19.3006 92.9044L19.7273 92ZM5.95455 80.0909L5.11047 80.6271L5.11191 80.6294L5.95455 80.0909ZM1.04545 1.90909V0.909088H0.045455V1.90909H1.04545ZM23.5455 1.90909H24.5455V0.909088H23.5455V1.90909ZM25.6364 68.5909L24.7617 69.0757L24.7662 69.0837L25.6364 68.5909ZM31.5909 74.5L32.0792 73.6273L32.0792 73.6273L31.5909 74.5ZM49.2727 74.5L48.7844 73.6273L48.78 73.6298L49.2727 74.5ZM57.3636 2.90909H79.8182V0.909088H57.3636V2.90909ZM78.8182 1.90909V61.9545H80.8182V1.90909H78.8182ZM78.8182 61.9545C78.8182 68.729 77.2082 74.5816 74.0218 79.5512L75.7055 80.6307C79.1251 75.2972 80.8182 69.0589 80.8182 61.9545H78.8182ZM74.0233 79.5489C70.8283 84.5026 66.3696 88.3529 60.615 91.0974L61.4759 92.9026C67.5395 90.0107 72.2929 85.9216 75.704 80.6329L74.0233 79.5489ZM60.6188 91.0956C54.8668 93.8094 48.1538 95.1818 40.4545 95.1818V97.1818C48.3917 97.1818 55.406 95.7664 61.4721 92.9044L60.6188 91.0956ZM40.4545 95.1818C32.6625 95.1818 25.9045 93.8087 20.154 91.0956L19.3006 92.9044C25.3682 95.7671 32.4285 97.1818 40.4545 97.1818V95.1818ZM20.1577 91.0974C14.4038 88.3532 9.96146 84.5039 6.79718 79.5524L5.11191 80.6294C8.49308 85.9203 13.2325 90.0104 19.2968 92.9026L20.1577 91.0974ZM6.79862 79.5547C3.64117 74.5846 2.04545 68.7307 2.04545 61.9545H0.045455C0.045455 69.0572 1.72247 75.2942 5.11048 80.6271L6.79862 79.5547ZM2.04545 61.9545V1.90909H0.045455V61.9545H2.04545ZM1.04545 2.90909H23.5455V0.909088H1.04545V2.90909ZM22.5455 1.90909V60H24.5455V1.90909H22.5455ZM22.5455 60C22.5455 63.3615 23.2763 66.3954 24.7617 69.0757L26.511 68.1062C25.2086 65.7561 24.5455 63.0628 24.5455 60H22.5455ZM24.7662 69.0837C26.2814 71.7595 28.3991 73.86 31.1026 75.3727L32.0792 73.6273C29.6919 72.2915 27.8398 70.4526 26.5065 68.0982L24.7662 69.0837ZM31.1026 75.3727C33.8188 76.8924 36.9464 77.6364 40.4545 77.6364V75.6364C37.2354 75.6364 34.4539 74.956 32.0792 73.6273L31.1026 75.3727ZM40.4545 77.6364C43.9624 77.6364 47.077 76.8925 49.7655 75.3702L48.78 73.6298C46.4381 74.9559 43.674 75.6364 40.4545 75.6364V77.6364ZM49.761 75.3727C52.4646 73.86 54.5822 71.7595 56.0974 69.0837L54.3571 68.0982C53.0239 70.4526 51.1718 72.2915 48.7844 73.6273L49.761 75.3727ZM56.0974 69.0837C57.616 66.402 58.3636 63.3652 58.3636 60H56.3636C56.3636 63.0591 55.6871 65.7495 54.3571 68.0982L56.0974 69.0837ZM58.3636 60V1.90909H56.3636V60H58.3636ZM90.875 20.1818H89.875V21.1818H90.875V20.1818ZM90.875 1.90909V0.909088H89.875V1.90909H90.875ZM169.557 1.90909H170.557V0.909088H169.557V1.90909ZM169.557 20.1818V21.1818H170.557V20.1818H169.557ZM141.33 20.1818V19.1818H140.33V20.1818H141.33ZM141.33 95V96H142.33V95H141.33ZM119.148 95H118.148V96H119.148V95ZM119.148 20.1818H120.148V19.1818H119.148V20.1818ZM91.875 20.1818V1.90909H89.875V20.1818H91.875ZM90.875 2.90909H169.557V0.909088H90.875V2.90909ZM168.557 1.90909V20.1818H170.557V1.90909H168.557ZM169.557 19.1818H141.33V21.1818H169.557V19.1818ZM140.33 20.1818V95H142.33V20.1818H140.33ZM141.33 94H119.148V96H141.33V94ZM120.148 95V20.1818H118.148V95H120.148ZM119.148 19.1818H90.875V21.1818H119.148V19.1818ZM180.545 95H179.545V96H180.545V95ZM180.545 1.90909V0.909088H179.545V1.90909H180.545ZM203.045 1.90909H204.045V0.909088H203.045V1.90909ZM203.045 41.2727H202.045V42.2727H203.045V41.2727ZM204.273 41.2727V42.2727H204.76L205.061 41.8886L204.273 41.2727ZM235.045 1.90909V0.909088H234.558L234.258 1.2932L235.045 1.90909ZM261.545 1.90909L262.328 2.53106L263.617 0.909088H261.545V1.90909ZM228.545 43.4545L227.762 42.8326L227.314 43.3968L227.708 44.0005L228.545 43.4545ZM262.136 95V96H263.982L262.974 94.454L262.136 95ZM235.227 95L234.383 95.5352L234.677 96H235.227V95ZM212.045 58.4091L212.89 57.8739L212.136 56.6838L211.262 57.7882L212.045 58.4091ZM203.045 69.7727L202.262 69.1519L202.045 69.4247V69.7727H203.045ZM203.045 95V96H204.045V95H203.045ZM181.545 95V1.90909H179.545V95H181.545ZM180.545 2.90909H203.045V0.909088H180.545V2.90909ZM202.045 1.90909V41.2727H204.045V1.90909H202.045ZM203.045 42.2727H204.273V40.2727H203.045V42.2727ZM205.061 41.8886L235.833 2.52498L234.258 1.2932L203.485 40.6568L205.061 41.8886ZM235.045 2.90909H261.545V0.909088H235.045V2.90909ZM260.762 1.28711L227.762 42.8326L229.328 44.0765L262.328 2.53106L260.762 1.28711ZM227.708 44.0005L261.299 95.546L262.974 94.454L229.383 42.9086L227.708 44.0005ZM262.136 94H235.227V96H262.136V94ZM236.072 94.4648L212.89 57.8739L211.201 58.9443L234.383 95.5352L236.072 94.4648ZM211.262 57.7882L202.262 69.1519L203.829 70.3936L212.829 59.03L211.262 57.7882ZM202.045 69.7727V95H204.045V69.7727H202.045ZM203.045 94H180.545V96H203.045V94ZM270.42 95H269.42V96H270.42V95ZM270.42 1.90909V0.909088H269.42V1.90909H270.42ZM326.92 5.68182L326.475 6.57734L326.482 6.58048L326.92 5.68182ZM338.693 16.4091L337.832 16.9178L337.834 16.9203L338.693 16.4091ZM338.602 49.3636L339.449 49.8957L339.451 49.8931L338.602 49.3636ZM326.602 59.6364L327.013 60.5482L327.017 60.5462L326.602 59.6364ZM283.875 63.1364H282.875V64.1364H283.875V63.1364ZM283.875 45.4091V44.4091H282.875V45.4091H283.875ZM312.511 44.0909L312.872 45.0236L312.879 45.0211L312.511 44.0909ZM317.739 40L318.577 40.545L318.581 40.5387L317.739 40ZM317.739 25.7727L316.888 26.2991L316.892 26.3052L317.739 25.7727ZM312.511 21.5L312.123 22.4217L312.134 22.4259L312.511 21.5ZM292.92 20.0455V19.0455H291.92V20.0455H292.92ZM292.92 95V96H293.92V95H292.92ZM322.83 52.4545L323.708 51.9761L323.423 51.4545H322.83V52.4545ZM346.011 95V96H347.695L346.889 94.5215L346.011 95ZM321.466 95L320.584 95.4712L320.866 96H321.466V95ZM298.739 52.4545V51.4545H297.071L297.857 52.9257L298.739 52.4545ZM271.42 95V1.90909H269.42V95H271.42ZM270.42 2.90909H308.875V0.909088H270.42V2.90909ZM308.875 2.90909C315.726 2.90909 321.582 4.14506 326.475 6.57731L327.366 4.78632C322.138 2.18827 315.964 0.909088 308.875 0.909088V2.90909ZM326.482 6.58048C331.405 8.98356 335.179 12.4275 337.832 16.9178L339.554 15.9004C336.692 11.0573 332.618 7.34977 327.359 4.78315L326.482 6.58048ZM337.834 16.9203C340.484 21.3762 341.83 26.6928 341.83 32.9091H343.83C343.83 26.3981 342.418 20.7147 339.553 15.8979L337.834 16.9203ZM341.83 32.9091C341.83 39.2164 340.454 44.5086 337.754 48.8341L339.451 49.8931C342.387 45.1883 343.83 39.5108 343.83 32.9091H341.83ZM337.756 48.8316C335.049 53.1385 331.205 56.4376 326.187 58.7265L327.017 60.5462C332.363 58.1079 336.519 54.5585 339.449 49.8957L337.756 48.8316ZM326.192 58.7245C321.167 60.9872 315.177 62.1364 308.193 62.1364V64.1364C315.392 64.1364 321.674 62.9522 327.013 60.5482L326.192 58.7245ZM308.193 62.1364H283.875V64.1364H308.193V62.1364ZM284.875 63.1364V45.4091H282.875V63.1364H284.875ZM283.875 46.4091H304.011V44.4091H283.875V46.4091ZM304.011 46.4091C307.484 46.4091 310.449 45.9606 312.872 45.0236L312.151 43.1582C310.029 43.9788 307.327 44.4091 304.011 44.4091V46.4091ZM312.879 45.0211C315.346 44.0469 317.266 42.5614 318.577 40.545L316.9 39.455C315.847 41.075 314.282 42.3167 312.144 43.1608L312.879 45.0211ZM318.581 40.5387C319.893 38.4863 320.511 35.9203 320.511 32.9091H318.511C318.511 35.6555 317.948 37.8167 316.896 39.4613L318.581 40.5387ZM320.511 32.9091C320.511 29.8969 319.893 27.3195 318.585 25.2403L316.892 26.3052C317.948 27.9836 318.511 30.1637 318.511 32.9091H320.511ZM318.589 25.2464C317.284 23.1381 315.366 21.5843 312.889 20.5741L312.134 22.4259C314.263 23.2945 315.83 24.5891 316.888 26.2991L318.589 25.2464ZM312.899 20.5784C310.439 19.5424 307.465 19.0455 304.011 19.0455V21.0455C307.285 21.0455 309.978 21.5182 312.123 22.4216L312.899 20.5784ZM304.011 19.0455H292.92V21.0455H304.011V19.0455ZM291.92 20.0455V95H293.92V20.0455H291.92ZM292.92 94H270.42V96H292.92V94ZM321.951 52.933L345.133 95.4785L346.889 94.5215L323.708 51.9761L321.951 52.933ZM346.011 94H321.466V96H346.011V94ZM322.348 94.5288L299.621 51.9834L297.857 52.9257L320.584 95.4712L322.348 94.5288ZM298.739 53.4545H322.83V51.4545H298.739V53.4545ZM377.67 1.90909H378.67V0.909088H377.67V1.90909ZM377.67 95V96H378.67V95H377.67ZM355.17 95H354.17V96H355.17V95ZM355.17 1.90909V0.909088H354.17V1.90909H355.17ZM376.67 1.90909V95H378.67V1.90909H376.67ZM377.67 94H355.17V96H377.67V94ZM356.17 95V1.90909H354.17V95H356.17ZM355.17 2.90909H377.67V0.909088H355.17V2.90909ZM442.114 29.8182L441.118 29.9087L441.2 30.8182H442.114V29.8182ZM438.068 22.0455L437.446 22.8284L437.457 22.837L438.068 22.0455ZM420.659 20.3636L420.295 19.4322L420.295 19.4322L420.659 20.3636ZM416.295 23.5L417.098 24.097L417.104 24.0882L416.295 23.5ZM414.795 28L415.795 28.0434L415.795 28.0307L415.795 28.0179L414.795 28ZM415.614 31.6818L414.745 32.178L414.751 32.1872L414.756 32.1963L415.614 31.6818ZM418.341 34.5L417.772 35.3222L417.784 35.3305L417.796 35.3384L418.341 34.5ZM422.705 36.5909L423.041 35.6492L423.041 35.6492L422.705 36.5909ZM428.432 38.1818L428.653 37.2066L428.641 37.204L428.432 38.1818ZM436.432 40L436.21 40.9752L436.22 40.9772L436.432 40ZM448.614 44L448.185 44.9036L448.188 44.905L448.614 44ZM457.523 49.9545L456.829 50.6752L456.834 50.6795L457.523 49.9545ZM463.023 57.9091L462.099 58.2917L462.099 58.2917L463.023 57.9091ZM464.932 68L465.932 68.0052L465.932 67.9919L464.932 68ZM460.477 83.1364L459.657 82.5641L459.657 82.5641L460.477 83.1364ZM447.795 92.8182L447.419 91.8918L447.417 91.8926L447.795 92.8182ZM407.568 92.6818L407.942 91.7543L407.942 91.7543L407.568 92.6818ZM389.114 64V63H388.101L388.114 64.0125L389.114 64ZM410.659 64L411.657 63.9395L411.6 63H410.659V64ZM413.068 71.5L412.254 72.0801L412.254 72.0801L413.068 71.5ZM418.932 76.0455L418.549 76.9692L418.553 76.9708L418.932 76.0455ZM435.386 76.3636L435.031 75.4289L435.026 75.4306L435.386 76.3636ZM440.341 72.9545L439.557 72.3338L439.557 72.3338L440.341 72.9545ZM442.114 67.9545L443.114 67.9707L443.114 67.954L443.113 67.9373L442.114 67.9545ZM440.477 63.4545L439.709 64.0948L439.717 64.1038L440.477 63.4545ZM435.568 60.1818L435.173 61.1003L435.18 61.1036L435.188 61.1068L435.568 60.1818ZM427.205 57.5909L426.977 58.5647L426.978 58.565L427.205 57.5909ZM417.477 55.3182L417.705 54.3444L417.701 54.3435L417.477 55.3182ZM398.432 46.3636L397.765 47.1086L397.767 47.111L398.432 46.3636ZM391.523 29.5455L392.523 29.5497L392.523 29.5402L391.523 29.5455ZM396.159 14.4091L395.348 13.8246L395.348 13.8246L396.159 14.4091ZM409.114 4.27273L409.516 5.18819L409.516 5.18819L409.114 4.27273ZM446.75 4.31818L446.33 5.2257L446.336 5.22854L446.75 4.31818ZM459.159 14.5455L459.99 13.9894L459.99 13.9894L459.159 14.5455ZM463.659 29.8182V30.8182H464.67L464.659 29.8077L463.659 29.8182ZM443.11 29.7276C442.784 26.1501 441.318 23.2915 438.679 21.2539L437.457 22.837C439.606 24.4963 440.837 26.8196 441.118 29.9087L443.11 29.7276ZM438.69 21.2626C436.085 19.1917 432.452 18.2273 427.932 18.2273V20.2273C432.199 20.2273 435.324 21.1416 437.446 22.8283L438.69 21.2626ZM427.932 18.2273C424.944 18.2273 422.387 18.6152 420.295 19.4322L421.023 21.2951C422.81 20.5969 425.101 20.2273 427.932 20.2273V18.2273ZM420.295 19.4322C418.224 20.2411 416.595 21.3879 415.487 22.9118L417.104 24.0882C417.935 22.9454 419.215 22.0013 421.023 21.2951L420.295 19.4322ZM415.493 22.903C414.393 24.3815 413.829 26.0862 413.796 27.9821L415.795 28.0179C415.822 26.5198 416.259 25.2245 417.098 24.097L415.493 22.903ZM413.796 27.9566C413.729 29.5116 414.033 30.9311 414.745 32.178L416.482 31.1857C415.982 30.3113 415.741 29.2762 415.795 28.0434L413.796 27.9566ZM414.756 32.1963C415.477 33.397 416.492 34.4361 417.772 35.3222L418.91 33.6778C417.826 32.9275 417.023 32.0878 416.471 31.1673L414.756 32.1963ZM417.796 35.3384C419.087 36.1777 420.615 36.9065 422.368 37.5326L423.041 35.6492C421.4 35.0632 420.019 34.3981 418.886 33.6616L417.796 35.3384ZM422.368 37.5326C424.114 38.1561 426.066 38.6976 428.222 39.1596L428.641 37.204C426.555 36.7569 424.689 36.2378 423.041 35.6492L422.368 37.5326ZM428.21 39.1569L436.21 40.9751L436.653 39.0249L428.653 37.2067L428.21 39.1569ZM436.22 40.9772C440.766 41.9643 444.752 43.2757 448.185 44.9036L449.042 43.0964C445.445 41.391 441.31 40.0357 436.644 39.0228L436.22 40.9772ZM448.188 44.905C451.652 46.5334 454.527 48.46 456.829 50.6752L458.216 49.2339C455.731 46.843 452.666 44.8 449.039 43.095L448.188 44.905ZM456.834 50.6795C459.16 52.8891 460.912 55.4249 462.099 58.2917L463.947 57.5265C462.649 54.3932 460.734 51.626 458.211 49.2295L456.834 50.6795ZM462.099 58.2917C463.285 61.1567 463.902 64.3906 463.932 68.0081L465.932 67.9919C465.901 64.1549 465.245 60.6615 463.947 57.5265L462.099 58.2917ZM463.932 67.9948C463.902 73.701 462.464 78.5416 459.657 82.5641L461.297 83.7086C464.369 79.3069 465.901 74.0565 465.932 68.0052L463.932 67.9948ZM459.657 82.5641C456.845 86.5939 452.784 89.7103 447.419 91.8918L448.172 93.7445C453.837 91.4412 458.231 88.1031 461.297 83.7086L459.657 82.5641ZM447.417 91.8926C442.083 94.0732 435.598 95.1818 427.932 95.1818V97.1818C435.781 97.1818 442.538 96.048 448.174 93.7438L447.417 91.8926ZM427.932 95.1818C420.241 95.1818 413.586 94.0295 407.942 91.7543L407.194 93.6093C413.126 96.0008 420.046 97.1818 427.932 97.1818V95.1818ZM407.942 91.7543C402.322 89.4888 397.988 86.0638 394.897 81.4859L393.239 82.605C396.573 87.5423 401.238 91.2082 407.194 93.6093L407.942 91.7543ZM394.897 81.4859C391.82 76.9283 390.203 71.117 390.114 63.9875L388.114 64.0125C388.206 71.4285 389.892 77.6475 393.239 82.605L394.897 81.4859ZM389.114 65H410.659V63H389.114V65ZM409.661 64.0605C409.852 67.2055 410.699 69.8965 412.254 72.0801L413.883 70.9199C412.589 69.1035 411.83 66.7945 411.657 63.9395L409.661 64.0605ZM412.254 72.0801C413.797 74.2473 415.908 75.8742 418.549 76.9692L419.315 75.1217C416.986 74.1561 415.188 72.7527 413.883 70.9199L412.254 72.0801ZM418.553 76.9708C421.211 78.0598 424.253 78.5909 427.659 78.5909V76.5909C424.459 76.5909 421.683 76.0917 419.311 75.1201L418.553 76.9708ZM427.659 78.5909C430.774 78.5909 433.479 78.1711 435.746 77.2966L435.026 75.4306C433.051 76.1925 430.605 76.5909 427.659 76.5909V78.5909ZM435.742 77.2983C438.022 76.4314 439.837 75.2016 441.125 73.5752L439.557 72.3338C438.541 73.6166 437.054 74.6595 435.031 75.4289L435.742 77.2983ZM441.125 73.5752C442.415 71.946 443.08 70.0662 443.114 67.9707L441.114 67.9384C441.087 69.6005 440.57 71.054 439.557 72.3338L441.125 73.5752ZM443.113 67.9373C443.08 65.9666 442.461 64.2381 441.238 62.8053L439.717 64.1038C440.615 65.1558 441.087 66.4273 441.114 67.9718L443.113 67.9373ZM441.245 62.8144C440.045 61.3734 438.249 60.2023 435.948 59.2569L435.188 61.1068C437.312 61.9796 438.789 62.9903 439.709 64.0947L441.245 62.8144ZM435.964 59.2633C433.708 58.2923 430.858 57.4125 427.431 56.6168L426.978 58.565C430.339 59.345 433.064 60.1926 435.173 61.1003L435.964 59.2633ZM427.432 56.6171L417.705 54.3444L417.25 56.292L426.977 58.5647L427.432 56.6171ZM417.701 54.3435C409.751 52.5205 403.572 49.5948 399.096 45.6162L397.767 47.111C402.564 51.3749 409.082 54.4189 417.254 56.2929L417.701 54.3435ZM399.099 45.6186C394.705 41.6846 392.493 36.3672 392.523 29.5497L390.523 29.5412C390.491 36.8449 392.886 42.7397 397.765 47.1086L399.099 45.6186ZM392.523 29.5402C392.493 23.9767 393.983 19.1415 396.971 14.9935L395.348 13.8246C392.093 18.3433 390.491 23.5991 390.523 29.5507L392.523 29.5402ZM396.971 14.9935C399.975 10.8229 404.143 7.54999 409.516 5.18819L408.711 3.35726C403.054 5.84395 398.586 9.32858 395.348 13.8246L396.971 14.9935ZM409.516 5.18819C414.884 2.82845 421.032 1.63636 427.977 1.63636V-0.36364C420.802 -0.36364 414.373 0.868512 408.711 3.35726L409.516 5.18819ZM427.977 1.63636C435.077 1.63636 441.186 2.84461 446.33 5.22568L447.17 3.41067C441.708 0.882653 435.301 -0.36364 427.977 -0.36364V1.63636ZM446.336 5.22854C451.519 7.58439 455.503 10.8786 458.328 15.1015L459.99 13.9894C456.936 9.42445 452.648 5.90045 447.164 3.40781L446.336 5.22854ZM458.328 15.1015C461.149 19.3186 462.6 24.216 462.659 29.8286L464.659 29.8077C464.597 23.8446 463.048 18.5602 459.99 13.9894L458.328 15.1015ZM463.659 28.8182H442.114V30.8182H463.659V28.8182ZM476.295 95H475.295V96H476.295V95ZM476.295 1.90909V0.909088H475.295V1.90909H476.295ZM498.795 1.90909H499.795V0.909088H498.795V1.90909ZM498.795 39.2727H497.795V40.2727H498.795V39.2727ZM535.477 39.2727V40.2727H536.477V39.2727H535.477ZM535.477 1.90909V0.909088H534.477V1.90909H535.477ZM557.932 1.90909H558.932V0.909088H557.932V1.90909ZM557.932 95V96H558.932V95H557.932ZM535.477 95H534.477V96H535.477V95ZM535.477 57.5909H536.477V56.5909H535.477V57.5909ZM498.795 57.5909V56.5909H497.795V57.5909H498.795ZM498.795 95V96H499.795V95H498.795ZM477.295 95V1.90909H475.295V95H477.295ZM476.295 2.90909H498.795V0.909088H476.295V2.90909ZM497.795 1.90909V39.2727H499.795V1.90909H497.795ZM498.795 40.2727H535.477V38.2727H498.795V40.2727ZM536.477 39.2727V1.90909H534.477V39.2727H536.477ZM535.477 2.90909H557.932V0.909088H535.477V2.90909ZM556.932 1.90909V95H558.932V1.90909H556.932ZM557.932 94H535.477V96H557.932V94ZM536.477 95V57.5909H534.477V95H536.477ZM535.477 56.5909H498.795V58.5909H535.477V56.5909ZM497.795 57.5909V95H499.795V57.5909H497.795ZM498.795 94H476.295V96H498.795V94ZM569 20.1818H568V21.1818H569V20.1818ZM569 1.90909V0.909088H568V1.90909H569ZM647.682 1.90909H648.682V0.909088H647.682V1.90909ZM647.682 20.1818V21.1818H648.682V20.1818H647.682ZM619.455 20.1818V19.1818H618.455V20.1818H619.455ZM619.455 95V96H620.455V95H619.455ZM597.273 95H596.273V96H597.273V95ZM597.273 20.1818H598.273V19.1818H597.273V20.1818ZM570 20.1818V1.90909H568V20.1818H570ZM569 2.90909H647.682V0.909088H569V2.90909ZM646.682 1.90909V20.1818H648.682V1.90909H646.682ZM647.682 19.1818H619.455V21.1818H647.682V19.1818ZM618.455 20.1818V95H620.455V20.1818H618.455ZM619.455 94H597.273V96H619.455V94ZM598.273 95V20.1818H596.273V95H598.273ZM597.273 19.1818H569V21.1818H597.273V19.1818ZM770.67 35.6364V36.6364H771.773L771.666 35.539L770.67 35.6364ZM747.943 35.6364L746.952 35.7651L747.065 36.6364H747.943V35.6364ZM746.08 29.3182L745.185 29.7654L745.185 29.7654L746.08 29.3182ZM742.352 24.5L743.006 23.7428L743.006 23.7428L742.352 24.5ZM736.852 21.4545L736.524 22.399L736.532 22.4019L736.54 22.4046L736.852 21.4545ZM718.216 23.6818L717.656 22.8533L717.652 22.8558L718.216 23.6818ZM710.716 33.2727L709.794 32.8853L709.792 32.891L710.716 33.2727ZM710.761 64L709.839 64.3875L709.843 64.3955L710.761 64ZM718.261 73.4091L717.71 74.2436L717.719 74.2495L718.261 73.4091ZM736.534 75.5909L736.239 74.6354L736.235 74.6367L736.534 75.5909ZM741.943 72.8182L742.56 73.605L742.562 73.6035L741.943 72.8182ZM745.807 68.3182L744.94 67.8189L744.938 67.8237L745.807 68.3182ZM747.943 62.2727L747.949 61.2727L747.104 61.2677L746.958 62.0997L747.943 62.2727ZM770.67 62.4091L771.666 62.5042L771.77 61.4157L770.676 61.4091L770.67 62.4091ZM767.08 74.5909L766.185 74.1437L766.182 74.1491L767.08 74.5909ZM758.943 85.5455L759.631 86.2714L759.634 86.2682L758.943 85.5455ZM746.307 93.3636L745.943 92.4321L745.941 92.4328L746.307 93.3636ZM706.67 90.7273L706.181 91.5992L706.185 91.6018L706.67 90.7273ZM690.943 74.4545L691.823 73.9791L690.943 74.4545ZM691.034 22.4091L690.157 21.9279L690.157 21.9279L691.034 22.4091ZM744.943 3L744.631 3.94989L744.636 3.95165L744.943 3ZM757.58 9.81818L756.943 10.5896L756.947 10.5927L757.58 9.81818ZM770.67 34.6364H747.943V36.6364H770.67V34.6364ZM748.935 35.5076C748.619 33.0766 747.969 30.861 746.974 28.871L745.185 29.7654C746.069 31.533 746.661 33.5295 746.952 35.7651L748.935 35.5076ZM746.974 28.871C745.977 26.8775 744.654 25.1651 743.006 23.7428L741.699 25.2572C743.141 26.5016 744.303 28.0013 745.185 29.7654L746.974 28.871ZM743.006 23.7428C741.351 22.3156 739.399 21.2388 737.164 20.5045L736.54 22.4046C738.548 23.0643 740.262 24.0178 741.699 25.2572L743.006 23.7428ZM737.181 20.51C734.97 19.741 732.539 19.3636 729.898 19.3636V21.3636C732.348 21.3636 734.553 21.7136 736.524 22.399L737.181 20.51ZM729.898 19.3636C725.212 19.3636 721.117 20.514 717.656 22.8533L718.776 24.5103C721.86 22.4254 725.553 21.3636 729.898 21.3636V19.3636ZM717.652 22.8558C714.227 25.1926 711.614 28.5541 709.794 32.8853L711.638 33.6602C713.333 29.6277 715.72 26.5953 718.779 24.5079L717.652 22.8558ZM709.792 32.891C708.001 37.2253 707.125 42.4231 707.125 48.4545H709.125C709.125 42.6072 709.976 37.6838 711.64 33.6545L709.792 32.891ZM707.125 48.4545C707.125 54.7241 708.015 60.0472 709.839 64.3875L711.683 63.6125C709.992 59.5892 709.125 54.5486 709.125 48.4545H707.125ZM709.843 64.3955C711.694 68.6942 714.309 71.9973 717.71 74.2436L718.812 72.5746C715.79 70.5784 713.404 67.6088 711.68 63.6045L709.843 64.3955ZM717.719 74.2495C721.146 76.4592 725.174 77.5455 729.761 77.5455V75.5455C725.5 75.5455 721.861 74.5408 718.803 72.5687L717.719 74.2495ZM729.761 77.5455C732.331 77.5455 734.691 77.2164 736.833 76.5451L736.235 74.6367C734.316 75.2381 732.161 75.5455 729.761 75.5455V77.5455ZM736.829 76.5464C738.995 75.8775 740.91 74.8996 742.56 73.605L741.326 72.0313C739.886 73.161 738.194 74.0316 736.239 74.6354L736.829 76.5464ZM742.562 73.6035C744.24 72.2805 745.613 70.6815 746.676 68.8127L744.938 67.8237C744.001 69.47 742.798 70.871 741.324 72.0329L742.562 73.6035ZM746.673 68.8175C747.767 66.9187 748.516 64.7912 748.928 62.4458L746.958 62.0997C746.582 64.2391 745.907 66.1419 744.94 67.8189L746.673 68.8175ZM747.937 63.2727L770.664 63.4091L770.676 61.4091L747.949 61.2727L747.937 63.2727ZM769.675 62.3139C769.294 66.3031 768.134 70.2449 766.185 74.1437L767.974 75.0381C770.025 70.9369 771.259 66.7575 771.666 62.5042L769.675 62.3139ZM766.182 74.1491C764.268 78.0368 761.628 81.5947 758.252 84.8227L759.634 86.2682C763.167 82.8902 765.952 79.145 767.977 75.0327L766.182 74.1491ZM758.255 84.8195C754.905 87.9933 750.807 90.534 745.943 92.4321L746.67 94.2952C751.746 92.3145 756.072 89.6431 759.631 86.2714L758.255 84.8195ZM745.941 92.4328C741.14 94.3182 735.601 95.2727 729.307 95.2727V97.2727C735.801 97.2727 741.595 96.2879 746.672 94.2945L745.941 92.4328ZM729.307 95.2727C721.034 95.2727 713.659 93.459 707.155 89.8527L706.185 91.6018C713.016 95.3895 720.731 97.2727 729.307 97.2727V95.2727ZM707.16 89.8554C700.699 86.2267 695.587 80.945 691.823 73.9791L690.063 74.93C693.996 82.2065 699.369 87.7733 706.181 91.5992L707.16 89.8554ZM691.823 73.9791C688.071 67.0373 686.17 58.5432 686.17 48.4545H684.17C684.17 58.7901 686.118 67.6294 690.063 74.93L691.823 73.9791ZM686.17 48.4545C686.17 38.3373 688.101 29.8304 691.911 22.8903L690.157 21.9279C686.149 29.2302 684.17 38.0869 684.17 48.4545H686.17ZM691.911 22.8903C695.735 15.9232 700.892 10.6557 707.383 7.05635L706.413 5.30728C699.57 9.10186 694.151 14.6526 690.157 21.9279L691.911 22.8903ZM707.383 7.05635C713.888 3.44859 721.189 1.63636 729.307 1.63636V-0.36364C720.879 -0.36364 713.24 1.52111 706.413 5.30728L707.383 7.05635ZM729.307 1.63636C734.849 1.63636 739.955 2.41099 744.631 3.94988L745.256 2.05012C740.356 0.437488 735.037 -0.36364 729.307 -0.36364V1.63636ZM744.636 3.95165C749.312 5.46096 753.411 7.67516 756.943 10.5895L758.216 9.0468C754.476 5.96119 750.15 3.62994 745.25 2.04835L744.636 3.95165ZM756.947 10.5927C760.475 13.4736 763.345 17.0181 765.558 21.2372L767.329 20.3083C764.996 15.8607 761.957 12.1022 758.212 9.04364L756.947 10.5927ZM765.558 21.2372C767.762 25.441 769.14 30.2678 769.675 35.7337L771.666 35.539C771.11 29.8534 769.669 24.7711 767.329 20.3083L765.558 21.2372ZM865.5 74.5L864.625 74.0159L864.625 74.0159L865.5 74.5ZM849.5 90.7273L849.018 89.8509L849.017 89.8518L849.5 90.7273ZM804.364 90.6818L804.85 89.808L804.85 89.808L804.364 90.6818ZM788.409 74.4545L787.532 74.9358L787.535 74.9402L788.409 74.4545ZM788.409 22.4091L787.534 21.925L787.532 21.9279L788.409 22.4091ZM804.364 6.18182L804.847 7.05728L804.847 7.05728L804.364 6.18182ZM849.5 6.18182L849.017 7.05728L849.018 7.0582L849.5 6.18182ZM865.5 22.4091L864.625 22.8931L864.625 22.8931L865.5 22.4091ZM845.818 33.0909L844.892 33.4669L844.894 33.4727L845.818 33.0909ZM838.455 23.5909L837.894 24.4193L837.898 24.4217L838.455 23.5909ZM815.455 23.5909L816.011 24.4217L816.011 24.4217L815.455 23.5909ZM808.045 33.0909L807.121 32.7091L807.119 32.7149L808.045 33.0909ZM808.045 63.8182L807.119 64.1942L807.121 64.1999L808.045 63.8182ZM815.455 73.3182L816.011 72.4873L816.011 72.4873L815.455 73.3182ZM838.455 73.3182L837.898 72.4873L837.894 72.4898L838.455 73.3182ZM845.818 63.8182L844.894 63.4364L844.892 63.4422L845.818 63.8182ZM870.409 48.4545C870.409 58.5706 868.464 67.0765 864.625 74.0159L866.375 74.9841C870.415 67.6811 872.409 58.8233 872.409 48.4545H870.409ZM864.625 74.0159C860.771 80.9823 855.57 86.2505 849.018 89.8509L849.982 91.6037C856.885 87.8101 862.35 82.2602 866.375 74.9841L864.625 74.0159ZM849.017 89.8518C842.481 93.4599 835.134 95.2727 826.955 95.2727V97.2727C835.441 97.2727 843.125 95.3886 849.983 91.6027L849.017 89.8518ZM826.955 95.2727C818.745 95.2727 811.385 93.4451 804.85 89.808L803.877 91.5556C810.736 95.3731 818.437 97.2727 826.955 97.2727V95.2727ZM804.85 89.808C798.326 86.1768 793.138 80.9067 789.283 73.9689L787.535 74.9402C791.559 82.1842 797.008 87.7323 803.877 91.5556L804.85 89.808ZM789.286 73.9733C785.476 67.0328 783.545 58.5409 783.545 48.4545H781.545C781.545 58.7924 783.524 67.6338 787.532 74.9357L789.286 73.9733ZM783.545 48.4545C783.545 38.3373 785.476 29.8304 789.286 22.8903L787.532 21.9279C783.524 29.2302 781.545 38.0869 781.545 48.4545H783.545ZM789.284 22.8931C793.138 15.9257 798.325 10.6574 804.847 7.05728L803.88 5.30635C797.008 9.1002 791.559 14.6501 787.534 21.925L789.284 22.8931ZM804.847 7.05728C811.382 3.44947 818.744 1.63636 826.955 1.63636V-0.36364C818.438 -0.36364 810.739 1.52022 803.88 5.30635L804.847 7.05728ZM826.955 1.63636C835.134 1.63636 842.481 3.44918 849.017 7.05728L849.983 5.30635C843.125 1.52051 835.441 -0.36364 826.955 -0.36364V1.63636ZM849.018 7.0582C855.57 10.6586 860.771 15.9268 864.625 22.8931L866.375 21.925C862.35 14.6489 856.885 9.09896 849.982 5.30543L849.018 7.0582ZM864.625 22.8931C868.464 29.8326 870.409 38.3384 870.409 48.4545H872.409C872.409 38.0858 870.415 29.228 866.375 21.925L864.625 22.8931ZM849.409 48.4545C849.409 42.3049 848.534 37.0456 846.742 32.7091L844.894 33.4727C846.557 37.4999 847.409 42.483 847.409 48.4545H849.409ZM846.745 32.7149C844.986 28.3797 842.416 25.0405 839.011 22.7601L837.898 24.4217C840.918 26.4444 843.257 29.4385 844.892 33.4669L846.745 32.7149ZM839.015 22.7625C835.641 20.4814 831.605 19.3636 826.955 19.3636V21.3636C831.274 21.3636 834.904 22.3974 837.894 24.4193L839.015 22.7625ZM826.955 19.3636C822.333 19.3636 818.299 20.4822 814.898 22.7601L816.011 24.4217C819.035 22.3966 822.667 21.3636 826.955 21.3636V19.3636ZM814.898 22.7601C811.495 25.0393 808.911 28.3764 807.121 32.7091L808.97 33.4727C810.635 29.4418 812.99 26.4455 816.011 24.4217L814.898 22.7601ZM807.119 32.7149C805.36 37.0495 804.5 42.3067 804.5 48.4545H806.5C806.5 42.4812 807.337 37.496 808.972 33.4669L807.119 32.7149ZM804.5 48.4545C804.5 54.6024 805.36 59.8596 807.119 64.1942L808.972 63.4422C807.337 59.4131 806.5 54.4279 806.5 48.4545H804.5ZM807.121 64.1999C808.911 68.5327 811.495 71.8697 814.898 74.149L816.011 72.4873C812.99 70.4636 810.635 67.4673 808.97 63.4364L807.121 64.1999ZM814.898 74.149C818.299 76.4269 822.333 77.5455 826.955 77.5455V75.5455C822.667 75.5455 819.035 74.5125 816.011 72.4873L814.898 74.149ZM826.955 77.5455C831.605 77.5455 835.641 76.4277 839.015 74.1466L837.894 72.4898C834.904 74.5117 831.274 75.5455 826.955 75.5455V77.5455ZM839.011 74.149C842.416 71.8686 844.986 68.5294 846.745 64.1942L844.892 63.4422C843.257 67.4706 840.918 70.4647 837.898 72.4873L839.011 74.149ZM846.742 64.1999C848.534 59.8635 849.409 54.6042 849.409 48.4545H847.409C847.409 54.4261 846.557 59.4092 844.894 63.4364L846.742 64.1999ZM929.227 39.9091H930.227V38.9091H929.227V39.9091ZM929.227 57V58H930.227V57H929.227ZM886.136 57H885.136V58H886.136V57ZM886.136 39.9091V38.9091H885.136V39.9091H886.136ZM928.227 39.9091V57H930.227V39.9091H928.227ZM929.227 56H886.136V58H929.227V56ZM887.136 57V39.9091H885.136V57H887.136ZM886.136 40.9091H929.227V38.9091H886.136V40.9091ZM83 229.5L82.125 229.016L82.125 229.016L83 229.5ZM67 245.727L66.5184 244.851L66.5167 244.852L67 245.727ZM21.8636 245.682L22.35 244.808L22.35 244.808L21.8636 245.682ZM5.90909 229.455L5.03247 229.936L5.03493 229.94L5.90909 229.455ZM5.90909 177.409L5.03405 176.925L5.03248 176.928L5.90909 177.409ZM21.8636 161.182L22.3469 162.057L22.3469 162.057L21.8636 161.182ZM67 161.182L66.5167 162.057L66.5184 162.058L67 161.182ZM83 177.409L82.125 177.893L82.125 177.893L83 177.409ZM63.3182 188.091L62.3916 188.467L62.3939 188.473L63.3182 188.091ZM55.9545 178.591L55.3944 179.419L55.398 179.422L55.9545 178.591ZM32.9545 178.591L33.5111 179.422L33.5111 179.422L32.9545 178.591ZM25.5455 188.091L24.6212 187.709L24.6188 187.715L25.5455 188.091ZM25.5455 218.818L24.6188 219.194L24.6212 219.2L25.5455 218.818ZM32.9545 228.318L33.5111 227.487L33.5111 227.487L32.9545 228.318ZM55.9545 228.318L55.398 227.487L55.3944 227.49L55.9545 228.318ZM63.3182 218.818L62.3939 218.436L62.3916 218.442L63.3182 218.818ZM87.9091 203.455C87.9091 213.571 85.9638 222.076 82.125 229.016L83.875 229.984C87.915 222.681 89.9091 213.823 89.9091 203.455H87.9091ZM82.125 229.016C78.2713 235.982 73.07 241.25 66.5184 244.851L67.4816 246.604C74.3846 242.81 79.85 237.26 83.875 229.984L82.125 229.016ZM66.5167 244.852C59.9807 248.46 52.6344 250.273 44.4545 250.273V252.273C52.9414 252.273 60.6253 250.389 67.4833 246.603L66.5167 244.852ZM44.4545 250.273C36.2452 250.273 28.8849 248.445 22.35 244.808L21.3773 246.556C28.2363 250.373 35.9366 252.273 44.4545 252.273V250.273ZM22.35 244.808C15.8256 241.177 10.6376 235.907 6.78325 228.969L5.03493 229.94C9.05936 237.184 14.5077 242.732 21.3773 246.556L22.35 244.808ZM6.7857 228.973C2.9758 222.033 1.04545 213.541 1.04545 203.455H-0.954545C-0.954545 213.792 1.0242 222.634 5.03248 229.936L6.7857 228.973ZM1.04545 203.455C1.04545 193.337 2.97602 184.83 6.7857 177.89L5.03248 176.928C1.02398 184.23 -0.954545 193.087 -0.954545 203.455H1.04545ZM6.78412 177.893C10.6385 170.926 15.8254 165.657 22.3469 162.057L21.3804 160.306C14.5079 164.1 9.0585 169.65 5.03406 176.925L6.78412 177.893ZM22.3469 162.057C28.8824 158.449 36.2438 156.636 44.4545 156.636V154.636C35.9381 154.636 28.2388 156.52 21.3804 160.306L22.3469 162.057ZM44.4545 156.636C52.6344 156.636 59.9807 158.449 66.5167 162.057L67.4833 160.306C60.6253 156.521 52.9414 154.636 44.4545 154.636V156.636ZM66.5184 162.058C73.07 165.659 78.2713 170.927 82.125 177.893L83.875 176.925C79.85 169.649 74.3846 164.099 67.4816 160.305L66.5184 162.058ZM82.125 177.893C85.9638 184.833 87.9091 193.338 87.9091 203.455H89.9091C89.9091 193.086 87.915 184.228 83.875 176.925L82.125 177.893ZM66.9091 203.455C66.9091 197.305 66.0336 192.046 64.2424 187.709L62.3939 188.473C64.0573 192.5 64.9091 197.483 64.9091 203.455H66.9091ZM64.2448 187.715C62.4856 183.38 59.9156 180.04 56.5111 177.76L55.398 179.422C58.4177 181.444 60.7569 184.439 62.3916 188.467L64.2448 187.715ZM56.5147 177.763C53.1412 175.481 49.1047 174.364 44.4545 174.364V176.364C48.774 176.364 52.4043 177.397 55.3944 179.419L56.5147 177.763ZM44.4545 174.364C39.8328 174.364 35.7988 175.482 32.398 177.76L33.5111 179.422C36.5345 177.397 40.1672 176.364 44.4545 176.364V174.364ZM32.398 177.76C28.9952 180.039 26.4108 183.376 24.6212 187.709L26.4697 188.473C28.1347 184.442 30.4897 181.445 33.5111 179.422L32.398 177.76ZM24.6188 187.715C22.8599 192.049 22 197.307 22 203.455H24C24 197.481 24.8371 192.496 26.4721 188.467L24.6188 187.715ZM22 203.455C22 209.602 22.8599 214.86 24.6188 219.194L26.4721 218.442C24.8371 214.413 24 209.428 24 203.455H22ZM24.6212 219.2C26.4108 223.533 28.9952 226.87 32.398 229.149L33.5111 227.487C30.4897 225.464 28.1347 222.467 26.4697 218.436L24.6212 219.2ZM32.398 229.149C35.7988 231.427 39.8328 232.545 44.4545 232.545V230.545C40.1672 230.545 36.5345 229.512 33.5111 227.487L32.398 229.149ZM44.4545 232.545C49.1047 232.545 53.1412 231.428 56.5147 229.147L55.3944 227.49C52.4043 229.512 48.774 230.545 44.4545 230.545V232.545ZM56.5111 229.149C59.9156 226.869 62.4856 223.529 64.2448 219.194L62.3916 218.442C60.7569 222.471 58.4177 225.465 55.398 227.487L56.5111 229.149ZM64.2424 219.2C66.0336 214.864 66.9091 209.604 66.9091 203.455H64.9091C64.9091 209.426 64.0573 214.409 62.3939 218.436L64.2424 219.2ZM102.045 250H101.045V251H102.045V250ZM102.045 156.909V155.909H101.045V156.909H102.045ZM158.545 160.682L158.1 161.577L158.107 161.58L158.545 160.682ZM170.318 171.409L169.457 171.918L169.459 171.92L170.318 171.409ZM170.227 204.364L171.074 204.896L171.076 204.893L170.227 204.364ZM158.227 214.636L158.638 215.548L158.642 215.546L158.227 214.636ZM115.5 218.136H114.5V219.136H115.5V218.136ZM115.5 200.409V199.409H114.5V200.409H115.5ZM144.136 199.091L144.497 200.024L144.504 200.021L144.136 199.091ZM149.364 195L150.202 195.545L150.206 195.539L149.364 195ZM149.364 180.773L148.513 181.299L148.517 181.305L149.364 180.773ZM144.136 176.5L143.748 177.422L143.759 177.426L144.136 176.5ZM124.545 175.045V174.045H123.545V175.045H124.545ZM124.545 250V251H125.545V250H124.545ZM154.455 207.455L155.333 206.976L155.048 206.455H154.455V207.455ZM177.636 250V251H179.32L178.514 249.522L177.636 250ZM153.091 250L152.209 250.471L152.491 251H153.091V250ZM130.364 207.455V206.455H128.696L129.482 207.926L130.364 207.455ZM103.045 250V156.909H101.045V250H103.045ZM102.045 157.909H140.5V155.909H102.045V157.909ZM140.5 157.909C147.351 157.909 153.207 159.145 158.1 161.577L158.991 159.786C153.763 157.188 147.589 155.909 140.5 155.909V157.909ZM158.107 161.58C163.03 163.984 166.804 167.427 169.457 171.918L171.179 170.9C168.317 166.057 164.243 162.35 158.984 159.783L158.107 161.58ZM169.459 171.92C172.109 176.376 173.455 181.693 173.455 187.909H175.455C175.455 181.398 174.043 175.715 171.178 170.898L169.459 171.92ZM173.455 187.909C173.455 194.216 172.079 199.509 169.379 203.834L171.076 204.893C174.012 200.188 175.455 194.511 175.455 187.909H173.455ZM169.381 203.832C166.674 208.138 162.83 211.438 157.812 213.727L158.642 215.546C163.988 213.108 168.144 209.558 171.074 204.896L169.381 203.832ZM157.817 213.725C152.792 215.987 146.802 217.136 139.818 217.136V219.136C147.017 219.136 153.299 217.952 158.638 215.548L157.817 213.725ZM139.818 217.136H115.5V219.136H139.818V217.136ZM116.5 218.136V200.409H114.5V218.136H116.5ZM115.5 201.409H135.636V199.409H115.5V201.409ZM135.636 201.409C139.109 201.409 142.074 200.961 144.497 200.024L143.776 198.158C141.654 198.979 138.952 199.409 135.636 199.409V201.409ZM144.504 200.021C146.971 199.047 148.891 197.561 150.202 195.545L148.525 194.455C147.472 196.075 145.907 197.317 143.769 198.161L144.504 200.021ZM150.206 195.539C151.518 193.486 152.136 190.92 152.136 187.909H150.136C150.136 190.655 149.573 192.817 148.521 194.461L150.206 195.539ZM152.136 187.909C152.136 184.897 151.518 182.319 150.21 180.24L148.517 181.305C149.573 182.984 150.136 185.164 150.136 187.909H152.136ZM150.214 180.246C148.909 178.138 146.991 176.584 144.514 175.574L143.759 177.426C145.888 178.294 147.455 179.589 148.513 181.299L150.214 180.246ZM144.524 175.578C142.064 174.542 139.09 174.045 135.636 174.045V176.045C138.91 176.045 141.603 176.518 143.748 177.422L144.524 175.578ZM135.636 174.045H124.545V176.045H135.636V174.045ZM123.545 175.045V250H125.545V175.045H123.545ZM124.545 249H102.045V251H124.545V249ZM153.576 207.933L176.758 250.478L178.514 249.522L155.333 206.976L153.576 207.933ZM177.636 249H153.091V251H177.636V249ZM153.973 249.529L131.246 206.983L129.482 207.926L152.209 250.471L153.973 249.529ZM130.364 208.455H154.455V206.455H130.364V208.455ZM186.795 250H185.795V251H186.795V250ZM186.795 156.909V155.909H185.795V156.909H186.795ZM245.659 162.5L245.181 163.378L245.186 163.381L245.659 162.5ZM261.568 178.5L260.686 178.972L260.687 178.973L261.568 178.5ZM261.568 228.409L260.686 227.938L260.685 227.94L261.568 228.409ZM245.705 244.455L246.178 245.335L246.181 245.334L245.705 244.455ZM209.295 230.818H208.295V231.818H209.295V230.818ZM233.568 228.182L234.006 229.081L234.009 229.079L233.568 228.182ZM241.795 219.5L240.889 219.077L240.888 219.081L241.795 219.5ZM241.795 187.409L240.89 187.834L240.892 187.837L241.795 187.409ZM233.477 178.773L233.036 179.67L233.045 179.674L233.477 178.773ZM209.295 176.091V175.091H208.295V176.091H209.295ZM221.205 249H186.795V251H221.205V249ZM187.795 250V156.909H185.795V250H187.795ZM186.795 157.909H221.159V155.909H186.795V157.909ZM221.159 157.909C230.513 157.909 238.508 159.746 245.181 163.378L246.137 161.622C239.113 157.799 230.775 155.909 221.159 155.909V157.909ZM245.186 163.381C251.889 166.983 257.051 172.173 260.686 178.972L262.45 178.028C258.631 170.887 253.187 165.411 246.133 161.619L245.186 163.381ZM260.687 178.973C264.321 185.738 266.159 193.87 266.159 203.409H268.159C268.159 193.614 266.27 185.141 262.449 178.027L260.687 178.973ZM266.159 203.409C266.159 212.978 264.32 221.142 260.686 227.938L262.45 228.881C266.271 221.737 268.159 213.234 268.159 203.409H266.159ZM260.685 227.94C257.079 234.738 251.932 239.943 245.228 243.575L246.181 245.334C253.234 241.512 258.663 236.02 262.452 228.878L260.685 227.94ZM245.231 243.574C238.526 247.178 230.528 249 221.205 249V251C230.79 251 239.126 249.125 246.178 245.335L245.231 243.574ZM209.295 231.818H220.341V229.818H209.295V231.818ZM220.341 231.818C225.661 231.818 230.229 230.922 234.006 229.081L233.13 227.283C229.695 228.957 225.445 229.818 220.341 229.818V231.818ZM234.009 229.079C237.87 227.181 240.768 224.108 242.703 219.919L240.888 219.081C239.126 222.892 236.539 225.607 233.127 227.284L234.009 229.079ZM242.702 219.923C244.665 215.71 245.614 210.185 245.614 203.409H243.614C243.614 210.027 242.683 215.229 240.889 219.077L242.702 219.923ZM245.614 203.409C245.614 196.635 244.666 191.136 242.699 186.981L240.892 187.837C242.683 191.621 243.614 196.79 243.614 203.409H245.614ZM242.701 186.984C240.733 182.795 237.803 179.737 233.91 177.871L233.045 179.674C236.485 181.324 239.1 184.023 240.89 187.834L242.701 186.984ZM233.918 177.875C230.109 176.002 225.463 175.091 220.023 175.091V177.091C225.249 177.091 229.573 177.968 233.036 179.67L233.918 177.875ZM220.023 175.091H209.295V177.091H220.023V175.091ZM208.295 176.091V230.818H210.295V176.091H208.295ZM302.795 156.909H303.795V155.909H302.795V156.909ZM302.795 250V251H303.795V250H302.795ZM280.295 250H279.295V251H280.295V250ZM280.295 156.909V155.909H279.295V156.909H280.295ZM301.795 156.909V250H303.795V156.909H301.795ZM302.795 249H280.295V251H302.795V249ZM281.295 250V156.909H279.295V250H281.295ZM280.295 157.909H302.795V155.909H280.295V157.909ZM396.148 156.909H397.148V155.909H396.148V156.909ZM396.148 250V251H397.148V250H396.148ZM377.057 250L376.234 250.568L376.532 251H377.057V250ZM340.011 196.273L340.835 195.705L340.537 195.273H340.011V196.273ZM339.42 196.273V195.273H338.42V196.273H339.42ZM339.42 250V251H340.42V250H339.42ZM316.92 250H315.92V251H316.92V250ZM316.92 156.909V155.909H315.92V156.909H316.92ZM336.284 156.909L337.11 156.345L336.812 155.909H336.284V156.909ZM372.92 210.545L372.095 211.109L372.392 211.545H372.92V210.545ZM373.693 210.545V211.545H374.693V210.545H373.693ZM373.693 156.909V155.909H372.693V156.909H373.693ZM395.148 156.909V250H397.148V156.909H395.148ZM396.148 249H377.057V251H396.148V249ZM377.88 249.432L340.835 195.705L339.188 196.84L376.234 250.568L377.88 249.432ZM340.011 195.273H339.42V197.273H340.011V195.273ZM338.42 196.273V250H340.42V196.273H338.42ZM339.42 249H316.92V251H339.42V249ZM317.92 250V156.909H315.92V250H317.92ZM316.92 157.909H336.284V155.909H316.92V157.909ZM335.458 157.473L372.095 211.109L373.746 209.981L337.11 156.345L335.458 157.473ZM372.92 211.545H373.693V209.545H372.92V211.545ZM374.693 210.545V156.909H372.693V210.545H374.693ZM373.693 157.909H396.148V155.909H373.693V157.909ZM430.432 250V251H431.166L431.386 250.299L430.432 250ZM406.25 250L405.302 249.68L404.857 251H406.25V250ZM437.659 156.909V155.909H436.941L436.712 156.589L437.659 156.909ZM467.614 156.909L468.561 156.589L468.332 155.909H467.614V156.909ZM499.023 250V251H500.416L499.97 249.68L499.023 250ZM474.841 250L473.887 250.3L474.107 251H474.841V250ZM452.977 180.364L453.931 180.064L453.711 179.364H452.977V180.364ZM452.25 180.364V179.364H451.515L451.296 180.065L452.25 180.364ZM427.205 213.364V212.364H426.205V213.364H427.205ZM477.75 213.364H478.75V212.364H477.75V213.364ZM477.75 230.455V231.455H478.75V230.455H477.75ZM427.205 230.455H426.205V231.455H427.205V230.455ZM430.432 249H406.25V251H430.432V249ZM407.198 250.32L438.607 157.229L436.712 156.589L405.302 249.68L407.198 250.32ZM437.659 157.909H467.614V155.909H437.659V157.909ZM466.666 157.229L498.075 250.32L499.97 249.68L468.561 156.589L466.666 157.229ZM499.023 249H474.841V251H499.023V249ZM475.795 249.7L453.931 180.064L452.023 180.663L473.887 250.3L475.795 249.7ZM452.977 179.364H452.25V181.364H452.977V179.364ZM451.296 180.065L429.478 249.701L431.386 250.299L453.204 180.663L451.296 180.065ZM427.205 214.364H477.75V212.364H427.205V214.364ZM476.75 213.364V230.455H478.75V213.364H476.75ZM477.75 229.455H427.205V231.455H477.75V229.455ZM428.205 230.455V213.364H426.205V230.455H428.205ZM494.375 175.182H493.375V176.182H494.375V175.182ZM494.375 156.909V155.909H493.375V156.909H494.375ZM573.057 156.909H574.057V155.909H573.057V156.909ZM573.057 175.182V176.182H574.057V175.182H573.057ZM544.83 175.182V174.182H543.83V175.182H544.83ZM544.83 250V251H545.83V250H544.83ZM522.648 250H521.648V251H522.648V250ZM522.648 175.182H523.648V174.182H522.648V175.182ZM495.375 175.182V156.909H493.375V175.182H495.375ZM494.375 157.909H573.057V155.909H494.375V157.909ZM572.057 156.909V175.182H574.057V156.909H572.057ZM573.057 174.182H544.83V176.182H573.057V174.182ZM543.83 175.182V250H545.83V175.182H543.83ZM544.83 249H522.648V251H544.83V249ZM523.648 250V175.182H521.648V250H523.648ZM522.648 174.182H494.375V176.182H522.648V174.182ZM661.75 229.5L660.875 229.016L660.875 229.016L661.75 229.5ZM645.75 245.727L645.268 244.851L645.267 244.852L645.75 245.727ZM600.614 245.682L601.1 244.808L601.1 244.808L600.614 245.682ZM584.659 229.455L583.782 229.936L583.785 229.94L584.659 229.455ZM584.659 177.409L583.784 176.925L583.782 176.928L584.659 177.409ZM600.614 161.182L601.097 162.057L601.097 162.057L600.614 161.182ZM645.75 161.182L645.267 162.057L645.268 162.058L645.75 161.182ZM661.75 177.409L660.875 177.893L660.875 177.893L661.75 177.409ZM642.068 188.091L641.142 188.467L641.144 188.473L642.068 188.091ZM634.705 178.591L634.144 179.419L634.148 179.422L634.705 178.591ZM611.705 178.591L612.261 179.422L612.261 179.422L611.705 178.591ZM604.295 188.091L603.371 187.709L603.369 187.715L604.295 188.091ZM604.295 218.818L603.369 219.194L603.371 219.2L604.295 218.818ZM611.705 228.318L612.261 227.487L612.261 227.487L611.705 228.318ZM634.705 228.318L634.148 227.487L634.144 227.49L634.705 228.318ZM642.068 218.818L641.144 218.436L641.142 218.442L642.068 218.818ZM666.659 203.455C666.659 213.571 664.714 222.076 660.875 229.016L662.625 229.984C666.665 222.681 668.659 213.823 668.659 203.455H666.659ZM660.875 229.016C657.021 235.982 651.82 241.25 645.268 244.851L646.232 246.604C653.135 242.81 658.6 237.26 662.625 229.984L660.875 229.016ZM645.267 244.852C638.731 248.46 631.384 250.273 623.205 250.273V252.273C631.691 252.273 639.375 250.389 646.233 246.603L645.267 244.852ZM623.205 250.273C614.995 250.273 607.635 248.445 601.1 244.808L600.127 246.556C606.986 250.373 614.687 252.273 623.205 252.273V250.273ZM601.1 244.808C594.576 241.177 589.388 235.907 585.533 228.969L583.785 229.94C587.809 237.184 593.258 242.732 600.127 246.556L601.1 244.808ZM585.536 228.973C581.726 222.033 579.795 213.541 579.795 203.455H577.795C577.795 213.792 579.774 222.634 583.782 229.936L585.536 228.973ZM579.795 203.455C579.795 193.337 581.726 184.83 585.536 177.89L583.782 176.928C579.774 184.23 577.795 193.087 577.795 203.455H579.795ZM585.534 177.893C589.388 170.926 594.575 165.657 601.097 162.057L600.13 160.306C593.258 164.1 587.809 169.65 583.784 176.925L585.534 177.893ZM601.097 162.057C607.632 158.449 614.994 156.636 623.205 156.636V154.636C614.688 154.636 606.989 156.52 600.13 160.306L601.097 162.057ZM623.205 156.636C631.384 156.636 638.731 158.449 645.267 162.057L646.233 160.306C639.375 156.521 631.691 154.636 623.205 154.636V156.636ZM645.268 162.058C651.82 165.659 657.021 170.927 660.875 177.893L662.625 176.925C658.6 169.649 653.135 164.099 646.232 160.305L645.268 162.058ZM660.875 177.893C664.714 184.833 666.659 193.338 666.659 203.455H668.659C668.659 193.086 666.665 184.228 662.625 176.925L660.875 177.893ZM645.659 203.455C645.659 197.305 644.784 192.046 642.992 187.709L641.144 188.473C642.807 192.5 643.659 197.483 643.659 203.455H645.659ZM642.995 187.715C641.236 183.38 638.666 180.04 635.261 177.76L634.148 179.422C637.168 181.444 639.507 184.439 641.142 188.467L642.995 187.715ZM635.265 177.763C631.891 175.481 627.855 174.364 623.205 174.364V176.364C627.524 176.364 631.154 177.397 634.144 179.419L635.265 177.763ZM623.205 174.364C618.583 174.364 614.549 175.482 611.148 177.76L612.261 179.422C615.285 177.397 618.917 176.364 623.205 176.364V174.364ZM611.148 177.76C607.745 180.039 605.161 183.376 603.371 187.709L605.22 188.473C606.885 184.442 609.24 181.445 612.261 179.422L611.148 177.76ZM603.369 187.715C601.61 192.049 600.75 197.307 600.75 203.455H602.75C602.75 197.481 603.587 192.496 605.222 188.467L603.369 187.715ZM600.75 203.455C600.75 209.602 601.61 214.86 603.369 219.194L605.222 218.442C603.587 214.413 602.75 209.428 602.75 203.455H600.75ZM603.371 219.2C605.161 223.533 607.745 226.87 611.148 229.149L612.261 227.487C609.24 225.464 606.885 222.467 605.22 218.436L603.371 219.2ZM611.148 229.149C614.549 231.427 618.583 232.545 623.205 232.545V230.545C618.917 230.545 615.285 229.512 612.261 227.487L611.148 229.149ZM623.205 232.545C627.855 232.545 631.891 231.428 635.265 229.147L634.144 227.49C631.154 229.512 627.524 230.545 623.205 230.545V232.545ZM635.261 229.149C638.666 226.869 641.236 223.529 642.995 219.194L641.142 218.442C639.507 222.471 637.168 225.465 634.148 227.487L635.261 229.149ZM642.992 219.2C644.784 214.864 645.659 209.604 645.659 203.455H643.659C643.659 209.426 642.807 214.409 641.144 218.436L642.992 219.2ZM680.795 250H679.795V251H680.795V250ZM680.795 156.909V155.909H679.795V156.909H680.795ZM737.295 160.682L736.85 161.577L736.857 161.58L737.295 160.682ZM749.068 171.409L748.207 171.918L748.209 171.92L749.068 171.409ZM748.977 204.364L749.824 204.896L749.826 204.893L748.977 204.364ZM736.977 214.636L737.388 215.548L737.392 215.546L736.977 214.636ZM694.25 218.136H693.25V219.136H694.25V218.136ZM694.25 200.409V199.409H693.25V200.409H694.25ZM722.886 199.091L723.247 200.024L723.254 200.021L722.886 199.091ZM728.114 195L728.952 195.545L728.956 195.539L728.114 195ZM728.114 180.773L727.263 181.299L727.267 181.305L728.114 180.773ZM722.886 176.5L722.498 177.422L722.509 177.426L722.886 176.5ZM703.295 175.045V174.045H702.295V175.045H703.295ZM703.295 250V251H704.295V250H703.295ZM733.205 207.455L734.083 206.976L733.798 206.455H733.205V207.455ZM756.386 250V251H758.07L757.264 249.522L756.386 250ZM731.841 250L730.959 250.471L731.241 251H731.841V250ZM709.114 207.455V206.455H707.446L708.232 207.926L709.114 207.455ZM681.795 250V156.909H679.795V250H681.795ZM680.795 157.909H719.25V155.909H680.795V157.909ZM719.25 157.909C726.101 157.909 731.957 159.145 736.85 161.577L737.741 159.786C732.513 157.188 726.339 155.909 719.25 155.909V157.909ZM736.857 161.58C741.78 163.984 745.554 167.427 748.207 171.918L749.929 170.9C747.067 166.057 742.993 162.35 737.734 159.783L736.857 161.58ZM748.209 171.92C750.859 176.376 752.205 181.693 752.205 187.909H754.205C754.205 181.398 752.793 175.715 749.928 170.898L748.209 171.92ZM752.205 187.909C752.205 194.216 750.829 199.509 748.129 203.834L749.826 204.893C752.762 200.188 754.205 194.511 754.205 187.909H752.205ZM748.131 203.832C745.424 208.138 741.58 211.438 736.562 213.727L737.392 215.546C742.738 213.108 746.894 209.558 749.824 204.896L748.131 203.832ZM736.567 213.725C731.542 215.987 725.552 217.136 718.568 217.136V219.136C725.767 219.136 732.049 217.952 737.388 215.548L736.567 213.725ZM718.568 217.136H694.25V219.136H718.568V217.136ZM695.25 218.136V200.409H693.25V218.136H695.25ZM694.25 201.409H714.386V199.409H694.25V201.409ZM714.386 201.409C717.859 201.409 720.824 200.961 723.247 200.024L722.526 198.158C720.404 198.979 717.702 199.409 714.386 199.409V201.409ZM723.254 200.021C725.721 199.047 727.641 197.561 728.952 195.545L727.275 194.455C726.222 196.075 724.657 197.317 722.519 198.161L723.254 200.021ZM728.956 195.539C730.268 193.486 730.886 190.92 730.886 187.909H728.886C728.886 190.655 728.323 192.817 727.271 194.461L728.956 195.539ZM730.886 187.909C730.886 184.897 730.268 182.319 728.96 180.24L727.267 181.305C728.323 182.984 728.886 185.164 728.886 187.909H730.886ZM728.964 180.246C727.659 178.138 725.741 176.584 723.264 175.574L722.509 177.426C724.638 178.294 726.205 179.589 727.263 181.299L728.964 180.246ZM723.274 175.578C720.814 174.542 717.84 174.045 714.386 174.045V176.045C717.66 176.045 720.353 176.518 722.498 177.422L723.274 175.578ZM714.386 174.045H703.295V176.045H714.386V174.045ZM702.295 175.045V250H704.295V175.045H702.295ZM703.295 249H680.795V251H703.295V249ZM732.326 207.933L755.508 250.478L757.264 249.522L734.083 206.976L732.326 207.933ZM756.386 249H731.841V251H756.386V249ZM732.723 249.529L709.996 206.983L708.232 207.926L730.959 250.471L732.723 249.529ZM709.114 208.455H733.205V206.455H709.114V208.455ZM815.864 184.818L814.868 184.909L814.95 185.818H815.864V184.818ZM811.818 177.045L811.196 177.828L811.207 177.837L811.818 177.045ZM794.409 175.364L794.045 174.432L794.045 174.432L794.409 175.364ZM790.045 178.5L790.848 179.097L790.854 179.088L790.045 178.5ZM788.545 183L789.545 183.043L789.545 183.031L789.545 183.018L788.545 183ZM789.364 186.682L788.495 187.178L788.501 187.187L788.506 187.196L789.364 186.682ZM792.091 189.5L791.522 190.322L791.534 190.33L791.546 190.338L792.091 189.5ZM796.455 191.591L796.791 190.649L796.791 190.649L796.455 191.591ZM802.182 193.182L802.403 192.207L802.391 192.204L802.182 193.182ZM810.182 195L809.96 195.975L809.97 195.977L810.182 195ZM822.364 199L821.935 199.904L821.938 199.905L822.364 199ZM831.273 204.955L830.579 205.675L830.584 205.68L831.273 204.955ZM836.773 212.909L835.849 213.292L835.849 213.292L836.773 212.909ZM838.682 223L839.682 223.005L839.682 222.992L838.682 223ZM834.227 238.136L833.407 237.564L833.407 237.564L834.227 238.136ZM821.545 247.818L821.169 246.892L821.167 246.893L821.545 247.818ZM781.318 247.682L781.692 246.754L781.692 246.754L781.318 247.682ZM762.864 219V218H761.851L761.864 219.012L762.864 219ZM784.409 219L785.407 218.94L785.35 218H784.409V219ZM786.818 226.5L786.004 227.08L786.004 227.08L786.818 226.5ZM792.682 231.045L792.299 231.969L792.303 231.971L792.682 231.045ZM809.136 231.364L808.781 230.429L808.776 230.431L809.136 231.364ZM814.091 227.955L813.307 227.334L813.307 227.334L814.091 227.955ZM815.864 222.955L816.864 222.971L816.864 222.954L816.863 222.937L815.864 222.955ZM814.227 218.455L813.459 219.095L813.467 219.104L814.227 218.455ZM809.318 215.182L808.923 216.1L808.93 216.104L808.938 216.107L809.318 215.182ZM800.955 212.591L800.727 213.565L800.728 213.565L800.955 212.591ZM791.227 210.318L791.455 209.344L791.451 209.343L791.227 210.318ZM772.182 201.364L771.515 202.109L771.517 202.111L772.182 201.364ZM765.273 184.545L766.273 184.55L766.273 184.54L765.273 184.545ZM769.909 169.409L769.098 168.825L769.098 168.825L769.909 169.409ZM782.864 159.273L783.266 160.188L783.266 160.188L782.864 159.273ZM820.5 159.318L820.08 160.226L820.086 160.229L820.5 159.318ZM832.909 169.545L833.74 168.989L833.74 168.989L832.909 169.545ZM837.409 184.818V185.818H838.42L838.409 184.808L837.409 184.818ZM816.86 184.728C816.534 181.15 815.068 178.292 812.429 176.254L811.207 177.837C813.356 179.496 814.587 181.82 814.868 184.909L816.86 184.728ZM812.44 176.263C809.835 174.192 806.202 173.227 801.682 173.227V175.227C805.949 175.227 809.074 176.142 811.196 177.828L812.44 176.263ZM801.682 173.227C798.694 173.227 796.137 173.615 794.045 174.432L794.773 176.295C796.56 175.597 798.851 175.227 801.682 175.227V173.227ZM794.045 174.432C791.974 175.241 790.345 176.388 789.237 177.912L790.854 179.088C791.685 177.945 792.965 177.001 794.773 176.295L794.045 174.432ZM789.243 177.903C788.143 179.382 787.579 181.086 787.546 182.982L789.545 183.018C789.572 181.52 790.009 180.225 790.848 179.097L789.243 177.903ZM787.546 182.957C787.479 184.512 787.783 185.931 788.495 187.178L790.232 186.186C789.732 185.311 789.491 184.276 789.545 183.043L787.546 182.957ZM788.506 187.196C789.227 188.397 790.242 189.436 791.522 190.322L792.66 188.678C791.576 187.928 790.773 187.088 790.221 186.167L788.506 187.196ZM791.546 190.338C792.837 191.178 794.365 191.907 796.118 192.533L796.791 190.649C795.15 190.063 793.769 189.398 792.636 188.662L791.546 190.338ZM796.118 192.533C797.864 193.156 799.816 193.698 801.972 194.16L802.391 192.204C800.305 191.757 798.439 191.238 796.791 190.649L796.118 192.533ZM801.96 194.157L809.96 195.975L810.403 194.025L802.403 192.207L801.96 194.157ZM809.97 195.977C814.516 196.964 818.502 198.276 821.935 199.904L822.792 198.096C819.195 196.391 815.06 195.036 810.394 194.023L809.97 195.977ZM821.938 199.905C825.402 201.533 828.277 203.46 830.579 205.675L831.966 204.234C829.481 201.843 826.416 199.8 822.789 198.095L821.938 199.905ZM830.584 205.68C832.91 207.889 834.662 210.425 835.849 213.292L837.697 212.526C836.399 209.393 834.484 206.626 831.961 204.23L830.584 205.68ZM835.849 213.292C837.035 216.157 837.652 219.391 837.682 223.008L839.682 222.992C839.651 219.155 838.995 215.661 837.697 212.526L835.849 213.292ZM837.682 222.995C837.652 228.701 836.214 233.542 833.407 237.564L835.047 238.709C838.119 234.307 839.651 229.057 839.682 223.005L837.682 222.995ZM833.407 237.564C830.595 241.594 826.534 244.71 821.169 246.892L821.922 248.745C827.587 246.441 831.981 243.103 835.047 238.709L833.407 237.564ZM821.167 246.893C815.833 249.073 809.348 250.182 801.682 250.182V252.182C809.531 252.182 816.288 251.048 821.924 248.744L821.167 246.893ZM801.682 250.182C793.991 250.182 787.336 249.03 781.692 246.754L780.944 248.609C786.876 251.001 793.796 252.182 801.682 252.182V250.182ZM781.692 246.754C776.072 244.489 771.738 241.064 768.647 236.486L766.989 237.605C770.323 242.542 774.988 246.208 780.944 248.609L781.692 246.754ZM768.647 236.486C765.57 231.928 763.953 226.117 763.864 218.988L761.864 219.012C761.956 226.428 763.642 232.647 766.989 237.605L768.647 236.486ZM762.864 220H784.409V218H762.864V220ZM783.411 219.06C783.602 222.205 784.449 224.897 786.004 227.08L787.633 225.92C786.339 224.103 785.58 221.795 785.407 218.94L783.411 219.06ZM786.004 227.08C787.547 229.247 789.658 230.874 792.299 231.969L793.065 230.122C790.736 229.156 788.938 227.753 787.633 225.92L786.004 227.08ZM792.303 231.971C794.961 233.06 798.003 233.591 801.409 233.591V231.591C798.209 231.591 795.433 231.092 793.061 230.12L792.303 231.971ZM801.409 233.591C804.524 233.591 807.229 233.171 809.496 232.297L808.776 230.431C806.801 231.192 804.355 231.591 801.409 231.591V233.591ZM809.492 232.298C811.772 231.431 813.587 230.202 814.875 228.575L813.307 227.334C812.291 228.617 810.804 229.66 808.781 230.429L809.492 232.298ZM814.875 228.575C816.165 226.946 816.83 225.066 816.864 222.971L814.864 222.938C814.837 224.6 814.32 226.054 813.307 227.334L814.875 228.575ZM816.863 222.937C816.83 220.967 816.211 219.238 814.988 217.805L813.467 219.104C814.365 220.156 814.837 221.427 814.864 222.972L816.863 222.937ZM814.995 217.814C813.795 216.373 811.999 215.202 809.698 214.257L808.938 216.107C811.062 216.98 812.539 217.99 813.459 219.095L814.995 217.814ZM809.714 214.263C807.458 213.292 804.608 212.413 801.181 211.617L800.728 213.565C804.089 214.345 806.814 215.193 808.923 216.1L809.714 214.263ZM801.182 211.617L791.455 209.344L791 211.292L800.727 213.565L801.182 211.617ZM791.451 209.343C783.501 207.52 777.322 204.595 772.846 200.616L771.517 202.111C776.314 206.375 782.832 209.419 791.004 211.293L791.451 209.343ZM772.849 200.619C768.455 196.685 766.243 191.367 766.273 184.55L764.273 184.541C764.241 191.845 766.636 197.74 771.515 202.109L772.849 200.619ZM766.273 184.54C766.243 178.977 767.733 174.142 770.721 169.994L769.098 168.825C765.843 173.343 764.241 178.599 764.273 184.551L766.273 184.54ZM770.721 169.994C773.725 165.823 777.893 162.55 783.266 160.188L782.461 158.357C776.804 160.844 772.336 164.329 769.098 168.825L770.721 169.994ZM783.266 160.188C788.634 157.828 794.782 156.636 801.727 156.636V154.636C794.552 154.636 788.123 155.869 782.461 158.357L783.266 160.188ZM801.727 156.636C808.827 156.636 814.936 157.845 820.08 160.226L820.92 158.411C815.458 155.883 809.051 154.636 801.727 154.636V156.636ZM820.086 160.229C825.269 162.584 829.253 165.879 832.078 170.101L833.74 168.989C830.686 164.424 826.398 160.9 820.914 158.408L820.086 160.229ZM832.078 170.101C834.899 174.319 836.35 179.216 836.409 184.829L838.409 184.808C838.347 178.845 836.798 173.56 833.74 168.989L832.078 170.101ZM837.409 183.818H815.864V185.818H837.409V183.818Z" fill="black"/>
</svg>
