<svg width="839" height="252" viewBox="0 0 839 252" fill="none" xmlns="http://www.w3.org/2000/svg">
<path d="M0.727273 95H-0.272727V96H0.727273V95ZM0.727273 82.1818L-0.080617 81.5925L-0.272727 81.8558V82.1818H0.727273ZM45.9545 20.1818L46.7624 20.7711L47.9218 19.1818H45.9545V20.1818ZM0.772727 20.1818H-0.227273V21.1818H0.772727V20.1818ZM0.772727 1.90909V0.909088H-0.227273V1.90909H0.772727ZM74.4091 1.90909H75.4091V0.909088H74.4091V1.90909ZM74.4091 14.7273L75.217 15.3166L75.4091 15.0533V14.7273H74.4091ZM29.1818 76.7273L28.3739 76.1379L27.2146 77.7273H29.1818V76.7273ZM74.3636 76.7273H75.3636V75.7273H74.3636V76.7273ZM74.3636 95V96H75.3636V95H74.3636ZM1.72727 95V82.1818H-0.272727V95H1.72727ZM1.53516 82.7712L46.7624 20.7711L45.1467 19.5925L-0.080617 81.5925L1.53516 82.7712ZM45.9545 19.1818H0.772727V21.1818H45.9545V19.1818ZM1.77273 20.1818V1.90909H-0.227273V20.1818H1.77273ZM0.772727 2.90909H74.4091V0.909088H0.772727V2.90909ZM73.4091 1.90909V14.7273H75.4091V1.90909H73.4091ZM73.6012 14.1379L28.3739 76.1379L29.9897 77.3166L75.217 15.3166L73.6012 14.1379ZM29.1818 77.7273H74.3636V75.7273H29.1818V77.7273ZM73.3636 76.7273V95H75.3636V76.7273H73.3636ZM74.3636 94H0.727273V96H74.3636V94ZM88.1705 95H87.1705V96H88.1705V95ZM88.1705 1.90909V0.909088H87.1705V1.90909H88.1705ZM153.08 1.90909H154.08V0.909088H153.08V1.90909ZM153.08 20.1818V21.1818H154.08V20.1818H153.08ZM110.67 20.1818V19.1818H109.67V20.1818H110.67ZM110.67 39.2727H109.67V40.2727H110.67V39.2727ZM149.761 39.2727H150.761V38.2727H149.761V39.2727ZM149.761 57.5909V58.5909H150.761V57.5909H149.761ZM110.67 57.5909V56.5909H109.67V57.5909H110.67ZM110.67 76.7273H109.67V77.7273H110.67V76.7273ZM153.08 76.7273H154.08V75.7273H153.08V76.7273ZM153.08 95V96H154.08V95H153.08ZM89.1705 95V1.90909H87.1705V95H89.1705ZM88.1705 2.90909H153.08V0.909088H88.1705V2.90909ZM152.08 1.90909V20.1818H154.08V1.90909H152.08ZM153.08 19.1818H110.67V21.1818H153.08V19.1818ZM109.67 20.1818V39.2727H111.67V20.1818H109.67ZM110.67 40.2727H149.761V38.2727H110.67V40.2727ZM148.761 39.2727V57.5909H150.761V39.2727H148.761ZM149.761 56.5909H110.67V58.5909H149.761V56.5909ZM109.67 57.5909V76.7273H111.67V57.5909H109.67ZM110.67 77.7273H153.08V75.7273H110.67V77.7273ZM152.08 76.7273V95H154.08V76.7273H152.08ZM153.08 94H88.1705V96H153.08V94ZM167.17 95H166.17V96H167.17V95ZM167.17 1.90909V0.909088H166.17V1.90909H167.17ZM223.67 6L223.196 6.88032L223.202 6.88366L223.67 6ZM235.443 17.3182L234.574 17.8126L234.575 17.8149L235.443 17.3182ZM235.352 51L234.489 50.4951L234.488 50.4968L235.352 51ZM223.398 62.1364L223.851 63.0276L223.851 63.0276L223.398 62.1364ZM181.216 66.0909H180.216V67.0909H181.216V66.0909ZM181.216 48.3636V47.3636H180.216V48.3636H181.216ZM209.261 46.5909L208.805 45.7012L208.8 45.7037L209.261 46.5909ZM214.489 41.6364L215.362 42.1231L215.365 42.1178L214.489 41.6364ZM214.489 26.6818L213.615 27.1685L213.618 27.1739L214.489 26.6818ZM209.261 21.7727L208.814 22.6672L208.814 22.6672L209.261 21.7727ZM189.67 20.0455V19.0455H188.67V20.0455H189.67ZM189.67 95V96H190.67V95H189.67ZM168.17 95V1.90909H166.17V95H168.17ZM167.17 2.90909H205.625V0.909088H167.17V2.90909ZM205.625 2.90909C212.464 2.90909 218.309 4.24663 223.196 6.8803L224.145 5.1197C218.911 2.29882 212.725 0.909088 205.625 0.909088V2.90909ZM223.202 6.88366C228.131 9.49472 231.914 13.135 234.574 17.8126L236.312 16.8238C233.458 11.8044 229.392 7.89921 224.139 5.11634L223.202 6.88366ZM234.575 17.8149C237.234 22.4602 238.58 27.8899 238.58 34.1364H240.58C240.58 27.5949 239.168 21.8125 236.311 16.8215L234.575 17.8149ZM238.58 34.1364C238.58 40.4103 237.205 45.852 234.489 50.4951L236.215 51.5049C239.136 46.5117 240.58 40.7109 240.58 34.1364H238.58ZM234.488 50.4968C231.802 55.1101 227.964 58.6914 222.944 61.2451L223.851 63.0276C229.195 60.3086 233.327 56.4656 236.216 51.5032L234.488 50.4968ZM222.944 61.2451C217.931 63.7957 211.942 65.0909 204.943 65.0909V67.0909C212.187 67.0909 218.501 65.7498 223.851 63.0276L222.944 61.2451ZM204.943 65.0909H181.216V67.0909H204.943V65.0909ZM182.216 66.0909V48.3636H180.216V66.0909H182.216ZM181.216 49.3636H200.761V47.3636H181.216V49.3636ZM200.761 49.3636C204.266 49.3636 207.269 48.7542 209.723 47.4781L208.8 45.7037C206.708 46.7913 204.045 47.3636 200.761 47.3636V49.3636ZM209.718 47.4806C212.185 46.2149 214.078 44.4284 215.362 42.1231L213.615 41.1497C212.536 43.0867 210.944 44.6033 208.805 45.7012L209.718 47.4806ZM215.365 42.1178C216.64 39.7966 217.261 37.126 217.261 34.1364H215.261C215.261 36.8437 214.701 39.1731 213.612 41.1549L215.365 42.1178ZM217.261 34.1364C217.261 31.1194 216.641 28.458 215.359 26.1898L213.618 27.1739C214.7 29.0874 215.261 31.3958 215.261 34.1364H217.261ZM215.362 26.1951C214.076 23.8873 212.18 22.114 209.709 20.8783L208.814 22.6672C210.949 23.7345 212.537 25.2339 213.615 27.1685L215.362 26.1951ZM209.709 20.8783C207.231 19.6394 204.234 19.0455 200.761 19.0455V21.0455C204.016 21.0455 206.686 21.603 208.814 22.6672L209.709 20.8783ZM200.761 19.0455H189.67V21.0455H200.761V19.0455ZM188.67 20.0455V95H190.67V20.0455H188.67ZM189.67 94H167.17V96H189.67V94ZM250.67 95H249.67V96H250.67V95ZM250.67 1.90909V0.909088H249.67V1.90909H250.67ZM273.17 1.90909H274.17V0.909088H273.17V1.90909ZM273.17 39.2727H272.17V40.2727H273.17V39.2727ZM309.852 39.2727V40.2727H310.852V39.2727H309.852ZM309.852 1.90909V0.909088H308.852V1.90909H309.852ZM332.307 1.90909H333.307V0.909088H332.307V1.90909ZM332.307 95V96H333.307V95H332.307ZM309.852 95H308.852V96H309.852V95ZM309.852 57.5909H310.852V56.5909H309.852V57.5909ZM273.17 57.5909V56.5909H272.17V57.5909H273.17ZM273.17 95V96H274.17V95H273.17ZM251.67 95V1.90909H249.67V95H251.67ZM250.67 2.90909H273.17V0.909088H250.67V2.90909ZM272.17 1.90909V39.2727H274.17V1.90909H272.17ZM273.17 40.2727H309.852V38.2727H273.17V40.2727ZM310.852 39.2727V1.90909H308.852V39.2727H310.852ZM309.852 2.90909H332.307V0.909088H309.852V2.90909ZM331.307 1.90909V95H333.307V1.90909H331.307ZM332.307 94H309.852V96H332.307V94ZM310.852 95V57.5909H308.852V95H310.852ZM309.852 56.5909H273.17V58.5909H309.852V56.5909ZM272.17 57.5909V95H274.17V57.5909H272.17ZM273.17 94H250.67V96H273.17V94ZM341.784 1.90909V0.909088H340.094L340.908 2.39041L341.784 1.90909ZM366.92 1.90909L367.813 1.45813L367.536 0.909088H366.92V1.90909ZM386.602 40.8636L385.71 41.3146L385.987 41.8636H386.602V40.8636ZM387.42 40.8636V41.8636H388.036L388.313 41.3146L387.42 40.8636ZM407.102 1.90909V0.909088H406.487L406.21 1.45813L407.102 1.90909ZM432.239 1.90909L433.115 2.39041L433.929 0.909088H432.239V1.90909ZM398.193 63.9091L397.317 63.4278L397.193 63.6526V63.9091H398.193ZM398.193 95V96H399.193V95H398.193ZM375.83 95H374.83V96H375.83V95ZM375.83 63.9091H376.83V63.6526L376.706 63.4278L375.83 63.9091ZM341.784 2.90909H366.92V0.909088H341.784V2.90909ZM366.028 2.36005L385.71 41.3146L387.495 40.4127L367.813 1.45813L366.028 2.36005ZM386.602 41.8636H387.42V39.8636H386.602V41.8636ZM388.313 41.3146L407.995 2.36005L406.21 1.45813L386.528 40.4127L388.313 41.3146ZM407.102 2.90909H432.239V0.909088H407.102V2.90909ZM431.362 1.42776L397.317 63.4278L399.07 64.3904L433.115 2.39041L431.362 1.42776ZM397.193 63.9091V95H399.193V63.9091H397.193ZM398.193 94H375.83V96H398.193V94ZM376.83 95V63.9091H374.83V95H376.83ZM376.706 63.4278L342.661 1.42776L340.908 2.39041L374.953 64.3904L376.706 63.4278ZM441.67 95H440.67V96H441.67V95ZM441.67 1.90909V0.909088H440.67V1.90909H441.67ZM498.17 5.68182L497.725 6.57734L497.732 6.58048L498.17 5.68182ZM509.943 16.4091L509.082 16.9178L509.084 16.9203L509.943 16.4091ZM509.852 49.3636L510.699 49.8957L510.701 49.8931L509.852 49.3636ZM497.852 59.6364L498.263 60.5482L498.267 60.5462L497.852 59.6364ZM455.125 63.1364H454.125V64.1364H455.125V63.1364ZM455.125 45.4091V44.4091H454.125V45.4091H455.125ZM483.761 44.0909L484.122 45.0236L484.129 45.0211L483.761 44.0909ZM488.989 40L489.827 40.545L489.831 40.5387L488.989 40ZM488.989 25.7727L488.138 26.2991L488.142 26.3052L488.989 25.7727ZM483.761 21.5L483.373 22.4217L483.384 22.4259L483.761 21.5ZM464.17 20.0455V19.0455H463.17V20.0455H464.17ZM464.17 95V96H465.17V95H464.17ZM494.08 52.4545L494.958 51.9761L494.673 51.4545H494.08V52.4545ZM517.261 95V96H518.945L518.139 94.5215L517.261 95ZM492.716 95L491.834 95.4712L492.116 96H492.716V95ZM469.989 52.4545V51.4545H468.321L469.107 52.9257L469.989 52.4545ZM442.67 95V1.90909H440.67V95H442.67ZM441.67 2.90909H480.125V0.909088H441.67V2.90909ZM480.125 2.90909C486.976 2.90909 492.832 4.14506 497.725 6.57731L498.616 4.78632C493.388 2.18827 487.214 0.909088 480.125 0.909088V2.90909ZM497.732 6.58048C502.655 8.98356 506.429 12.4275 509.082 16.9178L510.804 15.9004C507.942 11.0573 503.868 7.34977 498.609 4.78315L497.732 6.58048ZM509.084 16.9203C511.734 21.3762 513.08 26.6928 513.08 32.9091H515.08C515.08 26.3981 513.668 20.7147 510.803 15.8979L509.084 16.9203ZM513.08 32.9091C513.08 39.2164 511.704 44.5086 509.004 48.8341L510.701 49.8931C513.637 45.1883 515.08 39.5108 515.08 32.9091H513.08ZM509.006 48.8316C506.299 53.1385 502.455 56.4376 497.437 58.7265L498.267 60.5462C503.613 58.1079 507.769 54.5585 510.699 49.8957L509.006 48.8316ZM497.442 58.7245C492.417 60.9872 486.427 62.1364 479.443 62.1364V64.1364C486.642 64.1364 492.924 62.9522 498.263 60.5482L497.442 58.7245ZM479.443 62.1364H455.125V64.1364H479.443V62.1364ZM456.125 63.1364V45.4091H454.125V63.1364H456.125ZM455.125 46.4091H475.261V44.4091H455.125V46.4091ZM475.261 46.4091C478.734 46.4091 481.699 45.9606 484.122 45.0236L483.401 43.1582C481.279 43.9788 478.577 44.4091 475.261 44.4091V46.4091ZM484.129 45.0211C486.596 44.0469 488.516 42.5614 489.827 40.545L488.15 39.455C487.097 41.075 485.532 42.3167 483.394 43.1608L484.129 45.0211ZM489.831 40.5387C491.143 38.4863 491.761 35.9203 491.761 32.9091H489.761C489.761 35.6555 489.198 37.8167 488.146 39.4613L489.831 40.5387ZM491.761 32.9091C491.761 29.8969 491.143 27.3195 489.835 25.2403L488.142 26.3052C489.198 27.9836 489.761 30.1637 489.761 32.9091H491.761ZM489.839 25.2464C488.534 23.1381 486.616 21.5843 484.139 20.5741L483.384 22.4259C485.513 23.2945 487.08 24.5891 488.138 26.2991L489.839 25.2464ZM484.149 20.5784C481.689 19.5424 478.715 19.0455 475.261 19.0455V21.0455C478.535 21.0455 481.228 21.5182 483.373 22.4216L484.149 20.5784ZM475.261 19.0455H464.17V21.0455H475.261V19.0455ZM463.17 20.0455V95H465.17V20.0455H463.17ZM464.17 94H441.67V96H464.17V94ZM493.201 52.933L516.383 95.4785L518.139 94.5215L494.958 51.9761L493.201 52.933ZM517.261 94H492.716V96H517.261V94ZM493.598 94.5288L470.871 51.9834L469.107 52.9257L491.834 95.4712L493.598 94.5288ZM469.989 53.4545H494.08V51.4545H469.989V53.4545ZM638.42 35.6364V36.6364H639.523L639.416 35.539L638.42 35.6364ZM615.693 35.6364L614.702 35.7651L614.815 36.6364H615.693V35.6364ZM613.83 29.3182L612.935 29.7654L612.935 29.7654L613.83 29.3182ZM610.102 24.5L610.756 23.7428L610.756 23.7428L610.102 24.5ZM604.602 21.4545L604.274 22.399L604.282 22.4019L604.29 22.4046L604.602 21.4545ZM585.966 23.6818L585.406 22.8533L585.402 22.8558L585.966 23.6818ZM578.466 33.2727L577.544 32.8853L577.542 32.891L578.466 33.2727ZM578.511 64L577.589 64.3875L577.593 64.3955L578.511 64ZM586.011 73.4091L585.46 74.2436L585.469 74.2495L586.011 73.4091ZM604.284 75.5909L603.989 74.6354L603.985 74.6367L604.284 75.5909ZM609.693 72.8182L610.31 73.605L610.312 73.6035L609.693 72.8182ZM613.557 68.3182L612.69 67.8189L612.688 67.8237L613.557 68.3182ZM615.693 62.2727L615.699 61.2727L614.854 61.2677L614.708 62.0997L615.693 62.2727ZM638.42 62.4091L639.416 62.5042L639.52 61.4157L638.426 61.4091L638.42 62.4091ZM634.83 74.5909L633.935 74.1437L633.932 74.1491L634.83 74.5909ZM626.693 85.5455L627.381 86.2714L627.384 86.2682L626.693 85.5455ZM614.057 93.3636L613.693 92.4321L613.691 92.4328L614.057 93.3636ZM574.42 90.7273L573.931 91.5992L573.935 91.6018L574.42 90.7273ZM558.693 74.4545L559.573 73.9791L558.693 74.4545ZM558.784 22.4091L557.907 21.9279L557.907 21.9279L558.784 22.4091ZM612.693 3L612.381 3.94989L612.386 3.95165L612.693 3ZM625.33 9.81818L624.693 10.5896L624.697 10.5927L625.33 9.81818ZM638.42 34.6364H615.693V36.6364H638.42V34.6364ZM616.685 35.5076C616.369 33.0766 615.719 30.861 614.724 28.871L612.935 29.7654C613.819 31.533 614.411 33.5295 614.702 35.7651L616.685 35.5076ZM614.724 28.871C613.727 26.8775 612.404 25.1651 610.756 23.7428L609.449 25.2572C610.891 26.5016 612.053 28.0013 612.935 29.7654L614.724 28.871ZM610.756 23.7428C609.101 22.3156 607.149 21.2388 604.914 20.5045L604.29 22.4046C606.298 23.0643 608.012 24.0178 609.449 25.2572L610.756 23.7428ZM604.931 20.51C602.72 19.741 600.289 19.3636 597.648 19.3636V21.3636C600.098 21.3636 602.303 21.7136 604.274 22.399L604.931 20.51ZM597.648 19.3636C592.962 19.3636 588.867 20.514 585.406 22.8533L586.526 24.5103C589.61 22.4254 593.303 21.3636 597.648 21.3636V19.3636ZM585.402 22.8558C581.977 25.1926 579.364 28.5541 577.544 32.8853L579.388 33.6602C581.083 29.6277 583.47 26.5953 586.529 24.5079L585.402 22.8558ZM577.542 32.891C575.751 37.2253 574.875 42.4231 574.875 48.4545H576.875C576.875 42.6072 577.726 37.6838 579.39 33.6545L577.542 32.891ZM574.875 48.4545C574.875 54.7241 575.765 60.0472 577.589 64.3875L579.433 63.6125C577.742 59.5892 576.875 54.5486 576.875 48.4545H574.875ZM577.593 64.3955C579.444 68.6942 582.059 71.9973 585.46 74.2436L586.562 72.5746C583.54 70.5784 581.154 67.6088 579.43 63.6045L577.593 64.3955ZM585.469 74.2495C588.896 76.4592 592.924 77.5455 597.511 77.5455V75.5455C593.25 75.5455 589.611 74.5408 586.553 72.5687L585.469 74.2495ZM597.511 77.5455C600.081 77.5455 602.441 77.2164 604.583 76.5451L603.985 74.6367C602.066 75.2381 599.911 75.5455 597.511 75.5455V77.5455ZM604.579 76.5464C606.745 75.8775 608.66 74.8996 610.31 73.605L609.076 72.0313C607.636 73.161 605.944 74.0316 603.989 74.6354L604.579 76.5464ZM610.312 73.6035C611.99 72.2805 613.363 70.6815 614.426 68.8127L612.688 67.8237C611.751 69.47 610.548 70.871 609.074 72.0329L610.312 73.6035ZM614.423 68.8175C615.517 66.9187 616.266 64.7912 616.678 62.4458L614.708 62.0997C614.332 64.2391 613.657 66.1419 612.69 67.8189L614.423 68.8175ZM615.687 63.2727L638.414 63.4091L638.426 61.4091L615.699 61.2727L615.687 63.2727ZM637.425 62.3139C637.044 66.3031 635.884 70.2449 633.935 74.1437L635.724 75.0381C637.775 70.9369 639.009 66.7575 639.416 62.5042L637.425 62.3139ZM633.932 74.1491C632.018 78.0368 629.378 81.5947 626.002 84.8227L627.384 86.2682C630.917 82.8902 633.702 79.145 635.727 75.0327L633.932 74.1491ZM626.005 84.8195C622.655 87.9933 618.557 90.534 613.693 92.4321L614.42 94.2952C619.496 92.3145 623.822 89.6431 627.381 86.2714L626.005 84.8195ZM613.691 92.4328C608.89 94.3182 603.351 95.2727 597.057 95.2727V97.2727C603.551 97.2727 609.345 96.2879 614.422 94.2945L613.691 92.4328ZM597.057 95.2727C588.784 95.2727 581.409 93.459 574.905 89.8527L573.935 91.6018C580.766 95.3895 588.481 97.2727 597.057 97.2727V95.2727ZM574.91 89.8554C568.449 86.2267 563.337 80.945 559.573 73.9791L557.813 74.93C561.746 82.2065 567.119 87.7733 573.931 91.5992L574.91 89.8554ZM559.573 73.9791C555.821 67.0373 553.92 58.5432 553.92 48.4545H551.92C551.92 58.7901 553.868 67.6294 557.813 74.93L559.573 73.9791ZM553.92 48.4545C553.92 38.3373 555.851 29.8304 559.661 22.8903L557.907 21.9279C553.899 29.2302 551.92 38.0869 551.92 48.4545H553.92ZM559.661 22.8903C563.485 15.9232 568.642 10.6557 575.133 7.05635L574.163 5.30728C567.32 9.10186 561.901 14.6526 557.907 21.9279L559.661 22.8903ZM575.133 7.05635C581.638 3.44859 588.939 1.63636 597.057 1.63636V-0.36364C588.629 -0.36364 580.99 1.52111 574.163 5.30728L575.133 7.05635ZM597.057 1.63636C602.599 1.63636 607.705 2.41099 612.381 3.94988L613.006 2.05012C608.106 0.437488 602.787 -0.36364 597.057 -0.36364V1.63636ZM612.386 3.95165C617.062 5.46096 621.161 7.67516 624.693 10.5895L625.966 9.0468C622.226 5.96119 617.9 3.62994 613 2.04835L612.386 3.95165ZM624.697 10.5927C628.225 13.4736 631.095 17.0181 633.308 21.2372L635.079 20.3083C632.746 15.8607 629.707 12.1022 625.962 9.04364L624.697 10.5927ZM633.308 21.2372C635.512 25.441 636.89 30.2678 637.425 35.7337L639.416 35.539C638.86 29.8534 637.419 24.7711 635.079 20.3083L633.308 21.2372ZM733.25 74.5L732.375 74.0159L732.375 74.0159L733.25 74.5ZM717.25 90.7273L716.768 89.8509L716.767 89.8518L717.25 90.7273ZM672.114 90.6818L672.6 89.808L672.6 89.808L672.114 90.6818ZM656.159 74.4545L655.282 74.9358L655.285 74.9402L656.159 74.4545ZM656.159 22.4091L655.284 21.925L655.282 21.9279L656.159 22.4091ZM672.114 6.18182L672.597 7.05728L672.597 7.05728L672.114 6.18182ZM717.25 6.18182L716.767 7.05728L716.768 7.0582L717.25 6.18182ZM733.25 22.4091L732.375 22.8931L732.375 22.8931L733.25 22.4091ZM713.568 33.0909L712.642 33.4669L712.644 33.4727L713.568 33.0909ZM706.205 23.5909L705.644 24.4193L705.648 24.4217L706.205 23.5909ZM683.205 23.5909L683.761 24.4217L683.761 24.4217L683.205 23.5909ZM675.795 33.0909L674.871 32.7091L674.869 32.7149L675.795 33.0909ZM675.795 63.8182L674.869 64.1942L674.871 64.1999L675.795 63.8182ZM683.205 73.3182L683.761 72.4873L683.761 72.4873L683.205 73.3182ZM706.205 73.3182L705.648 72.4873L705.644 72.4898L706.205 73.3182ZM713.568 63.8182L712.644 63.4364L712.642 63.4422L713.568 63.8182ZM738.159 48.4545C738.159 58.5706 736.214 67.0765 732.375 74.0159L734.125 74.9841C738.165 67.6811 740.159 58.8233 740.159 48.4545H738.159ZM732.375 74.0159C728.521 80.9823 723.32 86.2505 716.768 89.8509L717.732 91.6037C724.635 87.8101 730.1 82.2602 734.125 74.9841L732.375 74.0159ZM716.767 89.8518C710.231 93.4599 702.884 95.2727 694.705 95.2727V97.2727C703.191 97.2727 710.875 95.3886 717.733 91.6027L716.767 89.8518ZM694.705 95.2727C686.495 95.2727 679.135 93.4451 672.6 89.808L671.627 91.5556C678.486 95.3731 686.187 97.2727 694.705 97.2727V95.2727ZM672.6 89.808C666.076 86.1768 660.888 80.9067 657.033 73.9689L655.285 74.9402C659.309 82.1842 664.758 87.7323 671.627 91.5556L672.6 89.808ZM657.036 73.9733C653.226 67.0328 651.295 58.5409 651.295 48.4545H649.295C649.295 58.7924 651.274 67.6338 655.282 74.9357L657.036 73.9733ZM651.295 48.4545C651.295 38.3373 653.226 29.8304 657.036 22.8903L655.282 21.9279C651.274 29.2302 649.295 38.0869 649.295 48.4545H651.295ZM657.034 22.8931C660.888 15.9257 666.075 10.6574 672.597 7.05728L671.63 5.30635C664.758 9.1002 659.309 14.6501 655.284 21.925L657.034 22.8931ZM672.597 7.05728C679.132 3.44947 686.494 1.63636 694.705 1.63636V-0.36364C686.188 -0.36364 678.489 1.52022 671.63 5.30635L672.597 7.05728ZM694.705 1.63636C702.884 1.63636 710.231 3.44918 716.767 7.05728L717.733 5.30635C710.875 1.52051 703.191 -0.36364 694.705 -0.36364V1.63636ZM716.768 7.0582C723.32 10.6586 728.521 15.9268 732.375 22.8931L734.125 21.925C730.1 14.6489 724.635 9.09896 717.732 5.30543L716.768 7.0582ZM732.375 22.8931C736.214 29.8326 738.159 38.3384 738.159 48.4545H740.159C740.159 38.0858 738.165 29.228 734.125 21.925L732.375 22.8931ZM717.159 48.4545C717.159 42.3049 716.284 37.0456 714.492 32.7091L712.644 33.4727C714.307 37.4999 715.159 42.483 715.159 48.4545H717.159ZM714.495 32.7149C712.736 28.3797 710.166 25.0405 706.761 22.7601L705.648 24.4217C708.668 26.4444 711.007 29.4385 712.642 33.4669L714.495 32.7149ZM706.765 22.7625C703.391 20.4814 699.355 19.3636 694.705 19.3636V21.3636C699.024 21.3636 702.654 22.3974 705.644 24.4193L706.765 22.7625ZM694.705 19.3636C690.083 19.3636 686.049 20.4822 682.648 22.7601L683.761 24.4217C686.785 22.3966 690.417 21.3636 694.705 21.3636V19.3636ZM682.648 22.7601C679.245 25.0393 676.661 28.3764 674.871 32.7091L676.72 33.4727C678.385 29.4418 680.74 26.4455 683.761 24.4217L682.648 22.7601ZM674.869 32.7149C673.11 37.0495 672.25 42.3067 672.25 48.4545H674.25C674.25 42.4812 675.087 37.496 676.722 33.4669L674.869 32.7149ZM672.25 48.4545C672.25 54.6024 673.11 59.8596 674.869 64.1942L676.722 63.4422C675.087 59.4131 674.25 54.4279 674.25 48.4545H672.25ZM674.871 64.1999C676.661 68.5327 679.245 71.8697 682.648 74.149L683.761 72.4873C680.74 70.4636 678.385 67.4673 676.72 63.4364L674.871 64.1999ZM682.648 74.149C686.049 76.4269 690.083 77.5455 694.705 77.5455V75.5455C690.417 75.5455 686.785 74.5125 683.761 72.4873L682.648 74.149ZM694.705 77.5455C699.355 77.5455 703.391 76.4277 706.765 74.1466L705.644 72.4898C702.654 74.5117 699.024 75.5455 694.705 75.5455V77.5455ZM706.761 74.149C710.166 71.8686 712.736 68.5294 714.495 64.1942L712.642 63.4422C711.007 67.4706 708.668 70.4647 705.648 72.4873L706.761 74.149ZM714.492 64.1999C716.284 59.8635 717.159 54.6042 717.159 48.4545H715.159C715.159 54.4261 714.307 59.4092 712.644 63.4364L714.492 64.1999ZM796.977 39.9091H797.977V38.9091H796.977V39.9091ZM796.977 57V58H797.977V57H796.977ZM753.886 57H752.886V58H753.886V57ZM753.886 39.9091V38.9091H752.886V39.9091H753.886ZM795.977 39.9091V57H797.977V39.9091H795.977ZM796.977 56H753.886V58H796.977V56ZM754.886 57V39.9091H752.886V57H754.886ZM753.886 40.9091H796.977V38.9091H753.886V40.9091ZM83 229.5L82.125 229.016L82.125 229.016L83 229.5ZM67 245.727L66.5184 244.851L66.5167 244.852L67 245.727ZM21.8636 245.682L22.35 244.808L22.35 244.808L21.8636 245.682ZM5.90909 229.455L5.03247 229.936L5.03493 229.94L5.90909 229.455ZM5.90909 177.409L5.03405 176.925L5.03248 176.928L5.90909 177.409ZM21.8636 161.182L22.3469 162.057L22.3469 162.057L21.8636 161.182ZM67 161.182L66.5167 162.057L66.5184 162.058L67 161.182ZM83 177.409L82.125 177.893L82.125 177.893L83 177.409ZM63.3182 188.091L62.3916 188.467L62.3939 188.473L63.3182 188.091ZM55.9545 178.591L55.3944 179.419L55.398 179.422L55.9545 178.591ZM32.9545 178.591L33.5111 179.422L33.5111 179.422L32.9545 178.591ZM25.5455 188.091L24.6212 187.709L24.6188 187.715L25.5455 188.091ZM25.5455 218.818L24.6188 219.194L24.6212 219.2L25.5455 218.818ZM32.9545 228.318L33.5111 227.487L33.5111 227.487L32.9545 228.318ZM55.9545 228.318L55.398 227.487L55.3944 227.49L55.9545 228.318ZM63.3182 218.818L62.3939 218.436L62.3916 218.442L63.3182 218.818ZM87.9091 203.455C87.9091 213.571 85.9638 222.076 82.125 229.016L83.875 229.984C87.915 222.681 89.9091 213.823 89.9091 203.455H87.9091ZM82.125 229.016C78.2713 235.982 73.07 241.25 66.5184 244.851L67.4816 246.604C74.3846 242.81 79.85 237.26 83.875 229.984L82.125 229.016ZM66.5167 244.852C59.9807 248.46 52.6344 250.273 44.4545 250.273V252.273C52.9414 252.273 60.6253 250.389 67.4833 246.603L66.5167 244.852ZM44.4545 250.273C36.2452 250.273 28.8849 248.445 22.35 244.808L21.3773 246.556C28.2363 250.373 35.9366 252.273 44.4545 252.273V250.273ZM22.35 244.808C15.8256 241.177 10.6376 235.907 6.78325 228.969L5.03493 229.94C9.05936 237.184 14.5077 242.732 21.3773 246.556L22.35 244.808ZM6.7857 228.973C2.9758 222.033 1.04545 213.541 1.04545 203.455H-0.954545C-0.954545 213.792 1.0242 222.634 5.03248 229.936L6.7857 228.973ZM1.04545 203.455C1.04545 193.337 2.97602 184.83 6.7857 177.89L5.03248 176.928C1.02398 184.23 -0.954545 193.087 -0.954545 203.455H1.04545ZM6.78412 177.893C10.6385 170.926 15.8254 165.657 22.3469 162.057L21.3804 160.306C14.5079 164.1 9.0585 169.65 5.03406 176.925L6.78412 177.893ZM22.3469 162.057C28.8824 158.449 36.2438 156.636 44.4545 156.636V154.636C35.9381 154.636 28.2388 156.52 21.3804 160.306L22.3469 162.057ZM44.4545 156.636C52.6344 156.636 59.9807 158.449 66.5167 162.057L67.4833 160.306C60.6253 156.521 52.9414 154.636 44.4545 154.636V156.636ZM66.5184 162.058C73.07 165.659 78.2713 170.927 82.125 177.893L83.875 176.925C79.85 169.649 74.3846 164.099 67.4816 160.305L66.5184 162.058ZM82.125 177.893C85.9638 184.833 87.9091 193.338 87.9091 203.455H89.9091C89.9091 193.086 87.915 184.228 83.875 176.925L82.125 177.893ZM66.9091 203.455C66.9091 197.305 66.0336 192.046 64.2424 187.709L62.3939 188.473C64.0573 192.5 64.9091 197.483 64.9091 203.455H66.9091ZM64.2448 187.715C62.4856 183.38 59.9156 180.04 56.5111 177.76L55.398 179.422C58.4177 181.444 60.7569 184.439 62.3916 188.467L64.2448 187.715ZM56.5147 177.763C53.1412 175.481 49.1047 174.364 44.4545 174.364V176.364C48.774 176.364 52.4043 177.397 55.3944 179.419L56.5147 177.763ZM44.4545 174.364C39.8328 174.364 35.7988 175.482 32.398 177.76L33.5111 179.422C36.5345 177.397 40.1672 176.364 44.4545 176.364V174.364ZM32.398 177.76C28.9952 180.039 26.4108 183.376 24.6212 187.709L26.4697 188.473C28.1347 184.442 30.4897 181.445 33.5111 179.422L32.398 177.76ZM24.6188 187.715C22.8599 192.049 22 197.307 22 203.455H24C24 197.481 24.8371 192.496 26.4721 188.467L24.6188 187.715ZM22 203.455C22 209.602 22.8599 214.86 24.6188 219.194L26.4721 218.442C24.8371 214.413 24 209.428 24 203.455H22ZM24.6212 219.2C26.4108 223.533 28.9952 226.87 32.398 229.149L33.5111 227.487C30.4897 225.464 28.1347 222.467 26.4697 218.436L24.6212 219.2ZM32.398 229.149C35.7988 231.427 39.8328 232.545 44.4545 232.545V230.545C40.1672 230.545 36.5345 229.512 33.5111 227.487L32.398 229.149ZM44.4545 232.545C49.1047 232.545 53.1412 231.428 56.5147 229.147L55.3944 227.49C52.4043 229.512 48.774 230.545 44.4545 230.545V232.545ZM56.5111 229.149C59.9156 226.869 62.4856 223.529 64.2448 219.194L62.3916 218.442C60.7569 222.471 58.4177 225.465 55.398 227.487L56.5111 229.149ZM64.2424 219.2C66.0336 214.864 66.9091 209.604 66.9091 203.455H64.9091C64.9091 209.426 64.0573 214.409 62.3939 218.436L64.2424 219.2ZM102.045 250H101.045V251H102.045V250ZM102.045 156.909V155.909H101.045V156.909H102.045ZM158.545 160.682L158.1 161.577L158.107 161.58L158.545 160.682ZM170.318 171.409L169.457 171.918L169.459 171.92L170.318 171.409ZM170.227 204.364L171.074 204.896L171.076 204.893L170.227 204.364ZM158.227 214.636L158.638 215.548L158.642 215.546L158.227 214.636ZM115.5 218.136H114.5V219.136H115.5V218.136ZM115.5 200.409V199.409H114.5V200.409H115.5ZM144.136 199.091L144.497 200.024L144.504 200.021L144.136 199.091ZM149.364 195L150.202 195.545L150.206 195.539L149.364 195ZM149.364 180.773L148.513 181.299L148.517 181.305L149.364 180.773ZM144.136 176.5L143.748 177.422L143.759 177.426L144.136 176.5ZM124.545 175.045V174.045H123.545V175.045H124.545ZM124.545 250V251H125.545V250H124.545ZM154.455 207.455L155.333 206.976L155.048 206.455H154.455V207.455ZM177.636 250V251H179.32L178.514 249.522L177.636 250ZM153.091 250L152.209 250.471L152.491 251H153.091V250ZM130.364 207.455V206.455H128.696L129.482 207.926L130.364 207.455ZM103.045 250V156.909H101.045V250H103.045ZM102.045 157.909H140.5V155.909H102.045V157.909ZM140.5 157.909C147.351 157.909 153.207 159.145 158.1 161.577L158.991 159.786C153.763 157.188 147.589 155.909 140.5 155.909V157.909ZM158.107 161.58C163.03 163.984 166.804 167.427 169.457 171.918L171.179 170.9C168.317 166.057 164.243 162.35 158.984 159.783L158.107 161.58ZM169.459 171.92C172.109 176.376 173.455 181.693 173.455 187.909H175.455C175.455 181.398 174.043 175.715 171.178 170.898L169.459 171.92ZM173.455 187.909C173.455 194.216 172.079 199.509 169.379 203.834L171.076 204.893C174.012 200.188 175.455 194.511 175.455 187.909H173.455ZM169.381 203.832C166.674 208.138 162.83 211.438 157.812 213.727L158.642 215.546C163.988 213.108 168.144 209.558 171.074 204.896L169.381 203.832ZM157.817 213.725C152.792 215.987 146.802 217.136 139.818 217.136V219.136C147.017 219.136 153.299 217.952 158.638 215.548L157.817 213.725ZM139.818 217.136H115.5V219.136H139.818V217.136ZM116.5 218.136V200.409H114.5V218.136H116.5ZM115.5 201.409H135.636V199.409H115.5V201.409ZM135.636 201.409C139.109 201.409 142.074 200.961 144.497 200.024L143.776 198.158C141.654 198.979 138.952 199.409 135.636 199.409V201.409ZM144.504 200.021C146.971 199.047 148.891 197.561 150.202 195.545L148.525 194.455C147.472 196.075 145.907 197.317 143.769 198.161L144.504 200.021ZM150.206 195.539C151.518 193.486 152.136 190.92 152.136 187.909H150.136C150.136 190.655 149.573 192.817 148.521 194.461L150.206 195.539ZM152.136 187.909C152.136 184.897 151.518 182.319 150.21 180.24L148.517 181.305C149.573 182.984 150.136 185.164 150.136 187.909H152.136ZM150.214 180.246C148.909 178.138 146.991 176.584 144.514 175.574L143.759 177.426C145.888 178.294 147.455 179.589 148.513 181.299L150.214 180.246ZM144.524 175.578C142.064 174.542 139.09 174.045 135.636 174.045V176.045C138.91 176.045 141.603 176.518 143.748 177.422L144.524 175.578ZM135.636 174.045H124.545V176.045H135.636V174.045ZM123.545 175.045V250H125.545V175.045H123.545ZM124.545 249H102.045V251H124.545V249ZM153.576 207.933L176.758 250.478L178.514 249.522L155.333 206.976L153.576 207.933ZM177.636 249H153.091V251H177.636V249ZM153.973 249.529L131.246 206.983L129.482 207.926L152.209 250.471L153.973 249.529ZM130.364 208.455H154.455V206.455H130.364V208.455ZM186.795 250H185.795V251H186.795V250ZM186.795 156.909V155.909H185.795V156.909H186.795ZM245.659 162.5L245.181 163.378L245.186 163.381L245.659 162.5ZM261.568 178.5L260.686 178.972L260.687 178.973L261.568 178.5ZM261.568 228.409L260.686 227.938L260.685 227.94L261.568 228.409ZM245.705 244.455L246.178 245.335L246.181 245.334L245.705 244.455ZM209.295 230.818H208.295V231.818H209.295V230.818ZM233.568 228.182L234.006 229.081L234.009 229.079L233.568 228.182ZM241.795 219.5L240.889 219.077L240.888 219.081L241.795 219.5ZM241.795 187.409L240.89 187.834L240.892 187.837L241.795 187.409ZM233.477 178.773L233.036 179.67L233.045 179.674L233.477 178.773ZM209.295 176.091V175.091H208.295V176.091H209.295ZM221.205 249H186.795V251H221.205V249ZM187.795 250V156.909H185.795V250H187.795ZM186.795 157.909H221.159V155.909H186.795V157.909ZM221.159 157.909C230.513 157.909 238.508 159.746 245.181 163.378L246.137 161.622C239.113 157.799 230.775 155.909 221.159 155.909V157.909ZM245.186 163.381C251.889 166.983 257.051 172.173 260.686 178.972L262.45 178.028C258.631 170.887 253.187 165.411 246.133 161.619L245.186 163.381ZM260.687 178.973C264.321 185.738 266.159 193.87 266.159 203.409H268.159C268.159 193.614 266.27 185.141 262.449 178.027L260.687 178.973ZM266.159 203.409C266.159 212.978 264.32 221.142 260.686 227.938L262.45 228.881C266.271 221.737 268.159 213.234 268.159 203.409H266.159ZM260.685 227.94C257.079 234.738 251.932 239.943 245.228 243.575L246.181 245.334C253.234 241.512 258.663 236.02 262.452 228.878L260.685 227.94ZM245.231 243.574C238.526 247.178 230.528 249 221.205 249V251C230.79 251 239.126 249.125 246.178 245.335L245.231 243.574ZM209.295 231.818H220.341V229.818H209.295V231.818ZM220.341 231.818C225.661 231.818 230.229 230.922 234.006 229.081L233.13 227.283C229.695 228.957 225.445 229.818 220.341 229.818V231.818ZM234.009 229.079C237.87 227.181 240.768 224.108 242.703 219.919L240.888 219.081C239.126 222.892 236.539 225.607 233.127 227.284L234.009 229.079ZM242.702 219.923C244.665 215.71 245.614 210.185 245.614 203.409H243.614C243.614 210.027 242.683 215.229 240.889 219.077L242.702 219.923ZM245.614 203.409C245.614 196.635 244.666 191.136 242.699 186.981L240.892 187.837C242.683 191.621 243.614 196.79 243.614 203.409H245.614ZM242.701 186.984C240.733 182.795 237.803 179.737 233.91 177.871L233.045 179.674C236.485 181.324 239.1 184.023 240.89 187.834L242.701 186.984ZM233.918 177.875C230.109 176.002 225.463 175.091 220.023 175.091V177.091C225.249 177.091 229.573 177.968 233.036 179.67L233.918 177.875ZM220.023 175.091H209.295V177.091H220.023V175.091ZM208.295 176.091V230.818H210.295V176.091H208.295ZM302.795 156.909H303.795V155.909H302.795V156.909ZM302.795 250V251H303.795V250H302.795ZM280.295 250H279.295V251H280.295V250ZM280.295 156.909V155.909H279.295V156.909H280.295ZM301.795 156.909V250H303.795V156.909H301.795ZM302.795 249H280.295V251H302.795V249ZM281.295 250V156.909H279.295V250H281.295ZM280.295 157.909H302.795V155.909H280.295V157.909ZM396.148 156.909H397.148V155.909H396.148V156.909ZM396.148 250V251H397.148V250H396.148ZM377.057 250L376.234 250.568L376.532 251H377.057V250ZM340.011 196.273L340.835 195.705L340.537 195.273H340.011V196.273ZM339.42 196.273V195.273H338.42V196.273H339.42ZM339.42 250V251H340.42V250H339.42ZM316.92 250H315.92V251H316.92V250ZM316.92 156.909V155.909H315.92V156.909H316.92ZM336.284 156.909L337.11 156.345L336.812 155.909H336.284V156.909ZM372.92 210.545L372.095 211.109L372.392 211.545H372.92V210.545ZM373.693 210.545V211.545H374.693V210.545H373.693ZM373.693 156.909V155.909H372.693V156.909H373.693ZM395.148 156.909V250H397.148V156.909H395.148ZM396.148 249H377.057V251H396.148V249ZM377.88 249.432L340.835 195.705L339.188 196.84L376.234 250.568L377.88 249.432ZM340.011 195.273H339.42V197.273H340.011V195.273ZM338.42 196.273V250H340.42V196.273H338.42ZM339.42 249H316.92V251H339.42V249ZM317.92 250V156.909H315.92V250H317.92ZM316.92 157.909H336.284V155.909H316.92V157.909ZM335.458 157.473L372.095 211.109L373.746 209.981L337.11 156.345L335.458 157.473ZM372.92 211.545H373.693V209.545H372.92V211.545ZM374.693 210.545V156.909H372.693V210.545H374.693ZM373.693 157.909H396.148V155.909H373.693V157.909ZM430.432 250V251H431.166L431.386 250.299L430.432 250ZM406.25 250L405.302 249.68L404.857 251H406.25V250ZM437.659 156.909V155.909H436.941L436.712 156.589L437.659 156.909ZM467.614 156.909L468.561 156.589L468.332 155.909H467.614V156.909ZM499.023 250V251H500.416L499.97 249.68L499.023 250ZM474.841 250L473.887 250.3L474.107 251H474.841V250ZM452.977 180.364L453.931 180.064L453.711 179.364H452.977V180.364ZM452.25 180.364V179.364H451.515L451.296 180.065L452.25 180.364ZM427.205 213.364V212.364H426.205V213.364H427.205ZM477.75 213.364H478.75V212.364H477.75V213.364ZM477.75 230.455V231.455H478.75V230.455H477.75ZM427.205 230.455H426.205V231.455H427.205V230.455ZM430.432 249H406.25V251H430.432V249ZM407.198 250.32L438.607 157.229L436.712 156.589L405.302 249.68L407.198 250.32ZM437.659 157.909H467.614V155.909H437.659V157.909ZM466.666 157.229L498.075 250.32L499.97 249.68L468.561 156.589L466.666 157.229ZM499.023 249H474.841V251H499.023V249ZM475.795 249.7L453.931 180.064L452.023 180.663L473.887 250.3L475.795 249.7ZM452.977 179.364H452.25V181.364H452.977V179.364ZM451.296 180.065L429.478 249.701L431.386 250.299L453.204 180.663L451.296 180.065ZM427.205 214.364H477.75V212.364H427.205V214.364ZM476.75 213.364V230.455H478.75V213.364H476.75ZM477.75 229.455H427.205V231.455H477.75V229.455ZM428.205 230.455V213.364H426.205V230.455H428.205ZM494.375 175.182H493.375V176.182H494.375V175.182ZM494.375 156.909V155.909H493.375V156.909H494.375ZM573.057 156.909H574.057V155.909H573.057V156.909ZM573.057 175.182V176.182H574.057V175.182H573.057ZM544.83 175.182V174.182H543.83V175.182H544.83ZM544.83 250V251H545.83V250H544.83ZM522.648 250H521.648V251H522.648V250ZM522.648 175.182H523.648V174.182H522.648V175.182ZM495.375 175.182V156.909H493.375V175.182H495.375ZM494.375 157.909H573.057V155.909H494.375V157.909ZM572.057 156.909V175.182H574.057V156.909H572.057ZM573.057 174.182H544.83V176.182H573.057V174.182ZM543.83 175.182V250H545.83V175.182H543.83ZM544.83 249H522.648V251H544.83V249ZM523.648 250V175.182H521.648V250H523.648ZM522.648 174.182H494.375V176.182H522.648V174.182ZM661.75 229.5L660.875 229.016L660.875 229.016L661.75 229.5ZM645.75 245.727L645.268 244.851L645.267 244.852L645.75 245.727ZM600.614 245.682L601.1 244.808L601.1 244.808L600.614 245.682ZM584.659 229.455L583.782 229.936L583.785 229.94L584.659 229.455ZM584.659 177.409L583.784 176.925L583.782 176.928L584.659 177.409ZM600.614 161.182L601.097 162.057L601.097 162.057L600.614 161.182ZM645.75 161.182L645.267 162.057L645.268 162.058L645.75 161.182ZM661.75 177.409L660.875 177.893L660.875 177.893L661.75 177.409ZM642.068 188.091L641.142 188.467L641.144 188.473L642.068 188.091ZM634.705 178.591L634.144 179.419L634.148 179.422L634.705 178.591ZM611.705 178.591L612.261 179.422L612.261 179.422L611.705 178.591ZM604.295 188.091L603.371 187.709L603.369 187.715L604.295 188.091ZM604.295 218.818L603.369 219.194L603.371 219.2L604.295 218.818ZM611.705 228.318L612.261 227.487L612.261 227.487L611.705 228.318ZM634.705 228.318L634.148 227.487L634.144 227.49L634.705 228.318ZM642.068 218.818L641.144 218.436L641.142 218.442L642.068 218.818ZM666.659 203.455C666.659 213.571 664.714 222.076 660.875 229.016L662.625 229.984C666.665 222.681 668.659 213.823 668.659 203.455H666.659ZM660.875 229.016C657.021 235.982 651.82 241.25 645.268 244.851L646.232 246.604C653.135 242.81 658.6 237.26 662.625 229.984L660.875 229.016ZM645.267 244.852C638.731 248.46 631.384 250.273 623.205 250.273V252.273C631.691 252.273 639.375 250.389 646.233 246.603L645.267 244.852ZM623.205 250.273C614.995 250.273 607.635 248.445 601.1 244.808L600.127 246.556C606.986 250.373 614.687 252.273 623.205 252.273V250.273ZM601.1 244.808C594.576 241.177 589.388 235.907 585.533 228.969L583.785 229.94C587.809 237.184 593.258 242.732 600.127 246.556L601.1 244.808ZM585.536 228.973C581.726 222.033 579.795 213.541 579.795 203.455H577.795C577.795 213.792 579.774 222.634 583.782 229.936L585.536 228.973ZM579.795 203.455C579.795 193.337 581.726 184.83 585.536 177.89L583.782 176.928C579.774 184.23 577.795 193.087 577.795 203.455H579.795ZM585.534 177.893C589.388 170.926 594.575 165.657 601.097 162.057L600.13 160.306C593.258 164.1 587.809 169.65 583.784 176.925L585.534 177.893ZM601.097 162.057C607.632 158.449 614.994 156.636 623.205 156.636V154.636C614.688 154.636 606.989 156.52 600.13 160.306L601.097 162.057ZM623.205 156.636C631.384 156.636 638.731 158.449 645.267 162.057L646.233 160.306C639.375 156.521 631.691 154.636 623.205 154.636V156.636ZM645.268 162.058C651.82 165.659 657.021 170.927 660.875 177.893L662.625 176.925C658.6 169.649 653.135 164.099 646.232 160.305L645.268 162.058ZM660.875 177.893C664.714 184.833 666.659 193.338 666.659 203.455H668.659C668.659 193.086 666.665 184.228 662.625 176.925L660.875 177.893ZM645.659 203.455C645.659 197.305 644.784 192.046 642.992 187.709L641.144 188.473C642.807 192.5 643.659 197.483 643.659 203.455H645.659ZM642.995 187.715C641.236 183.38 638.666 180.04 635.261 177.76L634.148 179.422C637.168 181.444 639.507 184.439 641.142 188.467L642.995 187.715ZM635.265 177.763C631.891 175.481 627.855 174.364 623.205 174.364V176.364C627.524 176.364 631.154 177.397 634.144 179.419L635.265 177.763ZM623.205 174.364C618.583 174.364 614.549 175.482 611.148 177.76L612.261 179.422C615.285 177.397 618.917 176.364 623.205 176.364V174.364ZM611.148 177.76C607.745 180.039 605.161 183.376 603.371 187.709L605.22 188.473C606.885 184.442 609.24 181.445 612.261 179.422L611.148 177.76ZM603.369 187.715C601.61 192.049 600.75 197.307 600.75 203.455H602.75C602.75 197.481 603.587 192.496 605.222 188.467L603.369 187.715ZM600.75 203.455C600.75 209.602 601.61 214.86 603.369 219.194L605.222 218.442C603.587 214.413 602.75 209.428 602.75 203.455H600.75ZM603.371 219.2C605.161 223.533 607.745 226.87 611.148 229.149L612.261 227.487C609.24 225.464 606.885 222.467 605.22 218.436L603.371 219.2ZM611.148 229.149C614.549 231.427 618.583 232.545 623.205 232.545V230.545C618.917 230.545 615.285 229.512 612.261 227.487L611.148 229.149ZM623.205 232.545C627.855 232.545 631.891 231.428 635.265 229.147L634.144 227.49C631.154 229.512 627.524 230.545 623.205 230.545V232.545ZM635.261 229.149C638.666 226.869 641.236 223.529 642.995 219.194L641.142 218.442C639.507 222.471 637.168 225.465 634.148 227.487L635.261 229.149ZM642.992 219.2C644.784 214.864 645.659 209.604 645.659 203.455H643.659C643.659 209.426 642.807 214.409 641.144 218.436L642.992 219.2ZM680.795 250H679.795V251H680.795V250ZM680.795 156.909V155.909H679.795V156.909H680.795ZM737.295 160.682L736.85 161.577L736.857 161.58L737.295 160.682ZM749.068 171.409L748.207 171.918L748.209 171.92L749.068 171.409ZM748.977 204.364L749.824 204.896L749.826 204.893L748.977 204.364ZM736.977 214.636L737.388 215.548L737.392 215.546L736.977 214.636ZM694.25 218.136H693.25V219.136H694.25V218.136ZM694.25 200.409V199.409H693.25V200.409H694.25ZM722.886 199.091L723.247 200.024L723.254 200.021L722.886 199.091ZM728.114 195L728.952 195.545L728.956 195.539L728.114 195ZM728.114 180.773L727.263 181.299L727.267 181.305L728.114 180.773ZM722.886 176.5L722.498 177.422L722.509 177.426L722.886 176.5ZM703.295 175.045V174.045H702.295V175.045H703.295ZM703.295 250V251H704.295V250H703.295ZM733.205 207.455L734.083 206.976L733.798 206.455H733.205V207.455ZM756.386 250V251H758.07L757.264 249.522L756.386 250ZM731.841 250L730.959 250.471L731.241 251H731.841V250ZM709.114 207.455V206.455H707.446L708.232 207.926L709.114 207.455ZM681.795 250V156.909H679.795V250H681.795ZM680.795 157.909H719.25V155.909H680.795V157.909ZM719.25 157.909C726.101 157.909 731.957 159.145 736.85 161.577L737.741 159.786C732.513 157.188 726.339 155.909 719.25 155.909V157.909ZM736.857 161.58C741.78 163.984 745.554 167.427 748.207 171.918L749.929 170.9C747.067 166.057 742.993 162.35 737.734 159.783L736.857 161.58ZM748.209 171.92C750.859 176.376 752.205 181.693 752.205 187.909H754.205C754.205 181.398 752.793 175.715 749.928 170.898L748.209 171.92ZM752.205 187.909C752.205 194.216 750.829 199.509 748.129 203.834L749.826 204.893C752.762 200.188 754.205 194.511 754.205 187.909H752.205ZM748.131 203.832C745.424 208.138 741.58 211.438 736.562 213.727L737.392 215.546C742.738 213.108 746.894 209.558 749.824 204.896L748.131 203.832ZM736.567 213.725C731.542 215.987 725.552 217.136 718.568 217.136V219.136C725.767 219.136 732.049 217.952 737.388 215.548L736.567 213.725ZM718.568 217.136H694.25V219.136H718.568V217.136ZM695.25 218.136V200.409H693.25V218.136H695.25ZM694.25 201.409H714.386V199.409H694.25V201.409ZM714.386 201.409C717.859 201.409 720.824 200.961 723.247 200.024L722.526 198.158C720.404 198.979 717.702 199.409 714.386 199.409V201.409ZM723.254 200.021C725.721 199.047 727.641 197.561 728.952 195.545L727.275 194.455C726.222 196.075 724.657 197.317 722.519 198.161L723.254 200.021ZM728.956 195.539C730.268 193.486 730.886 190.92 730.886 187.909H728.886C728.886 190.655 728.323 192.817 727.271 194.461L728.956 195.539ZM730.886 187.909C730.886 184.897 730.268 182.319 728.96 180.24L727.267 181.305C728.323 182.984 728.886 185.164 728.886 187.909H730.886ZM728.964 180.246C727.659 178.138 725.741 176.584 723.264 175.574L722.509 177.426C724.638 178.294 726.205 179.589 727.263 181.299L728.964 180.246ZM723.274 175.578C720.814 174.542 717.84 174.045 714.386 174.045V176.045C717.66 176.045 720.353 176.518 722.498 177.422L723.274 175.578ZM714.386 174.045H703.295V176.045H714.386V174.045ZM702.295 175.045V250H704.295V175.045H702.295ZM703.295 249H680.795V251H703.295V249ZM732.326 207.933L755.508 250.478L757.264 249.522L734.083 206.976L732.326 207.933ZM756.386 249H731.841V251H756.386V249ZM732.723 249.529L709.996 206.983L708.232 207.926L730.959 250.471L732.723 249.529ZM709.114 208.455H733.205V206.455H709.114V208.455ZM815.864 184.818L814.868 184.909L814.95 185.818H815.864V184.818ZM811.818 177.045L811.196 177.828L811.207 177.837L811.818 177.045ZM794.409 175.364L794.045 174.432L794.045 174.432L794.409 175.364ZM790.045 178.5L790.848 179.097L790.854 179.088L790.045 178.5ZM788.545 183L789.545 183.043L789.545 183.031L789.545 183.018L788.545 183ZM789.364 186.682L788.495 187.178L788.501 187.187L788.506 187.196L789.364 186.682ZM792.091 189.5L791.522 190.322L791.534 190.33L791.546 190.338L792.091 189.5ZM796.455 191.591L796.791 190.649L796.791 190.649L796.455 191.591ZM802.182 193.182L802.403 192.207L802.391 192.204L802.182 193.182ZM810.182 195L809.96 195.975L809.97 195.977L810.182 195ZM822.364 199L821.935 199.904L821.938 199.905L822.364 199ZM831.273 204.955L830.579 205.675L830.584 205.68L831.273 204.955ZM836.773 212.909L835.849 213.292L835.849 213.292L836.773 212.909ZM838.682 223L839.682 223.005L839.682 222.992L838.682 223ZM834.227 238.136L833.407 237.564L833.407 237.564L834.227 238.136ZM821.545 247.818L821.169 246.892L821.167 246.893L821.545 247.818ZM781.318 247.682L781.692 246.754L781.692 246.754L781.318 247.682ZM762.864 219V218H761.851L761.864 219.012L762.864 219ZM784.409 219L785.407 218.94L785.35 218H784.409V219ZM786.818 226.5L786.004 227.08L786.004 227.08L786.818 226.5ZM792.682 231.045L792.299 231.969L792.303 231.971L792.682 231.045ZM809.136 231.364L808.781 230.429L808.776 230.431L809.136 231.364ZM814.091 227.955L813.307 227.334L813.307 227.334L814.091 227.955ZM815.864 222.955L816.864 222.971L816.864 222.954L816.863 222.937L815.864 222.955ZM814.227 218.455L813.459 219.095L813.467 219.104L814.227 218.455ZM809.318 215.182L808.923 216.1L808.93 216.104L808.938 216.107L809.318 215.182ZM800.955 212.591L800.727 213.565L800.728 213.565L800.955 212.591ZM791.227 210.318L791.455 209.344L791.451 209.343L791.227 210.318ZM772.182 201.364L771.515 202.109L771.517 202.111L772.182 201.364ZM765.273 184.545L766.273 184.55L766.273 184.54L765.273 184.545ZM769.909 169.409L769.098 168.825L769.098 168.825L769.909 169.409ZM782.864 159.273L783.266 160.188L783.266 160.188L782.864 159.273ZM820.5 159.318L820.08 160.226L820.086 160.229L820.5 159.318ZM832.909 169.545L833.74 168.989L833.74 168.989L832.909 169.545ZM837.409 184.818V185.818H838.42L838.409 184.808L837.409 184.818ZM816.86 184.728C816.534 181.15 815.068 178.292 812.429 176.254L811.207 177.837C813.356 179.496 814.587 181.82 814.868 184.909L816.86 184.728ZM812.44 176.263C809.835 174.192 806.202 173.227 801.682 173.227V175.227C805.949 175.227 809.074 176.142 811.196 177.828L812.44 176.263ZM801.682 173.227C798.694 173.227 796.137 173.615 794.045 174.432L794.773 176.295C796.56 175.597 798.851 175.227 801.682 175.227V173.227ZM794.045 174.432C791.974 175.241 790.345 176.388 789.237 177.912L790.854 179.088C791.685 177.945 792.965 177.001 794.773 176.295L794.045 174.432ZM789.243 177.903C788.143 179.382 787.579 181.086 787.546 182.982L789.545 183.018C789.572 181.52 790.009 180.225 790.848 179.097L789.243 177.903ZM787.546 182.957C787.479 184.512 787.783 185.931 788.495 187.178L790.232 186.186C789.732 185.311 789.491 184.276 789.545 183.043L787.546 182.957ZM788.506 187.196C789.227 188.397 790.242 189.436 791.522 190.322L792.66 188.678C791.576 187.928 790.773 187.088 790.221 186.167L788.506 187.196ZM791.546 190.338C792.837 191.178 794.365 191.907 796.118 192.533L796.791 190.649C795.15 190.063 793.769 189.398 792.636 188.662L791.546 190.338ZM796.118 192.533C797.864 193.156 799.816 193.698 801.972 194.16L802.391 192.204C800.305 191.757 798.439 191.238 796.791 190.649L796.118 192.533ZM801.96 194.157L809.96 195.975L810.403 194.025L802.403 192.207L801.96 194.157ZM809.97 195.977C814.516 196.964 818.502 198.276 821.935 199.904L822.792 198.096C819.195 196.391 815.06 195.036 810.394 194.023L809.97 195.977ZM821.938 199.905C825.402 201.533 828.277 203.46 830.579 205.675L831.966 204.234C829.481 201.843 826.416 199.8 822.789 198.095L821.938 199.905ZM830.584 205.68C832.91 207.889 834.662 210.425 835.849 213.292L837.697 212.526C836.399 209.393 834.484 206.626 831.961 204.23L830.584 205.68ZM835.849 213.292C837.035 216.157 837.652 219.391 837.682 223.008L839.682 222.992C839.651 219.155 838.995 215.661 837.697 212.526L835.849 213.292ZM837.682 222.995C837.652 228.701 836.214 233.542 833.407 237.564L835.047 238.709C838.119 234.307 839.651 229.057 839.682 223.005L837.682 222.995ZM833.407 237.564C830.595 241.594 826.534 244.71 821.169 246.892L821.922 248.745C827.587 246.441 831.981 243.103 835.047 238.709L833.407 237.564ZM821.167 246.893C815.833 249.073 809.348 250.182 801.682 250.182V252.182C809.531 252.182 816.288 251.048 821.924 248.744L821.167 246.893ZM801.682 250.182C793.991 250.182 787.336 249.03 781.692 246.754L780.944 248.609C786.876 251.001 793.796 252.182 801.682 252.182V250.182ZM781.692 246.754C776.072 244.489 771.738 241.064 768.647 236.486L766.989 237.605C770.323 242.542 774.988 246.208 780.944 248.609L781.692 246.754ZM768.647 236.486C765.57 231.928 763.953 226.117 763.864 218.988L761.864 219.012C761.956 226.428 763.642 232.647 766.989 237.605L768.647 236.486ZM762.864 220H784.409V218H762.864V220ZM783.411 219.06C783.602 222.205 784.449 224.897 786.004 227.08L787.633 225.92C786.339 224.103 785.58 221.795 785.407 218.94L783.411 219.06ZM786.004 227.08C787.547 229.247 789.658 230.874 792.299 231.969L793.065 230.122C790.736 229.156 788.938 227.753 787.633 225.92L786.004 227.08ZM792.303 231.971C794.961 233.06 798.003 233.591 801.409 233.591V231.591C798.209 231.591 795.433 231.092 793.061 230.12L792.303 231.971ZM801.409 233.591C804.524 233.591 807.229 233.171 809.496 232.297L808.776 230.431C806.801 231.192 804.355 231.591 801.409 231.591V233.591ZM809.492 232.298C811.772 231.431 813.587 230.202 814.875 228.575L813.307 227.334C812.291 228.617 810.804 229.66 808.781 230.429L809.492 232.298ZM814.875 228.575C816.165 226.946 816.83 225.066 816.864 222.971L814.864 222.938C814.837 224.6 814.32 226.054 813.307 227.334L814.875 228.575ZM816.863 222.937C816.83 220.967 816.211 219.238 814.988 217.805L813.467 219.104C814.365 220.156 814.837 221.427 814.864 222.972L816.863 222.937ZM814.995 217.814C813.795 216.373 811.999 215.202 809.698 214.257L808.938 216.107C811.062 216.98 812.539 217.99 813.459 219.095L814.995 217.814ZM809.714 214.263C807.458 213.292 804.608 212.413 801.181 211.617L800.728 213.565C804.089 214.345 806.814 215.193 808.923 216.1L809.714 214.263ZM801.182 211.617L791.455 209.344L791 211.292L800.727 213.565L801.182 211.617ZM791.451 209.343C783.501 207.52 777.322 204.595 772.846 200.616L771.517 202.111C776.314 206.375 782.832 209.419 791.004 211.293L791.451 209.343ZM772.849 200.619C768.455 196.685 766.243 191.367 766.273 184.55L764.273 184.541C764.241 191.845 766.636 197.74 771.515 202.109L772.849 200.619ZM766.273 184.54C766.243 178.977 767.733 174.142 770.721 169.994L769.098 168.825C765.843 173.343 764.241 178.599 764.273 184.551L766.273 184.54ZM770.721 169.994C773.725 165.823 777.893 162.55 783.266 160.188L782.461 158.357C776.804 160.844 772.336 164.329 769.098 168.825L770.721 169.994ZM783.266 160.188C788.634 157.828 794.782 156.636 801.727 156.636V154.636C794.552 154.636 788.123 155.869 782.461 158.357L783.266 160.188ZM801.727 156.636C808.827 156.636 814.936 157.845 820.08 160.226L820.92 158.411C815.458 155.883 809.051 154.636 801.727 154.636V156.636ZM820.086 160.229C825.269 162.584 829.253 165.879 832.078 170.101L833.74 168.989C830.686 164.424 826.398 160.9 820.914 158.408L820.086 160.229ZM832.078 170.101C834.899 174.319 836.35 179.216 836.409 184.829L838.409 184.808C838.347 178.845 836.798 173.56 833.74 168.989L832.078 170.101ZM837.409 183.818H815.864V185.818H837.409V183.818Z" fill="black"/>
</svg>
